<?xml version="1.0" encoding="utf-8"?>
<!-- Generator: Adobe Illustrator 27.0.0, SVG Export Plug-In . SVG Version: 6.00 Build 0)  -->
<svg version="1.1" id="Layer_1" xmlns="http://www.w3.org/2000/svg" xmlns:xlink="http://www.w3.org/1999/xlink" x="0px" y="0px"
	 viewBox="0 0 232.7 270" style="enable-background:new 0 0 232.7 270;" xml:space="preserve">
<style type="text/css">
	.st0{fill:#2F2D2E;}
</style>
<path class="st0" d="M99.5,87.9h-6.5V49.8h6.5c4,0,5.9,1.9,5.9,6.1v26C105.4,86,103.5,87.9,99.5,87.9z M81.7,183.4h6.8l-0.2-0.4
	l-0.2-0.4l-0.2-0.5l-0.2-0.4l-0.2-0.4l-0.2-0.4l-0.2-0.5l-0.2-0.4l-0.2-0.4l-0.2-0.4l-0.2-0.4l-0.2-0.5l-0.2-0.4l-0.2-0.4l-0.2-0.4
	l-0.2-0.4l-0.2-0.5l-0.2-0.4l-0.2-0.4l-0.2-0.4l-0.2-0.5l-0.2-0.4l-0.2-0.4l-0.2,0.4l-0.2,0.4l-0.2,0.5l-0.2,0.4l-0.2,0.4l-0.2,0.4
	l-0.2,0.5l-0.2,0.4l-0.2,0.4l-0.2,0.4l-0.2,0.4l-0.2,0.5l-0.2,0.4l-0.2,0.4l-0.2,0.4l-0.2,0.4l-0.2,0.5l-0.2,0.4l-0.2,0.4l-0.2,0.4
	l-0.2,0.5l-0.2,0.4l-0.2,0.4H82H81.7z M232.7,21.1v186.3c0,1.7-0.1,3.3-0.2,4.9c-0.4,3.3-0.4,6.6-3.6,10.3c-0.3,0.4-3.5,2.7-3.5,2.7
	c-1.7,0.8-2.9,1.4-4.9,2.3L126.7,267c-4.9,2.2-6.9,3.1-10.4,3c-3.5,0.1-5.6-0.8-10.4-3l-93.7-39.3c-2-0.8-3.1-1.4-4.9-2.3
	c0,0-3.2-2.4-3.5-2.7c-3.1-3.7-3.2-7-3.6-10.3c-0.2-1.5-0.2-3.1-0.2-4.9V21.1C0.1,5.7,5.8,0,21.2,0h190.4
	C227,0,232.7,5.7,232.7,21.1z M128.3,139.4H144V35.9h-15.7V139.4z M121.2,176.2l-0.2-0.4l-0.2-0.4l-0.2-0.3l-0.2-0.4l-0.2-0.4
	l-0.2-0.4l-0.2-0.4l-0.2-0.3l-0.2-0.4l-0.2-0.4l-0.2-0.4l-0.2-0.4l-0.2-0.4L118,171l-0.2-0.4l-0.2-0.4l-0.2-0.4l-0.2-0.4l-0.2-0.4
	l-0.2-0.4l-0.2-0.4l-0.2-0.4l-0.2-0.4l-0.2-0.4l-0.2-0.4l-0.2-0.3l-0.2-0.4l-0.2-0.4l-0.2-0.4l-0.2-0.3l-0.2-0.4l-0.2-0.4h-0.5H113
	h-0.4h-0.5h-0.5h-0.5h-0.4h-0.5h-0.5h-0.5h-0.4h-0.5h-0.5h-0.5h-0.4h-0.5h-0.5h0.1h-0.4h-0.5h-0.5v33.2h8.7V197v-0.5v-0.5v-0.5v-0.5
	v-0.5v-0.5v-0.5v-0.5v-0.5v-0.4v-0.5v-0.5v-1.7v-0.5v-0.5v-0.5V188v-0.5v-0.5v-0.5v-0.5v-0.2v-0.5v-0.5v-0.5v-0.5v-0.5v-0.5V183
	v-0.5v-0.5v-0.4v-0.5v-0.5v-0.5v-0.5v-0.5v-0.2v-0.5v-0.5v-0.5v-0.5l7.8,12.9h0.2l0.2-0.4l0.2-0.4l0.2-0.4l0.2-0.4l0.2-0.4l0.2-0.4
	l0.2-0.4l0.2-0.4l0.2-0.4l0.2-0.4l0.2-0.4l0.2-0.4l0.2-0.4l0.2-0.4l0.2-0.4l0.2-0.4l0.2-0.4l0.2-0.4l0.2-0.4l0.2-0.4l0.2-0.4
	l0.2-0.4l0.2-0.4l0.2-0.4l0.2-0.4l0.2-0.4l0.2-0.4l0.2-0.4l0.2-0.4l0.2-0.4l0.2-0.4l0.2-0.4l0.2-0.4l0.2-0.4l0.2-0.4v19.6h8.7v-0.5
	v-0.5v-0.5v-0.5v-0.5v-0.5v-1v-0.5V192v-0.5v-0.5v-0.5v-0.5v-0.3v-0.5v-0.5v-0.5V188v-0.4v-0.5v-0.5v-0.5v-0.2v-0.5v-0.5v-0.5v-0.5
	v-0.5v-0.5V183v-0.5v-0.5v-0.5v-0.5v-0.5v-0.5v-0.5v-0.5v-0.5v-0.5V178v-0.5v-0.5v-0.5v-0.5v-0.5v-0.5v-0.5v-0.5v-0.5v-0.5v-0.3
	v-0.5v-0.4v-0.5v-0.5v-0.5v-0.5V170v-0.5v-0.2v-0.5v-0.5V168v-0.5V167v-0.5v-0.3v-0.5v-0.5v-0.5v-0.5H138h-0.5h-0.4h-0.5h-0.5h-0.5
	h-0.4h-0.8h-0.5h-0.5h-0.4h-0.5h-0.5H132h-0.4h-0.5h-0.3h-0.5h-0.3h-0.5h-0.5l-0.2,0.4l-0.2,0.4l-0.2,0.3l-0.2,0.4l-0.2,0.4
	l-0.2,0.4l-0.2,0.3l-0.2,0.4l-0.2,0.4l-0.2,0.4l-0.2,0.4l-0.2,0.4l-0.2,0.5l-0.2,0.4l-0.2,0.4l-0.2,0.4l-0.2,0.4l-0.2,0.4l-0.2,0.4
	l-0.2,0.4l-0.2,0.4l-0.2,0.4l-0.2,0.4l-0.2,0.4l-0.2,0.3l-0.2,0.4l-0.2,0.4l-0.2,0.4l-0.2,0.4l-0.2,0.1l-0.2,0.4l-0.2,0.4l-0.2,0.4
	l-0.2,0.4l-0.2-0.4L121.2,176.2z M77.3,139.4h15.7v-37.6h9c12.8,0,19.2-6.4,19.2-19.2V55.1c0-12.8-6.3-19.2-19.2-19.2H77.3V139.4z
	 M34.4,139.4h35.3V125H50.1V93.8h18.6V79.5H50.1V50.3h19.3V35.9H34.4V139.4z M64.2,177.7h-0.5h-0.5h-0.5h-0.5h-0.5h-0.5H61h-0.5
	h-0.5h-0.5h-0.5h-0.5h-0.1h-0.5h-0.5h-0.5h-0.5h-0.5h-0.5h-0.5H55h-0.5h-0.5h-0.5h-0.5h-0.5h-0.5h-0.5h-0.5h-0.5h-0.5H50v6.5h6.4
	v4.1l-0.3,0.2l-0.3,0.2l-0.4,0.2L55,189l-0.4,0.2l-0.4,0.1l-0.5,0.2l-0.5,0.1l-0.5,0.1l-0.5,0.1l-0.5,0.1l-0.5,0.1H51h-0.5l-0.5-0.1
	l-0.5-0.1l-0.5-0.1l-0.5-0.1l-0.5-0.2l-0.5-0.2l-0.4-0.2l-0.4-0.2l-0.4-0.2l-0.4-0.2l-0.3-0.2l-0.3-0.2l-0.4-0.2l-0.3-0.2l-0.2-0.3
	l-0.3-0.3l-0.2-0.3l-0.2-0.4l-0.2-0.4l-0.2-0.4l-0.2-0.4l-0.2-0.4l-0.2-0.5l-0.2-0.4l-0.2-0.4l-0.1-0.4l-0.1-0.4l-0.1-0.4l-0.1-0.5
	l-0.1-0.4l-0.1-0.5v-0.5v-0.1v-0.5l0.1-0.5l0.1-0.5l0.1-0.5l0.1-0.4l0.1-0.5l0.2-0.5l0.2-0.4l0.2-0.4l0.2-0.4l0.2-0.4l0.2-0.4
	l0.2-0.4l0.2-0.5l0.2-0.4l0.3-0.3l0.2-0.3l0.3-0.2l0.3-0.2l0.3-0.2l0.4-0.2l0.3-0.2l0.4-0.2l0.4-0.2l0.4-0.2l0.4-0.2l0.4-0.2
	l0.4-0.1l0.5-0.1l0.4-0.1l0.5-0.1H51l2.3,0.4l0.4,0.1l1.1,0.5l0.3,0.2l0.4,0.2l0.4,0.2l0.3,0.2l0.4,0.2l0.6,0.5l0.4,0.2l0.3,0.3
	l0.4,0.2l0.2-0.4l0.3-0.3l0.2-0.4l0.3-0.4l0.2-0.4l0.2-0.3l0.3-0.4l0.2-0.4l0.3-0.4l0.2-0.3l0.2-0.4l0.3-0.4l0.2-0.3l0.2-0.4
	l0.3-0.4l0.2-0.4l0.3-0.3l0.2-0.4l-0.3-0.2l-0.4-0.3l-0.3-0.2l-0.4-0.2l-0.3-0.2l-0.3-0.2l-0.4-0.2l-0.3-0.2l-0.4-0.2l-0.4-0.2
	l-0.4-0.2l-0.4-0.2l-0.4-0.2l-0.4-0.2l-0.4-0.2l-0.4-0.2l-0.3-0.2l-0.4-0.1l-0.4-0.2l-0.4-0.1l-0.4-0.1l-0.4-0.1l-0.5-0.1l-0.5-0.1
	l-0.4-0.1l-0.5-0.1l-0.5-0.1h-0.5l-0.5-0.1l-0.5-0.1H51h-0.5h-0.5h-0.5l-0.5,0.1l-0.5,0.1l-0.5,0.1l-0.5,0.1l-0.5,0.1l-0.5,0.1
	l-0.5,0.1l-0.4,0.2l-0.5,0.1l-0.4,0.2l-0.4,0.1l-0.4,0.2l-0.5,0.2l-0.3,0.2l-0.5,0.2l-0.4,0.2l-0.4,0.2l-0.4,0.2l-0.4,0.2l-0.4,0.2
	l-0.3,0.2l-0.4,0.2l-0.3,0.2l-0.4,0.2l-0.3,0.2l-0.3,0.2l-0.4,0.3l-0.3,0.2l-0.3,0.3l-0.3,0.3v0.6l-0.3,0.3l-0.2,0.3l-0.2,0.4
	l-0.2,0.4l-0.2,0.4l-0.2,0.4l-0.2,0.4l-0.2,0.4l-0.2,0.4l-0.2,0.4l-0.2,0.4l-0.2,0.4l-0.2,0.4l-0.2,0.4L35,175l-0.2,0.4l-0.2,0.5
	l-0.2,0.4l-0.1,0.5l-0.2,0.5l-0.1,0.4l-0.1,0.5l-0.1,0.5l-0.1,0.5l-0.1,0.5v0.5l-0.1,0.5v1.4l0.2,1.4l0.1,0.4l0.1,0.5l0.1,0.4
	l0.1,0.5l0.2,0.4l0.1,0.5l0.2,0.4l0.1,0.4l0.9,2.3l1.4,2.3l0.2,0.3l0.2,0.4l0.2,0.3l0.3-0.5l0.3,0.3l0.3,0.2l0.3,0.3l1.2,0.9
	l0.4,0.2l0.3,0.2l0.8,0.5l0.3,0.2l0.4,0.2l1.1,0.5l0.5,0.2l1.1,0.5l0.5,0.1l0.4,0.2l0.5,0.1l0.4,0.1l3.2,0.5h1.7l0.5-0.1l0.5-0.1
	l0.5-0.1l0.5-0.1l0.5-0.1l0.5-0.1l0.5-0.1l0.5-0.1l0.3,0.1l0.5-0.1l0.4-0.2l0.5-0.2l0.4-0.2l0.4-0.2l0.4-0.2l0.4-0.2l0.5-0.2
	l0.4-0.2l0.5-0.2l0.4-0.2l0.4-0.2l0.4-0.2l0.4-0.2l0.4-0.2l0.3-0.2l0.4-0.2l0.3-0.2l0.3-0.2l0.4-0.2l0.3-0.2l0.4-0.2l0.3-0.2v-0.5
	v-0.5v-0.5v-0.4v-0.5v-0.3v-0.5v-0.5v-0.5v-0.4v-0.5v-0.5V186v-0.5v-0.2v-0.5v-0.4V184v-0.5v-0.5v-0.5v-0.5v-0.5v-0.2V181v-0.5v-0.5
	v-0.5v-0.5v-0.4v-0.5v-0.5L64.2,177.7L64.2,177.7z M71.2,195.9h4.9l0.2-0.4l0.2-0.4l0.2-0.4l0.2-0.5l0.2-0.4l0.2-0.4l0.2-0.4
	l0.2-0.4l0.2-0.4l0.2-0.4l0.2-0.4l0.2-0.5l0.2-0.4l0.2-0.4l0.2-0.4h13l0.5,1.1l0.2,0.5l1.1,2.7l0.2,0.5l0.5,1.1h9.3l-0.2-0.4
	l-0.2-0.4l-0.2-0.4l-0.2-0.5l-0.2-0.4l-0.2-0.4l-0.2-0.4l-0.2-0.4l-0.2-0.4l-0.2-0.5l-0.2-0.4l-0.2-0.4l-0.2-0.4l-0.2-0.4l-0.2-0.4
	l-0.2-0.5l-0.2-0.4l-0.2-0.4l-0.2-0.4l-0.2-0.4l-0.2-0.4l-0.2-0.5l-0.2-0.4l-0.2-0.4l-0.2-0.4l-0.2-0.4l-0.2-0.4l-0.2-0.5l-0.2-0.4
	l-0.2-0.4l-0.2-0.4l-0.2-0.4l-0.2-0.4l-0.2-0.5l-0.2-0.4l-0.2-0.4l-0.2-0.4l-0.2-0.4l-0.2-0.4l-0.2-0.5l-0.2-0.4l-0.2-0.4l-0.2-0.4
	l-0.2-0.4l-0.2-0.4l-0.2-0.4l-0.2-0.5l-0.2-0.4l-0.2-0.4l-0.2-0.4l-0.2-0.4l-0.2-0.4l-0.2-0.5l-0.2-0.4l-0.2-0.4l-0.2-0.4l-0.2-0.4
	l-0.2-0.4l-0.2-0.5l-0.2-0.4l-0.2-0.4l-0.2-0.4l-0.2-0.4l-0.2-0.4l-0.2-0.5l-0.2-0.4l-0.2-0.4l-0.2-0.4l-0.2-0.4l-0.2-0.4l-0.2-0.5
	l-0.2-0.4l-0.2-0.4l-0.2-0.4l-0.2-0.4l-0.2-0.4l-2.4-0.5l-0.2-0.4l-0.2-0.4l-0.2-0.4h-0.5h-0.4h-0.5h-0.5h-0.5H86h-0.5h-0.5h-0.5
	h-0.4h-0.5h-0.5h-0.5h-0.4H82h-0.5h-0.2h-0.4h-0.5l-0.2,0.4l-0.2,0.4l-0.2,0.4L80,166l-0.2,0.4l-0.2,0.4l-0.2,0.4l-0.2,0.4l-0.2,0.4
	l-0.2,0.5l-0.2,0.4l-0.2,0.4l-0.2,0.4l-0.2,0.4l-0.2,0.4l-0.2,0.5l-0.2,0.4l-0.2,0.4l-0.2,0.4l-0.2,0.4l-0.2,0.4l-0.2,0.5l-0.2,0.4
	l-0.2,0.4l-0.2,0.4l-0.2,0.4l-0.2,0.4l-0.2,0.5l-0.2,0.4l-0.2,0.4l-0.2,0.4l-0.2,0.4l-0.2,0.4l-0.2,0.5l-0.2,0.4l-0.2,0.4l-0.2,0.4
	l-0.2,0.4l-0.2,0.4l-0.2,0.4l-0.2,0.5l-0.2,0.4l-0.2,0.4l-0.2,0.4l-0.2,0.4l-0.2,0.4l-0.2,0.5l-0.2,0.4l-0.2,0.4L73,184l-0.2,0.4
	l-0.2,0.4l-0.2,0.5l-0.2,0.4l-0.2,0.4l-0.2,0.4l-0.2,0.4l-0.2,0.4l-0.2,0.5l-0.2,0.4l-0.2,0.4l-0.2,0.4l-0.2,0.4l-0.2,0.4l-0.2,0.5
	l-0.2,0.4l-0.2,0.4l-0.2,0.4l-0.2,0.4l-0.2,0.4l-0.2,0.5l-0.2,0.4l-0.2,0.4l-0.2,0.4l-0.2,0.4l-0.2,0.4l-0.2,0.5l-0.2,0.4l-0.2,0.4
	l-0.2,0.4h-0.7L71.2,195.9L71.2,195.9z M161.6,233H71.5l44.1,15.2L161.6,233z M169.3,188.8h-0.5h-0.5h-0.5h-0.5H167h-0.5h-0.5h-0.2
	h-0.5h-0.5h-0.5H164h-0.5h-0.5h-0.3h-0.5h-0.5h-0.5H161h-0.5h-0.5h-0.5h-0.5h-0.5h-0.5h-0.5h-0.5h-0.5h-0.5h-0.5h-0.5H155h-0.5h-0.5
	h-0.5h-0.5h-0.5h0.2h-0.5v-0.5v-0.5v-0.5V187v-0.5v-0.5v-0.5v-0.5v-0.5v-0.5v-0.5v-0.5h15.8V183v-0.4v-0.5v-0.5v-0.4v-0.5v-0.5V180
	v-0.4v-0.5v-0.5v-0.2V178v-0.5v-0.4v-0.5h-0.5h-0.5h-0.5h-0.5H166h-0.5h-0.5h-0.5h-1.1h-0.5h-0.5h-0.5h-0.5h-0.5h-0.5h-0.5h-0.5
	h-0.5H159h-0.5h-0.5h-0.5h-0.5h-0.5h-0.5h-0.4h-0.5H155h-0.5H154h-0.5h-0.5h-0.2h-0.5v-0.5v-0.5v-0.5v-0.5v-0.2v-0.5v-0.4v-0.5v-0.5
	v-0.5V172v-0.5H170v-0.5v-0.2v-0.5v-0.5v-0.5v-0.4v-0.5v-0.5v-0.4v-0.5v-0.5v-0.4v-0.2v-0.5v-0.5V165v-0.5h-0.5h-0.5h-0.5h-0.5h-0.5
	h-0.5h-0.5h-0.5h-0.5h-0.5h-1.1h-0.5h-0.5h-0.5h-0.4h-0.5h-0.5h-0.5h-0.5h-0.2h-0.5h-0.5h-0.5h-0.5h-0.5h-0.5h-0.5h-0.5h-0.5h-0.5
	h-0.5H155h-0.5h-0.5h-0.5h-0.5h-0.5h-0.5h-0.5h-0.5h-0.5h-0.5h-0.4h-0.2h-0.5h-0.5h-0.5H148h-0.5h-0.5h-0.5h-0.5h-0.5h-0.5h-0.5
	h-0.5h-0.5v33.2h26.5v-0.5v-0.4v-0.5v-0.5v-0.5v-0.4v-0.5v-0.5v-2.1v-0.5v-0.5v-0.4v-0.5v-0.5v-0.5v-0.4v-0.3L169.3,188.8z
	 M171.5,140.3h7.8c12.8,0,19.2-6.4,19.2-19.2V96.9H183v23.3c0,4.1-1.9,6.1-5.9,6.1h-3c-4.1,0-6-1.9-6-6.1V55c0-4.1,1.9-6.1,6-6.1
	h2.7c4,0,5.9,1.9,5.9,6.1v20.2h15.4V54.1c0-12.8-6.2-19.1-19-19.1h-7.7c-12.8,0-19.2,6.4-19.2,19.2V121
	C152.3,133.9,158.6,140.3,171.5,140.3z M198.8,185.8l-0.1-0.5l-0.1-0.5l-0.1-0.5l-0.1-0.5l-0.1-0.4l-0.2-0.4l-0.2-0.4l-0.2-0.4
	l-0.2-0.4l-0.2-0.4l-0.2-0.4l-0.2-0.4l-0.3-0.3l-0.3-0.4l-0.4-0.3l-0.3-0.3l-0.3-0.2l-0.4-0.2l-0.3-0.2l-0.4-0.2l-0.4-0.2l-0.5-0.2
	l-0.5-0.2l-0.5-0.2l-0.5-0.2l-0.4-0.2l-0.4-0.2l-0.5-0.2l-0.4-0.2l-0.5-0.2l-0.5-0.2l-0.5-0.1l-0.5-0.2l-0.5-0.2l-0.5-0.1l-0.5-0.2
	L187,176l-0.5-0.2l-0.5-0.1l-0.4-0.2l-0.4-0.1l-0.3-0.2l-0.3-0.1l-0.5-0.2l-0.5-0.2l-0.5-0.2l-0.3-0.2l-0.4-0.2l-0.3-0.3l-0.2-0.2
	l-0.2-0.5l-0.1-0.5v-0.1l0.1-0.5l0.2-0.4l0.2-0.4l0.4-0.4l0.3-0.2l0.3-0.2l0.4-0.1l0.5-0.1l0.5-0.1h1l0.4,0.1l2.3,0.4l1.4,0.5
	l0.8,0.3l0.3,0.2l0.4,0.2l0.3,0.2l0.4,0.2l0.4,0.2l0.4,0.2l0.4,0.2l0.3,0.2l0.8,0.5l0.2-0.4l0.2-0.4l0.2-0.4l0.2-0.4l0.2-0.4
	l0.2-0.4l0.2-0.4l0.2-0.4l0.2-0.4l0.2-0.4l0.2-0.4l0.2-0.4l0.2-0.4l0.2-0.4l0.2-0.4l0.2-0.4l0.2-0.4l-0.3-0.2l-0.3-0.2l-0.4-0.2
	l-0.3-0.2l-0.4-0.2l-0.3-0.2l-0.4-0.2l-0.4-0.2l-0.3-0.2l-0.4-0.2l-0.5-0.2l-0.4-0.2l-0.4-0.2l-0.4-0.2l-0.5-0.2l-0.4-0.1l-0.4-0.2
	l-0.5-0.2l-0.4-0.1l-0.5-0.1l-0.5-0.1l-0.4-0.1l-0.5-0.1l-0.5-0.1l-0.5-0.1l-0.5-0.1h-0.5l-0.5-0.1l-0.5-0.1h-0.5h-0.5h-0.5h-0.5
	l-0.5,0.1l-0.5,0.1l-0.5,0.1l-0.5,0.1l-0.4,0.1l-0.5,0.1l-0.4,0.1l-0.4,0.1l-0.3,0.1l-0.4,0.2l-0.5,0.2l-0.5,0.2l-0.4,0.2l-0.4,0.2
	l-0.4,0.2l-0.4,0.2l-0.3,0.2l-0.3,0.2l-0.4,0.2l-0.3,0.2l-0.4,0.3l-0.3,0.4l-0.3,0.3l-0.3,0.4l-0.2,0.4l-0.2,0.4l-0.2,0.4l-0.2,0.4
	l-0.2,0.4l-0.2,0.4l-0.2,0.4l-0.1,0.4l-0.2,0.4l-0.1,0.4l-0.1,0.4l-0.1,0.5l-0.1,0.4l-0.1,0.5v1l0.2,1.4l0.1,0.4l0.1,0.5l0.5,1.1
	l0.2,0.3l0.5,0.8l0.7,0.9l0.6,0.6l0.3,0.2l0.4,0.2l0.3,0.2l0.8,0.5l0.5,0.2l0.4,0.2l1.8,0.6l1.1,0.5l0.5,0.1l0.4,0.2l0.5,0.2
	l0.5,0.1l0.5,0.2l0.5,0.1l0.5,0.2l0.5,0.1l0.5,0.2l0.5,0.1l0.5,0.2l0.4,0.1l0.4,0.2l0.6,0.2l0.5,0.2l0.5,0.2l0.4,0.2l0.3,0.2
	l0.4,0.2l0.3,0.2l0.2,0.3l0.2,0.5l0.1,0.5v0.1l-0.1,0.5l-0.2,0.4l-0.2,0.4l-0.2,0.3l-0.4,0.2l-0.3,0.2l-0.4,0.2l-0.4,0.1l-0.4,0.1
	l-0.5,0.1l-0.5,0.1h-0.5h-0.5l-0.5-0.1h-0.5l-0.5-0.1l-0.5-0.1l-0.5-0.1l-0.5-0.1l-0.5-0.1l-0.4-0.2l-0.5-0.2l-0.5-0.2l-0.4-0.2
	l-0.4-0.2l-0.4-0.2l-0.4-0.2l-0.4-0.2l-0.3-0.2l-0.4-0.2l-0.3-0.2l-0.4-0.2l-0.4-0.2l-0.4-0.2l-0.4-0.2l-0.4-0.2l-0.3-0.2l-0.2,0.4
	l-0.3,0.3l-0.2,0.4l-0.3,0.4l-0.2,0.3l-0.2,0.4l-0.3,0.4l-0.2,0.3l-0.3,0.4l-0.2,0.3l-0.3,0.4l-0.2,0.4l-0.2,0.3l-0.3,0.4l-0.2,0.4
	l-0.3,0.3l-0.2,0.4l0.3,0.3l0.6,0.5l0.4,0.2l0.6,0.5l0.4,0.2l0.3,0.2l0.4,0.2l0.3,0.2l0.4,0.2l0.4,0.2l0.4,0.2l0.8,0.3l0.5,0.2
	l0.4,0.2l0.5,0.2l0.4,0.2l0.9,0.3l0.4,0.1l0.5,0.2l4.1,0.7h0.5l0.5,0.1h1.8l0.5-0.1l0.5-0.1l0.5-0.1l0.4-0.1l0.5-0.1l0.5-0.1
	l0.4-0.1l0.4-0.1l0.5-0.1l0.4-0.2l0.5-0.2l0.5-0.2l0.5-0.2l0.5-0.2l0.4-0.2l0.4-0.2l0.4-0.2l0.3-0.2l0.3-0.2l0.4-0.2l0.3-0.2
	l0.4-0.3l0.2-0.2l0.3-0.3l0.2-0.3l0.2-0.4l0.2-0.4l0.2-0.4l0.2-0.4l0.2-0.4l0.2-0.4l0.2-0.4l0.2-0.5l0.1-0.4l0.2-0.5l0.1-0.5
	l0.1-0.5l0.1-0.5l0.1-0.5v-0.5v-0.1v-0.4L198.8,185.8z"/>
</svg>
