<?xml version="1.0" encoding="UTF-8"?>
<svg xmlns="http://www.w3.org/2000/svg" viewBox="140.98,235.66,1607.44,608.68">
<title>The Last of Us Part I logo</title>
 <g>
  <path d="m151.93 241.93c.73.55.73.55 0 0z"/>
  <path d="m1113.2 243.3c.64.49.64.49 0 0z"/>
  <path d="m1738.23 273.24c.6.57.6.57 0 0z"/>
  <path d="m1723.19 291.2c.57.61.57.61 0 0z"/>
  <path d="m1573.14 440.26c.71.51.71.51 0 0z"/>
  <path d="m860.32 465.29c.57.59.57.59 0 0z"/>
  <path d="m1193.23 483.13c.52.66.52.66 0 0z"/>
  <path d="m1201.3 502.2c.44.72.44.72 0 0z"/>
  <path d="m711.31 528.19c.45.7.45.7 0 0z"/>
  <path d="m1182.24 542.28c.62.55.62.55 0 0z"/>
  <path d="m621.24 559.27c.62.51.62.51 0 0z"/>
  <path d="m1717.27 584.18c.41.69.41.69 0 0z"/>
  <path d="m1538.25 626.18c.58.58.58.58 0 0z"/>
  <path d="m1357.27 649.18c.47.66.47.66 0 0z"/>
  <path d="m1741.21 808.95c.6.58.6.58 0 0z"/>
  <path d="m1610.26 831.75c.42.22.42.22 0 0z"/>
  <path d="m1599.4 835.85c.58.69.58.69 0 0z"/>
  <path d="m1617.27 837.23c.48.66.48.66 0 0z"/>
  <path d="m1739.26 838.2c.61.62.61.62 0 0z"/>
 </g>
 <g>
  <path d="m141.61 236.46c.53-.06 1.6-.19 2.13-.26 6.36.86 12.72-.64 19.09-.2-.04 1.34-.07 2.68-.11 4.03 2.41 1.43.36 4.84 1.54 7.11.75-3.88-.45-7.66-.9-11.48 2.44.86 3.11 3.51 4.59 5.35-.7-1.76-1.64-3.4-2.65-4.98 2.64.14 5.29.04 7.94-.06.43.62.87 1.24 1.31 1.87-.02-.46-.06-1.38-.08-1.84 10.8-.02 21.59.02 32.39 0-.22.48-.67 1.44-.89 1.91.83-.76 1.42-2.37 2.86-1.87 9.36 1.03 18.71-.34 28.09-.03 10.43.01 20.87-.02 31.3-.01 0 15.81-.02 31.61.02 47.42-10.99-.02-21.97-.02-32.95 0 .17 98.78.02 197.56.07 296.34-20.44 0-40.88-.1-61.32-.04.11-33.19.12-66.38 0-99.57.45.22 1.33.64 1.77.85-.95-.73-2.01-1.51-1.69-2.89-.01-64.88-.03-129.77.03-194.66-10.65-.16-21.31-.05-31.96-.12.58-1.65 1.25-3.28 1.77-4.95 2.55-.66 3.9 1.1 3.73 3.5.22-.06.66-.16.87-.21-.06-.61-.19-1.82-.26-2.43.76-.02 2.28-.05 3.03-.07l-.71-.74c-.62.03-1.86.08-2.47.11.13-.61.41-1.81.55-2.41 1.16.23 2.33.47 3.49.72-.19-.54-.58-1.62-.77-2.16-1.27-.06-2.55-.11-3.82-.15-.07-2.06-.14-4.12-.14-6.18-1.1-.07-2.2-.14-3.3-.22.56 1.13 1.67 3.37 2.23 4.5-.95-.63-2.85-1.88-3.8-2.5.03-.41.09-1.22.12-1.63l-1.36.08c.33-6.51.27-13.09-.09-19.6.6 1.54.55 3.78 2.79 3.89-.53.57-1.6 1.73-2.13 2.31 1.33.36 2.65.77 3.95 1.24.68.02 2.04.04 2.71.06-.04 1.21-.08 2.42-.11 3.64 2.07.88 3.38 2.42 3.3 4.75 1.75 1.79 3.06 4.8 6.14 3.63-1.99-1.69-4.42-2.79-6.24-4.69l1.97-.31c-1.56-1.47-3.48-2.87-3.22-5.32 2.03-.08 3.76.86 5.4 1.93-.21-1.51-.41-3.01-.57-4.51l-.94.26c.14-2.52.16-5.04.16-7.56-.73.08-2.18.25-2.91.33-.31-.37-.93-1.12-1.24-1.5.09-.32.27-.97.36-1.3-.42-.49-1.25-1.49-1.67-1.98l1.99-.47c-.45-.92-.91-1.85-1.38-2.76-.02.67-.08 1.99-.11 2.66l-.6.23c-1.07 1.46-2.35 2.76-3.63 4.04-.26-2.11.54-3.75 2.24-4.83.05-1.32-.06-2.62-.15-3.93-.68.53-2.06 1.57-2.74 2.09-.09-.68-.27-2.04-.36-2.72-.6.02-1.79.08-2.39.11.69 1.43 1.39 2.85 2.06 4.3-.67.06-2.01.19-2.68.26.14-2.13.27-4.25.35-6.38m80.57.67c-.73 1.49-1.11 3.1-1.14 4.82-.65-.89-1.3-1.79-1.94-2.68-.48.5-1.42 1.52-1.89 2.02-.31.53-.92 1.58-1.23 2.1.68-.49 2.03-1.47 2.71-1.96.66.42 1.33.82 2.02 1.2.94-.99 1.88-1.98 2.85-2.96-.22-1.05-.67-1.9-1.38-2.54m1.54-.01c-1.42 1.45 1 3.09 2.27 1.91 1.52-1.09-1.25-2.88-2.27-1.91m-8.03 1.2c-.89 1.51-1.86 2.97-2.55 4.59.95-.77 1.83-1.61 2.69-2.47l.71.23c.57-1.01 1.12-2.02 1.64-3.05-.62.17-1.86.53-2.49.7m-63.76 3.61c.73.55.73.55 0 0m.41 3.19c-.72 2.6 3.06.35.69-.47zm64.13 4.21c1.54-1.33 3.1-2.65 4.52-4.11-1.37.02-2.48.67-3.33 1.96-.17-.84-.52-2.52-.69-3.36-.44 1.8-.41 3.67-.5 5.51m-72.72 14.4c.91-.56 1.83-1.12 2.77-1.64.03-1.2.07-2.41.11-3.61l-1.43.3.42-1.18c-.49-.39-1.47-1.17-1.96-1.56-2.14 2.27-.13 5.11.09 7.69m14.08 2.52c-.25-1.67-.41-3.37-.87-4.99-2.97.49.53 3.39.87 4.99m-12.78-1.3c-.52.81-.9 1.69-1.13 2.64.86 0 2.58.02 3.44.03.02-.58.07-1.72.09-2.29.59.09 1.79.27 2.38.36.02-.39.07-1.19.09-1.59-1.64.22-3.27.48-4.87.85m5.28 4.19c.17 1.43.3 2.86.39 4.3 1.19-.02 2.37-.04 3.56-.07.59 2.63 1.47 5.2 1.36 7.93.93-1.97 2.71-4.12 1.3-6.31-.93-1.5.68-2.93.82-4.45-1.63-.9-3.35-1.6-5.05-2.36-.79.32-1.59.64-2.38.96m.97 11.12c-1.29.8-1.33 1.51-.1 2.14 1.31-.83 1.35-1.54.1-2.14z"/>
  <path d="m275.64 236c20.33 0 40.65.01 60.98 0-.15 48.39.05 96.81-.07 145.22 6.08-.02 12.16.02 18.24-.02-.11-48.41 0-96.82-.05-145.23 20.47.1 40.95-.01 61.43.03-.02 114.59-.01 229.17-.01 343.76-20.47-.04-40.95-.03-61.42 0 .07-50.37-.1-100.73.09-151.1-6.1-.05-12.19-.02-18.29-.02.11 50.36-.04 100.72.09 151.08-20.33.05-40.66-.02-61 .05.01-114.59.01-229.18.01-343.77m93.77 6.7c1.12.49 2.74-.4 2.9-1.63-.65-1.71-3.55.27-2.9 1.63z"/>
  <path d="m425.22 236.01c35.33-.02 70.67 0 106-.01 0 15.8-.03 31.61.02 47.41-15.04-.01-30.08 0-45.12 0 .12 32.6.09 65.21.01 97.81 13.62-.01 27.23.02 40.84-.02-.09 15.82-.06 31.63-.01 47.45-13.62-.04-27.24-.03-40.86 0 .13 34.55.16 69.12-.01 103.68 15.06.08 30.12-.05 45.17.06-.1 15.79 0 31.58-.06 47.36-35.32-.07-70.65.01-105.98-.01.04-114.57.09-229.15 0-343.73z"/>
  <path d="m868.88 240.9c14.08-6.7 30.07-4.46 45.14-4.88 14.28.41 29.05-1.47 42.85 3.18 8.09 2.64 15.23 8.25 19.25 15.8 6.32 11.56 6.86 25.11 6.99 37.98-.02 20.1 0 40.2-.02 60.3-19.06.03-38.12.01-57.18.01.02-20.76-.01-41.52.02-62.28.36-4.18-1.76-8.84-6-10.13-5.4-1.93-11.67 2.3-11.72 8.07-.16 19.03-.05 38.06-.06 57.1.17 9.79 6.05 18.32 12.62 25.12 12.22 12.56 26.94 22.37 39.21 34.9 10.51 10.53 19.39 23.25 23.01 37.86 2.98 10.77 2.05 22.02 2.2 33.05-.05 20.36.09 40.71-.08 61.06-.54 13.36-2.45 27.97-11.82 38.26-8.42 9.1-21.39 11.57-33.26 11.88-14.32.09-28.65.04-42.97.03-10.76-.26-22.18-1.79-31.05-8.39-7.44-5.47-11.82-14.13-13.86-22.97-2.45-10.06-2.51-20.49-2.42-30.78-.02-21.76.02-43.51-.02-65.27 19.46.2 38.95-.12 58.44 0-.03 22.08 0 44.15-.01 66.23.2 4.32-.88 9.17 1.82 12.96 3.28 4.73 11.35 4.31 14.36-.51 1.31-1.9 1.63-4.26 1.61-6.5-.03-20 0-40-.01-59.99-.02-8.44-4.09-16.25-9.12-22.8-9.83-12.69-22.93-22.25-34.39-33.33.13-1.96.06-3.92-.03-5.86-.16.42-.48 1.26-.64 1.68.25 1.05.26 2.37-.94 2.85-10.51-9.77-20.6-20.48-26.92-33.51-4.12-8.36-6.3-17.65-6.26-26.97.03-18.34.01-36.69.01-55.03-.05-12.1-.26-24.44 3.14-36.18 2.65-9.64 8.8-18.71 18.11-22.94m-8.56 224.39c.57.59.57.59 0 0z"/>
  <path d="m1178.48 245.38c8.33-7.23 19.81-9.09 30.5-9.35 15.33-.07 30.67-.02 46.01-.02 11.03.11 22.61 1.81 31.92 8.16 7.82 5.28 12.82 13.88 15.16 22.89 3.33 11.69 2.72 23.96 2.78 35.98.02 72.32-.03 144.64-.01 216.96-.08 10.99.45 22.09-1.43 32.98-1.62 9.51-5.12 19.33-12.68 25.74-8.41 7.26-19.94 9.06-30.69 9.42-10.68.12-21.36.02-32.04.05-11.66-.06-23.64.64-34.9-3-8.96-2.74-17-8.83-21.52-17.1-2.75-4.85-4.29-10.26-5.55-15.65l1.79.65c-3.67-2.36-1.81-7.26-3.12-10.85.54.16 1.62.47 2.16.62-.11-.37-.34-1.11-.45-1.48 1.04-.8 1.85-1.77 2.44-2.93 1.24-.04 2.49-.06 3.76-.06l-.02-2.22c-.75.18-2.25.53-3 .71-.05-.44-.15-1.33-.2-1.77-.71.11-2.14.35-2.85.47-1.21-2.33-1.57-4.96-2.04-7.49.8.44 2.38 1.33 3.17 1.77-.46.54-1.36 1.62-1.81 2.16.12.41.37 1.22.49 1.63.71-.29 2.13-.86 2.84-1.15.14.82.43 2.45.57 3.26.38-2.4 2.14-3.53 4.03-4.58-.18-.46-.54-1.39-.72-1.86-.78-.9-1.52-1.77-2.26-2.67l2.12-.14c-.01-1.53-.78-2.4-2.34-2.61 1.23 4.06-3.33 3.7-5.89 3.67l-.52-1.85c1.11-.25 3.32-.75 4.43-1-.97.01-2.91.02-3.88.03-.1-.58-.31-1.73-.42-2.31 2.76 1.07 3.95.06 3.56-3.03-.86.72-2.58 2.16-3.44 2.89.2-2.4.69-4.74.98-7.12.58.13 1.74.38 2.32.51-.18.67-.34 1.35-.5 2.04.6-.12 1.81-.35 2.41-.47-.07.91-.21 2.72-.28 3.62.86-.1 1.74-.21 2.64-.31.52-.38 1.55-1.14 2.06-1.52 2.28 1.88-1.48 2.59-2.84 2.52.06.61.2 1.83.27 2.44 2.39-.96 4.9-1.53 7.48-1.71-.18.48-.53 1.44-.7 1.91-1.69.07-3.43.14-4.5 1.62-.13.86-.4 2.57-.53 3.42.88.54 1.78 1.09 2.69 1.63-1.07.6-2.35 1.03-2.59 2.38-.32.02-.95.04-1.27.05-2.18 2.68 2.75 1.55 3.86 3.27.7-.12 2.11-.37 2.81-.5-.03.39-.11 1.16-.14 1.55l-1.4-.39c.05.7.14 2.08.18 2.77-1.3-1.03-2.5-2.1-3.73-3.17-.17 1.56-.3 3.12-.5 4.69 1.08-.65 2.2-1.26 3.33-1.85-.04.58-.12 1.73-.16 2.31 1.62-.73 3.37-2.11 5.06-.56 1.05-1.33-.9-3.17-1.07-4.64.58-.17 1.74-.52 2.32-.69-.35-1.36-1.61-2.19-2.44-3.2l-.57 2.43c-.06-.8-.17-2.4-.22-3.2-1.1.67-2.19 1.36-3.26 2.04-.02-.35-.06-1.05-.08-1.41 2.09-.25 3.21-2.15 4.6-3.5-.17-.79-.5-2.37-.67-3.15-.7 1.02-1.38 2.06-2.02 3.13-1.11-.81-2.21-1.63-3.29-2.45 1.85.08 3.42-.45 4.17-2.25l2.17 2.52c-.44-2.61-.57-5.23-.92-7.84 1.02-.25 3.06-.76 4.07-1.01-.27.93-.83 2.79-1.1 3.72.6-.52 1.81-1.58 2.41-2.11-.03.95-.1 2.83-.14 3.77.38-.83.77-1.65 1.18-2.47-.55-1.18-1.06-2.37-1.53-3.56-.37.1-1.11.29-1.48.39.01-.96.03-2.87.04-3.83 3.6 1.01 6.07-2.84 9.4-3.58-2.19.61-4.33 1.42-6.47 2.16l-.56-.75c-.2-.53-.61-1.61-.81-2.14.65-.05 1.95-.14 2.6-.18l-.24-1.05c1.91.01 3.85-.22 5.62-1.05.32.3.98.9 1.3 1.2.04-.23.11-.68.15-.9-.66-.31-1.3-.62-1.93-.91-2.55.72-5.29.98-7.88.4-.99.5-1.96 1.01-2.92 1.52-.06-.98-.18-2.95-.24-3.93l-1.46.78c-.03-.33-.08-.98-.11-1.31.92.15 2.75.43 3.67.57-.61-.97-1.84-2.91-2.45-3.89-1.88.23-3.72 2.02-5.59.98 1.98-1.3 4.23-2.22 6.64-1.33-.58-.68-1.73-2.03-2.31-2.71 1.97-2.54 4.85-4.13 7.61-5.69-2.45.17-4.89.17-7.32.11-.02.31-.05.94-.07 1.25.76-.05 2.29-.15 3.05-.21-1.37 1.77-2.93 3.36-4.6 4.83-.2-1.92-.01-3.84-.32-5.73-1.06-1.52-2.32-2.89-3.24-4.48 2.44-.87 4.7-2.14 7.06-3.24 1.09-.15 2.2-.29 3.33-.43.1-.64.32-1.91.42-2.55l-1.23-.44c-.06.57-.17 1.72-.23 2.3-3.05-.23-6.05.28-8.98 1.03-.04.47-.11 1.39-.14 1.86-.52.05-1.54.15-2.05.2.09-1.68.15-3.37.2-5.04 1.32.57 2.75.87 4.21 1.02.02-1.64-.08-3.28-.47-4.86-1.29 1.16-2.57 2.33-3.85 3.5-.44-2.13.23-3.41 2.56-3.04-2.35-2.27-1.16-5.01.85-6.9-.56-.04-1.69-.14-2.26-.18.22 2.07-.49 4-1.15 5.91-1.06.45-2.09.9-3.11 1.37.13.39.41 1.16.55 1.54-1.54.87-3.01 1.81-4.51 2.71-.03.24-.07.71-.1.95.59-.17 1.75-.51 2.34-.68.07.67.2 2.02.27 2.69.96-.44 1.86-1.01 2.7-1.69.11.59.35 1.77.46 2.36l-1.14-.13c-.25 3.27-4.02 1.8-6.16 2.13-.07-2.33-.12-4.65-.19-6.97.44-.23 1.31-.69 1.75-.92l-1.68-.18c.03-5.38.01-10.75.12-16.12 1.62-.17 3.04.26 4.26 1.28l3-.24c.44 3.85-4.33 1.52-6.48 2.43 2.03.76 4.21.47 6.35.55l-.43 1.57c4.16-.97 7.59-3.59 11.8-4.36-1.31-.04-2.79 1.02-3.94.24-.02-1.33 1.63-1.89 2.5-2.64-.97.26-1.93.51-2.89.75-.55 2.42-3.65 3.32-5.21 1.26-.93-2.05.91-3.08 2.18-4.26-.32-.41-.97-1.23-1.29-1.64.83-1.26.08-4.61 2.56-3.83 1.64-.79 2.69.75 3.89 1.47 1.67-.82 3.41-1.51 5.03-2.45-1.25.31-2.42.77-3.53 1.39-1.11-.45-2.17-.93-3.23-1.41-2.29.19-4.58.15-6.86.22.16.25.47.74.63.99-2.09.83-4.3 1.18-6.52.97.12-.86.36-2.59.48-3.46-.47.76-1.06 1.34-1.77 1.74-1.42-5.58-.31-11.64-.75-17.41l1.78.05c-.44-.29-1.33-.87-1.77-1.16.18-6.38-.12-12.78 0-19.16.85.28 2.56.84 3.42 1.13 1.92-.01 3.85-.02 5.79.02 0-.26.01-.77.01-1.02-2.02-1.17-.82-3.59-.85-5.39-.48-.17-1.45-.53-1.93-.7.65-.79 1.32-1.58 2-2.36-1.06-.63-2.12-1.26-3.16-1.85-.04-.62-.1-1.86-.14-2.49-1.66.55-3.32.94-5.04 1.18-.15-10.49-.11-20.98-.14-31.46.88-.12 1.78-.24 2.69-.37-.68.01-2.03.02-2.71.03.1-3.09-.17-6.21.29-9.26.77-.75 1.74-1.12 2.89-1.12-.31-.19-.94-.57-1.25-.76-.66.05-1.17-.16-1.52-.63-.79-14.7-.25-29.5-.25-44.23 1.26-.38 2.71-.61 3.82-1.46-1.31.17-2.59.4-3.85.68.09-14.76-.92-29.61 1.06-44.28 1.5-10.08 4.93-20.61 12.92-27.45m57.03 32.42c.99.94 1.96 1.9 2.95 2.89-4.48-.21-9.87.74-11.86 5.37-.6-1.53-1.02-3.12-1.39-4.71-.76.55-1.51 1.1-2.25 1.64-.23.53-.7 1.59-.94 2.12l1.16-.89c.9 1.03 2.06 1.79 3.16 2.62-1.22 1.87-1 4.11-1.09 6.21-.07 6.34.27 12.69-.04 19.04-1.26-1.2-2.92-2.79-1.64-4.58-.54-.07-1.61-.2-2.15-.27.98 1.69.97 3.66 1.14 5.56l.32-1.76c3.33 2.32 2.37 6.41 2.45 9.91-.02 38.68 0 77.37-.03 116.05-.5-.07-1.5-.21-2-.28.01.15.04.45.06.59.48-.07 1.45-.21 1.94-.29-.02 29.4.18 58.82-.15 88.21-.35.08-1.04.24-1.39.31-.96 1.18-2.33 1.83-3.64 2.49-.4-.59-1.21-1.78-1.62-2.37.04.7.12 2.09.16 2.79 2.01-.49 4.1-1.21 6.21-.7 1.04 3.24-.47 7.5 1.84 10.57 1.95 3.48 6.38 5.42 10.23 4.14 3.99-1.22 6.74-5.3 6.56-9.43 0-80.98.04-161.96-.03-242.94.07-3.41-2.08-6.15-4.42-8.37.12-.37.37-1.11.49-1.48l-.21-.45c.05-.41.15-1.24.2-1.65-.28-.6-.83-1.81-1.11-2.41 0 1.8-1.35 2.34-2.91 2.07m-63.81 170.36c1.16.63 2.34 1.26 3.53 1.9-2.06-.04-3.18.84-3.38 2.63.6-.32 1.81-.96 2.42-1.28.51.4 1.55 1.21 2.07 1.61-.57-1.91-1.26-3.77-2.07-5.58-.88.23-1.73.47-2.57.72m6.75 20.72c-.47 3.36 3.09-1.08 0 0m9.85 8.89c1.1.46 3.06-.24 3.05-1.64-.81-1.99-3.85.04-3.05 1.64m3.3-.59c0 .92.02 2.77.02 3.69-.89-.19-2.68-.59-3.57-.79 2.29 1.42 1.45 4.55 2.8 6.63-2.68-.2-5.35-.21-8.01-.43 1.86.22 3.49.93 4.9 2.14-3.18.96-7.84-1.72-10.07 1.48 1.29-.24 2.63-.5 3.94-.78l-.2 1.66c2.41-.64 4.86-1.23 7.33-1.71-.14.74-.43 2.23-.57 2.97 1.12-1.14 2.74-2.02 2.86-3.84 1.27.26 2.54.59 3.81.99-1.64 3.03-5.66 4.27-8.12 6.74-.06.09-.19.28-.26.37 1.46-.51 2.96-.95 4.49-1.33 2.88-2.22 5.93-4.71 6.64-8.5.74.01 2.23.02 2.98.02l.52-.41c1.7-.51 3.39-.9 2.16-2.88-.56.46-1.67 1.37-2.22 1.83-.84-1.28-1.49-2.72-2.91-3.43-1.03-.83-2.01-1.69-2.96-2.58-1.11-.77-2.32-1.37-3.56-1.84m9.7 25.02c.44.72.44.72 0 0m3.72 37.69c-4.46-.21-8.83-1.47-13.31-1.26-.13.43-.41 1.28-.55 1.71 1.2-.21 3.6-.63 4.79-.84-.25.94-.75 2.82-1.01 3.76 1.17-1.26 2.37-2.48 3.53-3.75 1.86.45 4.02.57 4.97 2.54l-.35-2.19c1.27.29 2.57.58 3.89.86.62-1.29 1.41-2.49 2.15-3.72-1.26 1.08-2.31 2.8-4.11 2.89m-17.64.11c.39 3.43 2.7-1.85 0 0m-5.14 2.28c.62.55.62.55 0 0z"/>
  <path d="m1627.54 243.39c8.29-5.63 18.58-7.17 28.41-7.35 9.3-.09 18.61.02 27.92.03-.16 1.99-.31 3.97-.46 5.96.21-.61.63-1.83.84-2.44 1.03 1.18 1.54 2.55 1.53 4.11.25-.06.76-.18 1.01-.25.36-2.21-4.26-3.84-.96-5.23-.46.12-1.37.37-1.83.49.09-.65.28-1.94.37-2.59 8.3.31 16.67-.34 24.93.84.19.55.58 1.67.77 2.23.12-.56.37-1.66.49-2.21 8.41 1.3 16.91 4.31 22.98 10.52 4.48 4.28 6.87 10.11 9.18 15.74-.89.84-1.76 1.69-2.6 2.54 1.04-.13 2.11-.26 3.21-.38.17 1.6.35 3.2.58 4.8 1.68 6.5 1.64 13.24 2.22 19.88-.53.44-1.59 1.31-2.12 1.75.46-.07 1.39-.22 1.86-.29-.21 3.57.04 7.14-.15 10.7.19 3.18-.26 6.38.37 9.53-.73-.08-2.19-.24-2.92-.31.24.9-.08 4.92 1.22 3.5l.08-.63c-.18-.9-.05-1.78.38-2.61 1.77 1.58.8 3.89.98 5.89.08 3.94-.13 7.9.49 11.82-1.4-.25-2.8-.5-4.14-.81.1.19.3.56.4.75 1.21.18 2.47.37 3.74.55-.6 7.76-.03 15.57-.19 23.36-19.08-.02-38.17-.01-57.24-.03-.01-.78-.01-2.34-.02-3.12l1.84.24c0-.17 0-.52 0-.69-.46.04-1.38.12-1.84.17.19-9.63-.25-19.26.28-28.88.28-3.61-.08-7.22-.33-10.82.5.2 1.5.59 2.01.79-.35-.45-1.03-1.34-1.37-1.78-.85-7.07.25-14.22-.72-21.27-.16-2.96-2.59-4.99-4.25-7.2-3.01.01-6.3-.77-8.99.97-2.88 1.66-4.38 5.01-4.33 8.26-.05 16.69.01 33.38-.02 50.08-.01 4.48-.23 9.06 1.19 13.39 2.67 8.67 8.98 15.56 15.4 21.71-.61.48-1.2.95-1.76 1.44 1.02 1.15 2.17 1.12 3.18 0 2.14 1.93 4.33 3.81 6.55 5.68-.59.86-1.16 1.72-1.7 2.6.65-.77 1.32-1.55 2.01-2.32 2.43 1.89 4.56 4.21 7.35 5.65-.61.65-1.24 1.27-1.79 1.95.56.15 1.67.46 2.23.62.08-.31.25-.93.34-1.24 12.29 9.69 24.18 20.37 32.73 33.62 4.76 7.33 8 15.56 9.98 24.06-1.02.65-2.05 1.31-3.05 1.94-.21.93-.41 1.86-.6 2.8.9-1.59 2.47-2.53 3.91-3.58 1.05 7.27 1.24 14.61 1.06 21.95-.56.03-1.68.1-2.24.13.57.09 1.71.26 2.29.35-.03 1.96-.04 3.92-.02 5.89-1.48.18-2.89.38-4.32.62 1.46.07 2.95.14 4.46.21-.18 1.52-.36 3.04-.54 4.56.78 5.53.23 11.14.41 16.71-2.83-.02-5.65-.07-8.46.03.56.37 1.68 1.09 2.23 1.45.26-.07.76-.22 1.02-.29 1.68-.5 3.45-.57 5.23-.57.06 3.33-.16 6.66-.51 9.97.35 2.98.56 5.98.47 9-2.12.2-4.22.34-6.31.3-.74.65-1.46 1.3-2.12 1.98 2.82-.7 5.65-1.63 8.63-1.18l-.38 1.95c-3.6-.82-6.01 2.25-9.15 3.34 3.2-.46 6-2.28 9.27-2.42-.57 4.64 1.39 10.02-1.15 14.14-.72-1.57-1.28-3.16-2.1-4.64-.83-.01-2.48-.03-3.31-.04 1.35 1.1 2.77 2.14 4.17 3.21-1.37.73-2.54 1.57-3.82 2.35 1.47-.08 2.95-.15 4.46-.2 2.23 2.64 2.36 7.47-.3 9.83l-.62-1.79c-.35.15-1.05.46-1.4.61-1.14 1.66-2.48 3.17-3.92 4.55 1.86-.29 4.42-.61 3.31-3.23l2.17-.83c-.07.61-.2 1.83-.27 2.45.51-.01 1.52-.01 2.03-.01-.71 2.27-1.14 4.61-1.01 7.01-1.08.3-2.14.59-3.18.89l.63-3.52-1.79 1.57.97 1.57c-.65.4-1.97 1.19-2.62 1.59l3.88 2.16-1.14-3.15c.71-.05 2.14-.14 2.85-.19-1 1.46-1.31 7.96-4.03 5.48-.21-.44-.64-1.33-.85-1.78-.55.02-1.66.05-2.21.07.16.33.47 1.01.63 1.34l.3.5c-.07.44-.2 1.33-.26 1.77 1.42-.32 2.87-.59 4.36-.82-1.07 3.04-2.57 5.89-4.4 8.52-.13-1.41-.19-2.79-.37-4.18-.61 2.15-1.94 3.18-3.98 3.1.18-.72.55-2.17.73-2.9l-1.43-.63c-.07 1.2-.13 2.4-.16 3.62 1.83.48 3.68.81 5.59 1.12-1.94 2.68-4.81 4.54-6.7 7.2-.99-.68-1.96-1.34-2.9-1.99.15.97.45 2.92.6 3.89-3.73 2.33-7.82 3.95-12.05 5.07-5.52 1.29-11.19 2.2-16.87 1.64-13.83 1.18-27.75.21-41.61.57-.02-.79-.05-2.37-.06-3.16-.26 1.06-.53 2.1-.71 3.18-8.72-.43-17.69-1.33-25.57-5.36-7.37-3.61-13.06-10.16-16.16-17.69-4.21-10.14-5.04-21.28-5.11-32.13-.02-24.1.02-48.2-.03-72.3 19.49.02 38.97-.02 58.46.03-.02 24.71-.12 49.42.04 74.12-.12 6.22 6.97 10.32 12.43 7.62 3.75-1.49 5.54-5.75 5.24-9.58-.02-20.01.02-40.03-.02-60.03.04-8.44-4.07-16.25-9.06-22.8-9.81-12.47-22.53-22.13-34.1-32.84-13.78-12.62-27.4-26.96-32.72-45.35-3.19-10.03-2.21-20.64-2.35-30.99 0-16.99 0-33.98 0-50.96-.04-8.78.75-17.63 3.11-26.12 2.27-8.02 6.73-15.75 13.78-20.47m55.58 4.42c.15.58.45 1.72.6 2.3-.2 2.16-.22 4.34-.27 6.52.54-.12 1.62-.35 2.17-.47-.01 1.24.01 2.49.07 3.74-2.4 1.17-2.43 3.41-1.87 5.73.96-.03 2.9-.08 3.86-.1-.83.3-2.49.89-3.33 1.19.06 1.48.11 2.96.2 4.45.31-.41.91-1.21 1.21-1.62.79.07 2.36.22 3.15.29-.76-1.18-1.48-2.35-2.18-3.53.77.02 2.33.06 3.11.07.77 1.85.69 3.92.97 5.89 1.05-1.71 1.78-3.81 3.87-4.6-.12 2.05-.19 4.12-.43 6.17.32-.05.96-.14 1.27-.19-.07-2.09-.04-4.18.09-6.26-1.05.03-2.07.05-3.07.07-.11.51-.32 1.51-.43 2.01-1.33-1.93-2.35-4.65-5.3-4.51 1.32-.52 3.94-1.58 5.26-2.11-.92-.15-2.75-.43-3.67-.57l.18 1.53c-.52-.15-1.56-.45-2.08-.6l-.19 1.83c-3.67-.33-1.19-2.89.27-3.72-.07-1.62-.13-3.24-.13-4.85-2.38-1.14-2.11-3.88-2.19-6.09h3.24c-1.05-.52-2.17-.85-3.27-1.08-.28-.37-.83-1.12-1.11-1.49m10.29 11.45c.07 1.77.09 3.54.07 5.32.54.05 1.62.15 2.16.2-.05-.58-.14-1.74-.19-2.33l-1.04.05c.05-.8.15-2.39.19-3.18-.29-.02-.89-.05-1.19-.06m-7.21 12.57c-.05 3.4 2.99-1.46 0 0m52.03 1.41c.6.57.6.57 0 0m-15.04 17.96c.57.61.57.61 0 0m16.17 242.19c-.86 1.32 1.4 2.76 2.39 1.63.86-1.36-1.44-2.74-2.39-1.63m-22.09 50.79c.41.69.41.69 0 0z"/>
  <path d="m144.93 243.44c-1.5-.55.18-2.58 1.22-2.68 1.43.52-.14 2.65-1.22 2.68z"/>
  <path d="m580.54 240.95 1.94-.71c.53 2.24 1.91 4.63.67 6.89l-.57.88c-3.94.36-1.78-4.77-2.04-7.06z"/>
  <path d="m583.44 240.87c19.22-.63 38.48-.08 57.72-.28-.05 12.14-.01 24.28 0 36.42-.56 11.7.59 23.43-.37 35.13.14.61.42 1.82.56 2.42-.89 1.12-2.18 1.73-3.37 2.44.71-.24 2.15-.72 2.86-.96-.19 4.03-.11 8.07.12 12.11-1.35.07-2.69.16-4.02.28 1.27.21 2.56.35 3.86.52.59 6.62.28 13.27.28 19.91-1.58-.1-3.14-.19-4.71-.29.1.55.3 1.65.4 2.21.18-.04.54-.12.71-.16l-.42-1.28c.93-.03 2.8-.08 3.73-.1.11 5.92.12 11.84.04 17.76-.05 2.73.13 5.46.26 8.2-1.54.12-2.97.67-4.33 1.34-.07.57-.21 1.71-.28 2.29.34-.79.7-1.56 1.05-2.34 1.25.01 2.56-.19 3.75-.61-.34 3.01-.51 6.05-.21 9.08.17 16.88-.06 33.76.15 50.64-1.45-.49-2.73-1.27-3.9-2.21-1.26.1-2.51.2-3.76.28-.07.05-.21.15-.28.2 2.69.41 4.95 2.21 7.81 1.84-.11 11.41.48 22.87-.35 34.24.13 1.17.26 2.34.39 3.51-1.27-.1-2.52-.18-3.76-.24.04.15.13.46.18.62 1.25-.05 2.51-.05 3.78-.06-.24 4.07-.19 8.16-.5 12.23.21 4.86.74 9.77-.15 14.61-.64.56-1.94 1.7-2.59 2.27-.63-.72-1.26-1.43-1.88-2.13 1.76-.6 2.07-2.52 2.77-3.96-.78.91-1.52 1.84-2.23 2.8-1.27-.23-2.48-.59-3.67-1l-.08.34c1.1.91 2.41 1.51 3.56 2.38-.89.13-2.67.38-3.56.5 1.1.68 3.53.47 3.77 1.9-.54.22-1.62.66-2.16.88 3.04.79 4.64-1.82 6.4-3.79.17 3.29.15 6.59.11 9.89-.9-.46-1.8-.9-2.68-1.33.84 1.15 2.43 1.97 2.48 3.53-.56 6.69.91 13.41-.35 20.07-.59-.39-1.78-1.16-2.37-1.55.48 1.89.73 3.9-.2 5.71.3.98.62 1.97.96 2.97.24-.83.49-1.66.73-2.48.78-.2 2.33-.6 3.11-.8-1.05 1.76-2.15 3.48-3.33 5.15.31.49.92 1.46 1.22 1.95-.03.47-.08 1.42-.11 1.89 1.17.92 1.88 2.21 2.3 3.63.22.32.65.94.86 1.25-.21-.42-.64-1.26-.86-1.69.14-.36.4-1.09.54-1.45-.89-.97-1.75-1.95-2.59-2.94.97-.27 1.95-.54 2.95-.79-.7-.12-2.1-.37-2.8-.49-1.38-2.4 1.89-4.35 2.78-6.43h4.94c-.08 2.75-.19 5.5.12 8.25.85-2.7.77-5.56.68-8.35 3.06.22 6.14.57 9.21.15.07 1.78.14 3.6.58 5.35.03-.74.1-2.22.14-2.95l1.17.6c-.55-1.01-1.07-2.02-1.57-3.03 3.22 0 6.44-.02 9.67-.01.43 1.14-.8 3.46.74 3.91-.03-1.32-.07-2.64-.12-3.94 3.16.27 8.63-1.31 8.76 3.58l-1.5.04c-.08 1.16-.15 2.34-.21 3.52.31-.91.63-1.82.96-2.71.39-.3 1.15-.9 1.53-1.19-.63-1.07-1.24-2.14-1.84-3.2 2.49-.01 4.98-.01 7.48 0 .07 15.84-.18 31.68.06 47.52-4.01.01-8.02.12-12.01-.14.45-1.47.83-2.94 1.35-4.37-.38-2.02-.7-4.04-1.24-6.01.01 3.5.17 7.02-.3 10.51-7.15-.18-14.33.25-21.45-.17l-1.11-1.55c.67-.06 2.01-.16 2.68-.21-.08-2.58-.53-5.12-1.15-7.61-.04 2.1.05 4.19-.08 6.3-2.02-1.4-2.53-3.54-1.62-5.73-.55.01-1.65.02-2.2.03.8 1.73 1.47 3.52 2.11 5.33.04.93.12 2.78.16 3.7-4.31-.35-8.65.23-12.94-.27-.18-.46-.55-1.37-.74-1.83-.1-.02-.3-.06-.41-.07.04.49.12 1.49.15 1.99-18.43.06-36.87.29-55.3-.15-.54-18.39-.07-36.8-.25-55.2.01-54.68-.03-109.36.01-164.04.09-33.8-.33-67.64.4-101.41l1.11-1.93c2.34 2.47 2.07 6.24 1.97 9.41.23 2.1-1.59 3.31-2.85 4.63.82-.48 1.65-.95 2.5-1.41.67-2.31 1.18-4.66 1.8-6.99 1.04-4.34-.8-8.69-.55-13.05-.32 0-.97 0-1.3 0 .2 2.5.61 4.97 1.37 7.37-1.02-.06-3.08-.17-4.1-.23 0-4.34.09-8.68-.03-13.02.78-.03 2.33-.09 3.11-.12l-.37 1.18c.59.07 1.77.21 2.37.28-.41-.77-.79-1.55-1.15-2.33-.39-2.15-.76-4.3-1.06-6.46m37.8 318.4c.62.51.62.51 0 0z"/>
  <path d="m723.04 240.63c30.55-.06 61.1-.06 91.64-.01 4.6 49.46 9.44 98.89 14.16 148.33.75 6.09.58 12.25 1.74 18.3-.94.22-1.86.46-2.77.73.73.05 2.17.15 2.9.2.13 1.59.29 3.18.47 4.78-.41-.14-1.23-.41-1.64-.54-.53 2.4-2.1 5.19-.06 7.34-.54-2.4.25-4.81.4-7.2l1.27 1.56c5.69 56.76 10.84 113.57 16.47 170.34-19.51-.03-39.02.04-58.52-.04-2.06-28.76-4.5-57.48-6.64-86.24-9.5-.04-18.99-.04-28.49 0-2.01 28.75-4.29 57.49-6.21 86.24-11.71.03-23.41.14-35.11-.06-.05-2.11-.25-4.19-.51-6.27-.59 1.42-1.17 2.86-1.74 4.3.34.21 1.01.63 1.35.84.05.28.15.84.21 1.12-.87.06-2.61.17-3.48.22-.02-.78-.08-2.36-.1-3.15-.42 1.01-.81 2.03-1.17 3.06-2.42-.01-4.82-.03-7.22-.12-.49-1.17-.9-2.3-1.45-3.41.3 1.19.63 2.39 1.01 3.58-3.58-.11-7.16-.07-10.73-.06.93-8.53 1.66-17.07 2.63-25.59.58.22 1.75.67 2.33.89-.8-1.11-1.48-2.27-2.14-3.45.69-1.96.74-3.91.15-5.86.98.35 1.92.85 2.95 1.12.38-1.19-1.85-1.19-2.39-1.92.27-2.98.75-5.93 1.01-8.91.62.97 1.28 1.92 1.98 2.85-.45-1.35-1.1-2.6-1.94-3.73.28-2.14-.58-5.05 1.78-6.3.05.88.16 2.63.22 3.51-.09-1.68.12-3.23 1.75-4.04.02-.43.04-1.3.06-1.74-.86.9-1.7 1.8-2.55 2.69-.99-4.24.34-8.51.35-12.78.55.62 1.11 1.24 1.68 1.87.51-1.3.95-2.63 1.39-3.95.14-.57.42-1.71.56-2.28-.7 1.28-1.27 2.63-1.88 3.95-1.39-.17-1.81-1-1.24-2.51.47-6.36 1.14-12.7 1.89-19.03.75.49 1.52.97 2.31 1.45-.03-1.57-.11-3.12-.15-4.67.39-.27 1.15-.83 1.53-1.11-1.96-.27-1.91 1.56-2.34 2.89-2.18-.09-.97-2.39-.81-3.75 8.18-84.5 16.79-168.96 25.09-253.44m44.95 67.51c-2.12 33.82-5.1 67.58-7.38 101.38-1.12.13-2.27.02-3.34.35 1.01.53 2.1.89 3.25 1.08-.6 4.75-.6 9.58-1.31 14.32-.64.28-1.91.84-2.54 1.12-1.22-1.41 1.36-2.39.34-3.61-.91-2.05 2.04-5.26-1.18-5.89 1.31 3.24-1 6.43.47 9.6.72-.03 2.17-.09 2.89-.13-.47 8.11-1.1 16.2-1.8 24.3 6.36.03 12.73.02 19.1 0 .22 2.17.49 4.35 1.09 6.46-.09-2.07-.38-4.12-.88-6.13.55-.14 1.65-.43 2.2-.57-3.01-43.51-6.66-86.98-9.71-130.49-.18-3.95-.53-7.89-1.2-11.79m26.71 90.59c-.49 3.64.43 7.31-.27 10.93.47-.1 1.41-.29 1.89-.39.13.58.39 1.74.52 2.31.4-.57.89-1.08 1.46-1.52.97-2.63-1.22-4.51-2.83-6.22.17-1.77-.22-3.47-.77-5.11m-15.04 2.41c.07.79.2 2.37.26 3.17-1.92-.08-2.32 1.5-2.74 2.94l1.56.1c-.12.8-.36 2.38-.47 3.18l2.11.08c-.43.45-1.29 1.35-1.71 1.8.44.86.87 1.74 1.32 2.64 1.24 1.19 1.45 2.89 1.45 4.54 1.82-2.19.95-4.31-1.31-5.6.5-1.79 1.59-3.61.23-5.35.39-.05 1.17-.14 1.55-.18l-1.75.02c.1-2.41.21-4.81.21-7.22-.18-.03-.53-.09-.71-.12m-33.73 11.78c.82-.83 1.64-1.66 2.5-2.45.81-1.6 1.58-3.21 2.29-4.86-2.63 1.63-3.67 4.6-4.79 7.31m-35.63 105.36c.04.51.13 1.52.17 2.03-.56-.32-1.68-.94-2.24-1.26.12.67.34 2 .46 2.67 1.78.11 3.21-.27 2.95-2.41.5.09 1.51.26 2.01.35 0-.32.02-.96.02-1.28-1.13-.04-2.25-.07-3.37-.1m1.01 9.91c.45.7.45.7 0 0m-4.69 4.79.42.67c.34-.05 1.02-.13 1.36-.17.77-1.24.58-2.12-.55-2.63-.31.53-.92 1.59-1.23 2.13m-7.19 34.51-.97-.14c.26 2.9.24 5.83.63 8.73.26-1.75-.49-3.92 1.18-5.15.11-1.98-.02-3.97-.18-5.93-.24.82-.46 1.65-.66 2.49z"/>
  <path d="m988.37 288.08c.05-15.83.04-31.67.02-47.5 35.87.07 71.75.02 107.63.02 3 .08 6.12-.38 9.01.72 3.1-.04 6.18-.45 9.29-.66.34 1.05.67 2.11.98 3.19-.24 4.38.24 8.77-.19 13.14-1.07-.55-3.22-.55-2.82-2.23-.75-.44-1.46-.9-2.14-1.38 1.97 2.27 1.07 7.02 4.69 7.5l.48.42c.1 6.06.12 12.13.01 18.2l-.44.53c-1.14.44-2.2 1.01-3.23 1.6-.39-.31-1.15-.93-1.53-1.24.63.78 1.29 1.56 1.96 2.35.8-.71 1.71-.98 2.72-.8.93 1.94.4 4.18.6 6.27-3.31-.68-7.6.74-10.17-1.84.15.43.46 1.29.61 1.72-2.6.03-5.18.09-7.75.07-1.1-.13-.67-1.26-.71-1.97-1.6.97-3.2 2.58-5.33 2.09.17-.49.51-1.48.69-1.97-2.26 3.33-6.87 1.26-10.21 1.81.06 98.78-.05 197.57.05 296.35-20.47-.07-40.95.03-61.42-.04.24-98.77 0-197.54.12-296.31-10.98-.01-21.95.05-32.92-.04m124.83-44.78c.64.49.64.49 0 0m-8.53 16.81c.02.36.06 1.09.09 1.46 1.21.62 2.38-1.37 1.7-2.34-.45.22-1.34.66-1.79.88z"/>
  <path d="m1314.05 240.6c35.36-.06 70.72 0 106.09-.02-.03 15.83-.01 31.67-.01 47.51-15.04.02-30.07-.02-45.1.02.02 32.57.16 65.14-.08 97.71 9.94.23 20.01-.58 29.87.39-.27.49-.81 1.47-1.09 1.96.13.91.29 1.82.46 2.74-.24-1.94.18-3.72 1.86-4.87.84-.12 1.72-.07 2.62.16 1.83-.21 3.64-.4 5.53-.56-.54 1.28-.69 2.64-.77 4.02l.72.08c.27-1.45.58-2.9.91-4.33 1.5 2.88.56 6.26.8 9.37l-1.26.26c.12-1.91-.91-3.34-2.18-4.57.55 1.41 1.11 2.82 1.69 4.23l-1.86-.26c-.05.28-.13.84-.17 1.12 1.27-.14 2.55-.27 3.86-.4-.05 1.14-.13 3.43-.18 4.57-1.3-.71-2.41-2.4-4.04-2-1.6.12-5.31 1.36-3.63-1.54.63-.27 1.9-.83 2.54-1.1-.21-1.09-.37-2.16-.57-3.23.05 2.38-1.48 5.2-3.88 2.88-.95.45-1.9.86-2.85 1.25.08.82.14 1.63.27 2.46.57-1 2.01-5.03 3.24-2.55.2.68.6 2.03.8 2.71 1.53-.16 3.06-.25 4.64-.32-.35 2.64 1.86 2.16 3.68 2.05-.18 3.74-.23 7.48-.4 11.22l-1.29-.1c.6 2.03.72 3.93-2.09 4.33.14-3.6.13-7.29 1.41-10.71.71-2.04-1.78-3.46-3.54-3.53 2.41.72 2.22 3.29 2.59 5.31l-3.53-.23c.15-.45.46-1.36.62-1.81-.81-.5-1.59-1.02-2.35-1.54.15 1.09.3 2.19.45 3.29l1.2-.53-.64 1.67c.79-.19 2.36-.56 3.15-.74.1 1.19.28 3.59.38 4.78-1.45-1.01-2.73-1.92-4.16-2.84-.37.8-.71 1.61-1.03 2.42.48 1.08 1.46 2.13 1.16 3.43-1.11-.06-2.06-.77-3.05-1.13.96 1.08 1.87 2.18 2.93 3.23-.53.22-1.58.67-2.11.9.09 1.01.19 2.03.31 3.05 0-.61.01-1.84.02-2.45 3.16 1.3 2.39-3.03 3.85-4.53-.91-.88-1.79-1.77-2.66-2.66-.17-3.23 2.85-.75 3.53.44 1.11 1.72 1.16 3.98-.35 5.48.47-.26 1.4-.78 1.86-1.05 1.24-.62 2.46-1.29 3.71-1.94-.27 6.41-.15 12.84-.03 19.26-1.5-.11-2.98-.23-4.45-.38-.14-1.26-.04-2.55-.35-3.78-.78 1.41-.73 3.06-.94 4.61-2.05.03-2.64-1.32-3.73-2.45.55 3.35-3.5 1.49-5.47 1.86-.16-1.62-.29-3.24-.42-4.86-.21.04-.65.13-.87.18.42 1.55.79 3.12 1.2 4.7-8.67.07-17.33 0-25.99.05.43 12.26-.29 24.51.18 36.77-.1 14.56.24 29.13-.18 43.68-.48.21-1.43.64-1.9.85.51-.08 1.53-.26 2.05-.34-.01 16.56.07 33.14.04 49.72.08 6.81-.51 13.63.01 20.44-20.35.01-40.69.04-61.03-.02.25-106.47.01-212.94.1-319.41-.06-8.13.11-16.26-.1-24.38z"/>
  <path d="m1460.57 240.57c20.33.01 40.66-.01 60.99.01-.08 97.48-.08 194.96-.04 292.44-.31 5.56 5.02 10.84 10.65 9.69 4.49-.78 7.78-5.19 7.58-9.69.01-26.83.05-53.66-.02-80.49.69-.43 1.41-.85 2.14-1.26-.53.2-1.59.6-2.12.8-.01-2.86.01-5.71-.02-8.56.95-.13 2.83-.39 3.78-.52-.07.81-.21 2.44-.28 3.25.83-.81 1.67-1.62 2.46-2.5-.74-1.44-2.21-4.31-2.95-5.74 1.12.74 3.36 2.21 4.48 2.95-1.57-1.73-4-3.08-3.94-5.73-.66-.85-1.31-1.68-1.98-2.48 2 3.07.89 6.82 2.54 10.07-1.03-.06-3.09-.17-4.12-.22.03-11.16.14-22.31-.02-33.47.54.1 1.62.28 2.16.37-.04-.2-.13-.62-.17-.83-.49.08-1.46.24-1.95.32.02-56.14.03-112.28-.01-168.42 20.48.02 40.96.01 61.45.01-.03 95.13-.01 190.25-.02 285.38.06 12.09-.03 24.44-3.7 36.08-2.4 7.71-7.03 14.98-13.98 19.3-8.44 5.4-18.72 6.58-28.51 6.85-14.99.02-29.98.02-44.97 0-10.75-.24-22.02-1.81-31.13-7.95-7.75-5.13-12.84-13.51-15.26-22.36-4.22-14.5-2.67-29.74-3.05-44.62l2.03.58c-.15 1.66-.23 3.34-.3 5.03.28-.34.84-1 1.12-1.33-.24-2.04.11-4.61-2.78-4.68.05-8.74-.13-17.47.05-26.2 1.46 1.13 2.28 2.69 2.44 4.69.33-2.33-.66-4.56-.94-6.84-.39.13-1.18.39-1.57.53-.01-2.52-.02-5.02-.1-7.52.69.05 2.06.15 2.75.2-.66-.17-1.97-.52-2.63-.69.02-23.41-.1-46.82.09-70.23.62.5 1.86 1.49 2.48 1.99-.85-.92-1.73-1.8-2.57-2.67-.06-55.18.03-110.36-.06-165.54m112.57 199.69c.71.51.71.51 0 0z"/>
  <path d="m145.61 247.35c.77.01 2.3.03 3.07.04-.11 1.74-.18 3.49-.26 5.24.54-.16 1.63-.47 2.17-.62l-.05 2.95c-.52-.27-1.54-.81-2.06-1.09 1.02 3.08-2.29 1.31-3.64 1.49-.14-.7-.43-2.1-.58-2.79.74.04 2.22.12 2.96.16-.5-.32-1.5-.96-2-1.27.13-1.37.26-2.75.39-4.11z"/>
  <path d="m151.95 250.2c2.59-.86.61 3.08-.4.73z"/>
  <path d="m151.23 254.51c1.06-.76 3.06.84 1.95 1.91-1.04.62-2.94-.87-1.95-1.91z"/>
  <path d="m1114.37 258.37c.28.29.28.29 0 0z"/>
  <path d="m144.88 262.11c-1.14-.77-1.14-1.61-.01-2.52 1.14.74 1.14 1.58.01 2.52z"/>
  <path d="m154.34 271.36c2.92-1.6.11 3.44 0 0z"/>
  <path d="m141.95 272.5c.38.02 1.12.07 1.5.09.01.36.03 1.09.04 1.45l-.7.23c-.28-.27-.83-.83-1.11-1.11z"/>
  <path d="m144.6 277.72c-.86-1.32-.71-2.39.47-3.2.34.59 1.03 1.77 1.37 2.35l-.35.81c-.38.01-1.12.03-1.49.04z"/>
  <path d="m141.4 276.54c1.25-.94 3 1.1 1.75 2.14-1.27 1-2.98-1.11-1.75-2.14z"/>
  <path d="m1164.74 410.16c.42-2.59 3.45.73 1.01 1.14-.25-.29-.75-.86-1.01-1.14z"/>
  <path d="m1165.08 455.92c.49.4 1.45 1.19 1.94 1.59 1.84.03 3.67-.02 5.54-.07l.14 1.76c-.42.09-1.25.27-1.66.36.42.6 1.27 1.8 1.7 2.41-2.35-.38-4-2.15-6-3.22.48.57 1.45 1.7 1.93 2.27-.34.64-1.02 1.92-1.36 2.56-.53.04-1.6.11-2.13.15.11-1.55.21-3.09.25-4.64-.24-.73-.71-2.2-.95-2.93z"/>
  <path d="m1168.54 463.97c-.12-1.37 2.17-1.84 2.95-.89.15 1.39-2.2 1.79-2.95.89z"/>
  <path d="m1173.04 467.27c.62.71.62.71 0 0z"/>
  <path d="m1189.98 483.95c1.42-1.18 2.84-2.36 4.3-3.51 1.81 1.13 6.65 1.46 4.73 4.55l-.76.23c-.37-.31-1.1-.93-1.47-1.24-.03.97-.1 2.91-.13 3.88-.55-.62-1.65-1.86-2.21-2.48l-.01.12c-.14.39-.43 1.19-.58 1.58-1.93.28-2.6-2.2-3.87-3.13m3.25-.82c.52.66.52.66 0 0z"/>
  <path d="m1170.32 482.14c2.95-1.6-.05 3.52 0 0z"/>
  <path d="m1461 485.55h.64v.64l-.64-.01z"/>
  <path d="m1166.43 490.47c2.73.05 4.48-2.49 6.8-3.58.19.74.58 2.22.77 2.96l-1.52-.41c-.09.29-.28.87-.38 1.16.78.06 2.32.17 3.09.23.31 1.18.57 2.38.78 3.61-.46-.5-1.37-1.49-1.83-1.99-.66.05-1.97.15-2.63.19l.02-1.33c-.7.07-2.12.23-2.83.31.69.35 2.07 1.07 2.76 1.43-2.44.54-1.95 3.01-2.33 4.82-1.14.67-2.37.96-3.71.87 1.74 1.39 3.43 2.85 5.19 4.26-.11-1.38-.24-2.74-.39-4.1.87-.26 1.75-.52 2.64-.76.89.76 1.89 1.34 3.02 1.75-.16.59-.46 1.77-.62 2.35-1.1-1.52-2.1-3.78-4.01-1.79.14.93.42 2.8.55 3.74.53-.43 1.58-1.29 2.1-1.72l2.12.27c-.52.57-1.56 1.72-2.08 2.29-2.54 1.91-3.98-1.96-6.49-2.05-.08 1.33-.09 2.69-.23 4.02-.34.25-1.01.76-1.34 1.01.4.75 1.14.91 2.24.48 1.18-.58 2.45-.93 3.78-1.05 1.08.79 2.31 1.24 3.69 1.35-.09.77-.18 1.54-.24 2.32.44.14 1.31.41 1.75.55.63-1.4 1.82-2.36 3.17-3.05.06.65.18 1.96.24 2.61-.98.2-2.93.6-3.9.81.93.48 2.79 1.46 3.72 1.95-.6.18-1.8.55-2.4.74-1.31-2.09-3.28-1.22-5.02-.3-.9 1.75-3.09 1.89-4.66 2.61.17-.62.5-1.86.67-2.48-1.45.02-2.91-.02-4.34-.04l1.01-1.57c-1.35-1.33-.95-3.26-1.15-4.93.33-3.84.06-7.69.01-11.53l.82-.34c.05-.51.15-1.53.21-2.04.87.55 1.24 1.48 1.13 2.78.25-.02.75-.06 1-.08-.03-1.1-.05-2.21-.05-3.3-.65-.13-1.95-.4-2.6-.53-1.54-1.11-.18-3.2 1.47-2.5z"/>
  <path d="m1189.2 487.18c.64.64.64.64 0 0z"/>
  <path d="m1174.94 505.9c1.52-.37 2.09.31 1.71 2.06-1.52.28-2.09-.41-1.71-2.06z"/>
  <path d="m1179.26 507.51c.51.7.51.7 0 0z"/>
  <path d="m1185.02 508.34c.34.37.34.37 0 0z"/>
  <path d="m1181.76 510.25c1.13.06 2.54-.31 3.1 1.05.64 1.5-1.24 2.17-2.06 3.02-.23 2.75-2.91 4.26-3.75 6.77-1.26-.99-2.33-2.14-3.21-3.45 3.22 1.01 5.85-1.47 4.77-4.65.29-.69.86-2.05 1.15-2.74z"/>
  <path d="m1172.27 517.15c.76-.83 1.72-1.31 2.87-1.43 2.3 1.31-2.38 3.23-2.87 1.43z"/>
  <path d="m1168.57 529.47c1.62-.52 2.19.03 1.7 1.66-1.63.51-2.2-.04-1.7-1.66z"/>
  <path d="m1165.74 537.6c3-.94.96 3.92-.67 3.99-.77-1.24-.09-2.91.67-3.99z"/>
  <path d="m1276.61 618.07c.68-.33 1.38-.66 2.09-.97.06 2.79.09 5.6-.22 8.39-.65-1.04-1-2.17-1.05-3.38-.52-.01-1.57-.03-2.1-.04.02.78.07 2.33.09 3.11-.91.17-2.73.52-3.64.69l1.05.82c2.17 1.65 4.98.6 7.47.95-1.23 1.17-2.52 2.27-3.5 3.66 1.45-.66 2.55-1.81 3.65-2.94 1.28.34 2.58.72 3.89 1.13.76-1.86 1.54-3.71 2.23-5.59.08 2.13-.98 4.8 1.44 6.16-.93.52-1.83 1.05-2.73 1.56.68.61 1.4 1.25 2.09 1.91.47-1.64 1.19-3.22 1.25-4.95h3.3c-.3-2.23-1.86-4.43-.92-6.68.76 2.32 1.41 4.7 1.94 7.1.5-.51 1.51-1.54 2.01-2.06.61.53 1.82 1.58 2.42 2.1-.57-1.81-2.11-2.87-3.43-4.07-.75-2.42-.92-4.97-1.6-7.4 1.73.02 3.48.05 5.24.08-.62.9-1.87 2.72-2.49 3.62.75-.47 2.25-1.42 3-1.9.6 1.71 1.27 3.38 2.09 5.04 0-1.07.01-3.21.01-4.28.8.15 2.41.47 3.21.63-1.54-.9-3.12-1.78-4.48-2.9 1.97-.17 3.99-.23 5.99-.3-.38 2.6-.7 5.34.42 7.82.01-2.36.1-4.72.38-7.05 1.16-.33 2.33-.63 3.53-.9-.53 1.71-1.06 3.42-1.72 5.09.18.35.54 1.05.72 1.41-.78 3.43 2.03 5.81 3.58 8.52.2-.18.59-.52.79-.7-.98-1.3-1.87-2.65-2.58-4.09-1.29-1.58-.05-3.69-.98-5.39.7-1.69-.18-4.66 2.3-4.95.03 2.06-.04 4.13.06 6.21.85-1.19 1.34-2.54 1.22-4.02 1.03-.79 3.1-3.55 3.21-.77-.34.15-1.03.43-1.37.57-.08 1.15-.15 2.31-.18 3.47.56-.04 1.69-.13 2.26-.17-.44-1.81-.33-3.75 1.35-4.9.65 2.01.86 4.16 1.09 6.27-.43.16-1.3.47-1.73.63-.76 1.8-2.26 2.95-4.11 3.47.07-1.13.21-3.39.28-4.52-1.31 1.05-1.1 2.57-.76 4.05.69 1 1.32 2.06 1.9 3.17-1.95-3.04 2.51-3.36 3.25-1.12 1.13-1.17 2.22-2.37 3.4-3.5.3-.03.9-.08 1.19-.1l.37 1.86c.54-.13 1.63-.38 2.17-.51.38.57 1.13 1.72 1.51 2.3.28-.37.83-1.09 1.11-1.46.86.02 2.59.06 3.45.08-1.03-.44-2.04-.85-3.04-1.23.59-1.45 1.25-2.88 1.93-4.3l.81-1.28c-.48-.32-1.43-.95-1.91-1.27-.55 2.63-.44 5.36-1.1 7.99-1.37-.98-3.8-.94-4.3-2.8-1.12-2.55-.65-5.4-.89-8.08 1.57.36 3.16.74 4.75 1.16-.66.6-1.98 1.81-2.65 2.42-.15 1.79.52 3.52.87 5.27.07-.73.22-2.2.3-2.94.75-1.57 1.34-3.21 1.89-4.85 1.08-.33 2.19-.63 3.32-.9.27 1.36.35 2.97 1.67 3.83-.42-1.21-.86-2.39-1.31-3.56.71-.01 2.14-.02 2.86-.03.05 1.27.13 2.55.22 3.84l1.44-.45-.41 1.17c2.14 1.3-.02 2.83-.85 4.22-.34-.97-1-2.93-1.34-3.9-1.47 1.44.24 3.4-.69 5.06.29.44.61.89.96 1.35-.07-.75-.22-2.24-.29-2.99 3.1.05 2.15 3.27 2.11 5.14.67-1.62 1.32-3.26 2.15-4.81.07-2.12.23-4.22.47-6.31-.67.24-2.01.72-2.68.97.05-.74.14-2.22.19-2.96 2.44.63 5.31.33 7.23 2.33 1.18.05 2.39.1 3.61.15.14 1.17.43 3.52.58 4.69l.36-1.04c.19-.58.55-1.75.73-2.33.32.21.94.63 1.25.84 7.21 3.98 10.58 12.41 11.74 20.18-1.62-.47-3.13-1.13-4.44-2.13.71 1.95-.64 4.16-2.84 4.26.73.12 2.18.37 2.91.49-.83 1.01-1.62 2.04-2.4 3.08.28.09.85.28 1.13.37.18-1.47.99-2.51 2.33-3.08-.37-.45-1.12-1.36-1.49-1.82 1.53-.76 3.2-.93 4.9-.88.35 3.38.47 6.79.42 10.2l-1.28-.43c.97 1.11 1.65 2.43 1.49 3.96-.05 24.63.17 49.28-.07 73.91-.25 9.12-2.6 19.88-11.5 24.38-12.57 6.14-27.04 4.2-40.56 4.59.04 27.96-.06 55.91.08 83.87-13.12.01-26.23.11-39.35-.05.34-59.04-.17-118.11.29-177.14.71.38 1.43.78 2.17 1.19-.2-2.78.07-5.55.79-8.23-.3-.07-.9-.2-1.19-.26.04 2.5-.01 4.99-.1 7.5-.66-.6-1.29-1.21-1.9-1.83.08-2.81.08-5.61.05-8.41.43.02 1.27.05 1.69.07-.08-2.41 1.9-3.81 3.32-5.42-.06-.68-.16-2.04-.22-2.72l2.43.16c-.14 2.8-.02 5.62-.36 8.42.53-.26 1.59-.77 2.12-1.02.23 2.99 1.08 5.9 1.24 8.91.41 1.55-.09 2.68-1.52 3.39-.45.05-1.36.15-1.81.2.08.47.23 1.41.3 1.88.55.13 1.66.4 2.21.53l-.71-1.12c1.17-.72 1.8-3.04 3.45-2.59.1 1.13.11 2.28.02 3.44 1.18-1.28 1.06-3.04 1.09-4.65l1.95.75c.41-1.74.79-3.49 1-5.26-.85 1.36-1.14 2.92-1.22 4.52-1.45-.19-2.85-.05-4.22-.34-.15-.9-.05-1.79.32-2.66 1.17-.48 2.39-.93 3.59-1.41-.92.04-2.76.13-3.68.18-.73-1.94-1.09-3.96-1.26-5.99 1.32-.17 2.65-.37 3.98-.61-.44-.42-1.33-1.26-1.78-1.68.44-1.93.93-3.85 1.49-5.74 1.02 1.42 1.64 3.11 2.23 4.77.02-.75.07-2.25.1-2.99.57.03 1.71.1 2.28.13.07-1.24.15-2.48.25-3.7-.35.46-1.05 1.38-1.4 1.85-.45-.04-1.36-.1-1.81-.14.06-1.69.12-3.37.18-5.05.36.02 1.08.06 1.44.08.21-1.44 1.61-2.01 2.56-2.88l-.95-1.81 2 .86c-.36-1.75-.39-3.6-1.39-5.12.13 1.03.39 3.09.51 4.12l-1.36-.44c.08.69.24 2.08.32 2.78-.56-.09-1.69-.26-2.25-.35-.13-.67-.39-2.03-.52-2.7-.17.67-.5 2.02-.67 2.69-1.19.29-2.37.55-3.54.78.56-.84 1.67-2.51 2.23-3.34l1.71.28c-.04-1.71-.44-3.36-1.2-4.88-.34 1.69.4 3.88-1.35 4.97-1.7.23-2.95-.42-3.76-1.94.52-.05 1.56-.16 2.09-.22.02-.52.08-1.56.11-2.08l-1.45.48.4-2.32c.67-.04 2-.12 2.67-.17-.95-.41-1.86-.83-2.81-1.13-1.45 2.03-.99 4.66-1.14 7 1.01.4 1.98.92 2.91 1.54-1.16.83-2.43 1.51-3.54 2.39-.25 1.82-.18 3.67.07 5.5-1.29-.11-2.56-.2-3.81-.27-.83.58-1.65 1.15-2.47 1.72.4-1.83.82-3.65 1.25-5.46l-2.3-.39c.03.91.1 2.75.13 3.66-.28-.03-.84-.1-1.12-.13.07-1.81.13-3.62.22-5.41 1.23.57 2.48 1.04 3.88 1.17-.07 1.59-.14 3.17-.06 4.77.34-.71 1.02-2.13 1.35-2.83l.71.04c.39-4.91-.22-9.75-1-14.58-.33.4-1 1.2-1.33 1.6.55 1.26 1.09 2.5 1.67 3.79-.63.14-1.9.44-2.53.58-.14-2.01-.18-4.03-.28-6.03-.21-.17-.62-.51-.83-.68-.23 2.48.77 5.25-.79 7.61-.29.01-.87.03-1.16.04.17-2.88.75-6.04-.77-8.67.72.11 2.16.33 2.87.44-.35-1.96-2.91-3.79-1.48-5.9.16.76.48 2.28.63 3.05.8-.05 2.41-.15 3.21-.2-.07-1.89-.12-3.79-.4-5.65-.72-.11-2.14-.34-2.86-.45 1.4-.14 2.81-.26 4.23-.41-.06.85-.17 2.55-.23 3.4 1.49-.83 3.68-1.67 1.1-3.39m23.28 6.49c-.55 1.95-.71 3.98-.6 6 .76-.48 1.54-.95 2.34-1.4-.56-1.55-1.12-3.11-1.74-4.6m2.48 1.95c-.06 1.44 2.79 1.24 3.85.94.38-1.8-2.84-1.53-3.85-.94m17.18 16.27c-1.64.05-3.26.13-4.87.13-.12.11-.35.33-.46.44 1.84.02 4.48.29 3.51 2.83-2.76.3-5.52.35-8.27.33.08 2.8.09 5.6-.14 8.4-.28-.03-.84-.1-1.12-.13-.24-.24-.72-.73-.96-.97-1.21-.04-2.14-.46-2.8-1.27-.84-1.15-1.51-2.38-2.22-3.58.3.68.89 2.04 1.19 2.72-1.09.22-2.17.44-3.22.68.49.1 1.48.31 1.97.41.68.51.69 1.13.05 1.87l1.85-1.3-.74 2.82c1.61-2.88 4.08-.38 6.45-.35-.23 1.56.02 3.41-1.59 4.29 1.62.94 2.15 2.5 1.6 4.68-.81-.48-1.61-.95-2.38-1.4-.32 1.18-.67 2.36-1.11 3.51 1.05-.28 2.53-1.28 3.28.11-.04 21.14.12 42.3.01 63.45 2.47-.01 4.96.14 7.45-.12 3.34-.57 5.56-4 5.31-7.28.04-19.13-.08-38.27.09-57.4.17-.43.52-1.3.7-1.74 1.31-.76 2.68.19 3.89.73.14-.89 1.51-1.37 1.52-2.34-.96-.5-1.91-.96-2.86-1.36.24-.72.71-2.15.95-2.86-.24.02-.71.06-.94.08.01 1.53-.09 3.07-.31 4.6-.58-.13-1.74-.37-2.31-.49l-.73-.48c-.19-3.84.75-7.91-.69-11.57.42-.82.87-1.63 1.34-2.44 1.41-.41 2.92-.81 4.3.03-.51.51-1.54 1.52-2.05 2.03.56-.11 1.67-.32 2.23-.43-.05-1.04-.06-2.08-.04-3.11-1.23.07-2.58-.23-3.61.62-1.79 1.36-4.34.72-6.3.24 2.29-2.18 3.18-5.28 2.88-8.39-.51 1.28-.77 2.62-.85 4.01m31.66 1.37c.35 3.44 2.71-1.93 0 0m-49.85 1.17c-1.57 2.89 3.34.22 0 0m50.74 2.65c1.28.25 2.32-2.01.81-2.38-1.2-.19-2.35 2.09-.81 2.38m6.76-.46c-.94 3.13 3.41-.64 0 0m-1.59 1.67c.47.66.47.66 0 0m-82.82 8.49c.47-1.39 1.18-2.99.94-4.45-2.14-.54-2.55 3.88-.94 4.45m11.82-1.94c1.56-.22 1.21-2.9-.1-3.25-1.47.28-1.19 2.86.1 3.25m-13.93 13.83c-1 1.23-.8 1.89.59 2 .95-1.24.75-1.91-.59-2z"/>
  <path d="m1288.41 617.67c.62-.01 1.85-.03 2.47-.04-.45 1.97-.35 4.32-2.3 5.59-.12-1.86-.13-3.7-.17-5.55z"/>
  <path d="m1319.66 617.46c1.96-.14 2.06 1.74 2.41 3.3l-1.94-.75c.94.93 3.3 2.71 1.7 4.07l-.64.1c-2.43-1.47-2.66-4.34-1.53-6.72z"/>
  <path d="m1436.97 617.87c2.23-.09 4.46-.08 6.71-.2.09 1.08.28 3.24.37 4.32-2.63.5-4.73-1.28-7.12-1.9 1.58 2.63 4.47 2.93 7.28 2.48.62 9.52 1.5 19.04 2.64 28.52-.79.79-2.99 1.05-2.49 2.51 1.1.45 1.86-.81 2.7-1.33 5.75 63.84 12.08 127.64 18.09 191.46-12.53-.07-25.05.02-37.57-.05-1.02-15.19-2.42-30.35-3.36-45.54.93-.96 1.54-2.12 1.32-3.53-.52.84-1.02 1.68-1.52 2.54-.38-3.43-.37-6.86-.88-10.26-6.41-.16-12.83-.21-19.23.02-1.47 18.92-2.7 37.86-4.15 56.79-12.6.01-25.19.01-37.79 0 6.24-62.6 12.32-125.21 18.62-187.8 1.07-4.92.9-9.97 1.49-14.95.32-5.78 1.5-11.47 1.72-17.25.54.53 1.63 1.59 2.17 2.12-.41-.65-1.24-1.94-1.65-2.58.65.08 1.97.24 2.63.32-.43-.52-1.3-1.56-1.73-2.08l-1.4.75c.15-1.15.44-3.43.58-4.57 2.78.22 5.73-.55 8.42.44.39.86 1.17 2.58 1.55 3.44l-2.61.04c.84.57 1.68 1.19 2.5 1.85-.06-3.27 3.22-3.09 5.59-2.73-1.69-.47-5.92-.52-5.32-2.89 8.71-.38 17.45-.05 26.18-.14.71.94 1.65 1.61 2.76 2.13-.11-.77-.1-1.53-.05-2.28 4.51.16 9.03.1 13.55.35m-23.47 39.36c-2.48 33.01-4.86 66.04-7.47 99.04 5.67-.24 11.51.77 17.07-.77-.54.03-1.62.09-2.16.12-1.79-24.55-3.62-49.11-5.49-73.66-.46-8.21-1.58-16.41-1.18-24.65-.19-.02-.58-.06-.77-.08z"/>
  <path d="m1520.03 617.89c3.89.96 7.73-.37 11.65-.34.02.24.07.72.09.96-2.44-.35-4.34 1.07-6.23 2.32l-.14.28c-.24.71-.72 2.15-.97 2.87-.36-.08-1.07-.25-1.43-.33l.1.9c.86-.09 2.6-.28 3.46-.38.25.52.76 1.55 1.01 2.06-.05-.66-.16-1.97-.21-2.63.57-.12 1.7-.37 2.26-.5-.58-.16-1.75-.47-2.33-.63-.05-.53-.15-1.58-.2-2.11.38.06 1.13.18 1.51.24l-.05-1.01c2.53.51 4.39-1.12 6.35-2.4-.38 1.17-1.13 3.53-1.5 4.71 1.53-1.24 2.33-2.86 2.38-4.87 1.85 1.7 1.47 4.33 2.24 6.52.11-.78.35-2.35.47-3.13 1.49.12 3 .25 4.54.37-.82-.94-1.64-1.87-2.4-2.81 2 .56 3.97 1.28 6.03 1.74 1.74 1.65-.96 2.03-2.01 2.86 1.01-.01 3.04-.04 4.05-.05-.14.89-.43 2.66-.58 3.55.93-1.09 1.24-2.96 2.86-3.32 1.69.18.48 1.98.56 3.06.22-.02.67-.07.9-.09.01-.78.02-2.35.03-3.13 1.45.64 2.91 1.32 4.38 2.03.15 1.35-.93 2.31-1.57 3.38.55.57 1.66 1.71 2.22 2.28.1-1.36.2-2.7.32-4.04 6.76 6.66 8.44 16.62 8.53 25.73-.1 15.36-.02 30.71.01 46.07.02 10.23.31 21.16-4.82 30.38-3.38 6.08-9.87 9.65-16.58 10.75 4.31 1.2 8.87 2.43 12.23 5.6 4.96 4.27 7.24 10.76 8.26 17.06 1.28 6.91.69 13.97.95 20.96-.57.05-1.7.15-2.26.21.57.07 1.71.22 2.28.29-.26 14.52.09 29.06-.16 43.58-1.35-.13-2.67-.26-3.98-.39.12.53.37 1.57.49 2.1l-1.13-.18c-.05 1.34-.63 2.5-1.48 3.52.61-.16 1.85-.49 2.46-.66-.11-.5-.34-1.5-.46-2 .91.01 2.72.03 3.63.05-.04.79-.11 2.39-.14 3.18-1.34.29-2.65.62-3.93.99 1.28-.06 2.57-.14 3.88-.25.59 3.39 1.33 7.02.3 10.41-12.99-.44-26 .24-39.01.06-.03-21.42.02-42.84-.02-64.26.58-.32 1.18-.63 1.8-.94-.44-.15-1.33-.44-1.78-.59-.1-5.69.09-11.37-.02-17.06.11-2.95-2.07-5.73-4.91-6.4-2.59-.37-5.2-.17-7.78-.14.13 29.8.04 59.61.05 89.41-13.05-.06-26.1 0-39.15-.03.14-67.59.01-135.18.07-202.76-.1-.75-.29-2.24-.39-2.98 1.05-.18 2.11-.36 3.19-.54.02.59.06 1.77.08 2.36.08-.66.24-1.98.32-2.64-1.09.07-2.15.17-3.2.28.04-3.69.08-7.38-.03-11.06 3.17-1.12 2.43 2.26 2.88 4.06.38-1.39.62-2.79.74-4.21-1.36-.7-2.79-1.29-4.06-2.07 1.18-.99 2.55-1.75 3.85-2.61-1.29.36-2.56.71-3.82 1.06.27-1.64.59-3.25.95-4.85 5.27-.2 10.55.11 15.83-.16.24.28.72.84.97 1.12.84-.34 2.52-1.03 3.37-1.38-.36.6-1.09 1.81-1.45 2.41.18-.02.54-.07.72-.09.19-.42.58-1.27.78-1.69 5.66-.31 11.47-.61 17.12.29 1.05-.3 2.13-.58 3.24-.85.28 1.04.6 2.08.96 3.12.17-.78.5-2.33.66-3.11 1.69.6 2.22 1.78 1.59 3.54.35-.03 1.06-.1 1.41-.14-.29-.98-.57-1.95-.83-2.91m11.22 3.21c.01 3.46 2.9-1.55 0 0m-40.93 1.14c-1.71.14-1.23 2.77.43 1.79 1.61-.28 1.24-2.75-.43-1.79m50 1.32c.26 1.89 4.09 1.36 3.29-.62-.9-.74-3.08-.78-3.29.62m4.02 1.63c.19 1.34.9 1.49 2.13.43-.24-1.32-.95-1.46-2.13-.43m-6.09.99c.58.58.58.58 0 0m11.07 2.5c.18.44.55 1.33.73 1.77 2.73.51 1.03-3.52-.73-1.77m-4.3.72c-1.46 2.93 3.53-.12 0 0m-29.5 14.39c.39.96.8 1.93 1.23 2.91l-2.46-.16c-.15 26.09.05 52.19-.1 78.29 3.54-.25 7.94 1.05 10.75-1.81 1.71-1.53 2.05-3.9 1.98-6.07-.07-9.13.02-18.26-.06-27.39.57-.37 1.18-.71 1.81-1.02-3.46-.84-1.08-5.49-1.82-8.01.86-.05 2.58-.17 3.44-.22-1.06-.51-2.27-.89-3.42-.73 0-8.91.08-17.81-.04-26.71.23-3.67-3.32-6.81-6.92-6.35-2.12.49-3.26-1.41-4.39-2.73m44.46 191.73c1.27-.93 1.29-1.92.07-2.98-1.31.93-1.33 1.92-.07 2.98z"/>
  <path d="m1733.06 618.31c4.86-1.41 10.19-.2 15.23-.59-.18 53.43-.03 106.87-.07 160.3-.01 2.65-1.18 5.27-.44 7.93 1.08 3.91-1.07 7.96.57 11.8-.91-.16-1.81-.3-2.68-.44-.04.56-.1 1.7-.14 2.26l-1.22-.25.04.96c-1.51.02-2.97.19-4.4.46-.92 1.03-2.12 1.73-3.39 2.18-.06.08-.19.24-.25.33.83.08 2.48.23 3.31.31.75-.61 1.44-1.32 2.34-1.78 2.03.86-.1 4.22.49 5.93 1.41 1.31 2.99 1.93 4.89 2.5-1.53.23-3.02.49-4.47.8 1.57.9 3.22 1.75 4.89 2.56-.08 1.63-.04 3.24.15 4.88-2.36.15-4.68.48-7.03.38-.87-.78-1.71-1.56-2.52-2.33-.63.05-1.89.16-2.52.21 1.08.35 2.15.64 3.3.94.3.43.9 1.3 1.19 1.73 1.47-.01 2.95-.02 4.46-.03l-.49 2.3c-1.66-.2-3.29-.32-4.92-.3.55.22 1.65.67 2.19.89.07 1.11.42 2.14 1.09 3.07-.04-.88-.12-2.63-.16-3.51l1.83.77c.32-1.38.93-2.59 1.83-3.63.26.92.38 1.87.37 2.87.3-.07.89-.22 1.19-.29.05 2.78.42 5.55.55 8.35-.88-.29-2.65-.87-3.53-1.16-.02-.57-.06-1.71-.08-2.28-.77.13-1.53.26-2.26.4 1.56 2 3.95 4.12 3.12 6.94l.27-.02c.24-1.24.5-2.47.77-3.7l1.79.28c-.41 2.67-.58 5.35-.46 8.06-2.12 2.04-2.41-1.92-2.77-3.17-.17.04-.5.12-.67.16.44 1.33.89 2.66 1.36 4.01.85-.09 1.72-.18 2.61-.25-.35 2.12-.16 4.88-3.07 4.99l.06-2.88c-.32.53-.94 1.58-1.26 2.11-2.47.11-4.92.27-7.37.22-.15-2.13-.24-4.25-.26-6.37-.21.03-.63.1-.84.13.27 2.05.47 4.1.67 6.18-2.82.14-5.64.15-8.43.06.12-1.54.99-2.76 1.53-4.13-.14-1.5-.24-2.98-.3-4.45-.56 2.92-.84 5.89-1.6 8.78-1.08-.06-3.24-.18-4.32-.23.61-1.06 1.38-2.03 2.06-3.05-.3-.84-.56-1.66-.8-2.48.7 1.99-1.04 7.49-3.66 4.97 1.25-1.56-.2-3.36-.28-5.01.91-.54 1.82-1.09 2.75-1.66.26-1.01.56-2.01.9-2.99-.11-.29-.34-.86-.45-1.15-.13.96-.39 2.87-.52 3.82-.7-.82-1.28-1.68-1.77-2.58-1.21 3.23-1.46 6.62-.83 10.06-2.6.1-5.18.21-7.75.16.57-1.45 1.61-2.34 3.11-2.69l-1.61.39c.54-3.63 1.1-7.25 1.33-10.91-1.1.4-2.2.74-3.29.98 3.41 1.67 1.95 6.41 1.86 9.46-.57.78-1.7 2.32-2.27 3.09-.54-.81-1.05-1.62-1.52-2.43.53-1.26 1.32-2.38 2.19-3.43-.4-.61-.77-1.21-1.11-1.8-.16.37-.47 1.12-.63 1.5l-.32.57c-.17 1.98-.34 3.97-.38 5.97l-1.57-1.31c-.14-3.19-.21-6.38.04-9.55.31-1.31 1.79-1.81 2.14-3.1-.8.46-1.58.94-2.31 1.44.1-26.41.1-52.82.06-79.22.24-.33.72-.98.95-1.31.37-.05 1.11-.16 1.49-.21l-.85-1.89c-.49.53-.96 1.06-1.43 1.58-.43-27.94.05-55.88-.2-83.82.03-1.85-.22-3.76.45-5.52 1.23 2.08 2.13-.11 3.57-.42.55.46 1.65 1.38 2.19 1.84-1.09-1.39-2.25-2.73-3.29-4.13-.55.96-1.09 1.93-1.62 2.9l-1.14-1.98c-.26-14-.07-28.01-.07-42.01 2.46.03 4.91.03 7.39.1-.41.53-1.23 1.6-1.64 2.13.17-.12.5-.36.67-.48.91-2.53 3.91-1.51 5.98-1.76 4.02-.25 7.99.58 12.01.69m8.15 190.64c.6.58.6.58 0 0m-.6 4.57c-.02.44-.07 1.32-.09 1.75.97.13 1.96.26 2.97.42l-.05-.83c.85-.27 2.55-.82 3.4-1.09-2.11-.2-4.15-.22-6.23-.25m-1.35 24.68c.61.62.61.62 0 0z"/>
  <path d="m1282.83 622.58c-3.11-.85-1.92-3.7-.72-5.74.72 1.82.65 3.8.72 5.74z"/>
  <path d="m1538.96 618.3c3.51.03-1.65 2.94 0 0z"/>
  <path d="m1574.59 617.72c4.5.01 9.01-.09 13.53.05.13.63.4 1.88.54 2.5-.02-.68-.05-2.04-.06-2.72 2.63.6 7.03-1.37 7.78 2.31-.09-.55-.27-1.63-.36-2.17 15.31-.04 30.62.01 45.93.03-.71 1.07-1.4 2.15-2.05 3.25.43-.4 1.29-1.2 1.72-1.6 1.09.44 2.21.87 3.35 1.29.48.87.99 1.75 1.53 2.62-.45-1.25-.92-2.49-1.33-3.73-.54.02-1.62.06-2.15.08.62-2.05 1.93-2.6 3.92-1.66 1.13 1.23 2 2.68 2.87 4.14-.15-.73-.28-1.44-.39-2.15-.33-.46-.98-1.38-1.3-1.83 2.7-1.07 5.7-.1 8.56-.45.04 10.17-.13 20.35.1 30.53-7.21.02-14.4-.02-21.59.04.17 20.92 0 41.84.07 62.76-.23 1.64.57 3.62-.33 5.09-.39.18-1.17.55-1.56.73.03.06.09.16.12.21.36.25 1.07.74 1.42.99.88 6.89.02 13.96.35 20.92 0 28.29-.09 56.57.02 84.85-1.21-.96-2.61-1.45-3.99-1.96.03-.95.1-1.88.2-2.81-1.05 1.46-3.47 2.45-3.1 4.53l.47.43c.29 1.12 3.44 3.41 1.09 3.94-.61.2-1.84.6-2.46.8.06-.72.16-2.16.22-2.88-.64.65-1.26 1.31-1.87 1.97-.52 1.89-1.15 3.75-1.76 5.62-1.69 0-4.46 1.23-3.79-2.02.61.08 1.83.26 2.44.34-.11-.41-.34-1.22-.45-1.63.48-.17 1.45-.51 1.93-.68-1.77.01-3.5 0-5.22-.06l.37.66c-.78 1.05-1.01 2.33-1.33 3.56l1.7-.26c-.13 1.01-.4 3.03-.53 4.04.77-.97 1.54-1.95 2.34-2.9.08.69.24 2.08.32 2.77 1.66-2.67 3.37-5.31 5.45-7.68.07 1.84.28 3.6 2.25 4.32-.44 1.75-.77 3.52-1 5.31-2.31-.24.08 1.45.49 2.28.11-2.99.36-5.92 1.68-8.66-.98-.57-1.77-1.31-2.39-2.19.71-.14 2.11-.41 2.81-.55.33.02.98.07 1.31.09.18.82.54 2.45.72 3.26.29-1.43.54-2.86.77-4.29-.14-.56-.43-1.67-.57-2.22-4.03 1.08-3.48-4.86-.03-3.46.52.31 1.56.93 2.08 1.24-2.19 5.79.86 11.81-.44 17.75-.74-1.44-1.35-2.88-1.98-4.33.6-1.7.53-3.45-.66-4.88.05 1.67.17 3.34.37 5.02-.45.37-1.35 1.12-1.8 1.49.58-.09 1.73-.28 2.31-.37.11 1.45.3 2.96.42 4.44-1.4-.19-3.04-.05-3.47-1.77-.01.39-.03 1.17-.04 1.57-1.53 0-3.04 0-4.54.01-.16-2.85-.79-5.9.99-8.4-.86.51-1.73 1.03-2.56 1.55.23.5.68 1.49.91 1.98-.3 1.7-.48 3.4-.5 5.15-.74-.12-2.23-.37-2.98-.49.42-1.57.93-3.09 1.38-4.64-.36.48-1.07 1.44-1.42 1.91-.65-.45-1.27-.9-1.86-1.33-.47 1.55-1.72 2.66-2.7 3.89-.16-1.42-.28-2.83-.35-4.22-2.37-1.82-4.37-4.05-6.74-5.84-.92.56-1.8 1.16-2.63 1.8-.3 2.92 4 3.75 5.1 1.08 2.51 1.85 3.56 4.81 4.78 7.56-6.99-.26-14.02-.35-21.01.02.53-2.32.56-4.69-.26-6.93l.54-.09c-.08-1.05-.28-2.06-.59-3.05.38-1.27 1.22-2.12 2.5-2.56-.07 1.89-1.14 3.53-1.5 5.32.5-.52 1.48-1.55 1.98-2.06 1.41.27 2.83.19 4.23-.24l-2.03-.65-2.28.33c-.08-2.22.26-4.37 1.79-6.07.05.97.16 2.9.21 3.86 2.04.56 3.41-.02 3.5-2.41.08.87.25 2.61.33 3.48 1.08-.04 3.22-.13 4.29-.17.21-2.58-.56-4.75-2.29-6.52-.01 1.03-.04 3.1-.05 4.13l-.76-.14c-.07-.79-.22-2.38-.29-3.18-1.86-.18-3.69-.19-5.51-.24-1 1.41-2.11 2.74-3.14 4.12-.23-1.8-.39-3.58-.55-5.36.33-2.66.24-5.33.25-8 .73-1.07 1.36-2.23 1.72-3.49-.55.87-1.65 2.59-2.2 3.46.34-2.22-1.56-6.59 2.38-6.11-.85-.25-1.69-.48-2.51-.69.06-7.93.01-15.85.04-23.77.67-.43 1.35-.85 2.06-1.26-.53.15-1.59.44-2.12.59.16-45.9-.09-91.81.12-137.71-7.2-.07-14.4 0-21.59-.07.03-7.72.26-15.44.07-23.15.62-.58 1.26-1.14 1.92-1.69.08.94.23 2.83.31 3.77.03-1.29.06-2.58.1-3.85-.59.02-1.77.06-2.35.08.11-1.88.2-3.75.26-5.62m58.35 187.6c-1.76 2.8 3.37.36 0 0m-28.29 12.99c-.83.87-1.65 1.74-2.45 2.62 1.29 1.25 2.32 2.77 3.19 4.37.08-1.45.74-2.58 1.96-3.42.12-.46.37-1.39.49-1.86-1.13 1.18-2.27 2.41-3.57 3.37.36-1.52.81-3.02 1.36-4.48-.25-.15-.74-.45-.98-.6m6.31 13.27c.95 0 2.85-.01 3.8-.01-.23-1.59-.47-3.16-.7-4.72-1.44 1.3-2.92 2.64-3.1 4.73m4.81-3.44c.24.28.73.85.97 1.14 2.53-.3-.45-3.68-.97-1.14m-5.51 3.61c.42.22.42.22 0 0m4.67 1.78c-1.48 1.42 1.82 3.29 2.57 1.53-.37-1.31-1.23-1.82-2.57-1.53m-15.53 2.32c.58.69.58.69 0 0m6.8 1.47c-1.42 2.99 3.51-.12 0 0m11.07-.09c.48.66.48.66 0 0z"/>
  <path d="m1548.46 621.02c.67-.97 3.55-.41 3.13.87-.94.51-3.18.61-3.13-.87z"/>
  <path d="m1280.42 624c2.96-1.41.01 3.51 0 0z"/>
  <path d="m1273.47 637.49c-.47-1.62.11-2.22 1.75-1.78.43 1.62-.15 2.22-1.75 1.78z"/>
  <path d="m1282.88 643.27c.26-1.14.9-1.97 1.93-2.5l.43.47c-.18.76-.54 2.28-.72 3.04-.97.63-1.52.29-1.64-1.01z"/>
  <path d="m1279.71 642.9c.73-1.57 2 .35 2.28 1.2.72.6.9 2.87-.61 2.03-1.21-.77-1.77-1.84-1.67-3.23z"/>
  <path d="m1278.69 649.85c.81-1.12 1.69-2.18 2.63-3.2.18 1.53.55 3.22-.63 4.49-.28 1.79.58 4.77-2.28 4.87.43-2.07 1.21-4.12.28-6.16z"/>
  <path d="m1326.2 661.58c2.58-.43.53 2.81-.5.75z"/>
  <path d="m1746.4 798.24 1.28.17c-.02 3.04-.01 6.09.23 9.13-1.14.14-2.69-.21-3.25 1.26-2.49-2 .05-4.87.14-7.35l.76.09-.34-1.41 1.53.69c-.09-.65-.27-1.93-.35-2.58z"/>
  <path d="m1619.7 840.91c1.19-.29 2.08 1.57 1.12 2.35-1.04.55-2.11.61-3.2.2-.12-1.06 1.38-1.83 2.08-2.55z"/>
 </g>
</svg>
