<?xml version="1.0" encoding="utf-8"?>
<svg version="1.1" id="Layer_1" xmlns="http://www.w3.org/2000/svg" xmlns:xlink="http://www.w3.org/1999/xlink" x="0px" y="0px" width="53" height="58" viewBox="0 0 53 58" style="enable-background:new 0 0 53 58;" xml:space="preserve">
<style type="text/css">
	.st0{fill: #000;}
</style>
<path d="M19.8702 2.36297C9.66911 2.36297 5.11786 5.42757 2.3715 12.1849H0.958792L3.70515 0.555664H49.5319L52.2782 12.1849H50.8655C48.1191 5.42757 43.5679 2.36297 33.3668 2.36297H30.3063V8.64843C35.5639 9.27759 39.4088 10.8495 41.1357 10.8495C42.0772 10.8495 42.4694 10.3776 42.5484 8.80675H43.6459L47.805 21.4568H46.3933C43.4108 15.4068 37.5259 11.5568 30.3063 10.4557V15.9558C36.4274 17.3704 41.0566 22.4777 41.0566 28.9996C41.0566 35.5215 36.4274 40.6288 30.3063 42.0434V47.4653C37.8401 46.6007 44.6664 42.6726 47.5699 33.9507H48.9826L46.9426 44.008C43.9601 46.208 38.0752 48.8008 30.3063 49.4299C30.3854 54.8518 31.1698 55.9518 36.0352 55.9518H37.9181V57.4445H15.3179V55.9518H17.2018C22.0672 55.9518 22.8516 54.8518 22.9307 49.4299C8.96276 48.2508 0.722656 40.2361 0.722656 29.5506C0.722656 17.6849 9.59006 9.6703 22.9297 8.5703V2.36297H19.8691H19.8702ZM22.9307 47.3862V42.0434C16.8096 40.6288 12.1804 35.5215 12.1804 28.9996C12.1804 22.4777 16.8096 17.3704 22.9307 15.9558V10.3766C13.9853 11.7912 6.29443 18.7839 6.29443 29.3131C6.29443 38.7424 13.2779 45.8924 22.9307 47.3851M22.9307 40.2351V17.762C19.7921 19.4902 17.1238 23.4194 17.1238 28.9986C17.1238 34.5778 19.7921 38.5059 22.9307 40.2351ZM36.1142 28.9986C36.1142 23.4194 33.4459 19.4912 30.3074 17.762V40.2351C33.4459 38.5059 36.1142 34.5778 36.1142 28.9986Z" fill="black"></path>
</svg>
