<?xml version="1.0" encoding="utf-8"?>
<!-- Generator: Adobe Illustrator 25.1.0, SVG Export Plug-In . SVG Version: 6.00 Build 0)  -->
<svg version="1.1" id="Layer_1" xmlns="http://www.w3.org/2000/svg" xmlns:xlink="http://www.w3.org/1999/xlink" x="0px" y="0px"
	 viewBox="0 0 170.9 58.6" style="enable-background:new 0 0 170.9 58.6;" xml:space="preserve">
<path d="M0.6,38.4c2.2-0.2,3.6-0.6,4.3-1.2c0.7-0.5,1-1.9,1-4.2V6.5c0-2.1-0.3-3.5-1-4.1c-0.6-0.6-2.1-1-4.3-1.2V0h16.9v1.1
	c-2.2,0.1-3.7,0.5-4.4,1.1c-0.7,0.6-1.1,1.9-1.1,3.9v28.7c0,0.7,0.1,1.2,0.3,1.6c0.2,0.4,0.7,0.6,1.5,0.7c0.4,0.1,0.9,0.1,1.4,0.1
	c0.5,0,1.4,0,2.8,0c5.3,0,8.9-0.4,10.8-1.3c1.9-0.9,3.7-3.1,5.4-6.7h1.5l-2.9,10.4H0.6V38.4z M45.1,0v1c-1.5,0-2.5,0.1-3.1,0.3
	c-1,0.3-1.4,1-1.4,1.9c0,0.5,0.2,1.2,0.5,2.1c0.3,0.9,1,2.4,1.9,4.4l9.3,20.8L60.8,8c0.4-1,0.7-1.8,0.9-2.5C61.9,4.8,62,4.3,62,3.8
	c0-1.2-0.5-1.9-1.5-2.4c-0.6-0.2-1.6-0.4-2.9-0.4V0h12.2v1c-1.3,0.2-2.2,0.5-2.8,1c-0.9,0.8-1.8,2.3-2.7,4.6L51.1,40.3h-0.9
	L35.5,7.4c-1.2-2.8-2.3-4.5-3-5.2c-0.7-0.7-1.8-1.1-3.3-1.2V0H45.1z M72.1,38.4c2.5-0.3,4-0.8,4.7-1.7s1-2.9,1-6V6.5
	c0-2.2-0.3-3.6-1-4.2c-0.7-0.7-2.2-1-4.6-1.1V0H84l13.7,29.8L111.1,0H123v1.1c-2.2,0.2-3.6,0.6-4.3,1.2c-0.6,0.7-1,2-1,4.1V33
	c0,2.2,0.3,3.6,1,4.2c0.6,0.6,2.1,1,4.3,1.2v1.1h-16.8v-1.1c2.4-0.2,3.9-0.6,4.5-1.3c0.6-0.7,0.9-2.3,0.9-4.8V5.5l-15.3,34h-0.8
	l-15-32.6v23.8c0,3.3,0.5,5.4,1.4,6.4c0.6,0.6,2,1.1,4.2,1.3v1.1h-14L72.1,38.4z M129.5,38.4c2.3-0.3,3.8-0.7,4.4-1.3
	c0.6-0.6,0.9-2.2,0.9-4.8V6.5c0-2.1-0.3-3.5-1-4.1c-0.6-0.6-2.1-1-4.3-1.2V0h16.6v1.1c-2.2,0.2-3.6,0.5-4.3,1.2c-0.7,0.6-1,2-1,4.1
	v11.7h18.1V6.5c0-2.1-0.3-3.5-1-4.1c-0.6-0.6-2.1-1-4.3-1.2V0h16.6v1.1c-2.2,0.2-3.6,0.5-4.3,1.2c-0.7,0.6-1,2-1,4.1v26.6
	c0,2.2,0.3,3.5,1,4.1c0.6,0.6,2.1,1,4.3,1.2v1.1h-16.6v-1.1c2.4-0.2,3.8-0.7,4.4-1.3c0.6-0.6,0.9-2.2,0.9-4.8V20.7h-18.1v12.3
	c0,2.2,0.3,3.5,1,4.1c0.7,0.6,2.1,1,4.3,1.2v1.1h-16.6L129.5,38.4z M0.5,43.6h169.9v2.5H0.5L0.5,43.6z M32.8,58.2
	C32.9,58.2,32.9,58.2,32.8,58.2c0.1-0.1,0.1-0.1,0.1-0.1"/>
<path d="M32.9,58.1v-8.3c0-0.1,0-0.1-0.1-0.1l-0.6,0c-0.1,0-0.1,0.1-0.1,0.1v8.3c0,0.1,0,0.1,0.1,0.1l0.6,0
	C32.9,58.2,32.9,58.2,32.9,58.1C32.9,58.1,32.9,58.1,32.9,58.1 M38.7,58.1v-8.3c0-0.1,0-0.1-0.1-0.1l-0.6,0c-0.1,0-0.1,0.1-0.1,0.1
	v8.3c0,0.1,0,0.1,0.1,0.1l0.6,0C38.6,58.2,38.7,58.2,38.7,58.1L38.7,58.1 M3.7,54.5c-0.1,0-0.1,0-0.2-0.1l-2.8-3.5l0,7.2
	c0,0.1,0,0.1-0.1,0.1H0.1c-0.1,0-0.1,0-0.1-0.1v-8.3c0-0.1,0.1-0.1,0.1-0.1h0.7l2.9,3.6"/>
<path d="M3.7,54.5c0.1,0,0.1,0,0.1-0.1l2.8-3.5l0,7.2c0,0.1,0,0.1,0.1,0.1h0.6c0.1,0,0.1,0,0.1-0.1l0-8.3c0-0.1-0.1-0.1-0.1-0.1H6.7
	l-2.9,3.6 M28.9,49.8c0-0.1,0-0.1-0.1-0.1c0,0,0,0,0,0l-6.3,0c-0.1,0-0.1,0.1-0.1,0.1v0.5c0,0.1,0,0.1,0.1,0.1h6.3
	c0.1,0,0.1,0,0.1-0.1l0,0V49.8 M25.1,58.1c0,0.1,0,0.1,0.1,0.1h0.6c0.1,0,0.1-0.1,0.1-0.1v-7.6c0-0.1,0.1-0.1,0.1-0.1h-1
	c0.1,0,0.1,0.1,0.1,0.1L25.1,58.1 M22,49.7C22,49.7,22.1,49.8,22,49.7l0.1,0.6c0,0.1,0,0.1-0.1,0.1c0,0,0,0,0,0h-3.4
	c-0.1,0-0.1,0-0.1,0.1l0,0l0,6.9c0,0.1,0,0.1,0.1,0.1H22c0.1,0,0.1,0,0.1,0.1v0.5c0,0.1,0,0.1-0.1,0.1h0h-4.2c-0.1,0-0.1,0-0.1-0.1
	v-8.3c0-0.1,0-0.1,0.1-0.1L22,49.7"/>
<path d="M18.3,53.6v0.7H22c0.1,0,0.1,0,0.1-0.1c0,0,0,0,0,0v-0.5c0-0.1,0-0.1-0.1-0.1h0L18.3,53.6 M44.2,49.7
	C44.3,49.7,44.3,49.8,44.2,49.7l0.1,0.6c0,0.1-0.1,0.1-0.1,0.1h-3.4c-0.1,0-0.1,0-0.1,0.1l0,6.9c0,0.1,0,0.1,0.1,0.1h3.4
	c0.1,0,0.1,0,0.1,0.1v0.5c0,0.1,0,0.1-0.1,0.1H40c-0.1,0-0.1,0-0.1-0.1v-8.3c0-0.1,0-0.1,0.1-0.1L44.2,49.7"/>
<path d="M40.6,53.6v0.7h3.6c0.1,0,0.1,0,0.1-0.1c0,0,0,0,0,0v-0.5c0-0.1,0-0.1-0.1-0.1L40.6,53.6 M67,49.7c0.1,0,0.1,0,0.1,0.1
	l0,0.5c0,0.1,0,0.1-0.1,0.1l0,0h-3.4c-0.1,0-0.1,0-0.1,0.1l0,6.9c0,0.1,0,0.1,0.1,0.1H67c0.1,0,0.1,0,0.1,0.1v0.5
	c0,0.1,0,0.1-0.1,0.1l0,0h-4.2c-0.1,0-0.1,0-0.1-0.1v-8.3c0-0.1,0-0.1,0.1-0.1L67,49.7"/>
<path d="M63.3,53.6v0.7H67c0.1,0,0.1,0,0.1-0.1v-0.5c0-0.1,0-0.1-0.1-0.1l0,0L63.3,53.6 M19,49.3c0.3,0,0.5-0.2,0.5-0.5
	c0-0.3-0.2-0.5-0.5-0.5s-0.5,0.2-0.5,0.5S18.8,49.3,19,49.3 M20.7,49.3c0.3,0,0.5-0.2,0.5-0.5c0-0.3-0.2-0.5-0.5-0.5
	c-0.3,0-0.5,0.2-0.5,0.5C20.2,49.1,20.4,49.3,20.7,49.3 M32.8,53.6H38v0.7h-5.2V53.6z M80.1,58.2c-0.1,0-0.1,0-0.1-0.1c0,0,0,0,0,0
	v-4.6h0.8l0,4.5c0,0.1,0,0.1-0.1,0.1L80.1,58.2"/>
<path d="M80.6,53.5l-2.8-3.5l-1,0l3.1,4L80.6,53.5z M46.3,51v7.1c0,0.1,0,0.1-0.1,0.1c0,0,0,0,0,0l-0.6,0c-0.1,0-0.1,0-0.1-0.1
	c0,0,0,0,0,0v-8.3c0-0.1,0-0.1,0.1-0.1l0.7,0l5.7,7.3l0-7.2c0-0.1,0-0.1,0.1-0.1h0.6c0,0,0.1,0.1,0.1,0.1v8.3c0,0.1-0.1,0.1-0.1,0.1
	H52c0,0-0.2,0-0.2-0.1L46.3,51 M54.7,51v7.1c0,0.1,0,0.1-0.1,0.1c0,0,0,0,0,0l-0.6,0c-0.1,0-0.1,0-0.1-0.1c0,0,0,0,0,0v-8.3
	c0-0.1,0-0.1,0.1-0.1l0.7,0l5.7,7.3v-7.2c0-0.1,0-0.1,0.1-0.1h0.6c0,0,0.1,0.1,0.1,0.1l0,8.3c0,0.1-0.1,0.1-0.1,0.1h-0.6
	c0,0-0.2,0-0.2-0.1L54.7,51 M67.5,57.7l0.6-0.7c0.4,0.4,1,0.6,1.6,0.6c1,0,1.6-0.7,1.6-1.4c0-0.4-0.2-0.9-0.8-1.3l-2-1.4
	c-0.6-0.4-0.9-1-0.9-1.7c0-1.2,1.1-2.2,2.4-2.2c0.8,0,1.5,0.3,2,0.8l-0.6,0.7c-0.4-0.4-0.9-0.6-1.4-0.6c-0.9,0-1.5,0.7-1.5,1.3
	c0,0.3,0.1,0.7,0.6,1l2,1.4c0.8,0.6,1.1,1.3,1.1,2c0,1.3-1.1,2.3-2.5,2.3h0C68.9,58.5,68.1,58.2,67.5,57.7 M72.4,57.7L73,57
	c0.4,0.4,1,0.6,1.6,0.6c1,0,1.6-0.7,1.6-1.4c0-0.4-0.2-0.9-0.8-1.3l-2-1.4c-0.6-0.4-0.9-1-0.9-1.7c0-1.2,1.1-2.2,2.4-2.2
	c0.8,0,1.5,0.3,2,0.8l-0.6,0.7c-0.4-0.4-0.9-0.6-1.4-0.6c-0.9,0-1.5,0.7-1.5,1.3c0,0.3,0.1,0.7,0.6,1l2,1.4c0.8,0.6,1.1,1.3,1.1,2
	c0,1.3-1.1,2.3-2.5,2.3h0C73.8,58.5,73,58.2,72.4,57.7"/>
<path d="M80.1,53.5l2.8-3.5l1,0l-3.1,4L80.1,53.5z M86.2,56.9c-0.1,0-0.1,0-0.1,0.1c0,0.1,0,0.1,0.1,0.1c0,0,0,0,0,0V56.9
	 M88.6,57.1c0.1,0,0.1,0,0.1-0.1c0-0.1,0-0.1-0.1-0.1c0,0,0,0,0,0V57.1 M87.3,58.5c0,0.1,0,0.1,0.1,0.1c0.1,0,0.1,0,0.1-0.1
	c0,0,0,0,0,0H87.3 M87.5,55.6c0-0.1,0-0.1-0.1-0.1l0,0c-0.1,0-0.1,0-0.1,0.1v0H87.5"/>
<path d="M86.2,56.9l1.2-1.4h0.1l1.2,1.4V57l-1.2,1.5h-0.1L86.2,57V56.9z M93.8,49.8c0-0.1,0-0.1-0.1-0.1l-0.6,0
	c-0.1,0-0.1,0-0.1,0.1v8.3c0,0.1,0.1,0.1,0.1,0.1l4.2,0c0.1,0,0.1,0,0.1-0.1c0,0,0,0,0,0v-0.5c0-0.1,0-0.1-0.1-0.1h-3.4
	c-0.1,0-0.1,0-0.1-0.1c0,0,0,0,0,0L93.8,49.8 M115.6,58.1C115.6,58.2,115.6,58.2,115.6,58.1c-0.1,0.1-0.1,0.1-0.1,0.1l-0.6,0
	c-0.1,0-0.1,0-0.1-0.1c0,0,0,0,0,0"/>
<path d="M114.8,58.1v-8.3c0-0.1,0-0.1,0.1-0.1h0.6c0.1,0,0.1,0,0.1,0.1v8.3 M140.1,58.1v-8.3c0-0.1,0-0.1,0.1-0.1h0.6
	c0.1,0,0.1,0,0.1,0.1v8.3 M107.2,49.7h-0.8v5.3h0.8V49.7z M113.2,55.1v-5.3l-0.8,0v5.3L113.2,55.1z M112.4,55.1
	c-0.1,1.5-1.3,2.6-2.8,2.5c-1.3-0.1-2.4-1.2-2.5-2.5h-0.8c0,1.9,1.5,3.4,3.4,3.4c1.9,0,3.4-1.5,3.4-3.4c0,0,0,0,0,0H112.4
	 M132.4,49.7h-0.8v5.3h0.8V49.7z M138.5,55.1v-5.3l-0.8,0v5.3L138.5,55.1z M137.7,55.1c0.1,1.5-1,2.7-2.5,2.8
	c-1.5,0.1-2.7-1-2.8-2.5c0-0.1,0-0.2,0-0.3h-0.8c0,1.9,1.5,3.4,3.4,3.4c1.9,0,3.4-1.5,3.4-3.4H137.7 M117,57.6l0.6-0.7
	c0.6,0.5,1.1,0.6,1.6,0.6c1,0,1.6-0.7,1.6-1.4c0-0.4-0.2-0.9-0.8-1.3l-2-1.4c-0.6-0.4-0.9-1-0.9-1.7c0-1.2,1.1-2.2,2.4-2.2
	c0.8,0,1.5,0.3,2,0.8l-0.6,0.7c-0.4-0.4-0.9-0.6-1.4-0.6c-0.9,0-1.5,0.7-1.5,1.3c0,0.3,0.1,0.7,0.6,1l2,1.4c0.8,0.6,1.1,1.3,1.1,2
	c0,1.3-1.1,2.3-2.5,2.3h0C118.3,58.4,117.5,58.1,117,57.6 M127.8,57.1l2.8-7.4h0.8l-3.3,8.5h-0.7l-3.3-8.5h0.8L127.8,57.1
	 M148.1,49.8c0-0.1,0-0.1-0.1-0.1l0,0h-6.3c-0.1,0-0.1,0.1-0.1,0.1l0,0.5c0,0.1,0,0.1,0.1,0.1h6.3c0.1,0,0.1,0,0.1-0.1V49.8
	 M144.4,58.1c0,0.1,0.1,0.1,0.1,0.1h0.6c0.1,0,0.1-0.1,0.1-0.1v-7.6c0-0.1,0.1-0.1,0.1-0.1h-1c0.1,0,0.1,0.1,0.1,0.1V58.1
	 M154.7,49.8c0-0.1,0-0.1-0.1-0.1l0,0h-6.3c-0.1,0-0.1,0.1-0.1,0.1v0.5c0,0.1,0,0.1,0.1,0.1h6.3c0.1,0,0.1,0,0.1-0.1V49.8 M151,58.1
	c0,0.1,0.1,0.1,0.1,0.1h0.6c0.1,0,0.1-0.1,0.1-0.1v-7.6c0-0.1,0.1-0.1,0.1-0.1h-1c0.1,0,0.1,0.1,0.1,0.1L151,58.1 M164.4,51.1l0,7.1
	c0,0.1,0,0.1-0.1,0.1l0,0l-0.6,0c-0.1,0-0.1,0-0.1-0.1v0v-8.3c0-0.1,0-0.1,0.1-0.1h0.7l5.7,7.3v-7.2c0-0.1,0-0.1,0.1-0.1h0.6
	c0.1,0,0.1,0.1,0.1,0.1v8.3c0,0.1-0.1,0.1-0.1,0.1h-0.6c0,0-0.2,0-0.2-0.1L164.4,51.1 M12.5,50.4c2,0.1,3.5,1.7,3.5,3.5
	c0,1.9-1.6,3.5-3.5,3.5s-3.5-1.6-3.5-3.5C8.9,52,10.4,50.5,12.5,50.4l0-0.9c-2.5,0.1-4.4,1.9-4.4,4.4c0,2.4,2,4.4,4.4,4.4
	s4.4-2,4.4-4.4l0,0c0-2.3-1.9-4.2-4.4-4.4L12.5,50.4 M101.4,50.5c2,0.2,3.5,1.7,3.5,3.5c0,1.9-1.6,3.5-3.5,3.5S97.8,56,97.8,54
	C97.8,52.1,99.3,50.6,101.4,50.5l0-0.8C98.9,49.8,97,51.6,97,54c0,2.4,2,4.4,4.4,4.4c2.4,0,4.4-2,4.4-4.4c0-2.4-1.9-4.3-4.4-4.4
	L101.4,50.5 M158.4,50.5c2,0.2,3.5,1.7,3.5,3.5c0.1,1.9-1.4,3.6-3.3,3.7c-1.9,0.1-3.6-1.4-3.7-3.3c0-0.1,0-0.2,0-0.3
	C154.8,52.1,156.3,50.6,158.4,50.5l0-0.8c-2.5,0.1-4.4,1.9-4.4,4.4c-0.1,2.4,1.8,4.4,4.2,4.5c2.4,0.1,4.4-1.8,4.5-4.2
	c0-0.1,0-0.2,0-0.3c0-2.3-1.9-4.2-4.4-4.4L158.4,50.5"/>
<path d="M140.9,58.1C140.9,58.2,140.9,58.2,140.9,58.1l-0.7,0.1c-0.1,0-0.1,0-0.1-0.1c0,0,0,0,0,0"/>
</svg>
