<svg xmlns="http://www.w3.org/2000/svg" viewBox="3150.88 1312.03 286.5 86.14">
	<path d="M3306.2,1381.99c-4.81,0-8.31,3.15-8.31,8.09s3.5,8.09,8.31,8.09,8.31-3.15,8.31-8.09-3.5-8.09-8.31-8.09ZM3306.2,1395.04c-2.89,0-4.78-2.09-4.78-4.96s1.89-4.96,4.78-4.96,4.78,2.09,4.78,4.96-1.89,4.96-4.78,4.96Z
M3330.58,1391.77h2.76v2.5c-.63.35-1.72.76-3.2.76-2.89,0-4.78-2.09-4.78-4.96s1.89-4.96,4.78-4.96c1.72,0,2.83.5,3.74,1.46l2.39-2.61c-1.54-1.44-3.7-1.98-6.13-1.98-4.81,0-8.31,3.15-8.31,8.09s3.5,8.09,8.31,8.09c2.26,0,4.46-.43,6.46-1.48v-8.05h-6.02v3.13Z
M3360.59,1386.71c0-1.15,1.33-1.59,2.28-1.59.83,0,1.91.33,2.46,1.02l2.33-2.54c-1.3-1.15-2.98-1.61-4.72-1.61-3.02,0-5.87,1.72-5.87,5,0,5.13,7.22,3.61,7.22,6.44,0,1.09-1.24,1.61-2.35,1.61s-2.26-.54-2.96-1.46l-2.41,2.65c1.46,1.35,3.2,1.94,5.18,1.94,3.17,0,5.94-1.63,5.94-5.07,0-5.39-7.09-3.59-7.09-6.39Z
M3413.71,1395.04c-2.46,0-4.35-2.09-4.35-4.96s1.89-4.96,4.46-4.96c1.26,0,2.24.46,2.91,1.26l2.61-2.13c-1.3-1.67-3.48-2.26-5.2-2.26-4.81,0-8.31,3.15-8.31,8.09s3.5,8.09,8.31,8.09c2.11,0,4.28-.85,5.57-2.67l-2.83-2.11c-.7,1.04-1.8,1.65-3.17,1.65Z
M3430.29,1386.71c0-1.15,1.33-1.59,2.28-1.59.83,0,1.91.33,2.46,1.02l2.33-2.54c-1.3-1.15-2.98-1.61-4.72-1.61-3.02,0-5.87,1.72-5.87,5,0,5.13,7.22,3.61,7.22,6.44,0,1.09-1.24,1.61-2.35,1.61s-2.26-.54-2.96-1.46l-2.41,2.65c1.46,1.35,3.2,1.94,5.18,1.94,3.17,0,5.94-1.63,5.94-5.07,0-5.39-7.09-3.59-7.09-6.39Z
M3437.37,1368.83l-26.98-43.48h0s-.11-.18-.11-.18l-3.83-6.18c-.27-.45-.58-.88-.92-1.29-2.73-3.58-6.91-5.67-11.45-5.67-.04,0-.09,0-.13,0-.16,0-.78,0-.94,0-.04,0-.09,0-.13,0-4.54,0-8.73,2.09-11.45,5.67-.34.41-.65.84-.92,1.29l-3.83,6.18h0l-27.33,43.65h53.51l-13.8-55.76,34.73,55.76h13.59Z
M3150.88,1333.91v13.94c0,11.56,9.41,20.97,20.97,20.97h40.14v-11.58h-40.14c-5.18,0-9.39-4.21-9.39-9.39v-13.94c0-5.18,4.21-9.39,9.39-9.39h40.28v-11.58h-40.28c-11.56,0-20.97,9.41-20.97,20.97Z
M3357.19,1312.94l-27.5,44.02c-.8,1.28-2.07,1.41-2.56,1.4-.5,0-1.76-.15-2.54-1.45l-26.57-43.97h-13.35l30.15,49.89c2.61,4.32,7.17,6.92,12.21,6.97.04,0,.09,0,.13,0,4.99,0,9.54-2.52,12.21-6.76l31.3-50.1h-13.48Z
M3280.38,1357.24h-40.51c-5.18,0-9.39-4.48-9.39-9.65v-.47l35.29-.03c10.91,0,16.79-8.52,16.79-16.54v-1.04l.04-.02c0-8.02-5.89-16.54-16.79-16.54h-25.94c-11.56,0-20.97,9.41-20.97,20.97v13.67c0,11.56,9.41,21.23,20.97,21.23h40.51v-11.58ZM3230.48,1333.91c0-5.18,4.21-9.39,9.39-9.39h25.94c5.07,0,5.22,4.62,5.22,5.13v.7c0,.87-.23,5.19-4.81,5.19h-35.73v-1.63Z
M3284.72 1382.38 L3281.33 1382.38 L3281.33 1397.78 L3291 1397.78 L3291 1394.64 L3284.72 1394.64 Z
M3345.39 1382.38 H3348.78 V1397.78 H3345.39 Z
M3394.34 1382.38 H3397.73 V1397.78 H3394.34 Z
M3374.64 1385.38 L3379.03 1385.38 L3379.03 1397.78 L3382.42 1397.78 L3382.42 1385.38 L3386.81 1385.38 L3386.81 1382.38 L3374.64 1382.38 Z" fill="#000000"/>
</svg>