<svg xmlns="http://www.w3.org/2000/svg" viewBox="239.96 1584.23 371.9 70.74">
	<path d="M351.84,1652.37v-56.73c0-.72.58-1.29,1.29-1.29h31.47c.71,0,1.3.58,1.3,1.29v4.55c0,.72-.58,1.29-1.3,1.29h-25.44v18.68h22.68c.72,0,1.3.58,1.3,1.29v4.36c0,.72-.58,1.29-1.3,1.29h-22.68v19.42h25.45c.71,0,1.29.58,1.29,1.3v4.55c0,.71-.58,1.3-1.3,1.29h-31.47c-.71,0-1.29-.58-1.29-1.3Z
M593.81,1647.27h.01c3.59,0,6.2-.85,7.92-2.4,1.7-1.53,2.62-3.85,2.62-7.03h0c.02-2.12-.7-4.17-2.05-5.8-1.34-1.63-3.22-2.72-5.3-3.1h-.03s-9.8-2.59-9.8-2.59c-3.57-.88-6.73-2.98-8.91-5.94-2.18-2.96-3.26-6.58-3.05-10.25,0-4.87,1.73-8.97,4.79-11.86,3.06-2.89,7.39-4.51,12.52-4.51,5.73,0,9.95,1.94,12.9,4.92,2.93,2.97,4.56,6.91,5.22,10.87.13.8-.49,1.49-1.27,1.49h-4.51c-.67,0-1.21-.51-1.3-1.13-.36-2.48-1.6-4.76-3.49-6.42-2.02-1.77-4.64-2.69-7.32-2.59h-.01s-.01,0-.01,0c-3.18,0-5.72.93-7.45,2.51-1.72,1.58-2.72,3.87-2.72,6.74v.03c-.1,2.12.55,4.2,1.83,5.89,1.28,1.69,3.12,2.87,5.18,3.34h.01s10.15,2.77,10.15,2.77c3.55.88,6.69,2.94,8.9,5.86,2.21,2.91,3.35,6.49,3.24,10.15,0,5.05-1.72,9.21-4.86,12.11-3.13,2.89-7.6,4.45-12.98,4.45-2.53.11-5.06-.31-7.43-1.22-2.37-.91-4.53-2.3-6.35-4.08-1.81-1.78-3.24-3.92-4.2-6.27-.89-2.18-1.35-4.51-1.36-6.87,0-.69.54-1.24,1.2-1.28l4.37-.29c.76-.05,1.36.55,1.4,1.26.06,1.38.37,2.74.91,4.02.61,1.46,1.52,2.78,2.65,3.88,1.14,1.1,2.48,1.97,3.96,2.54,1.48.57,3.05.84,4.64.79h.01Z
M546.07,1629.17v23.2c0,.71.58,1.29,1.29,1.3h4.74c.72,0,1.3-.58,1.3-1.29v-23.2l18.76-32.89c.49-.86-.13-1.94-1.12-1.94h-5.1c-.47,0-.9.25-1.13.65l-15.08,26.47-15.08-26.47c-.23-.4-.66-.65-1.13-.65h-5.29c-1,0-1.62,1.08-1.12,1.94l18.95,32.89Z
M506.7,1647.27h.01c3.59,0,6.2-.85,7.92-2.4,1.7-1.53,2.62-3.85,2.62-7.03h0c.02-2.12-.7-4.17-2.05-5.8-1.34-1.63-3.22-2.72-5.3-3.1h-.03s-9.8-2.59-9.8-2.59c-3.57-.88-6.73-2.98-8.91-5.94-2.18-2.96-3.26-6.58-3.06-10.25,0-4.87,1.73-8.97,4.79-11.86,3.06-2.89,7.39-4.51,12.52-4.51,5.73,0,9.95,1.94,12.9,4.92,2.93,2.97,4.56,6.91,5.22,10.87.13.8-.49,1.49-1.27,1.49h-4.51c-.67,0-1.21-.51-1.3-1.13-.36-2.48-1.6-4.76-3.49-6.42-2.02-1.77-4.64-2.69-7.32-2.59h-.01s-.01,0-.01,0c-3.18,0-5.72.93-7.45,2.51-1.72,1.58-2.72,3.87-2.72,6.74v.03c-.1,2.12.55,4.2,1.83,5.89,1.28,1.69,3.12,2.87,5.18,3.34h.01s10.15,2.77,10.15,2.77c3.55.88,6.69,2.94,8.9,5.86,2.21,2.91,3.35,6.49,3.24,10.15,0,5.05-1.72,9.21-4.86,12.11-3.13,2.89-7.6,4.45-12.98,4.45-2.53.11-5.06-.31-7.43-1.21-2.37-.91-4.53-2.3-6.35-4.08-1.82-1.78-3.25-3.91-4.2-6.27-.89-2.18-1.35-4.51-1.37-6.87,0-.69.54-1.24,1.2-1.28l4.38-.3c.76-.05,1.36.55,1.4,1.26.07,1.38.37,2.74.91,4.02.61,1.46,1.52,2.78,2.65,3.88,1.14,1.1,2.48,1.97,3.96,2.54,1.48.57,3.05.84,4.64.79h.01Z
M447.55,1652.37v-56.73c0-.72.58-1.29,1.29-1.29h31.47c.72,0,1.3.58,1.3,1.29v4.55c0,.72-.58,1.29-1.3,1.29h-25.44v18.68h22.68c.71,0,1.29.58,1.29,1.29v4.36c0,.72-.58,1.29-1.29,1.29h-22.68v19.42h25.45c.71,0,1.29.58,1.29,1.3v4.55c0,.72-.58,1.3-1.3,1.3h-31.47c-.71,0-1.29-.58-1.29-1.3Z
M437.17,1595.64v56.73c0,.71-.58,1.29-1.29,1.3h-4.8c-.45,0-.87-.23-1.11-.62l-27.1-44.75v44.08c0,.71-.58,1.29-1.3,1.29h-4.73c-.72,0-1.3-.58-1.3-1.29v-56.73c0-.72.58-1.29,1.3-1.29h4.99c.45,0,.87.24,1.11.62l27.1,44.75v-44.08c0-.72.58-1.29,1.3-1.29h4.55c.72,0,1.3.58,1.3,1.29Z
M322.14,1600.74h-.02c-3.18,0-6.46.97-8.93,3.25-2.46,2.26-4.2,5.88-4.2,11.35v17.34c0,5.46,1.74,9.09,4.2,11.35,2.47,2.27,5.74,3.25,8.93,3.25s6.46-.97,8.93-3.25c2.46-2.26,4.2-5.88,4.2-11.35v-3.9h-12.54c-.72,0-1.3-.58-1.3-1.29v-4.54c0-.72.58-1.29,1.3-1.29h18.38c.71,0,1.29.58,1.29,1.29v9.73c0,6.42-1.98,11.85-5.54,15.7-3.56,3.85-8.64,6.04-14.72,6.04s-11.07-2.19-14.65-6.04c-3.58-3.84-5.61-9.28-5.61-15.7v-17.33c0-6.42,1.98-11.85,5.54-15.7,3.56-3.84,8.64-6.03,14.72-6.03,5.05-.17,9.97,1.63,13.71,5.02,3.59,3.25,5.83,7.71,6.3,12.51.08.77-.54,1.4-1.28,1.4h-4.56c-.67,0-1.21-.51-1.3-1.13-.42-2.97-1.9-5.69-4.18-7.65-2.4-2.08-5.5-3.16-8.67-3.02h-.02Z
M270.8,1633.39h-7.19c-2.93,0-5.73,1.14-7.8,3.16-2.07,2.02-3.23,4.77-3.23,7.63s1.16,5.61,3.23,7.63c2.07,2.02,4.87,3.16,7.8,3.16h7.19c2.93,0,5.73-1.14,7.8-3.16,2.07-2.02,3.23-4.77,3.23-7.63s-1.16-5.61-3.23-7.63c-2.07-2.02-4.87-3.16-7.8-3.16Z
M270.1,1605.49h-18.28c-3.15,0-6.16,1.22-8.39,3.41-2.22,2.18-3.47,5.14-3.47,8.22s1.25,6.04,3.47,8.22c2.22,2.18,5.24,3.41,8.39,3.41h18.28c1.56,0,3.1-.3,4.54-.89,1.44-.58,2.75-1.44,3.85-2.52,1.1-1.08,1.97-2.36,2.57-3.77.6-1.41.9-2.92.9-4.45s-.31-3.04-.9-4.45c-.6-1.41-1.47-2.69-2.57-3.77-1.1-1.08-2.41-1.94-3.85-2.52-1.44-.58-2.98-.89-4.54-.89Z
M265.2,1592.53c0-4.59,3.72-8.3,8.3-8.3h0c4.59,0,8.3,3.72,8.3,8.3h0c0,4.59-3.72,8.3-8.3,8.3h0c-4.59,0-8.3-3.72-8.3-8.3h0Z" fill="#000000"/>
</svg>