<svg xmlns="http://www.w3.org/2000/svg" viewBox="609.146 2100.82 262.2 47.5">
	<path d="M676.66,2116.56l6.1,16.26,6.13-16.26h3.52v19.35h-2.44v-16.1h-.05l-6.04,16.1h-2.2l-6.04-16.1h-.05v16.1h-2.44v-19.35h3.52Z
M706.65,2136.21c-.6,0-1.07-.17-1.42-.5-.35-.33-.53-.88-.53-1.64-.63.76-1.37,1.31-2.21,1.64-.84.33-1.75.5-2.72.5-.63,0-1.23-.07-1.79-.2-.56-.14-1.05-.36-1.48-.68-.42-.32-.76-.72-1-1.22-.24-.5-.37-1.1-.37-1.8,0-.79.14-1.45.41-1.95.27-.51.63-.92,1.07-1.23.44-.32.95-.56,1.52-.72.57-.16,1.15-.3,1.75-.41.63-.13,1.23-.22,1.8-.28.57-.06,1.07-.15,1.5-.27.43-.12.78-.29,1.03-.51.25-.23.38-.56.38-.99,0-.51-.09-.91-.28-1.22-.19-.31-.43-.54-.73-.7-.3-.16-.63-.27-1-.33-.37-.05-.74-.08-1.1-.08-.98,0-1.79.19-2.44.56-.65.37-1,1.07-1.06,2.1h-2.3c.04-.87.22-1.6.54-2.2s.76-1.08,1.3-1.45c.54-.37,1.17-.64,1.87-.8.7-.16,1.45-.24,2.22-.24.63,0,1.26.05,1.88.14.62.09,1.19.28,1.69.56.51.28.91.67,1.22,1.18.31.51.46,1.17.46,1.98v7.21c0,.54.03.94.09,1.19.06.25.28.38.64.38.2,0,.43-.04.7-.13v1.79c-.4.23-.95.35-1.65.35ZM703.43,2129.15c-.47.1-.96.18-1.48.24-.51.06-1.03.14-1.56.22-.52.08-.99.21-1.41.39-.42.18-.75.44-1.02.77-.26.33-.39.79-.39,1.37,0,.38.08.7.23.96.15.26.35.47.6.64.24.16.53.28.87.35.33.07.67.11,1.02.11.76,0,1.41-.1,1.95-.31.54-.21.98-.47,1.33-.79.34-.32.6-.66.76-1.03.16-.37.24-.72.24-1.04v-2.36c-.29.22-.67.38-1.14.47Z
M712.62,2121.9v2.22h.05c.96-1.7,2.48-2.55,4.55-2.55.92,0,1.69.13,2.3.38.61.25,1.11.61,1.49,1.06.38.45.65.99.8,1.61.15.62.23,1.31.23,2.07v9.22h-2.3v-9.49c0-.87-.25-1.55-.76-2.06-.51-.51-1.2-.76-2.09-.76-.7,0-1.31.11-1.83.33-.51.22-.94.52-1.29.92-.34.4-.6.86-.77,1.4-.17.53-.26,1.12-.26,1.75v7.91h-2.3v-14.01h2.17Z
M727.45,2121.9v1.9h.05c.38-.78.98-1.34,1.79-1.69.81-.35,1.71-.53,2.68-.53,1.08,0,2.03.2,2.83.6.8.4,1.47.93,2.01,1.61.53.68.94,1.46,1.21,2.34.27.89.41,1.83.41,2.82s-.13,1.93-.39,2.82c-.26.89-.66,1.66-1.19,2.32-.53.66-1.2,1.18-2.01,1.56-.8.38-1.74.57-2.81.57-.34,0-.73-.04-1.15-.11-.42-.07-.84-.19-1.26-.35-.42-.16-.81-.38-1.18-.66-.37-.28-.68-.63-.94-1.04h-.05v7.21h-2.3v-19.35h2.3ZM735.73,2126.87c-.17-.62-.43-1.18-.79-1.67-.35-.49-.8-.88-1.36-1.17-.55-.29-1.2-.43-1.94-.43-.78,0-1.44.15-1.98.46-.54.31-.99.71-1.33,1.21-.34.5-.59,1.06-.75,1.69-.15.63-.23,1.27-.23,1.92,0,.69.08,1.35.24,1.99.16.64.42,1.21.77,1.69.35.49.81.88,1.37,1.18.56.3,1.24.45,2.03.45s1.46-.15,1.99-.46c.53-.31.96-.71,1.29-1.22.33-.51.56-1.08.7-1.73.14-.65.22-1.32.22-2.01,0-.65-.09-1.29-.26-1.91Z
M740.53,2126.03c.29-.89.72-1.67,1.3-2.33.58-.66,1.29-1.18,2.14-1.56.85-.38,1.82-.57,2.93-.57s2.1.19,2.94.57c.84.38,1.55.9,2.13,1.56.58.66,1.01,1.44,1.3,2.33.29.89.43,1.86.43,2.89s-.14,1.99-.43,2.87c-.29.89-.72,1.66-1.3,2.32-.58.66-1.29,1.17-2.13,1.54-.84.37-1.82.56-2.94.56s-2.08-.19-2.93-.56c-.85-.37-1.56-.88-2.14-1.54-.58-.66-1.01-1.43-1.3-2.32-.29-.89-.43-1.84-.43-2.87s.14-1.99.43-2.89ZM742.88,2131.18c.23.66.54,1.21.94,1.65.4.44.86.78,1.4,1.02.53.24,1.1.35,1.69.35s1.16-.12,1.69-.35c.53-.23,1-.57,1.4-1.02.4-.44.71-.99.93-1.65.23-.66.34-1.41.34-2.26s-.11-1.6-.34-2.26c-.23-.66-.54-1.22-.93-1.67-.4-.45-.86-.79-1.4-1.03-.53-.23-1.1-.35-1.69-.35s-1.16.12-1.69.35c-.53.24-1,.58-1.4,1.03-.4.45-.71,1.01-.94,1.67-.23.66-.34,1.41-.34,2.26s.11,1.6.34,2.26Z
M767.18,2135.91l-2.85-11.14h-.05l-2.82,11.14h-2.49l-4.5-14.01h2.55l3.17,11.46h.05l2.82-11.46h2.52l2.93,11.46h.05l3.14-11.46h2.39l-4.47,14.01h-2.44Z
M785.35,2135.02c-1.05.8-2.37,1.19-3.96,1.19-1.12,0-2.09-.18-2.91-.54-.82-.36-1.51-.87-2.07-1.52-.56-.65-.98-1.43-1.26-2.33-.28-.9-.44-1.89-.47-2.95,0-1.07.16-2.04.49-2.93.32-.88.78-1.65,1.37-2.3.59-.65,1.28-1.16,2.09-1.52.8-.36,1.68-.54,2.64-.54,1.25,0,2.28.26,3.1.77.82.51,1.48,1.17,1.98,1.96.5.8.84,1.66,1.03,2.6.19.94.27,1.83.23,2.68h-10.49c-.02.61.05,1.2.22,1.75.16.55.42,1.04.79,1.46.36.42.82.76,1.38,1.02.56.25,1.22.38,1.98.38.98,0,1.77-.23,2.4-.68.62-.45,1.03-1.14,1.23-2.06h2.28c-.31,1.57-.99,2.76-2.03,3.55ZM784.79,2126.02c-.21-.49-.49-.91-.84-1.26-.35-.35-.77-.63-1.25-.84-.48-.21-1.01-.31-1.59-.31s-1.13.1-1.61.31c-.48.21-.89.49-1.23.85-.34.36-.61.78-.81,1.26-.2.48-.32.99-.35,1.53h8.05c-.04-.54-.16-1.06-.36-1.54Z
M792.12,2121.9v2.95h.05c.56-1.14,1.25-1.98,2.06-2.52.81-.54,1.84-.79,3.09-.76v2.44c-.92,0-1.71.13-2.36.38-.65.25-1.17.62-1.57,1.11-.4.49-.69,1.08-.87,1.78-.18.7-.27,1.5-.27,2.4v6.23h-2.3v-14.01h2.17Z
M811.36,2135.68c-1.12.44-2.25.66-3.39.66-1.45,0-2.74-.27-3.88-.8-1.14-.53-2.11-1.25-2.9-2.16-.8-.9-1.4-1.94-1.82-3.12-.42-1.17-.62-2.39-.62-3.66,0-1.41.19-2.75.58-4.03.39-1.27.97-2.39,1.73-3.35.77-.96,1.73-1.72,2.87-2.29,1.15-.57,2.49-.85,4.03-.85,1.05,0,2.04.12,2.97.37.93.24,1.76.63,2.49,1.15.73.52,1.35,1.19,1.84,1.99.5.8.84,1.78,1.02,2.91h-2.57c-.13-.74-.36-1.38-.7-1.91-.34-.53-.77-.97-1.27-1.31-.51-.34-1.08-.6-1.72-.77-.64-.17-1.32-.26-2.05-.26-1.17,0-2.18.24-3.02.7-.84.47-1.53,1.09-2.06,1.86-.53.77-.93,1.64-1.18,2.63-.25.98-.38,1.99-.38,3.02s.14,1.98.43,2.91c.29.93.71,1.75,1.27,2.47.56.71,1.25,1.28,2.07,1.71.82.42,1.78.64,2.86.64,1.01,0,1.91-.16,2.68-.49.78-.33,1.43-.77,1.96-1.34.53-.57.93-1.24,1.21-2.01.27-.77.39-1.59.35-2.48h-6.18v-2.17h8.48v10.19h-1.63l-.68-2.41c-.76,1.01-1.7,1.74-2.82,2.18Z
M821.81,2121.9v2.95h.05c.56-1.14,1.25-1.98,2.06-2.52.81-.54,1.84-.79,3.09-.76v2.44c-.92,0-1.71.13-2.36.38-.65.25-1.17.62-1.57,1.11-.4.49-.69,1.08-.87,1.78-.18.7-.27,1.5-.27,2.4v6.23h-2.3v-14.01h2.17Z
M828,2126.03c.29-.89.72-1.67,1.3-2.33.58-.66,1.29-1.18,2.14-1.56.85-.38,1.82-.57,2.93-.57s2.1.19,2.94.57c.84.38,1.55.9,2.13,1.56.58.66,1.01,1.44,1.3,2.33.29.89.43,1.86.43,2.89s-.14,1.99-.43,2.87c-.29.89-.72,1.66-1.3,2.32-.58.66-1.29,1.17-2.13,1.54-.84.37-1.82.56-2.94.56s-2.08-.19-2.93-.56c-.85-.37-1.56-.88-2.14-1.54-.58-.66-1.01-1.43-1.3-2.32-.29-.89-.43-1.84-.43-2.87s.14-1.99.43-2.89ZM830.35,2131.18c.23.66.54,1.21.93,1.65.4.44.86.78,1.4,1.02.53.24,1.1.35,1.69.35s1.16-.12,1.69-.35c.53-.23,1-.57,1.4-1.02.4-.44.71-.99.94-1.65.23-.66.34-1.41.34-2.26s-.11-1.6-.34-2.26c-.23-.66-.54-1.22-.94-1.67-.4-.45-.86-.79-1.4-1.03-.53-.23-1.1-.35-1.69-.35s-1.16.12-1.69.35c-.53.24-1,.58-1.4,1.03-.4.45-.71,1.01-.93,1.67-.23.66-.34,1.41-.34,2.26s.11,1.6.34,2.26Z
M852.92,2135.91v-2.22h-.05c-.49.87-1.11,1.5-1.87,1.91-.76.41-1.65.61-2.68.61-.92,0-1.69-.12-2.3-.37-.61-.24-1.11-.59-1.49-1.04-.38-.45-.65-.99-.8-1.61-.15-.62-.23-1.31-.23-2.07v-9.22h2.3v9.49c0,.87.25,1.55.76,2.06.51.51,1.2.76,2.09.76.7,0,1.31-.11,1.83-.33.52-.22.94-.52,1.29-.92.34-.4.6-.86.77-1.4.17-.53.26-1.12.26-1.75v-7.91h2.3v14.01h-2.17Z
M860.4,2121.9v1.9h.05c.38-.78.98-1.34,1.79-1.69.81-.35,1.71-.53,2.68-.53,1.08,0,2.03.2,2.83.6.8.4,1.47.93,2,1.61.53.68.94,1.46,1.21,2.34.27.89.41,1.83.41,2.82s-.13,1.93-.39,2.82c-.26.89-.66,1.66-1.19,2.32-.53.66-1.2,1.18-2.01,1.56-.8.38-1.74.57-2.8.57-.34,0-.73-.04-1.15-.11-.42-.07-.84-.19-1.26-.35-.42-.16-.81-.38-1.18-.66-.37-.28-.68-.63-.93-1.04h-.05v7.21h-2.3v-19.35h2.3ZM868.68,2126.87c-.17-.62-.43-1.18-.79-1.67-.35-.49-.8-.88-1.36-1.17-.55-.29-1.2-.43-1.94-.43-.78,0-1.44.15-1.98.46-.54.31-.99.71-1.33,1.21-.34.5-.59,1.06-.75,1.69-.15.63-.23,1.27-.23,1.92,0,.69.08,1.35.24,1.99.16.64.42,1.21.77,1.69.35.49.81.88,1.37,1.18.56.3,1.24.45,2.03.45s1.46-.15,1.99-.46c.53-.31.96-.71,1.29-1.22.33-.51.56-1.08.71-1.73.14-.65.22-1.32.22-2.01,0-.65-.09-1.29-.26-1.91Z
M614.41,2129.44c-.51,1.4-2.07,2.13-3.48,1.62-1.41-.51-2.13-2.07-1.62-3.47l5.48-15.04c.51-1.41,2.07-2.13,3.48-1.62,1.41.51,2.13,2.07,1.62,3.48l-5.48,15.04h0Z
M623.77,2133.37c-.67,1.84-2.71,2.79-4.55,2.12-1.84-.67-2.79-2.71-2.12-4.55l7.44-20.41c.67-1.84,2.71-2.79,4.55-2.12,1.84.67,2.8,2.71,2.12,4.55l-7.43,20.41h0Z
M635.55,2138.18c-.9,2.47-3.63,3.74-6.1,2.84-2.47-.9-3.75-3.63-2.85-6.1l9.77-26.82c.9-2.47,3.63-3.75,6.11-2.85,2.47.9,3.74,3.63,2.84,6.1l-9.77,26.83h0Z
M650.34,2144.18c-1.19,3.26-4.8,4.95-8.07,3.76-3.27-1.19-4.95-4.8-3.76-8.07l12.72-34.91c1.19-3.27,4.8-4.95,8.07-3.76,3.26,1.19,4.95,4.8,3.76,8.07l-12.71,34.9h0Z" fill="#000000"/>
</svg>