<svg xmlns="http://www.w3.org/2000/svg" viewBox="1309.25 1579.87 223.6 77.64">
	<path d="M1416.34,1657.08c-24.39,0-37.79-17.54-37.79-38.41s13.39-38.41,37.79-38.41c18.79,0,28.76,9.97,33.32,23.15h-9.86c-4.05-9.34-10.28-14.84-23.46-14.84-18.48,0-27.92,14.01-27.92,30.1s9.34,30.1,27.92,30.1c13.29,0,20.55-6.33,23.56-14.95h9.86c-2.91,12.15-14.53,23.25-33.43,23.25Z
M1532.8,1617.95l-.93,37.79h-6.23l-1.25-14.22c-3.43,9.76-11.73,15.99-25.33,15.99-24.19,0-36.33-18.58-36.33-38.82s13.18-38.82,37.37-38.82c18.79,0,28.76,11.21,32.08,23.56h-9.86c-2.6-8.72-9.03-15.26-22.21-15.26-18.27,0-27.51,15.05-27.51,30.52s8.93,30.52,26.47,30.52c12.15,0,24.71-6.75,24.71-23.36l-23.15.21v-8.1h32.18Z
M1369.7 1581.62 L1313.68 1581.62 L1313.68 1590.34 L1354.33 1590.34 L1336.49 1614.78 L1319.15 1614.78 L1319.15 1622.57 L1330.81 1622.57 L1309.25 1652.11 L1309.25 1655.73 L1368.83 1655.73 L1368.83 1647.01 L1324.85 1647.01 L1342.6 1622.57 L1359.81 1622.57 L1359.81 1614.78 L1348.26 1614.78 L1369.7 1585.24 L1369.7 1581.62 Z" fill="#000000"/>
</svg>