<svg xmlns="http://www.w3.org/2000/svg" viewBox="241.16 1930.82 260.5 75.39">
	<path d="M274.66,1931.61v35.89h-2.87c-.43,0-.9-.04-1.44-.14-.55-.1-1.06-.29-1.52-.56-.48-.28-.88-.68-1.19-1.17-.32-.51-.48-1.18-.48-1.99v-12.87s-18.51,0-18.51,0v16.73h-7.49v-35.88h7.49v15.94h18.51v-15.94h7.5ZM413.67,1967.5v-35.88h-7.33l-14.67,26.58-14.96-26.58h-7.42v35.88h3.82v-27.83l15.75,27.83h1.96l15.33-27.61v23.75c0,.81.17,1.48.49,1.99.31.49.71.89,1.19,1.17.47.28.98.46,1.53.56.53.09,1,.14,1.44.14h2.87ZM460.68,1967.5l-18.74-36.68h-2.2l-19.19,36.68h4.38l5.96-11.41h13.61l-1.88-3.66h-9.82l6.31-12.06,12.38,24.28c.49,1,1.1,1.73,1.81,2.18.72.46,1.66.67,2.8.67h4.58ZM499.67,1931.61c-.2,0-.43.01-.69.06-.27.05-.52.14-.76.28-.25.15-.46.36-.61.61-.17.27-.26.61-.26,1.02v23.13l-24.95-25.1h-4.81v35.88h4.37v-27.06l25.32,26.16c1.03.97,2.46.89,3.85.89h.52v-35.89h-1.98ZM303.09,1930.82h-2.19l-19.23,36.68h4.38l14.22-27.13,6.15,12.06h-9.87l-1.91,3.66h13.66l4.32,8.56c.49,1,1.1,1.73,1.81,2.18.72.46,1.66.67,2.8.67h4.61l-18.76-36.68ZM351.29,1964.62s1.52,1.93,2.93,2.41c1.41.48,2.61.47,2.61.47h5.74l-14.32-17.13c7.11-1.97,9.09-5.88,9.09-9.2s-1.57-5.93-5.29-7.79c-3.72-1.86-9.4-1.77-9.4-1.77h-13.76v35.88h7.49v-16.4h3.84l11.05,13.53M341.37,1934.76c2.46,0,3.84.68,3.84.68,2.41.93,4.12,3.29,4.12,5.95s-1.58,4.45-3.82,5.73c-2.24,1.28-5.68,1.23-5.68,1.23h-3.47v-13.59h5Z
M378.61,1984.06v21.78h-4.27v-17.02l-6.11,12.77c-.36.71-1.1,1.2-1.95,1.2h-1.38c-.85,0-1.58-.48-1.95-1.19l-.7-1.48c.49,0,1.09,0,1.41,0,.87,0,1.62-.51,1.97-1.25,0,0,6.47-13.54,6.47-13.54.34-.75,1.1-1.28,1.99-1.28h4.52ZM473,1984.06v4.44c.4-.56,1.05-.93,1.79-.93h16.4v-3.51h-18.19ZM268.89,2005.84h4.47s-9.12-20.5-9.12-20.5c-.34-.75-1.11-1.28-1.99-1.28h-2.48c-.88,0-1.64.52-1.99,1.27l-.35.81c.47,0,1.03,0,1.33,0,.96,0,1.78.62,2.07,1.49l8.05,18.21Z
M292.43,1984.06h3.94v13.05c0,3-.87,5.3-2.58,6.82-1.7,1.51-4.33,2.27-7.82,2.27s-6.28-.76-8.05-2.27c-1.79-1.52-2.69-3.82-2.69-6.83v-13.05h4.24v12.96c0,2.13.55,3.62,1.63,4.43,1.11.83,2.75,1.25,4.87,1.25s3.73-.42,4.84-1.25c1.08-.8,1.63-2.29,1.63-4.43v-12.96ZM321.39,1984.06h-21.42v3.63h8.59v18.15h4.24v-18.15h8.59v-3.63ZM348.02,1994.89c0,4.04-1.09,6.98-3.23,8.72-2.12,1.72-5.24,2.6-9.27,2.6s-7.15-.87-9.27-2.6c-2.15-1.74-3.23-4.68-3.23-8.72s1.09-6.96,3.24-8.66c2.12-1.68,5.24-2.54,9.27-2.54s7.15.85,9.27,2.54c2.15,1.7,3.24,4.62,3.24,8.66ZM343.72,1993.82c0-2.32-.68-4.01-2.01-5.04-1.37-1.05-3.45-1.58-6.19-1.58s-4.83.53-6.19,1.58c-1.33,1.02-2.01,2.72-2.01,5.04v2.13c0,2.34.68,4.06,2.02,5.12,1.36,1.08,3.45,1.62,6.19,1.62s4.82-.55,6.19-1.62c1.34-1.05,2.02-2.78,2.02-5.12v-2.13ZM408.51,1994.89c0,4.04-1.09,6.98-3.23,8.72-2.12,1.72-5.24,2.6-9.27,2.6s-7.15-.87-9.27-2.6c-2.15-1.74-3.23-4.68-3.23-8.72s1.09-6.96,3.24-8.66c2.12-1.68,5.24-2.54,9.27-2.54s7.15.85,9.27,2.54c2.15,1.7,3.24,4.62,3.24,8.66ZM404.2,1993.82c0-2.32-.68-4.01-2.01-5.04-1.37-1.05-3.45-1.58-6.19-1.58s-4.83.53-6.19,1.58c-1.33,1.02-2.01,2.72-2.01,5.04v2.13c0,2.34.68,4.06,2.02,5.12,1.36,1.08,3.45,1.62,6.19,1.62s4.82-.55,6.19-1.62c1.34-1.05,2.02-2.78,2.02-5.12v-2.13ZM410.56,1987.69h8.59v18.15h4.24v-18.15h8.59v-3.63h-21.42v3.63ZM436.71,2005.84h4.24v-21.78h-4.24v21.78ZM457.15,2002.27l-8.05-18.21h-4.47s9.69,21.78,9.69,21.78h5.31s9.73-21.78,9.73-21.78h-4.13s-8.07,18.21-8.07,18.21ZM264.84,1996.69h-8.03l2.72-6.15c-.02-1.19-.99-2.15-2.18-2.15-.22,0-.94,0-.94,0l-7.79,17.44h4.13l2.55-5.76h11.03l-1.5-3.39ZM362.26,1997.86c1.14,0,2.07-.87,2.17-1.97l-5.63-11.83h-5.87v21.78h3.91v-17.07l4.33,9.1c.41,0,.83,0,1.08,0ZM477.24,2002.33v-5.87h11.18v-3.45h-11.18v-3.19h-2.06c-1.18,0-2.13.93-2.18,2.09v13.93h18.31v-3.51h-14.07Z" fill="#000000"/>
</svg>