<svg xmlns="http://www.w3.org/2000/svg" viewBox="2897.28 845.169 235 183">
	<path d="M2919.49,845.97c1.51-.26,4.09,5.32,5.56,4.79,1.6-.48,3.86-5.18,6.04-4.94.93.15,4.56,7.55,4.56,7.55,29.86,1.46,66.5,37.53,71.27,41.16,2.28,1.76,11.85,11.76,29.53,19.5,7.24,3.18,14.5,4.48,21.26,4.03,9.07-.65,19.11-8.58,25.25-19.34,7.77-13.45,11.08-36.89,33.47-50.2,3.11-1.85,10.25-6.06,14.34-.8,3.37,4.23.62,11.3-2.86,14.63-2.11,2.09-6.11,4.22-13.6,7.8-2.59,1.17-6.72,4.31-8.36,5.54-7.97,6.15-13.83,20.06-20.31,35.29,0,0-2.74,7.48-14.93,15.58-2.13,1.36-.2,2.41,2.03,5.32,2.84,3.76,8.57,19.27,7.88,42.79-.16,4.11,1.54,5.96,3.42,9.37,3.33,5.92,9.84,4.59,9.65,12.36-.15,10.34,7.47,12.59,4.99,17.34-1.76,3.54-1.16,6.91-1.11,10.3,0,1.77.88,4.27-2.69,4.09-14.6-.82-13.57-20.46-13.37-27.25.29-.88-.39-2.41-.54-2.53-.69-.53-9.77-7.56-10.36-8.24-11.06-11.22-18.34-21.26-22.45-31.68-2.64-6.92-5.46-13.79-10.16-18.07-5.36-4.92-11.88-7.6-17.57-7.65-40.6-.2-48.96-18.03-60.04-26.9-.31-.22-1.34-.79-1.91-.87-.57.09-1.14.79-1.5,1.1-4.29,4.49-8.57,5.97-14.39,5.97-13.67,0-28.42-12.01-31.06-9.34-1.96,2.07-.25,6.38-3.86,7.09-5.3,1.04-10.77-4.16-10.37-8.59.81-7.9,8.91-10.2,16.01-10.95,5.88-.65,10.63.92,11.74,1.09,3.31.43,3.86-3.54,3.31-6.09-.6-2.78-3.2-3.38-5.89-4.18-3.27-.98-6.92,1.74-9.41.87-2.83-.96-3.02-2.45-5.46-4.57-3.04-2.61-6.55-3.31-6.55-7.09.05-3.38,4.19-3.72,5.42-6.91.6-1.52.4-3.18.94-4.16,1.46-2.6,4.05-2.47,6.19-4.55,2.94-2.89,4.38-8.48,5.88-8.68" fill="#000000"/>
</svg>