<svg xmlns="http://www.w3.org/2000/svg" viewBox="3724.49 1562.81 332.1 113.5">
	<path d="M3834.29,1623.61c0-11.59-6.79-22.99-16.89-27.56-2.69-1.36-3.6-3.61-2.63-6l6.82-16.81c.23-.57-.35-1.13-.92-.89-4.31,1.87-9.06,2.91-14.06,2.91-10.47,0-20.21-4.97-26.7-12.22-.14-.16-.33-.23-.52-.23s-.38.08-.52.23c-6.49,7.25-16.23,12.22-26.7,12.22-5,0-9.75-1.04-14.06-2.91-.57-.25-1.15.31-.92.89l6.82,16.81c.97,2.39.06,4.64-2.63,6-10.1,4.57-16.89,15.97-16.89,27.56,0,9.31,4.91,18.34,12.31,26.31.41.45.83.89,1.27,1.33-.34.33-1.78,1.77-2.83,2.83-.24.24-.38.57-.38.91v4.11c0,.72.58,1.3,1.3,1.3h4.24c.34,0,.67-.13.91-.38,1.11-1.11,2.7-2.7,3.01-3.01.47.39.95.78,1.43,1.16,9.73,7.77,21.38,13.95,31.8,17.54.62.21,1.23.42,1.83.61.6-.19,1.22-.4,1.83-.61,10.42-3.59,22.07-9.77,31.8-17.54.48-.38.96-.77,1.43-1.16.31.31,1.9,1.9,3.01,3.01.24.24.57.38.91.38h4.24c.72,0,1.3-.58,1.3-1.3v-4.11c0-.34-.13-.67-.38-.91-1.05-1.05-2.5-2.5-2.83-2.83.43-.44.85-.88,1.27-1.33,7.4-7.97,12.31-16.99,12.31-26.31ZM3806.83,1579.88l3.79,4.6-3.79,4.6-3.79-4.6,3.79-4.6ZM3794.14,1578.1l3.08,3.74-3.08,3.74-3.08-3.74,3.08-3.74ZM3779.4,1571.84l5.03,4.16-5.03,8.41-5.03-8.41,5.03-4.16ZM3764.66,1578.1l3.08,3.74-3.08,3.74-3.08-3.74,3.08-3.74ZM3761.32,1590.87c4.21-.96,10.27-1.87,18.08-1.87s13.88.91,18.08,1.87c.35.08.48.52.22.77,0,0-18.3,18.3-18.3,18.3,0,0-18.3-18.3-18.3-18.3-.26-.26-.13-.69.22-.77ZM3751.97,1579.88l3.79,4.6-3.79,4.6-3.79-4.6,3.79-4.6ZM3814.4,1642.34c-.34.51-.7,1.03-1.06,1.53-1.65,2.28-3.5,4.45-5.51,6.5-.42.44-.86.87-1.3,1.29-7.52,7.28-16.88,12.87-25.4,15.9-.58.21-1.16.4-1.74.59-.58-.18-1.15-.38-1.74-.59-8.52-3.03-17.88-8.62-25.4-15.9-.44-.42-.88-.85-1.3-1.29-2.01-2.05-3.86-4.22-5.51-6.5-.36-.51-.72-1.02-1.06-1.53-4.11-6.16-6.69-13.04-6.69-20.28,0-11.22,6.34-19.7,14.12-19.7,6.1,0,11.3,3.31,16.91,8.93.65.65,3.35,3.35,3.35,3.35.41.4.84.84,1.3,1.29-.42.42-16.44,16.44-24.53,24.53-.16.16-.18.41-.05.59,1.39,1.91,3.02,3.87,4.94,5.86.18.18.47.19.66,0,8.19-8.19,24.56-24.56,24.98-24.98.42.42,16.8,16.8,24.98,24.98.18.18.48.18.66,0,1.92-1.99,3.55-3.95,4.94-5.86.13-.18.11-.43-.05-.59-8.09-8.09-24.11-24.11-24.53-24.53.46-.46.89-.89,1.3-1.29,0,0,2.7-2.7,3.35-3.35,5.62-5.62,10.82-8.93,16.91-8.93,7.78,0,14.12,8.47,14.12,19.7,0,7.25-2.57,14.12-6.69,20.28ZM3935.65,1578.73v26.11c0,3.63-1.93,5.09-2.87,5.62-.13.08-.07.28.08.28h15.01c.16,0,.21-.2.07-.28-.96-.56-2.75-2.14-2.75-6.22l.03-25.74c0-3.59,1.84-5.25,2.74-5.84.12-.08.06-.27-.09-.27h-15.01c-.15,0-.21.19-.09.27.94.6,2.88,2.3,2.88,6.06ZM3881.68,1606.26c.11-.12.17-.27.17-.43v-5.94c0-.14-.17-.21-.27-.1-3.04,3.51-7.64,5.61-11.83,5.61-7.72,0-11.76-6.15-11.76-14.12,0-7.8,4.17-13.84,11.52-13.84,4.86,0,9.17,2.53,11.25,7.53.07.16.3.12.3-.05v-10.56c0-.24-.13-.46-.35-.56-2.65-1.22-6.93-2.05-10.53-2.05-14.65,0-22.06,10.2-22.06,20.62,0,9.85,6.56,19.02,20.48,19.02,5.3,0,10.25-2.14,13.08-5.12ZM3954.3,1579.24l13.12,31.66c.03.06.09.1.16.1,2.2-.02,3.75-.04,5.94-.02.07,0,.13-.04.15-.1l13.04-31.36c1.78-4.47,4.06-6.25,5.12-6.86.14-.08.08-.29-.08-.29h-13.5c-.16,0-.22.22-.07.29.79.42,1.91,1.26,1.91,2.39,0,.51-.14,1.4-.63,2.62l-7.78,19.37-7.67-19.18c-.61-1.45-1.03-2.42-1.03-3.19,0-.96.93-1.63,1.75-2.01.15-.07.1-.3-.07-.3h-15.53c-.16,0-.22.21-.08.29,1.08.63,3.51,2.42,5.25,6.57ZM4045.6,1587.3c-3.91-1.87-7.27-2.9-7.38-5.89-.08-2.17,1.54-4.11,5.52-4.13,3.96-.03,7.75,1.7,9.71,6.25.07.16.3.12.3-.05v-8.85c0-.22-.11-.43-.3-.55-2.26-1.37-5.73-2.35-9.43-2.33-8.42.04-14.64,4.5-14.41,11.42.18,5.47,4.17,8.76,8.73,10.92,4.84,2.29,9.2,3.38,9.1,7.29-.07,2.74-2.52,4.4-6.27,4.42-4.65.02-9.18-2.29-11.45-8.41-.06-.16-.3-.13-.3.05v10.78c0,.23.12.45.33.56,2.92,1.59,7.08,2.63,11.53,2.61,8.73-.04,15.28-4.07,15.28-11.48,0-7.01-5.8-10.13-10.96-12.6ZM3887.2,1610.45c-.13.08-.07.28.08.28h14.75c.16,0,.21-.2.07-.28-.96-.56-2.75-2.14-2.75-6.22l-.05-9.96,16.09-.06-.05,9.91c0,4.16-1.78,5.76-2.74,6.33-.13.08-.08.28.07.28h14.38c.15,0,.21-.2.08-.28-.94-.51-2.25-1.92-2.25-5.79l.06-25.99c0-3.72,1.31-5.41,2.2-6.01.12-.08.06-.27-.09-.27h-14.38c-.15,0-.21.19-.09.27.9.59,2.74,2.21,2.74,5.64l.04,10.35-16.09.06.11-10.2c0-3.59,1.84-5.25,2.74-5.84.12-.08.06-.27-.09-.27h-14.72c-.15,0-.21.19-.09.27.94.6,2.59,2.3,2.59,6.06v26.11c0,3.63-1.67,5.09-2.62,5.62ZM3982.87,1610.42c-.15.08-.09.31.08.31h13.11c.18,0,.23-.24.07-.31-.87-.4-1.99-1.2-1.85-2.49.09-.81.37-1.68.86-3.01l.94-2.46,14.67-.12.97,2.45c.55,1.45.92,2.55,1.1,3.18.36,1.25-.77,2.05-1.58,2.45-.16.08-.1.31.07.31h15.67c.18,0,.23-.24.07-.31-1.24-.6-3.65-2.23-5.36-6.42l-13.61-31.79c-.02-.06-.08-.1-.14-.1h-6.58c-.06,0-.12.04-.14.1l-13.17,31.74c-1.78,4.23-4.04,5.87-5.19,6.47ZM4003.37,1582.73l5.22,14.13h-10.32l5.11-14.13ZM3927.01,1659.99c-.54.94-2,2.62-5.62,2.62h-13.02l-.04-12.61h6.05c3.63,0,5.09,1.67,5.62,2.62.08.13.28.07.28-.08v-10.6c0-.15-.2-.21-.28-.08-.54.94-2,2.62-5.62,2.62h0s-6.05.01-6.05.01c0,0,.12-9,.13-9.2h11.37c3.63,0,5.09,1.67,5.62,2.62.08.13.28.07.28-.08v-7.89c0-.09-.07-.16-.16-.16h-29.52c-.15,0-.21.19-.09.27.94.6,2.88,2.3,2.88,6.06v26.11c0,3.63-1.93,5.09-2.87,5.62-.13.08-.07.28.08.28h31.08c.09,0,.16-.07.16-.16v-7.89c0-.15-.2-.21-.28-.08ZM3970.33,1649.34h-15.01c-.15,0-.21.19-.09.27.94.6,2.88,2.3,2.88,6.06v6.7c-1.08.26-2.17.4-3.23.4-7.72,0-13.15-6.15-13.15-14.12,0-7.8,5.56-13.84,12.91-13.84,4.86,0,9.86,2.53,11.94,7.53.07.16.3.12.3-.05v-10.56c0-.24-.13-.46-.35-.56-2.65-1.22-7.62-2.05-11.23-2.05-14.65,0-23.45,10.2-23.45,20.62,0,9.85,7.95,19.02,21.87,19.02,5.3,0,10.95-2.14,13.78-5.12.1-.11.15-.25.16-.4l.02-7.79c0-3.59,1.84-5.25,2.74-5.84.12-.08.06-.27-.09-.27ZM3886.14,1661.98c-2.26-3.13-4.6-8.4-8.24-10.36,4.08-.94,9.04-4.92,9.04-10.57,0-7.3-6.24-11.27-13.08-11.27h-18.53c-.15,0-.21.19-.09.27.94.6,2.7,2.3,2.7,6.06v26.11c0,3.62-1.75,5.09-2.7,5.62-.13.08-.07.28.08.28h14.76c.16,0,.21-.2.07-.28-.84-.49-2.25-1.76-2.6-4.79v-10.35h1.5c2.73,1.71,5.57,7.06,7.77,10.91,2.44,4.29,3.24,4.5,3.24,4.5h11.74c.18,0,.23-.24.07-.31-1.24-.6-3.48-2.71-5.74-5.84ZM3870.55,1648.12h-2.99v-12.83h3.21c3.03,0,6.3,1.47,6.3,6.39s-3.55,6.44-6.52,6.44ZM4012,1661.39l-13.61-31.79c-.02-.06-.08-.1-.14-.1h-8.66c-.06,0-.12.04-.14.1l-13.17,31.74c-1.78,4.23-4.04,5.87-5.19,6.47-.15.08-.09.31.08.31h13.11c.18,0,.23-.24.07-.31-.87-.4-1.99-1.2-1.85-2.49.09-.81.37-1.68.86-3.01l.94-2.46,16.76-.12.97,2.45c.55,1.45.92,2.55,1.1,3.18.36,1.25-.77,2.05-1.58,2.45-.16.08-.1.31.07.31h15.67c.18,0,.23-.24.07-.31-1.24-.6-3.65-2.23-5.36-6.42ZM3986.47,1654.25l6.2-17.21,6.2,17.21h-12.41ZM4052,1659.99c-.54.94-2,2.62-5.62,2.62h-13.18l-.03-10.95-.03-5.57.11-10.2c0-3.59,1.84-5.24,2.74-5.84.12-.08.06-.27-.09-.27h-15.01c-.15,0-.21.19-.09.27.94.6,2.88,2.3,2.88,6.06v26.11c0,3.63-1.93,5.09-2.87,5.62-.13.08-.07.28.08.28h31.24c.09,0,.16-.07.16-.16v-7.89c0-.15-.2-.21-.28-.08Z" fill="#000000"/>
</svg>