<svg xmlns="http://www.w3.org/2000/svg" viewBox="985.34 1944.53 241.3 47.96">
	<path d="M986.55,1970.78c7.77-12.53,22.8-12.29,33.39-4.12,3.91,2.76.64,3.9-2.02,4.93-5.91,2.05-9.19,2.26-16.54.42-9.38-2.35-13.7-1.45-14.83-1.23Z
M987.82,1982.85c-.48.33-1.12.93-1.45,1.41-.4.56-.67,1.1-.84,1.62.12-.23.58-.55,1.12-.67,5.67-1.84,11.46-1.87,17.11-.57,1.92.44.69.65-.23.59-5.93-.39-11.86-.1-18.19,2.19.16,1.8,1.77,3.21,4.23,4.05,8.96,2.54,25.87-.11,37.71-3.03-10.65-8.31-25.75-14.96-39.45-5.58Z
M1097.47,1950.67l-4.3,3.82c-2.93-2.88-6.22-4.33-9.88-4.33-3.09,0-5.69.98-7.81,2.95-2.12,1.97-3.17,4.39-3.17,7.28,0,2.01.47,3.79,1.41,5.35.94,1.56,2.26,2.78,3.97,3.67,1.71.89,3.62,1.33,5.71,1.33,1.79,0,3.42-.31,4.9-.93,1.48-.62,3.1-1.75,4.87-3.39l4.17,4.06c-2.39,2.17-4.64,3.68-6.77,4.52-2.12.84-4.55,1.26-7.27,1.26-5.03,0-9.14-1.49-12.34-4.45-3.2-2.97-4.8-6.78-4.8-11.42,0-3,.73-5.67,2.19-8.01,1.46-2.34,3.55-4.21,6.26-5.63,2.72-1.42,5.64-2.13,8.78-2.13,2.67,0,5.23.53,7.7,1.57,2.47,1.05,4.6,2.54,6.38,4.48Z
M1119.47,1944.61c4.57,0,8.51,1.54,11.8,4.63,3.29,3.09,4.94,6.85,4.94,11.29s-1.62,8.12-4.87,11.16c-3.25,3.04-7.19,4.57-11.82,4.57s-8.88-1.56-12.1-4.69c-3.21-3.13-4.82-6.84-4.82-11.14,0-2.88.75-5.53,2.24-7.95,1.5-2.42,3.55-4.33,6.17-5.75,2.62-1.41,5.44-2.12,8.46-2.12ZM1119.4,1950.22c-2.99,0-5.51.97-7.55,2.91-2.04,1.94-3.06,4.4-3.06,7.39,0,3.33,1.28,5.97,3.85,7.91,1.99,1.52,4.28,2.27,6.86,2.27,2.92,0,5.4-.98,7.46-2.95,2.05-1.97,3.08-4.39,3.08-7.27s-1.03-5.29-3.1-7.28c-2.07-1.99-4.58-2.98-7.55-2.98Z
M1185.52,1944.63c4.57,0,8.51,1.55,11.8,4.65,3.29,3.1,4.94,6.89,4.94,11.35s-1.62,8.16-4.87,11.23c-3.25,3.06-7.19,4.59-11.82,4.59s-8.88-1.57-12.09-4.72c-3.21-3.14-4.82-6.88-4.82-11.2,0-2.9.75-5.56,2.24-7.99,1.5-2.43,3.55-4.36,6.17-5.78,2.62-1.42,5.44-2.13,8.46-2.13ZM1185.45,1950.27c-2.99,0-5.51.98-7.55,2.92-2.04,1.95-3.06,4.43-3.06,7.44,0,3.35,1.28,6,3.85,7.95,1.99,1.52,4.28,2.29,6.86,2.29,2.92,0,5.4-.99,7.46-2.97,2.05-1.98,3.08-4.41,3.08-7.31s-1.03-5.32-3.1-7.32c-2.07-2-4.58-3-7.55-3Z
M1045.96,1970.24v-8.12h6.64l2.91-5.16h-9.56v-6c3.35-.34,7.74-.44,12.31.4l2.76-5.17c-10.59-3.43-21.18,0-21.18,0v28.67s10.59,3.38,21.18,0l-2.71-5.09c-4.58.98-8.99.86-12.35.47Z
M1213.53,1970.46v-25.93h-6.15v30.57s8.87,2.79,18.75,0l-2.78-5.22c-4.56.85-7.05.8-9.82.57Z
M1162.17,1948.69c-.9-1.44-2.13-2.47-3.69-3.12-1.56-.64-4.11-.96-7.64-.96h-9.5v31.84h6.15v-25.93h4.71c1.9,0,3.21.21,3.91.63.97.56,1.45,1.46,1.45,2.69,0,.71-.17,1.31-.52,1.81-.34.5-.82.86-1.42,1.07-.6.22-1.67.33-3.21.33h-.84l-3.15,5.9c3.13-.03,7.44-.19,8.51-.49,2.02-.58,3.62-1.6,4.8-3.07,1.18-1.47,1.77-3.32,1.77-5.54,0-2.01-.45-3.73-1.35-5.16Z
M1039.95,1992.16v-6.69h1.05c.61,0,1.06.04,1.34.12.4.11.72.3.96.59.24.29.36.63.36,1.02,0,.25-.05.49-.16.69-.11.21-.28.4-.52.58.41.19.7.43.89.72.19.29.28.63.28,1.02s-.1.72-.29,1.03c-.19.31-.44.54-.75.69-.31.15-.73.23-1.27.23h-1.88ZM1041.22,1986.69v1.41h.28c.31,0,.54-.07.69-.2.15-.13.23-.31.23-.53,0-.21-.07-.38-.21-.5-.14-.12-.36-.18-.65-.18h-.33ZM1041.22,1989.23v1.71h.32c.53,0,.89-.07,1.07-.2.18-.13.28-.33.28-.58,0-.29-.11-.52-.32-.68-.22-.17-.57-.25-1.08-.25h-.26Z
M1045.04,1985.48h1.26v6.69h-1.26v-6.69Z
M1050.67,1985.31c.95,0,1.76.34,2.44,1.03.68.68,1.02,1.52,1.02,2.5s-.34,1.8-1.01,2.48c-.67.68-1.49,1.01-2.45,1.01s-1.84-.35-2.5-1.04c-.66-.69-1-1.52-1-2.47,0-.64.15-1.23.46-1.76.31-.54.73-.96,1.28-1.28.54-.31,1.12-.47,1.75-.47ZM1050.65,1986.55c-.62,0-1.14.22-1.56.65-.42.43-.63.98-.63,1.64,0,.74.27,1.32.8,1.75.41.34.89.5,1.42.5.6,0,1.12-.22,1.54-.65.42-.44.64-.97.64-1.61s-.21-1.18-.64-1.62c-.43-.44-.95-.66-1.56-.66Z
M1055.11,1985.48h1.51c.97,0,1.69.12,2.17.36.47.24.86.63,1.17,1.18.31.54.46,1.18.46,1.9,0,.52-.09.99-.26,1.42-.17.43-.41.79-.71,1.08s-.63.48-.98.59c-.35.11-.96.16-1.83.16h-1.53v-6.69ZM1056.38,1986.7v4.22h.59c.58,0,1-.07,1.27-.2.26-.13.48-.36.64-.67.17-.32.25-.7.25-1.17,0-.71-.2-1.26-.6-1.65-.36-.35-.93-.53-1.72-.53h-.43Z
M1061.41,1985.48h3.65v1.25h-2.39v1.21h2.39v1.22h-2.39v1.76h2.39v1.25h-3.65v-6.69Z
M1072.2,1986.57l-.9.89c-.57-.6-1.23-.9-1.98-.9-.66,0-1.21.22-1.65.65-.44.44-.67.97-.67,1.59s.23,1.19.69,1.64c.46.45,1.03.67,1.71.67.44,0,.81-.09,1.11-.28.3-.18.55-.47.73-.87h-1.94v-1.2h3.36v.28c0,.59-.14,1.14-.45,1.66-.3.52-.7.92-1.18,1.2-.48.28-1.05.41-1.7.41-.69,0-1.31-.15-1.86-.45-.54-.3-.97-.73-1.29-1.29-.32-.56-.48-1.16-.48-1.8,0-.88.29-1.65.88-2.31.69-.78,1.6-1.17,2.71-1.17.58,0,1.13.11,1.63.32.43.18.85.49,1.25.94Z
M1073.7,1985.48h1.35c.74,0,1.26.07,1.58.2.31.13.57.35.76.66.19.31.29.67.29,1.09,0,.44-.11.81-.32,1.1-.21.3-.53.52-.95.67l1.58,2.97h-1.39l-1.5-2.83h-.12v2.83h-1.27v-6.69ZM1074.98,1988.09h.4c.4,0,.68-.05.84-.16.15-.11.23-.28.23-.53,0-.15-.04-.27-.11-.38-.08-.11-.18-.19-.3-.23-.13-.05-.36-.07-.7-.07h-.35v1.37Z
M1080.84,1985.48h1.29l2.57,6.69h-1.32l-.52-1.38h-2.73l-.54,1.38h-1.32l2.58-6.69ZM1081.49,1987.25l-.9,2.3h1.79l-.89-2.3Z
M1085.46,1985.48h1.51c.97,0,1.69.12,2.17.36.47.24.86.63,1.17,1.18.31.54.46,1.18.46,1.9,0,.52-.09.99-.26,1.42-.17.43-.41.79-.71,1.08s-.63.48-.98.59c-.35.11-.96.16-1.83.16h-1.53v-6.69ZM1086.73,1986.7v4.22h.59c.58,0,1-.07,1.27-.2.26-.13.48-.36.64-.67.17-.32.25-.7.25-1.17,0-.71-.2-1.26-.6-1.65-.36-.35-.93-.53-1.72-.53h-.43Z
M1093.8,1985.48h1.29l2.57,6.69h-1.32l-.52-1.38h-2.73l-.54,1.38h-1.32l2.58-6.69ZM1094.45,1987.25l-.9,2.3h1.79l-.89-2.3Z
M1098.42,1992.16v-6.69h1.05c.61,0,1.06.04,1.34.12.4.11.72.3.96.59.24.29.36.63.36,1.02,0,.25-.05.49-.16.69-.11.21-.28.4-.52.58.41.19.7.43.89.72.19.29.28.63.28,1.02s-.1.72-.29,1.03c-.19.31-.44.54-.75.69-.31.15-.73.23-1.27.23h-1.88ZM1099.69,1986.69v1.41h.28c.31,0,.54-.07.69-.2.15-.13.23-.31.23-.53,0-.21-.07-.38-.21-.5-.14-.12-.36-.18-.65-.18h-.33ZM1099.69,1989.23v1.71h.32c.53,0,.89-.07,1.07-.2.18-.13.28-.33.28-.58,0-.29-.11-.52-.32-.68-.22-.17-.57-.25-1.08-.25h-.26Z
M1103.6,1985.48h1.27v5.47h1.86v1.21h-3.13v-6.69Z
M1107.47,1985.48h3.65v1.25h-2.39v1.21h2.39v1.22h-2.39v1.76h2.39v1.25h-3.65v-6.69Z
M1114.47,1985.48h1.29v2.52h2.23v-2.52h1.29v6.69h-1.29v-2.93h-2.23v2.93h-1.29v-6.69Z
M1120.1,1985.48h1.37l1.25,2.41,1.24-2.41h1.35l-1.96,3.79v2.9h-1.28v-2.9l-1.97-3.79Z
M1126.13,1985.48h1.51c.97,0,1.69.12,2.17.36.47.24.86.63,1.17,1.18.31.54.46,1.18.46,1.9,0,.52-.09.99-.26,1.42-.17.43-.41.79-.71,1.08s-.63.48-.98.59c-.35.11-.96.16-1.83.16h-1.53v-6.69ZM1127.4,1986.7v4.22h.59c.58,0,1-.07,1.27-.2.26-.13.48-.36.64-.67.17-.32.25-.7.25-1.17,0-.71-.2-1.26-.6-1.65-.36-.35-.93-.53-1.72-.53h-.43Z
M1132.51,1985.48h1.35c.74,0,1.26.07,1.58.2.31.13.57.35.76.66.19.31.29.67.29,1.09,0,.44-.11.81-.32,1.1-.21.3-.53.52-.95.67l1.58,2.97h-1.39l-1.5-2.83h-.12v2.83h-1.27v-6.69ZM1133.78,1988.09h.4c.4,0,.68-.05.84-.16.15-.11.23-.28.23-.53,0-.15-.04-.27-.11-.38-.08-.11-.18-.19-.3-.23-.13-.05-.36-.07-.7-.07h-.35v1.37Z
M1140.76,1985.31c.95,0,1.76.34,2.44,1.03.68.68,1.02,1.52,1.02,2.5s-.34,1.8-1.01,2.48c-.67.68-1.49,1.01-2.45,1.01s-1.84-.35-2.5-1.04c-.66-.69-1-1.52-1-2.47,0-.64.15-1.23.46-1.76.31-.54.73-.96,1.28-1.28.54-.31,1.12-.47,1.75-.47ZM1140.75,1986.55c-.62,0-1.14.22-1.56.65-.42.43-.63.98-.63,1.64,0,.74.27,1.32.8,1.75.41.34.89.5,1.42.5.6,0,1.12-.22,1.54-.65.42-.44.64-.97.64-1.61s-.21-1.18-.64-1.62c-.43-.44-.95-.66-1.56-.66Z
M1148.71,1986.38l-.94.83c-.33-.46-.67-.69-1.01-.69-.17,0-.3.04-.41.13-.11.09-.16.19-.16.3s.04.22.11.32c.1.13.41.42.93.86.49.41.78.66.88.77.26.26.44.51.55.75.11.24.16.5.16.78,0,.55-.19,1-.57,1.36-.38.36-.87.54-1.48.54-.48,0-.89-.12-1.24-.35-.35-.23-.66-.6-.91-1.1l1.07-.65c.32.59.69.89,1.11.89.22,0,.4-.06.55-.19.15-.13.22-.27.22-.44,0-.15-.06-.3-.17-.45-.11-.15-.36-.38-.74-.7-.73-.59-1.2-1.05-1.41-1.38-.21-.32-.32-.64-.32-.97,0-.46.18-.86.53-1.19.35-.33.79-.5,1.31-.5.33,0,.65.08.95.23.3.15.63.44.98.85Z
M1152.97,1985.31c.95,0,1.76.34,2.44,1.03.68.68,1.02,1.52,1.02,2.5s-.34,1.8-1.01,2.48c-.67.68-1.49,1.01-2.45,1.01s-1.84-.35-2.5-1.04c-.66-.69-1-1.52-1-2.47,0-.64.15-1.23.46-1.76.31-.54.73-.96,1.28-1.28.54-.31,1.12-.47,1.75-.47ZM1152.96,1986.55c-.62,0-1.14.22-1.56.65-.42.43-.63.98-.63,1.64,0,.74.27,1.32.8,1.75.41.34.89.5,1.42.5.6,0,1.12-.22,1.54-.65.42-.44.64-.97.64-1.61s-.21-1.18-.64-1.62c-.43-.44-.95-.66-1.56-.66Z
M1157.41,1985.48h1.27v5.47h1.85v1.21h-3.13v-6.69Z
M1161.24,1985.48h1.28v4.32c0,.37.03.64.1.79.07.15.17.28.32.37.15.09.33.14.54.14.22,0,.42-.05.58-.15.16-.1.27-.23.34-.39.06-.16.09-.46.09-.91v-4.17h1.28v3.99c0,.67-.04,1.14-.11,1.4-.08.26-.22.51-.43.75-.21.24-.46.42-.74.54-.28.12-.6.17-.97.17-.48,0-.91-.11-1.27-.33-.36-.22-.62-.5-.77-.84-.15-.33-.23-.9-.23-1.7v-3.99Z
M1167.02,1992.16v-6.69h1.05c.61,0,1.06.04,1.34.12.4.11.72.3.96.59.24.29.35.63.35,1.02,0,.25-.05.49-.16.69-.11.21-.28.4-.53.58.41.19.7.43.89.72.19.29.28.63.28,1.02s-.1.72-.29,1.03c-.19.31-.44.54-.75.69-.31.15-.73.23-1.27.23h-1.87ZM1168.3,1986.69v1.41h.28c.31,0,.54-.07.69-.2.15-.13.23-.31.23-.53,0-.21-.07-.38-.21-.5-.14-.12-.36-.18-.65-.18h-.33ZM1168.3,1989.23v1.71h.32c.53,0,.89-.07,1.07-.2.18-.13.28-.33.28-.58,0-.29-.11-.52-.32-.68-.22-.17-.57-.25-1.08-.25h-.26Z
M1172.2,1985.48h1.27v5.47h1.85v1.21h-3.13v-6.69Z
M1176.08,1985.48h3.65v1.25h-2.39v1.21h2.39v1.22h-2.39v1.76h2.39v1.25h-3.65v-6.69Z
M1183.07,1985.48h1.35c.73,0,1.26.07,1.58.2.32.13.58.35.76.65.19.3.28.66.28,1.08,0,.47-.12.85-.37,1.16-.24.31-.57.52-.99.65-.25.07-.69.1-1.34.1v2.83h-1.27v-6.69ZM1184.34,1988.09h.4c.32,0,.54-.02.66-.07.12-.05.22-.12.29-.23.07-.11.11-.23.11-.38,0-.26-.1-.45-.3-.57-.15-.09-.42-.13-.81-.13h-.36v1.37Z
M1191.22,1985.31c.95,0,1.76.34,2.44,1.03.68.68,1.02,1.52,1.02,2.5s-.34,1.8-1.01,2.48c-.67.68-1.49,1.01-2.45,1.01s-1.84-.35-2.5-1.04c-.66-.69-1-1.52-1-2.47,0-.64.15-1.23.46-1.76.31-.54.73-.96,1.28-1.28.54-.31,1.12-.47,1.75-.47ZM1191.21,1986.55c-.62,0-1.14.22-1.56.65-.42.43-.63.98-.63,1.64,0,.74.27,1.32.8,1.75.41.34.89.5,1.42.5.6,0,1.12-.22,1.54-.65.42-.44.64-.97.64-1.61s-.21-1.18-.64-1.62c-.43-.44-.95-.66-1.56-.66Z
M1195.66,1985.48h1.27v5.47h1.85v1.21h-3.13v-6.69Z
M1199.06,1985.48h1.37l1.25,2.41,1.24-2.41h1.35l-1.96,3.79v2.9h-1.28v-2.9l-1.97-3.79Z
M1205.73,1985.48h1.24l1.55,4.66,1.56-4.66h1.24l1.12,6.69h-1.23l-.72-4.22-1.42,4.22h-1.12l-1.41-4.22-.73,4.22h-1.24l1.16-6.69Z
M1213.24,1985.48h3.65v1.25h-2.39v1.21h2.39v1.22h-2.39v1.76h2.39v1.25h-3.65v-6.69Z
M1217.94,1985.48h1.35c.74,0,1.26.07,1.58.2.31.13.57.35.76.66.19.31.29.67.29,1.09,0,.44-.11.81-.32,1.1-.21.3-.53.52-.95.67l1.58,2.97h-1.39l-1.5-2.83h-.12v2.83h-1.27v-6.69ZM1219.22,1988.09h.4c.4,0,.68-.05.84-.16.15-.11.23-.28.23-.53,0-.15-.04-.27-.11-.38-.08-.11-.18-.19-.3-.23-.13-.05-.36-.07-.7-.07h-.35v1.37Z
M1226.54,1986.38l-.94.83c-.33-.46-.67-.69-1.01-.69-.17,0-.3.04-.41.13-.11.09-.16.19-.16.3s.04.22.11.32c.1.13.41.42.93.86.49.41.78.66.88.77.26.26.44.51.55.75.11.24.16.5.16.78,0,.55-.19,1-.57,1.36-.38.36-.87.54-1.48.54-.48,0-.89-.12-1.24-.35-.35-.23-.66-.6-.91-1.1l1.07-.65c.32.59.69.89,1.11.89.22,0,.4-.06.55-.19.15-.13.22-.27.22-.44,0-.15-.06-.3-.17-.45-.11-.15-.36-.38-.74-.7-.73-.59-1.2-1.05-1.41-1.38-.21-.32-.32-.64-.32-.97,0-.46.18-.86.53-1.19.35-.33.79-.5,1.31-.5.33,0,.65.08.95.23.3.15.63.44.98.85Z
M1022.63 1955.38 L988.55 1955.38 L985.67 1944.63 L1019.75 1944.63 L1022.63 1955.38 Z" fill="#000000"/>
</svg>