<svg xmlns="http://www.w3.org/2000/svg" viewBox="2223.48 1569.48 302.1 103.3">
	<path d="M2235.64,1569.48c-6.7,0-12.16,5.45-12.16,12.15s5.46,12.16,12.16,12.16,12.15-5.45,12.15-12.16-5.45-12.15-12.15-12.15ZM2235.64,1586.68c-2.79,0-5.05-2.26-5.05-5.05s2.26-5.05,5.05-5.05,5.04,2.27,5.04,5.05-2.27,5.05-5.04,5.05Z
M2286.55,1598.24c2.16-.06,2.65-.06,4.66-.07l10.46-.04c23.31.32,30.82-23.87,31.47-25.56-15.95,1.58-41.45.78-41.45.78-26.41-.54-48.93,21.11-49.47,47.52v1.15c2.13-3.21,16.1-23.73,44.32-23.77Z
M2300.39,1645.08c-2.86,1.27-6,1.91-9.22,1.91-12.78,0-23.18-10.41-23.18-23.19,0-8.09,4.17-15.93,12.14-20.59,2.94-1.53,5.58-2.51,8.13-3.17-30.03.94-43.48,19.4-46.02,23.3.44,26.64,22.21,49.42,48.93,49.42,14.66,0,28.41-6.48,37.75-17.79,0,0-12.22-17.09-28.53-9.87Z
M2523.63,1635.91c.28-.13.45-.35.45-.63,0-.25-.1-.47-.29-.59-.16-.12-.38-.2-.85-.2h-.05c-.39,0-.7.04-.94.08h-.04s-.05.03-.05.07l.02,2.54s.03.06.07.06h.58s.06-.03.06-.07v-.95s.21,0,.21,0h0c.28,0,.42.1.47.34l.03.12c.06.26.11.42.19.52,0,0,.02.02.05.02h.62s.04-.02.05-.03c0-.02.01-.04,0-.06-.05-.1-.11-.24-.19-.61-.08-.33-.2-.52-.38-.61ZM2523.33,1635.37c0,.07-.02.13-.07.18-.09.09-.26.13-.46.14h-.22v-.62s.13-.02.26-.02c.33,0,.48.11.49.33Z
M2522.92,1633.25h-.03c-1.5.02-2.66,1.17-2.64,2.63,0,.7.28,1.34.77,1.82.51.5,1.17.76,1.89.76h.02c.73,0,1.4-.28,1.9-.78.48-.49.74-1.15.74-1.85-.02-1.45-1.18-2.58-2.65-2.58ZM2524.8,1635.85c0,.54-.21,1.07-.57,1.43-.34.34-.78.53-1.27.53h-.03c-.53,0-1.01-.2-1.36-.56-.36-.36-.56-.85-.57-1.38,0-.53.19-1.02.53-1.4.35-.38.83-.58,1.34-.59h.03c.52,0,.99.2,1.34.57.35.36.55.87.55,1.4Z
M2346.58,1639.11c-3.88,0-7.05-1.43-9.54-3.99-3.57-3.69-3.48-8.24-3.48-14.53s-.09-10.85,3.48-14.53c2.49-2.56,5.66-3.99,9.54-3.99,6.6,0,11.78,3.89,13.02,11.51h-7c-.7-2.92-2.48-5.17-5.96-5.17-1.89,0-3.43.72-4.43,1.89-1.34,1.54-1.74,3.27-1.74,10.29s.4,8.75,1.74,10.29c.99,1.18,2.54,1.89,4.43,1.89,3.48,0,5.26-2.24,5.96-5.16h7c-1.24,7.62-6.46,11.51-13.02,11.51Z
M2364.32,1638.8v-35.38h23.3v6.16h-16.39v8.29h13.96v6.17h-13.96v8.59h16.39v6.16h-23.3Z
M2394.37,1638.8v-35.37h6.91v29.21h16.05v6.16h-22.96Z
M2432.67,1639.1c-5.36,0-9.43-1.14-12.91-4.67l4.47-4.47c2.24,2.23,5.27,2.99,8.54,2.99,4.08,0,6.26-1.55,6.26-4.38,0-1.24-.35-2.28-1.1-2.98-.69-.65-1.49-.99-3.12-1.24l-4.27-.59c-3.03-.45-5.27-1.4-6.86-2.94-1.69-1.69-2.53-3.98-2.53-6.96,0-6.31,4.67-10.73,12.32-10.73,4.87,0,8.4,1.2,11.42,4.12l-4.37,4.32c-2.23-2.13-4.91-2.44-7.25-2.44-3.67,0-5.46,2.04-5.46,4.48,0,.89.29,1.83,1.04,2.53.7.65,1.84,1.19,3.28,1.39l4.18.59c3.23.45,5.26,1.34,6.75,2.73,1.89,1.79,2.74,4.37,2.74,7.5,0,6.86-5.71,10.73-13.12,10.73Z
M2451.05,1638.8v-35.37h6.91v35.37h-6.91Z
M2477.93,1639.1c-7.25,0-13.02-4.92-13.02-12.42v-23.25h6.9v23c0,4.07,2.38,6.51,6.12,6.51s6.16-2.44,6.16-6.51v-23h6.85v23.25c0,7.5-5.76,12.42-13.01,12.42Z
M2507.14,1639.1c-5.37,0-9.44-1.14-12.92-4.67l4.47-4.47c2.23,2.23,5.26,2.99,8.55,2.99,4.07,0,6.26-1.55,6.26-4.38,0-1.24-.34-2.28-1.1-2.98-.69-.64-1.49-.99-3.13-1.24l-4.28-.59c-3.02-.45-5.26-1.4-6.85-2.94-1.69-1.69-2.53-3.98-2.53-6.96,0-6.31,4.67-10.73,12.33-10.73,4.86,0,8.39,1.2,11.42,4.12l-4.37,4.32c-2.24-2.13-4.92-2.44-7.25-2.44-3.68,0-5.47,2.04-5.47,4.48,0,.89.31,1.83,1.05,2.53.7.65,1.84,1.19,3.27,1.39l4.18.59c3.23.45,5.26,1.34,6.75,2.73,1.89,1.79,2.73,4.37,2.73,7.5,0,6.86-5.71,10.73-13.11,10.73Z
M2451.07,1658.3v-12.08h2.36v9.98h5.48v2.1h-7.84Z
M2461.67,1658.3v-12.08h2.36v12.08h-2.36Z
M2472.08,1658.3h-1.76l-3.99-12.08h2.44l2.43,7.87,2.43-7.87h2.46l-4.01,12.08Z
M2478.39,1658.3v-12.08h7.96v2.1h-5.6v2.83h4.77v2.11h-4.77v2.94h5.6v2.1h-7.96Z
M2496.64,1648.33v2.97h4.77v2.1h-4.77v4.9h-2.36v-12.08h7.96v2.1h-5.6Z
M2505.14,1658.3v-12.08h2.36v12.08h-2.36Z
M2515.78,1648.33v9.98h-2.36v-9.98h-3.16v-2.1h8.67v2.1h-3.16Z" fill="#000000"/>
</svg>