<svg xmlns="http://www.w3.org/2000/svg" viewBox="2728.96 1576.91 348.8 83.53">
	<path d="M2814.05,1585.56h21.71c7.9,0,13.3.45,17.69,5.2,3.23,3.32,4.75,7.72,4.75,12.56s-1.61,9.16-5.11,12.66c-3.42,3.41-7.9,5.57-19.57,5.57h-10.5v28.8h-8.97v-64.8ZM2823.02,1614h10.67c5.94,0,15-.44,15-11.03s-8.44-10.15-13.12-10.15h-12.55v21.18Z
M2887.31,1650.35c-.63-2.24-.81-4.39-.81-6.73-4.03,7.46-10.14,8.17-13.91,8.17-10.32,0-15.87-5.83-15.87-13.29,0-3.59,1.24-9.33,7.89-13.19,4.85-2.69,12.03-2.96,15.61-2.96,2.15,0,3.5.09,6.1.27,0-5.57,0-8-1.61-9.97-1.71-2.25-5.39-2.96-7.82-2.96-8.52,0-8.97,5.84-9.07,7.63h-8.42c.26-2.33.53-5.47,3.13-8.53,3.42-3.77,9.78-4.85,14.54-4.85,6.55,0,13.55,2.06,15.98,6.64,1.45,2.69,1.53,4.85,1.53,6.91l-.36,21.54c0,.72.1,6.73.72,11.31h-7.63ZM2881.47,1628.18c-3.41,0-16.24,0-16.24,9.16,0,2.87,1.79,7.81,9.33,7.81,4.31,0,7.54-1.7,9.61-4.85,1.89-3.05,1.97-5.57,2.15-11.85-1.53-.18-2.78-.27-4.85-.27Z
M2902.02,1585.56h8.43v64.8h-8.43v-64.8Z
M2946.75,1650.35c-.62-2.24-.81-4.39-.81-6.73-4.04,7.46-10.15,8.17-13.91,8.17-10.33,0-15.9-5.83-15.9-13.29,0-3.59,1.26-9.33,7.91-13.19,4.85-2.69,12.02-2.96,15.62-2.96,2.15,0,3.5.09,6.1.27,0-5.57,0-8-1.61-9.97-1.71-2.25-5.39-2.96-7.81-2.96-8.53,0-8.97,5.84-9.06,7.63h-8.44c.27-2.33.54-5.47,3.14-8.53,3.41-3.77,9.79-4.85,14.54-4.85,6.56,0,13.55,2.06,15.97,6.64,1.44,2.69,1.52,4.85,1.52,6.91l-.36,21.54c0,.72.09,6.73.72,11.31h-7.63ZM2940.91,1628.18c-3.41,0-16.24,0-16.24,9.16,0,2.87,1.8,7.81,9.33,7.81,4.31,0,7.54-1.7,9.61-4.85,1.88-3.05,1.97-5.57,2.15-11.85-1.52-.18-2.78-.27-4.85-.27Z
M2961.58,1610.51l-.09-5.21h8.43l.09,7.28c.98-1.89,4.21-8.18,14.45-8.18,4.03,0,16.34,1.53,16.34,15.35v30.6h-8.62v-28.63c0-2.96-.36-5.66-2.42-7.72-2.16-2.06-5.12-3.05-7.98-3.05-6.11,0-11.76,4.4-11.76,13.46v25.94h-8.44v-39.85Z
M3003.44,1605.29h7.99v-9.6l8.34-2.69v12.29h10.05v6.19h-10.05v26.84c0,2.24,0,6.02,6.02,6.02,1.71,0,3.31-.27,4.03-.45v6.55c-1.52.27-3.95.53-7,.53-7.72,0-11.39-2.23-11.39-9.59v-29.9h-7.99v-6.19Z
M3035.75,1585.56h10.14v9.42h-10.14v-9.42ZM3036.65,1605.29h8.45v45.06h-8.45v-45.06Z
M3052.87,1614.45c0-3.05-.18-6.19-.46-9.16h8.53l.18,8.71c1.61-6.28,7-8.34,10.77-8.88,2.52-.36,4.4-.27,5.84-.18v8.26c-.44-.17-.98-.27-1.62-.36-.63-.09-1.43-.09-2.42-.09-9.96,0-12.3,5.92-12.3,13.64v23.96h-8.52v-35.9Z
M2761.92,1576.91c-17.47,0-31.62,14.16-31.62,31.62s14.16,31.62,31.62,31.62,31.62-14.16,31.62-31.62-14.16-31.62-31.62-31.62ZM2761.92,1630.43c-12.08,0-21.86-9.79-21.86-21.87s9.79-21.86,21.86-21.86,21.87,9.79,21.87,21.86-9.79,21.87-21.87,21.87Z
M2790.19 1637.39 L2761.92 1649.59 L2733.65 1637.39 L2728.96 1646.39 L2761.92 1660.44 L2794.88 1646.39 L2790.19 1637.39 Z" fill="#000000"/>
</svg>