<svg xmlns="http://www.w3.org/2000/svg" viewBox="241.37 2110.28 260.1 28.56">
	<path d="M501.44,2112.41v-.95h-13.47v.95h2.09v18.36l-12.55-19.32h-5.84v.95h2.08v24.62h-3.62l-9.1-26.74-9.4,26.74h-3.48v-24.62h2.09v-.95h-5.52l-6.96,20.18-7.3-20.18h-5.42v.95h2.09v24.62h-4.15c-1.17,0-2.2-1.05-2.2-2.83v-3.88c0-2.98-.96-5.47-3.94-6.31,2.59-.78,4.4-3.26,4.4-5.91,0-3.77-2.81-6.64-8.26-6.64h-8.18v.95h2.09v24.62h-4.21l-9.1-26.74-9.4,26.74h-1.85v.95h5.25v-.95h-2.32l2.62-7.47h8.54l2.5,7.47h-3.21v.95h17.83v-.95h-3.23v-12.55h2.16c3.16,0,4.75,1.29,4.75,4.37v2.28c0,5.41,3.56,6.86,5.5,6.86h7.63v-.95h-2.28v-21.81l8.57,23.04,8.09-23.73v22.49h-2.09v.95h12.38v-.95h-2.32l2.62-7.47h8.53l2.5,7.47h-3.21v.95h13.64v-.95h-2.1v-23.26l16.31,25.08v-26.45h4.92v24.62h-2.09v.95h7.6v-.95h-2.09v-24.62h2.09ZM388.19,2128.63l4.01-11.63,3.91,11.63h-7.92ZM412.46,2123.53h-2.16v-11.12h1.8c3.18,0,5.32,2.05,5.32,5.83,0,2.08-1.63,5.28-4.95,5.28ZM455.65,2128.63l4.01-11.63,3.91,11.63h-7.92Z
M358.68,2110.82c-7,0-11.52,7.77-11.52,13.92,0,6.72,4.9,13.88,11.52,13.88s11.52-6.73,11.52-13.88c0-6.16-4.9-13.92-11.52-13.92ZM358.68,2137.7c-6.7,0-7.08-8.79-7.08-12.97s.5-12.97,7.08-12.97,7.12,8.82,7.12,12.97-.43,12.97-7.12,12.97Z
M338.48 2112.41 L340.58 2112.41 L340.58 2137.03 L338.48 2137.03 L338.48 2137.98 L346.08 2137.98 L346.08 2137.03 L343.99 2137.03 L343.99 2112.41 L346.08 2112.41 L346.08 2111.45 L338.48 2111.45 L338.48 2112.41 Z
M314.97,2137.26c-1.17,0-2.2-1.08-2.2-2.86v-4.07c0-3.01-.96-5.47-3.94-6.31,2.59-.79,4.4-3.26,4.4-5.91,0-3.77-2.82-6.64-8.26-6.64h-8.18v.95h2.09v24.62h-2.09v.95h8.73v-.95s-3.23,0-3.23,0v-12.55h2.17c3.16,0,4.75,1.31,4.75,4.37v2.54c0,5.41,3.56,6.86,5.51,6.86,1.24,0,1.81-.39,2.38-.91l-.56-.78c-.73.63-1.22.7-1.57.7ZM304.46,2123.53h-2.17v-11.12h1.8c3.18,0,5.32,2.05,5.32,5.83,0,2.08-1.63,5.28-4.95,5.28Z
M284.25,2110.82c-7,0-11.52,7.77-11.52,13.92,0,6.72,4.9,13.88,11.52,13.88s11.52-6.73,11.52-13.88c0-6.16-4.9-13.92-11.52-13.92ZM284.25,2137.7c-6.7,0-7.08-8.79-7.08-12.97s.5-12.97,7.08-12.97,7.12,8.82,7.12,12.97-.43,12.97-7.12,12.97Z
M264.05 2112.41 L266.14 2112.41 L266.14 2137.03 L264.05 2137.03 L264.05 2137.98 L271.65 2137.98 L271.65 2137.03 L269.56 2137.03 L269.56 2112.41 L271.65 2112.41 L271.65 2111.45 L264.05 2111.45 L264.05 2112.41 Z
M255.49,2127.6h2.46v4.81c0,2.49-1.89,5.3-5.21,5.3-6.3,0-6.94-7.98-6.94-12.97,0-4.54.48-12.97,7.43-12.97,2.64,0,5.56,2.35,6.16,7.56h.85v-8.4h-.84c-.15.9-.63,1.29-1.56,1.29s-2.05-1.41-4.62-1.41c-7.85,0-11.85,8.32-11.85,13.92,0,5.89,4.45,13.88,11.38,13.88,3.77,0,4.1-2.25,6.38-2.25.7,0,1.18.66,1.27,1.61h.97v-10.38h2.09v-.95h-7.96v.95Z
M329.92,2127.6h2.46v4.81c0,2.49-1.89,5.3-5.21,5.3-6.31,0-6.94-7.98-6.94-12.97,0-4.54.48-12.97,7.43-12.97,2.64,0,5.56,2.35,6.16,7.56h.85v-8.4h-.84c-.15.9-.63,1.29-1.56,1.29s-2.05-1.41-4.62-1.41c-7.85,0-11.85,8.32-11.85,13.92,0,5.89,4.45,13.88,11.37,13.88,3.77,0,4.1-2.25,6.38-2.25.7,0,1.18.66,1.27,1.61h.97v-10.38s2.09,0,2.09,0v-.95h-7.96v.95Z" fill="#000000"/>
</svg>