<svg xmlns="http://www.w3.org/2000/svg" viewBox="815.259 1543.16 290.6 151">
	<path d="M956.4,1626.91c-4.72,0-8.65,18.74-12.51,18.56-3.25-.15-.53-12.93-5.51-12.96-3.05-.02-3.97,5.1-5.36,9.5-.08.25-2.33,9.1-5.76,9.1-2.18,0-4.09-1.74-4.09-6.9,0-2.41-.12-6.01-3.01-6.6-4.99-1.03-3.86,4.1-8.23,3.27-11.85-2.24-20.83,22.11-13.61,25.37,8.64,3.91,14.95-11.43,17.53-11.01,1.97.32.69,6.93,6.89,6.51,5.06-.34,9.04-10.79,11.01-10.66,1.75.11.23,6.29,4.59,6.51,5.11.27,7.21-8.21,9.54-8.25.58-.01.84.43.79,2.51-.07,2.83-.44,38.77-.5,39.94-.11,2.22.96,2.4,1.45,2.4.33,0,5.23-.1,6.18-.14.94-.04,1.11-.92,1.1-1.46,0-.21.68-52.31.73-63.59,0-2.09-.86-2.09-1.22-2.09ZM914.32,1648.36c-1.18,4.25-5.98,11.23-8.23,11.45-.67.06-1.64-.29-1.6-1.82.08-3.59,5.69-11.72,8-12.34,1.58-.42,2.28,1.11,1.84,2.72ZM1104.01,1603.75c-9.21,5.82-7.43-15.7-13.04-15.7-6.11,0-7.9,12.76-10.08,12.97-2.67.26.99-9.35-4.29-9.14-5.83.24-9.09,21.36-13.31,19.73-4.34-1.68-1.23-12.84-6.11-13.65-2.52-.42-3.04,1.59-4.54,2.57-2.25,1.46-6.28-1.08-12.61,6.3-7.16,8.34-9.35,21.82-3.89,22.74,7.35,1.24,14.05-11.31,15.75-12.93,2.37-2.25,1.05,6.5,7.43,6.63,6.74.13,8.77-10.99,10.73-10.88,1.68.09-.27,5.83,2.94,6.24,6.96.89,10.77-17.34,13.63-16.95,2.86.4,1.79,11.28,8.68,11.96,5.85.58,9.86-7.41,10.4-8.59.56-1.22-.4-2.12-1.69-1.31ZM1051.6,1609.48c-1.33,3.79-5.19,9.87-7.55,10.29-.82.15-1.8-.66-1.74-2.05.15-3.26,5.61-10.17,7.82-10.69,1.51-.35,2.01.89,1.47,2.44ZM881,1662.03c-1.61-.82-1.69-2.45-1.75-3.22-.06-.77,0-4.86,0-7.56s.38-3.19,2.41-4.69c33.32-24.5,39.05-45.6,29.67-58.96-19.23-27.4-85.42,15.24-90.25,18.74-4.99,3.62-5.41,9.07-5.61,10.75-.14,1.17-.22,7.49-.21,9.2,0,1.45-.08,2.77,3.55-.22,23.1-19.04,76.48-53.04,86.75-31.74,5.03,10.43,1.68,26.19-23.57,44.84-2.11,1.56-2.72-.44-2.74-1.74-.01-.95-.04-36.73,0-39.26.05-3.77-3.28-2.38-4.36-1.67-.69.45-2.8,1.82-4.76,3.09-1.73,1.12-1.6,1.96-1.63,2.98-.02.63.16,39.74.15,42.75-.01,2.67-.01,3.55-1.3,4.47-.77.55-11.86,7.03-14.08,8.38-1.87,1.13-1.18,2.77-.26,3.19.71.33,12.12,5.72,13.91,6.53,1.99.91,1.84,2.23,1.83,2.92,0,.69,0,13.1.05,19.79.03,3.36,2.1,1.75,2.91,1.34.57-.29,3.8-2.21,5.77-3.6,1.86-1.32,1.73-3.55,1.73-4.46,0-.77,0-4.21,0-6.71,0-2.47,1.44-2.77,2.33-2.36.8.37,26.01,12.41,30.7,14.63,2.93,1.39,5.39.35,6.4-1.39.17-.3.97-1.78,1.8-3.67,1.17-2.66-1.12-4.14-2.76-4.93-1.36-.66-35.08-16.57-36.69-17.39ZM981.1,1624.8c-2.45-2.75-7.36-2.7-11.15-.37-4.99,3.07-6.32,7.87-3.87,10.62,2.45,2.75,8.31,2.17,11.9-.22,4.11-2.73,5.56-7.28,3.11-10.03ZM1018.45,1551.51c11.74,11.55-8.26,33.46-13.08,39.09-2.17,2.53-4.18,6.29-.77,9.9,3.45,3.66,7.04,7.05,10,9.79,3.65,3.38,2.57,9.71.25,13.14-1.54,2.28-4.98,6.3-8.95,11.37-3.98,5.09-7.59,9.73-7.99,10.24-2.78,3.53-2.08,7.46-.6,9.77,4.27,6.62,4.68,6.53,7.4,1.8,4.53-7.87,10.51-15.18,15.05-20.36,4.1-4.67,6.32-8.01,6.9-8.83,4.12-5.87,4.51-12.15.35-15.77-5.5-4.79-11.87-8.98-17.13-12.99-3.04-2.32-.93-5.17,2.32-7.6,11.56-8.65,27.7-23.14,20.3-40.57-7.16-16.87-40.86-3.85-42.23,31.04-.49,12.44,1.17,46.86.24,55.48-.54,5.01,1.37,4.45,3.2,3.69,1.68-.69,8.11-3.84,7.78-12.03-.33-8.17-1.08-43.78-1.32-47.47-1.25-19.21,10.66-37.2,18.28-29.7Z" fill="#000000"/>
</svg>