<svg xmlns="http://www.w3.org/2000/svg" viewBox="1736.65 1949.71 204.6 37.86">
	<path d="M1941.25,1986.22c-.09-.79-.55-1.33-1.35-1.43-.8-.09-1.03.02-1.88-.25-.91-.28-1.55-.9-2.05-1.68-2.05-3.21-4.1-6.4-6.15-9.6-.38-.6-.77-1.2-1.16-1.79-.17-.27-.19-.44-.49-.5-1.63-.33-3.25-.66-4.88-1,.17.51.33,1.01.49,1.53-5.03-1.78-10.02-2.16-14.21-1.87-1.36.08-2.71.51-4.07.68-3,.39-5.96.75-8.99.72-3.2-.03-6.4-.09-9.61-.24-3.03-.15-6.08-.83-9.04-1.44-.68-.14-1.35-.27-2.03-.41-.89-.18-1.8-.44-2.71-.13-1.61.56-2.36,2.5-1.54,4.01.43.78,1.35,1.1,1.1,2.14-.71,2.94-2.74,5.74-5.73,6.64-.54.16-1.47.21-1.66-.45-.18-.64.09-1.49.24-2.11.36-1.45.99-2.86,1.56-4.25.58-1.38,1.11-2.76,1.29-4.26.11-.89-.44-1.75-1.35-1.91-.91-.18-1.95.54-2.76.88-2.01.85-4.02,1.67-6.07,2.44-3.75,1.41-12.23,4.22-18.72,5.8-1.1.27-2.2.52-3.31.77-.58.2-1.05-.4-.85-.93,1.11-2.97,2.21-5.93,3.31-8.9h-7.61c-.08,0-.32-.04-.37.03-.2.34-.4.69-.61,1.04-.25.42-.48.82-.73,1.24-.13.22-.5.33-.71.45-.71.4-1.43.75-2.17,1.09-1.38.64-2.75,1.28-4.15,1.87-2.8,1.2-5.65,2.19-8.5,3.23-2.64.99-5.43,1.75-8.17,2.44-3.1.77-6.18,1.53-9.37,1.85-2.89.3-5.89.55-8.8.3-3.05-.28-6.07-.72-9.03-1.52-2.81-.76-5.63-1.6-8.28-2.83-1.39-.65-2.85-1.22-4.19-1.97-1.46-.83-2.93-1.64-4.4-2.46,5.79,1.43,11.6,2.91,17.56,3.47,2.97.28,5.94.24,8.91.14,3.19-.11,6.24-.65,9.32-1.47,2.91-.78,5.58-2.11,8.21-3.55,1.96-1.1,7.73-5.19,8.43-9.77.25-1.68-.22-2.91-1.04-4.36-1.54-2.74-4.45-4.15-7.2-5.37-5.39-2.38-11.68-3.08-17.52-2.74-5.95.35-11.99,1.38-17.68,3.16-6.01,1.88-11.79,4.14-17.55,6.69-2.73,1.2-5.41,2.46-8.09,3.78-1.55.77-3.12,1.54-4.67,2.31-.11.05-.24.24-.3.37-.34.74-1.24,2.53-1.6,3.25,2.84-1.04,5.69-2.07,8.54-3.11.38-.14.76-.28,1.14-.43.2-.07-.06.41-.06.41-.48.88-.95,1.75-1.43,2.63-3.28,6.08-6.57,12.15-9.86,18.22,3.32-.04,6.66-.08,9.98-.11.32-.01.28-.02.44-.3.31-.58.63-1.15.94-1.74,1.04-1.9,2.08-3.8,3.12-5.7l2.33-4.28c.17-.31.35-.33.65-.13.77.52,1.54,1.03,2.31,1.55,5.19,3.47,10.64,6.2,16.54,8.23,5.75,1.98,11.85,2.74,17.9,2.63,3-.06,6-.66,8.93-1.26,2.74-.55,5.47-1.26,8.14-2.08,5.72-1.76,16.2-5.88,17.67-6.45-.36.62-.71,1.23-1.07,1.86-.96,1.67-2.88,3.92-1.97,5.94.36.8,1.07,1.4,1.9,1.65.91.27,1.8-.02,2.69-.22,2.13-.46,4.24-.98,6.33-1.53,8.38-2.2,16.59-5.11,24.5-8.68-1.44,2.5-3.49,6.55-1.34,9.22,1.01,1.24,2.68,1.5,4.16,1.75,4.41.73,9.27-1.25,12.21-4.29,2.11-2.17,3.39-4.95,4.21-7.83.02-.08.27-1.04.32-1.04.42.06.84.12,1.26.19.77.12,1.55.18,2.34.25,1.48.13,2.95.23,4.43.32,3.07.13,6.09.21,9.15-.03.71-.06,1.41-.16,2.11-.25,1.17-.17.14.61-.16,1.06-.79,1.17-1.52,2.65-1.41,4.11.12,1.67.74,2.9,1.94,4.07,1.09,1.05,2.52,1.57,3.92,2.04,5.15,1.7,12.95,1.32,17.62-.57,4.11-1.66,6.97-3.73,8.1-4.53.21.67.92,2.87,1.45,4.39.18.48.55.83.75,1,1.18.99,3.31.64,4.75.64h7.39c.15,0,.07-.58.05-.71ZM1760.26,1963.01c.33-.62.66-1.23.99-1.85.04-.08,1.25-.39,1.7-.53,2.84-.85,5.7-1.73,8.61-2.35,3.11-.66,6.25-1.4,9.44-1.64,3.15-.24,6.22-.33,9.37.06,6.12.75,11.16,2.81,11.84,4.79.49,1.4-.92,3.35-2.48,4.29-6.8,4.11-13.45,4.49-16.38,4.67-3.12.19-11.37.32-21.28-1.75-1.42-.3-2.8-.8-4.19-1.21.79-1.49,1.6-2.98,2.39-4.48ZM1919.01,1979.22c-2.93,1.46-6.43,1.93-9.89,1.83-1.45-.21-3-.46-4.23-1.33-1.49-1.06-.9-2.53.2-3.62.9-.91,3.49-1.75,4.71-2.02,1.89-.44,5.01-.82,8.24-.09,1.15.27,3.21.87,3.54,2.18.33,1.29-1.64,2.61-2.58,3.06Z" fill="#000000"/>
</svg>