<svg xmlns="http://www.w3.org/2000/svg" viewBox="2273.58 844.83 339.1 183">
	<path d="M2468.61,896.06c-.18-4.03-1.3-8.03-3.39-11.64l-18.41-31.88c-1.4-2.43-2.37-5.04-2.91-7.71l-.77,1.33c-4.56,7.89-4.56,17.61,0,25.51l14.73,25.51c4.56,7.89,4.56,17.61,0,25.51l-.77,1.33c-.54-2.67-1.51-5.28-2.91-7.71l-13.48-23.35h0l-8.61-14.91c-1.4-2.43-2.37-5.04-2.91-7.71l-.77,1.33c-4.54,7.86-4.55,17.55-.04,25.43,0,0,0,0,0,0l14.77,25.59c4.56,7.89,4.56,17.61,0,25.51h0l-.77,1.33c-.54-2.67-1.51-5.28-2.91-7.71l-18.41-31.88c-2.47-4.28-3.6-9.09-3.39-13.86-19.71,5.15-33.31,16.08-33.31,28.74,0,17.61,26.32,31.88,58.79,31.88,32.47,0,58.79-14.27,58.79-31.88,0-12.66-13.6-23.59-33.31-28.74Z
M2273.59,1024.94c.15-3.08.6-5.18,1.43-7.58,4.2,1.95,9.61,2.93,13.74,2.93,6.98,0,10.89-2.25,10.89-6.68,0-4.35-2.85-6.38-9.91-9.46l-3.83-1.65c-7.06-3.08-11.86-7.06-11.86-15.02,0-8.56,5.93-14.04,18.09-14.04,4.88,0,9.46.68,13.74,2.18-.23,3-.75,5.33-1.5,7.51-4.05-1.5-8.86-2.18-12.31-2.18-6.53,0-9.54,2.55-9.54,6.53,0,3.9,2.93,6.16,8.18,8.41l4.05,1.73c9.54,4.05,13.51,8.33,13.51,15.62,0,8.63-6.53,14.57-19.3,14.57-6.16,0-11.19-.9-15.39-2.85ZM2348.59,989.05v37.54h-7.58s-.45-4.5-.45-4.5c-2.1,3.3-5.33,5.41-10.59,5.41-9.91,0-16.52-7.21-16.52-19.82,0-13.21,7.06-20.72,20.95-20.72,5.41,0,9.84.6,14.19,2.1ZM2340.34,1018.04v-23.58c-1.73-.3-3.6-.45-5.93-.45-8.56,0-12.54,5.26-12.54,13.67,0,7.66,3.08,13.06,10.44,13.06,3.23,0,5.86-1.05,8.03-2.7ZM2390.87,1001.37v25.23h-8.26v-23.8c0-5.93-1.95-8.78-10.21-8.78-1.95,0-4.28.23-6.53.6v31.98h-8.26v-37.54c5.26-1.28,11.04-2.1,15.02-2.1,13.81,0,18.24,5.33,18.24,14.42ZM2413.77,1020.44c2.4,0,4.66-.45,6.46-1.13-.23,2.25-.53,4.81-.98,6.98-2.25.9-4.65,1.2-6.98,1.2-8.03,0-13.14-3.68-13.14-12.84v-39.42c2.55-.83,5.71-1.2,8.26-1.2v14.19s13.06,0,13.06,0c-.15,2.55-.38,4.88-.75,7.06h-12.31s0,18.4,0,18.4c0,4.88,2.4,6.76,6.38,6.76ZM2458.07,989.05v37.54h-7.58s-.45-4.5-.45-4.5c-2.1,3.3-5.33,5.41-10.59,5.41-9.91,0-16.52-7.21-16.52-19.82,0-13.21,7.06-20.72,20.95-20.72,5.41,0,9.84.6,14.19,2.1ZM2449.81,1018.04v-23.58c-1.73-.3-3.6-.45-5.93-.45-8.56,0-12.54,5.26-12.54,13.67,0,7.66,3.08,13.06,10.44,13.06,3.23,0,5.86-1.05,8.03-2.7ZM2500.34,1001.37v25.23h-8.26v-23.8c0-5.93-1.95-8.78-10.21-8.78-1.95,0-4.28.23-6.53.6v31.98h-8.26v-37.54c5.26-1.28,11.04-2.1,15.02-2.1,13.81,0,18.24,5.33,18.24,14.42ZM2542.24,974.04v52.56h-7.58s-.45-4.81-.45-4.81c-2.1,3.53-5.33,5.71-10.74,5.71-9.91,0-16.52-7.21-16.52-19.82,0-13.21,7.06-20.72,20.95-20.72,2.18,0,4.2.23,6.16.6v-12.39c2.55-.9,5.48-1.13,8.18-1.13ZM2534.06,1017.89v-23.12c-2.18-.45-4.43-.75-6.61-.75-8.18,0-12.09,5.11-12.09,13.67,0,7.66,3.08,13.06,10.44,13.06,3.3,0,6.01-1.13,8.26-2.85ZM2583.76,1010.53h-26.35c1.05,6.68,4.95,9.91,12.31,9.91,4.51,0,9.09-.98,13.21-2.85-.3,2.18-.75,5.03-1.28,7.51-3.75,1.73-7.73,2.4-12.16,2.4-13.81,0-20.5-7.66-20.5-20.5,0-11.19,5.18-20.05,18.32-20.05,11.79,0,16.89,7.73,16.89,17.19,0,2.33-.15,4.2-.45,6.38ZM2557.26,1003.62h18.62c0-6.16-3.3-9.76-9.01-9.76-5.86,0-8.93,3.38-9.61,9.76ZM2612.67,987.25c0,2.48-.3,5.48-.75,7.06-1.95-.23-3.9-.3-6.23-.3-2.03,0-4.05.15-6.08.45v32.14h-8.26v-37.54c3.53-1.2,9.46-2.1,14.12-2.1,2.55,0,5.41.07,7.21.3Z" fill="#000000"/>
</svg>