<svg xmlns="http://www.w3.org/2000/svg" viewBox="2538.48 1315.78 342 78.65">
	<path d="M2670.31,1384.57h-.98v-58.93h.98v58.93ZM2695.57,1341.12h3.04c2.11,0,3.71-.41,4.79-1.23,1.09-.82,1.63-2.03,1.63-3.62s-.58-2.94-1.74-3.97c-1.16-1.03-2.65-1.54-4.47-1.54h-8.4v.54h2.76v19.14h-2.76v.54h7.92v-.54h-2.76v-9.32ZM2695.57,1331.29h3.07c1.44,0,2.43.28,2.96.85.53.57.8,1.78.8,3.63,0,2.04-.25,3.35-.76,3.93-.51.58-1.64.88-3.38.88h-2.68v-9.29ZM2711.56,1339.34v-8.05h2.76v-.54h-7.92v.54h2.76v19.14h-2.76v.54h7.92v-.54h-2.76v-10.55h7.62v10.55h-2.76v.54h7.92v-.54h-2.79v-19.14h2.79v-.54h-7.92v.54h2.76v8.05h-7.62ZM2731.18,1331.29h2.76v-.54h-7.92v.54h2.76v19.14h-2.76v.54h7.92v-.54h-2.76v-19.14ZM2735.63,1330.75v.54h2.76v19.14h-2.76v.54h14.46v-9.07h-.32c-.38,2.96-1.08,5.13-2.11,6.49-1.03,1.36-2.49,2.04-4.36,2.04h-2.5v-19.14h2.76v-.54h-7.92ZM2757.26,1331.29h2.76v-.54h-7.92v.54h2.76v19.14h-2.76v.54h7.92v-.54h-2.76v-19.14ZM2766.87,1341.12h3.04c2.11,0,3.71-.41,4.79-1.23,1.09-.82,1.63-2.03,1.63-3.62s-.58-2.94-1.74-3.97c-1.16-1.03-2.65-1.54-4.47-1.54h-8.4v.54h2.76v19.14h-2.76v.54h7.92v-.54h-2.76v-9.32ZM2766.87,1331.29h3.07c1.44,0,2.43.28,2.96.85.53.57.8,1.78.8,3.63,0,2.04-.25,3.35-.76,3.93-.51.58-1.64.88-3.38.88h-2.68v-9.29ZM2793.97,1350.97l5.43-19.89-.11,19.35h-2.78v.54h7.78v-.54h-2.75v-19.14h2.75v-.54h-5.34l-4.32,15.81-4.12-15.81h-5.65v.54h.72c.81,0,1.38.14,1.72.43.34.31.51.79.51,1.44v14.47c0,.94-.2,1.63-.61,2.1-.41.46-1.03.69-1.86.69h-.49v.54h6.47v-.54h-.9c-.73,0-1.26-.23-1.59-.69-.33-.46-.49-1.23-.49-2.29v-16.36l5.16,19.89h.46ZM2810.38,1331.6c-1,.77-1.84,1.88-2.53,3.31-.43.92-.75,1.91-.97,2.98-.22,1.07-.33,2.17-.33,3.3,0,.78.05,1.5.14,2.16.09.66.23,1.31.42,1.95.37,1.23.93,2.35,1.67,3.35.64.84,1.39,1.5,2.25,1.97.86.47,1.73.71,2.61.71s1.76-.24,2.62-.72c.86-.48,1.59-1.13,2.21-1.96.75-1.02,1.31-2.14,1.67-3.36.36-1.22.55-2.59.55-4.1,0-1.71-.24-3.29-.71-4.75-.47-1.45-1.16-2.72-2.06-3.81-.59-.71-1.26-1.26-2-1.63-.73-.37-1.5-.56-2.3-.56-1.17,0-2.25.39-3.25,1.16ZM2811.61,1350.13c-.61-.44-1.14-1.06-1.56-1.89-.3-.54-.5-1.24-.62-2.1-.11-.86-.17-2.4-.17-4.61v-.65c0-1.41.02-2.59.07-3.54.05-.95.11-1.67.19-2.17.19-1,.51-1.82.96-2.46.39-.56.86-.99,1.42-1.3.56-.31,1.14-.47,1.73-.47s1.14.15,1.7.47c.56.31,1.04.74,1.42,1.3.44.62.76,1.43.94,2.41.18.99.28,2.91.28,5.76,0,2.46-.07,4.18-.19,5.14-.13.96-.33,1.7-.6,2.22-.43.83-.95,1.46-1.55,1.89-.6.43-1.27.65-2,.65s-1.41-.22-2.02-.65ZM2830.64,1350.97v-.54h-2.76v-9.46h3.01c1.19,0,2.02.29,2.49.85.47.57.7,1.73.7,3.47,0,2.34.31,3.93.92,4.76.61.84,1.68,1.26,3.21,1.26.17,0,.32,0,.46-.03.14-.02.28-.04.43-.07.28-.06.54-.14.78-.26v-.53c-.17.07-.31.13-.39.15-.08.03-.16.05-.23.05-.08.01-.18.03-.31.06h-.27c-.53,0-.94-.14-1.23-.42-.3-.3-.53-.78-.69-1.45-.03-.1-.05-.19-.06-.27-.01-.08-.03-.19-.05-.33-.02-.14-.03-.3-.03-.49v-1.41c0-.53-.02-1-.07-1.42-.04-.31-.08-.52-.1-.64-.02-.12-.05-.26-.1-.42-.28-1-.77-1.75-1.48-2.24-.4-.28-.85-.5-1.36-.65-.51-.16-1.08-.24-1.69-.24,1.71-.16,3.03-.69,3.96-1.58.93-.89,1.39-2.07,1.39-3.56s-.46-2.72-1.39-3.57c-.92-.84-2.24-1.26-3.93-1.26h-9.11v.54h2.76v19.14h-2.76v.54h7.92ZM2833.75,1332.23c.52.63.79,1.76.79,3.41,0,1.92-.27,3.21-.81,3.86-.54.65-1.61.97-3.22.97h-2.62v-9.17h3.01c1.38,0,2.33.31,2.85.94ZM2848.36,1350.97v-.54h-2.76v-9.46h3.01c1.19,0,2.02.29,2.49.85.47.57.7,1.73.7,3.47,0,2.34.31,3.93.92,4.76.61.84,1.68,1.26,3.21,1.26.17,0,.32,0,.46-.03.14-.02.28-.04.43-.07.28-.06.54-.14.78-.26v-.53c-.17.07-.31.13-.39.15-.08.03-.16.05-.23.05-.08.01-.18.03-.31.06h-.27c-.53,0-.94-.14-1.23-.42-.3-.3-.53-.78-.69-1.45-.03-.1-.05-.19-.06-.27-.01-.08-.03-.19-.05-.33-.02-.14-.03-.3-.03-.49v-1.41c0-.53-.02-1-.07-1.42-.04-.31-.08-.52-.1-.64-.02-.12-.05-.26-.1-.42-.28-1-.77-1.75-1.48-2.24-.4-.28-.85-.5-1.36-.65-.51-.16-1.08-.24-1.69-.24,1.71-.16,3.03-.69,3.96-1.58.92-.89,1.39-2.07,1.39-3.56s-.46-2.72-1.39-3.57c-.92-.84-2.24-1.26-3.93-1.26h-9.11v.54h2.76v19.14h-2.76v.54h7.92ZM2851.47,1332.23c.52.63.79,1.76.79,3.41,0,1.92-.27,3.21-.81,3.86-.54.65-1.61.97-3.22.97h-2.62v-9.17h3.01c1.38,0,2.33.31,2.85.94ZM2863.32,1331.29h2.76v-.54h-7.92v.54h2.76v19.14h-2.76v.54h7.92v-.54h-2.76v-19.14ZM2868.58,1351.11l1.5-2.77c.69.98,1.45,1.72,2.29,2.23.84.5,1.73.76,2.67.76,1.55,0,2.85-.56,3.88-1.67,1.03-1.12,1.55-2.52,1.55-4.22,0-1.28-.37-2.39-1.12-3.34-.74-.95-2.05-1.94-3.92-2.98l-1.31-.71c-2.89-1.58-4.34-2.97-4.34-4.15,0-.94.36-1.73,1.08-2.35.72-.62,1.63-.93,2.72-.93,1.43,0,2.65.62,3.65,1.87,1,1.25,1.73,3.03,2.17,5.35h.43v-7.76h-.17l-1.57,2.68c-.73-.95-1.46-1.64-2.17-2.06-.72-.42-1.53-.63-2.44-.63-1.39,0-2.53.49-3.41,1.46-.89.97-1.33,2.21-1.33,3.72,0,.6.12,1.19.36,1.77.24.58.56,1.07.97,1.48.57.54,1.62,1.2,3.13,2,.88.45,1.54.82,1.98,1.1,1.47.87,2.48,1.66,3.02,2.38.54.72.81,1.54.81,2.48,0,1.14-.38,2.08-1.13,2.83-.75.75-1.68,1.12-2.79,1.12-1.67,0-3.07-.72-4.19-2.17-1.13-1.44-1.88-3.48-2.24-6.11h-.43v8.61h.32ZM2695.57,1359.74h2.76v-.54h-7.92v.54h2.76v19.14h-2.76v.54h7.92v-.54h-2.76v-19.14ZM2712.21,1379.76h.4v-16.25c0-1.27.2-2.21.61-2.84.41-.62,1.03-.94,1.86-.94h.51v-.54h-6.51v.54h.46c.85,0,1.49.33,1.92.97.43.65.64,1.61.64,2.89v10.94l-7.99-15.35h-4.93v.54h.71c.67,0,1.17.09,1.5.28.32.19.57.5.75.94v14.14c0,1.29-.2,2.24-.59,2.85-.4.62-1.02.92-1.87.92h-.49v.54h6.48v-.54h-.46c-.85,0-1.49-.32-1.9-.96-.42-.65-.63-1.6-.63-2.87v-13.59l9.53,18.32ZM2727.23,1379.41v-.54h-2.76v-19.17h.06c1.87,0,3.22.56,4.03,1.67.81,1.11,1.35,3.16,1.61,6.15h.33v-8.33h-14.28v8.33h.32c0-1.3.15-2.48.45-3.54.25-.92.6-1.72,1.06-2.4.83-1.25,2.04-1.88,3.61-1.88h.43v19.17h-2.75v.54h7.9ZM2745.84,1379.41v-7.98h-.32c-.3,2.55-.89,4.42-1.76,5.63-.88,1.21-2.1,1.81-3.66,1.81h-3.47v-10.08h1.25c1.05,0,1.84.32,2.34.97.29.36.51.81.67,1.35.16.54.24,1.16.24,1.89h.29v-9.22h-.29c0,.7-.09,1.33-.26,1.89-.17.56-.41,1.04-.71,1.44-.61.79-1.42,1.18-2.44,1.18h-1.08v-8.55h3.53c1.55,0,2.7.47,3.45,1.41.76.94,1.3,2.58,1.64,4.92h.31v-6.87h-14.08v.54h2.76v19.14h-2.76v.54h14.37ZM2756.16,1379.41v-.54h-2.76v-9.46h3.01c1.19,0,2.02.29,2.49.86.47.57.7,1.73.7,3.47,0,2.34.31,3.93.91,4.76.61.84,1.68,1.26,3.21,1.26.17,0,.32,0,.46-.03.14-.02.28-.04.43-.07.28-.06.54-.14.78-.26v-.53c-.18.07-.31.13-.39.15-.08.03-.16.05-.24.06-.07.01-.18.03-.31.06h-.26c-.53,0-.94-.14-1.24-.42-.3-.3-.53-.78-.69-1.45-.03-.1-.05-.19-.06-.27-.02-.08-.03-.19-.05-.33-.02-.14-.03-.3-.03-.49v-1.41c0-.53-.02-1-.07-1.42-.05-.31-.08-.52-.1-.64-.02-.12-.05-.26-.1-.42-.28-1-.77-1.75-1.49-2.24-.4-.28-.85-.5-1.36-.65-.51-.16-1.07-.24-1.69-.24,1.71-.16,3.03-.69,3.96-1.58.92-.89,1.39-2.07,1.39-3.56s-.46-2.72-1.39-3.57c-.93-.84-2.24-1.26-3.93-1.26h-9.11v.54h2.76v19.14h-2.76v.54h7.92ZM2759.26,1360.67c.52.62.78,1.76.78,3.41,0,1.92-.27,3.21-.81,3.86-.54.65-1.61.97-3.22.97h-2.62v-9.17h3.01c1.38,0,2.33.31,2.85.94ZM2778.14,1379.76h.4v-16.25c0-1.27.2-2.21.61-2.84.4-.62,1.03-.94,1.86-.94h.52v-.54h-6.51v.54h.46c.85,0,1.49.33,1.92.97.42.65.64,1.61.64,2.89v10.94l-7.99-15.35h-4.93v.54h.71c.67,0,1.17.09,1.5.28.32.19.57.5.75.94v14.14c0,1.29-.2,2.24-.6,2.85-.4.62-1.02.92-1.87.92h-.48v.54h6.48v-.54h-.46c-.85,0-1.48-.32-1.9-.96-.42-.65-.62-1.6-.62-2.87v-13.59l9.54,18.32ZM2784.6,1372.96h6.16l1.73,5.92h-2.39v.54h6.65v-.54h-1.82l-6.03-20h-.62l-4.78,15.95c-.47,1.5-.94,2.52-1.42,3.07-.47.55-1.11.87-1.92.97v.54h6.14v-.54h-.57c-.63,0-1.13-.19-1.5-.56-.36-.37-.55-.9-.55-1.58l.06-.74c.03-.18.05-.31.06-.38.01-.07.05-.19.11-.36l.68-2.31ZM2787.71,1362.64l2.87,9.81h-5.81l2.94-9.81ZM2805.97,1379.41v-.54h-2.76v-19.17h.06c1.87,0,3.22.56,4.03,1.67.82,1.11,1.35,3.16,1.61,6.15h.33v-8.33h-14.28v8.33h.32c0-1.3.15-2.48.44-3.54.25-.92.6-1.72,1.05-2.4.83-1.25,2.04-1.88,3.61-1.88h.43v19.17h-2.75v.54h7.9ZM2815.35,1359.74h2.76v-.54h-7.92v.54h2.76v19.14h-2.76v.54h7.92v-.54h-2.76v-19.14ZM2823.34,1360.04c-1,.77-1.84,1.88-2.53,3.31-.43.92-.75,1.91-.97,2.98-.22,1.07-.33,2.17-.33,3.3,0,.78.05,1.5.14,2.16.1.66.23,1.31.42,1.95.37,1.23.93,2.35,1.67,3.35.64.84,1.39,1.5,2.25,1.97.86.47,1.73.71,2.61.71s1.76-.24,2.62-.72c.86-.48,1.59-1.13,2.21-1.96.75-1.02,1.31-2.14,1.67-3.36.36-1.22.55-2.59.55-4.1,0-1.71-.23-3.3-.71-4.75-.47-1.45-1.16-2.72-2.06-3.8-.6-.71-1.26-1.26-2-1.63-.73-.37-1.5-.56-2.3-.56-1.17,0-2.25.39-3.25,1.16ZM2824.57,1378.57c-.61-.44-1.13-1.06-1.56-1.89-.3-.54-.5-1.24-.62-2.1-.12-.86-.18-2.4-.18-4.61v-.65c0-1.41.02-2.59.07-3.54.04-.95.11-1.67.2-2.17.19-1,.51-1.82.96-2.46.39-.56.86-.99,1.42-1.3.56-.31,1.14-.47,1.73-.47s1.14.15,1.7.47c.56.31,1.04.74,1.42,1.3.44.62.76,1.42.94,2.41.19.99.28,2.91.28,5.76,0,2.46-.06,4.18-.2,5.14-.13.96-.32,1.7-.6,2.22-.44.83-.95,1.46-1.55,1.89-.6.43-1.27.65-2,.65s-1.4-.22-2.02-.65ZM2847.86,1379.76h.4v-16.25c0-1.27.21-2.21.61-2.84.41-.62,1.03-.94,1.86-.94h.51v-.54h-6.51v.54h.46c.85,0,1.49.33,1.92.97.43.65.64,1.61.64,2.89v10.94l-7.99-15.35h-4.93v.54h.71c.67,0,1.17.09,1.5.28.32.19.57.5.74.94v14.14c0,1.29-.2,2.24-.59,2.85-.4.62-1.02.92-1.87.92h-.49v.54h6.48v-.54h-.46c-.85,0-1.48-.32-1.9-.96-.42-.65-.63-1.6-.63-2.87v-13.59l9.54,18.32ZM2854.32,1372.96h6.16l1.73,5.92h-2.39v.54h6.65v-.54h-1.82l-6.03-20h-.63l-4.78,15.95c-.47,1.5-.95,2.52-1.42,3.07-.47.55-1.11.87-1.92.97v.54h6.14v-.54h-.57c-.63,0-1.13-.19-1.5-.56-.37-.37-.55-.9-.55-1.58l.06-.74c.03-.18.05-.31.06-.38.02-.07.05-.19.1-.36l.68-2.31ZM2857.43,1362.64l2.88,9.81h-5.81l2.94-9.81ZM2865.77,1359.2v.54h2.76v19.14h-2.76v.54h14.45v-9.07h-.32c-.38,2.96-1.09,5.13-2.12,6.49-1.03,1.36-2.48,2.04-4.36,2.04h-2.5v-19.14h2.76v-.54h-7.92ZM2569.84,1390.52l-.71.21-1-3.39.71-.21,1,3.38M2570.35,1386.7l.87,3.43.66-.18-.61-2.41,1.99,2.07.71-.18-.87-3.42-.66.17.6,2.37-1.94-2.04-.75.19M2577.2,1385.15l-2.8.57.12.6,1.04-.21.57,2.86.72-.15-.57-2.86,1.03-.21-.12-.61M2581.18,1385.16l-.1-.62-2.53.38.53,3.49,2.61-.39-.09-.63-1.9.29-.13-.9,1.66-.25-.09-.61-1.66.25-.11-.73,1.81-.27M2583.43,1384.88l.81-.08c.15-.01.27,0,.35.03.14.06.22.2.25.41.02.2-.04.34-.17.42-.08.05-.19.08-.35.09l-.79.08-.09-.94M2584.33,1384.17l-1.68.16.35,3.52.71-.07-.13-1.37.71-.07c.21-.03.35,0,.43.07.08.07.13.21.16.43l.04.33c.01.1.03.2.06.29.01.05.04.11.06.19l.81-.08v-.09c-.08-.04-.13-.1-.16-.19-.02-.05-.04-.17-.05-.32l-.02-.23c-.03-.25-.08-.43-.16-.54-.08-.12-.2-.2-.37-.24.19-.09.32-.21.38-.38.07-.17.1-.34.08-.51-.01-.14-.05-.26-.1-.37-.05-.1-.12-.19-.2-.27-.1-.1-.22-.17-.35-.21-.14-.04-.32-.06-.56-.04ZM2587.03,1383.95l.16,3.52.69-.03-.12-2.49,1.53,2.42.74-.03-.16-3.53-.69.03.11,2.44-1.49-2.38-.77.04M2592.4,1385.99l.47-1.38.43,1.39h-.9M2591.17,1387.32h.78s.24-.72.24-.72h1.3s.23.73.23.73h.8s-1.23-3.53-1.23-3.53h-.84s-1.28,3.51-1.28,3.51ZM2598.05,1383.98l-2.85-.14-.03.61,1.06.05-.15,2.92.74.03.15-2.91,1.05.05.03-.61M2599.7,1387.66l.3-3.52-.74-.06-.3,3.52.74.07M2603.45,1387.22c-.2.19-.44.27-.73.23-.29-.03-.5-.17-.64-.41-.14-.23-.19-.54-.14-.93.05-.39.17-.68.37-.87.2-.19.44-.27.73-.23.29.04.5.17.64.41.14.24.19.55.13.93-.05.39-.17.68-.37.87M2604.55,1386.44c.08-.64-.04-1.15-.34-1.51-.23-.31-.6-.49-1.09-.56-.5-.06-.9.03-1.2.27-.4.28-.63.73-.72,1.37-.08.63.04,1.13.35,1.51.23.31.59.49,1.09.55.5.07.9-.02,1.2-.26.39-.29.63-.75.71-1.37ZM2606.22,1384.93l-.64,3.48.67.12.46-2.45.94,2.71.72.13.64-3.47-.67-.12-.45,2.4-.91-2.65-.76-.14M2611.02,1388.14l.77-1.24.11,1.45-.87-.21M2609.52,1389.15l.76.19.4-.64,1.27.3.06.76.78.19-.39-3.72-.82-.19-2.05,3.13ZM2614.88,1386.86l-1,3.39,2.4.71.17-.6-1.69-.5.82-2.78-.71-.21M2568.82,1383.11c.11.05.19.16.24.34.05.17.04.32-.02.42-.07.11-.18.19-.34.23l-.63.18-.29-1,.62-.19c.15-.04.29-.04.4,0M2569.77,1383.23c-.11-.37-.29-.61-.54-.73-.25-.12-.54-.13-.88-.03l-1.45.42.99,3.39.71-.21-.35-1.21.7-.21c.37-.1.62-.27.77-.49.15-.23.17-.54.05-.94ZM2572.16,1385.09l.72-.16-.36-1.53,1.32-.31.36,1.53.72-.17-.8-3.44-.72.17.3,1.31-1.32.31-.31-1.31-.72.17.8,3.44M2577.49,1383.96l-.64-3.47-.73.13.64,3.47.73-.13M2578.87,1380.14l.5,3.5,2.48-.36-.09-.63-1.74.25-.41-2.87-.73.11M2584.25,1383.02l-.36-3.51-.74.07.36,3.51.73-.07M2587.8,1379.94c.09.07.15.2.16.38.01.18-.03.32-.11.41-.09.09-.21.14-.38.15l-.65.04-.06-1.04.65-.03c.16-.01.29.02.39.09M2588.7,1380.28c-.02-.39-.14-.66-.36-.83-.22-.17-.5-.25-.85-.22l-1.51.08.21,3.53.74-.05-.07-1.26.73-.04c.38-.02.67-.13.86-.31.19-.19.28-.49.26-.9ZM2595.6,1379.15l-.72,2.76-.56-2.8-1.07-.03-.11,3.53.69.02.07-2.39c0-.07,0-.16,0-.29,0-.12,0-.22,0-.29l.57,2.98.71.02.75-2.94c0,.07,0,.16,0,.29,0,.12-.01.22-.01.29l-.07,2.39.68.02.11-3.53-1.06-.03M2600.75,1382.18c-.19.2-.43.28-.71.26-.29-.03-.51-.16-.66-.38-.15-.23-.21-.54-.17-.93.04-.4.15-.69.34-.89.19-.2.43-.28.72-.26.29.03.51.16.65.38.15.23.21.54.17.93-.04.4-.15.69-.34.88M2601.82,1381.36c.06-.64-.07-1.14-.4-1.49-.24-.3-.61-.47-1.11-.52-.5-.04-.9.06-1.19.31-.38.29-.6.76-.67,1.4-.06.63.08,1.13.4,1.49.24.3.61.47,1.11.52.5.04.9-.06,1.19-.31.39-.3.61-.77.66-1.4ZM2604.57,1380.58l.8.13c.15.02.26.06.33.11.12.09.16.25.13.46-.03.2-.12.31-.27.36-.08.03-.2.03-.36,0l-.78-.12.14-.94M2605.62,1380.12l-1.67-.25-.53,3.49.72.11.2-1.37.71.11c.21.03.34.09.4.17.06.08.08.24.05.46l-.04.33c-.02.1-.02.2-.02.3,0,.05,0,.11.02.19l.8.12v-.09s-.08-.12-.09-.22c0-.06,0-.16.03-.33l.03-.23c.04-.24.03-.43-.02-.56-.05-.13-.15-.24-.3-.33.2-.04.36-.13.47-.28.11-.15.17-.3.2-.47.02-.14.02-.26,0-.38-.03-.11-.07-.22-.13-.32-.07-.12-.17-.22-.29-.29-.12-.08-.3-.13-.54-.17ZM2609.41,1381.42l.8.17c.15.03.26.07.32.13.11.1.15.25.1.46-.04.19-.14.31-.28.35-.09.02-.2.02-.36-.02l-.77-.16.19-.93M2610.48,1381.01l-1.65-.34-.73,3.45.71.15.29-1.35.7.15c.2.04.33.11.39.2.06.09.06.24.02.46l-.06.32c-.02.1-.03.2-.04.3,0,.05,0,.11,0,.19l.79.17.02-.09c-.06-.05-.09-.13-.09-.22,0-.06.02-.17.05-.33l.05-.23c.05-.24.06-.43.02-.56-.04-.13-.14-.25-.28-.35.21-.03.37-.11.48-.25.12-.14.19-.29.23-.46.03-.14.03-.26.01-.38-.02-.12-.06-.23-.11-.33-.06-.13-.16-.23-.27-.31-.12-.08-.29-.15-.52-.21ZM2613.37,1385.34l.88-3.42-.72-.19-.88,3.42.72.19M2616.04,1384.94l-.68-.21c-.11.35-.07.67.13.94.19.28.51.48.95.62.43.13.8.13,1.1,0,.3-.13.49-.35.59-.66.09-.3.06-.56-.09-.78-.1-.14-.27-.28-.51-.42l-.54-.32c-.21-.12-.34-.21-.4-.27-.09-.09-.12-.2-.08-.32.04-.13.13-.21.26-.25.13-.04.29-.04.47.02.16.05.29.12.39.21.14.14.19.31.13.52l.68.21c.1-.36.05-.68-.14-.94-.2-.27-.48-.46-.83-.56-.43-.13-.79-.13-1.07,0-.28.13-.47.35-.56.66-.1.33-.06.61.12.84.11.13.33.29.66.48l.33.19c.2.11.33.2.41.3.08.09.1.19.07.3-.06.19-.19.29-.41.31-.12,0-.26-.02-.42-.07-.28-.09-.45-.22-.53-.39-.04-.1-.05-.22-.02-.38M2592.36,1371.76c7.4,0,13.42-7.31,13.42-16.28s-6.02-16.29-13.42-16.29-13.41,7.31-13.41,16.29,6.02,16.28,13.41,16.28ZM2592.57,1345.33c-.05-.22-.04-.3.02-.32.07-.03.13.05.26.27l.06.09c1.25,1.85,3.06,7.96,3.08,8.02.03.11.05.14.06.15.02-.03.05-.11.07-.15.64-2.3,2.56-7.23,3.3-8.28.25-.36.34-.41.41-.39.08.04.06.16.02.35l-.02.11c-.29,2.09-.58,11.81,1.79,19.25.1.29.08.37.03.4-.08.04-.17-.06-.28-.16,0,0-.03-.03-.02-.03-2.62-1.75-3.96-7.27-4-7.7-.02-.19-.06-.24-.07-.25,0,0-.02.04-.02.04-.21.71-.82,3.5-1.22,5.34-.18.86-.32,1.48-.35,1.59l-.04.18c-.03.13-.04.18-.1.18-.06,0-.08-.05-.18-.36-.1-.3-.63-2.34-1.05-4-.3-1.16-.55-2.15-.6-2.28-.04-.15-.07-.2-.08-.22-.01.02-.04.07-.04.07l-.33,1.02c-.62,2.02-1.4,4.55-3.32,5.84-.47.35-.54.34-.59.3-.06-.06,0-.19.17-.42,2.66-5.35,3.84-14.59,3.05-18.67ZM2583.1,1364.65c-.16.1-.27.13-.35.06-.04-.03-.05-.09-.05-.14,0-.1.04-.21.06-.25.7-2.05.95-8.31.95-12.81,0-1.94-.05-3.56-.13-4.37-.02-.18-.02-.33-.02-.46,0-.62.19-.73.59-.88h.04c.38-.14.77-.27.96-.63.35-1.04,1.35-1.42,1.9-1.42.8,0,3.8,1.08,3.8,6.38,0,3.4-1.46,5.78-4.12,6.71l-.09.03c-.37.14-.4.46-.42.73v.08c-.58,4.99-2.53,6.6-3.12,6.97ZM2586.23,1355.98c-.22-.14-.31-.54-.27-1.28.08-1.53.15-8.09.15-8.86,0-.64.05-1.33.66-1.37h0c.23,0,.49.13.71.37.38.4,1.23,1.72,1.01,5.33-.28,4.42-.45,5.15-1.27,5.58-.39.21-.76.38-1.01.22M2593.75,1320.69c0-.83-.67-1.5-1.5-1.5s-1.5.67-1.5,1.5.67,1.5,1.5,1.5,1.5-.67,1.5-1.5ZM2591.57,1320.69c0-.38.31-.68.68-.68s.68.31.68.68-.3.68-.68.68-.68-.31-.68-.68ZM2645.4,1343.2c0-.3.1-.62.24-.89.17-.28.36-.65.36-1,0-.14-.03-.29-.11-.42-.29-.49-.95-.47-1.43-.45h-.29c-.13-.03-.47-.16-.79-.29-.58-.24-1.25-.51-1.71-.56-.38-.05-.85.07-1.39.21-.56.14-1.21.31-1.72.25-.47-.06-1.11-.32-1.67-.55-1.57-.6-3.01-.28-4.01.11-1.44.59-2.53,1.55-3.21,2.85-1.32,2.56-.76,5.86.31,7.85.44.82,2.01,3.47,2.84,4.6.02.03.05.06.09.08-.02,0-.03.01-.03.01-1.18.48-1.36,1.88-1.36,2.67,0,.27.02.47.03.54.05.44.2.71.43.82.16.07.34.04.48-.06,0,0,.71-.52,1.68-.43.8.07,2.32.65,2.32,2.29,0,1.53-1.27,3.25-2.96,3.25-1.46,0-2.32-.7-2.53-1.49-.14-1.56-.64-2.89-.88-3.26-.11-.17-.24-.3-.38-.44-.47-.45-1.18-1.13-1.35-4.12-.18-3.3-1.53-6.45-2.51-8.5.2.05.42.07.66.04,1.1-.14,1.14-1.37,1.18-2.57l.02-.59c.05-.92.34-.98.82-1.1l.29-.07c.63-.2.76-.49.76-.98,0-.15,0-.32-.02-.52l-.02-.29v-.09c0-.47.27-.62.75-.73l.1-.02c.3-.07.44-.15.74-.31l.13-.07c.34-.19.44-.47.44-.76s-.1-.56-.16-.76l-.02-.06c-.04-.11-.06-.19-.06-.27,0-.16.11-.31.46-.69.42-.44.54-.82.54-1.12,0-.33-.15-.57-.22-.68l-.02-.03c-.09-.15-.19-.37-.22-.72.03-.17.5-.56.72-.75l.48-.43c.22-.25.32-.57.32-.85,0-.22-.06-.42-.16-.55-.16-.2-.42-.24-.64-.12h.03c-.91.43-1.98-.42-2.8-1.21-.34-.32-.68-1.14-.98-1.86-.27-.64-.51-1.2-.77-1.54-.23-.29-.52-.58-.8-.85-.39-.38-.79-.77-1.03-1.18-.21-.35-.32-.92-.42-1.43-.1-.53-.19-1.02-.4-1.36-.2-.32-.46-.4-.64-.42-.49-.04-.89.38-.97.47-.6.6-2.7,1.31-3.28,1.31l-1.03-.02c-.78-.02-1.67-.04-2.12-.02-.45.02-.89.25-1.33.47-.29.15-.6.31-.83.34-.22.04-.51.02-.84,0-.49-.03-1.09-.06-1.74.07-.45.09-.77.3-.93.6-.26.48-.04,1.02.06,1.29,0,0,.11.24.11.24.18.37.27.61.15.7-.58.49-.35,1.29-.27,1.55.09.28.23.68.59.86.22.11.47.11.76.01h-.03c.53-.13,1.68-.08,2.1.25.12.09.13.17.13.23-.02.44-.07.46-.77.6l-.64.14c-.81.21-1.11.61-1.22.9-.1.26-.09.56.04.74l.18.22c.18.21.49.55.84,1.05.37.52.75.63,1,.62.32,0,.57-.18.73-.37.82-.61,1.72-.74,2.32-.78.51-.04,1.69-.32,2.44-.55,0,.08,0,.16,0,.25,0,.3-.02.6-.09.77l-.03.1c-.78,2.33-2.57,3.62-5.32,3.82l-1.72.11c-3.42.18-5.71.31-5.71,3.83h0c-.55.05-1.06-.01-1.52-.13l-.06-.02c-.13-.19-.27-.37-.41-.55-1.2-1.56-2.55-2.88-4.02-3.94-.94-2.05-.52-4.55.49-5.34.23.15.51.23.81.23.83,0,1.5-.67,1.5-1.5,0-.2-.04-.4-.11-.57.15.04.31.07.47.07.96,0,1.75-.79,1.75-1.75,0-.32-.08-.61-.23-.86.12.02.24.03.37.03,1.15,0,2.1-.94,2.1-2.1,0-.81-.46-1.52-1.14-1.87.86-.26,1.49-1.06,1.49-2.01,0-1.15-.94-2.1-2.1-2.1-.34,0-.66.08-.94.22.09-.23.13-.49.13-.76,0-1.25-1.01-2.27-2.27-2.27-.85,0-1.59.47-1.98,1.17-.2-.75-.88-1.3-1.69-1.3-.9,0-1.65.69-1.74,1.57-.27-.33-.68-.53-1.14-.53-.62,0-1.15.38-1.38.92h-.4c-.86,0-1.03-.69-1.03-.88,0-.55-.5-.94-1.22-.94h-1.82c-.72,0-1.22.39-1.22.94,0,.19-.18.88-1.03.88h-.34c-.23-.54-.76-.92-1.38-.92-.45,0-.86.2-1.13.53-.1-.88-.84-1.57-1.74-1.57-.81,0-1.49.55-1.69,1.3-.39-.7-1.13-1.17-1.98-1.17-1.25,0-2.27,1.02-2.27,2.27,0,.27.05.52.13.76-.28-.14-.6-.22-.93-.22-1.16,0-2.1.94-2.1,2.1,0,.95.63,1.75,1.49,2.01-.68.35-1.14,1.06-1.14,1.87,0,1.16.94,2.1,2.1,2.1.13,0,.25-.01.37-.03-.15.26-.23.55-.23.86,0,.96.78,1.75,1.75,1.75.16,0,.32-.03.47-.07-.07.18-.12.37-.12.57,0,.83.67,1.5,1.5,1.5.33,0,.63-.1.88-.28,1.06.8,1.25,3.39.38,5.35-1.49,1.06-2.87,2.39-4.08,3.98-1.51,1.98-2.7,4.26-3.55,6.7.19-1.51.04-2.83-.44-3.97-1.52-3.62-4.75-4.98-6.89-6.06l-1.11-.58c-1.74-1-2.58-2.11-3.13-2.85l-.39-.49s-.03-.04-.05-.06c.04.01.09.03.13.04.63.1,1.57.44,2.07.82l.67.56c.57.5.96.83,1.18.94.6.34,1.6.27,2.01-.08.19-.16.24-.37.24-.58,0-.28-.1-.55-.15-.68-.03-.1-.06-.18-.08-.25.03.02.06.03.08.04l.36.15c.63.18,1.22-.24,1.52-.74.36-.59.29-1.6-.71-2.44-.51-.43-1.96-1.86-3.13-3.02-.93-.92-1.66-1.64-1.89-1.84-.21-.18-.56-.58-.71-.79.12-.32.21-.7,0-.98-.22-.29-.59-.25-.79-.22,0,0-.11,0-.12,0-.02,0-.05,0-.05,0-.03,0-.07-.02-.11-.03l-.04.02s-.03-.01-.06-.01c.23-.53.5-1.31.77-2.36.3-1.18.13-2.22-.46-2.86-.42-.45-1.04-.66-1.7-.56-1.05.17-1.9.99-2.45,1.67l-.22-.66-.42.14-2.01.65.23.72c-.86-.24-2.07-.44-3.07.05-.6.3-.98.83-1.06,1.44-.1.87.37,1.8,1.3,2.59.34.29.65.52.91.71-.06.04-.1.08-.15.11-.28.24-.54.52-.78.76l-.31.33c-1.4,1.25-3.21,2.13-4.96,2.35-.23.02-.42.19-.46.43-.07.43.38.93,1.12,1.25.75.32.9,1.3.53,3.28l-.02.08c-.04.18-.1.47.13.69.25.23.62.18,1.26,0l.12-.03c.08-.02.17-.05.25-.07-.03.1-.06.25-.09.35l-.04.19-.04.2c-.09.45-.19,1.01-.19,1.53,0,.3.04.58.13.82.25.63.87,1.62,1.22,1.98.22.21.45.32.69.31.35-.02.6-.27.75-.45,0,0,0-.01.01-.02.05.1.1.23.17.43v.04c.26.69.76,2.13,2.7,2.71.35.11.75.2,1.12,0,.25-.15.43-.41.53-.83.05-.2.07-.42.09-.64,0-.05,0-.11.01-.17.04.04.07.08.12.13.7.95,1.76,3.07,1.76,5.4,0,.6-.07,1.21-.23,1.82-.26.98-.59,1.71-.87,2.35-.21.47-.35.91-.53,1.35-.59.62-2.01,1.4-2.94,1.93l-.57.31c-.9.52-3.59,3.16-3.78,6.64,0,.07,0,.12-.01.19-1.59.54-2.64.46-3.2-.24-1.21-1.49-.29-2.98,1.02-4.77l.41-.56.41-.55s.36-.45.39-.5c.02.1.04.19.05.3l.17.7.14.56c.1.49.42.59.56.61.18.02.49.34,1.31-1.18.18-.33.51-.89.88-1.47l.62-.97c.65-1.06.5-1.78-.52-2.48-.4-.28-.37-.42-.02-1.1l.1-.21c.33-.64,1.64-4.81-.27-7.76-1.34-2.06-3.22-3.98-5.77-3.39-1.46.33-2.43.89-3.36,1.42-.92.53-1.78,1.03-3.05,1.22-.8.12-2.76.76-2.84.79-.26.08-.62.2-.63.58,0,.01,0,.02,0,.03,0,.41.44.61,1,.86.65.3.93.53,1.07.7-.31.49-1.54,1.84-1.8,2.02-.24.15-.38.38-.38.62,0,.04,0,.08.01.12.08.41.5.68,1.27.81h.01v.13c-.1.86-.22,2.15.34,3.01l.12.18c.45.7,1.4,2.16,1.44,2.68.02.17-.04.39-.1.61-.09.37-.19.76,0,1.08.08.12.23.28.52.35.88.2,1.21-.51,1.48-1.08l.15-.31c.36-.72.85-1.71,1.45-2.71l.39-.6c.7-1.04,1.64-2.83,1.43-4.3.15,0,.26,0,.3.01.17.03.35.05.52,0l.16-.03c.3-.06.72-.14.81-.54.1-.39-.24-.71-.57-.97-.43-.33-.9-1.7-.66-2.59.17-.64.48-.99.93-1.06.92-.16,2.36.82,3.03,1.81.58.85.83,1.87.83,2.73,0,.3-.03.58-.08.82-.21.94-.39,1.04-.4,1.04-.04,0-.17-.03-.24-.06l-.31-.08c-.66-.12-1.43.05-1.94.43l-.16.12c-.39.26-.92.62-.85,1.16.07.49.59.73.98.86.3.11.38.28.41.4.18.62-.43,1.77-.9,2.36l-.24.29-.58.77c-2.32,2.98-3.07,5.86-2.07,7.9.61,1.23,2.12,2.7,5.9,2.71-.16.82-.38,1.36-.72,1.9-.92,1.47-2.48,1.62-3.32,1.71l-.27.03h-.21c-.25.03-.59.04-.85.34-.33.37-.42,1.07-.33,2.51.13,1.9-.1,2.95-.26,3.72-.06.3-.13.63-.15.89-.01.17-.07.45-.12.67-.07.3-.14.61-.14.91,0,.24.05.46.18.66.16.24.42.38.76.42l.86.05c.18,0,.41.01.56.03,0,.01-.01.03-.01.03-.02.07-.05.13-.07.19h-9.61s2.84,4.93,3.05,5.29c-.19.37-2.83,5.5-2.83,5.5h25.91l1.46,4.99c8.01-2.93,17.57-4.6,26.24-4.6h.05c8.67,0,18.24,1.67,26.26,4.6l1.46-4.98h25.51s-2.64-5.13-2.82-5.5c.2-.36,3.06-5.29,3.06-5.29h-11.03c.12-.81.15-1.66.12-2.02-.03-.3-.14-.84-.25-1.4-.11-.57-.25-1.27-.25-1.46,0-.56.01-2.3.06-2.68.13-1.15-1.1-2.07-1.69-2.51l-.19-.15c-.54-.44-1.06-1-1.53-1.56,1.48.51,4.19,1.01,6.51-1.76.63-.76,1.06-1.77,1.31-2.38l.04-.1c.23-.54.82-1.44.99-1.6.55-.49,2.89-3.55,2.15-4.79-.5-.84-1.85-.35-2.29-.19-.25.09-.37-.08-.54-.72-.14-.54-.45-1.9-.47-2.1v-.05c-.03-.25-.08-.76-.49-.96-.26-.13-.55-.09-.89.12-.16.1-.3.13-.41.1-.13-.04-.24-.2-.29-.32-.11-.28-.31-.94-.43-1.33l-.1-.3-.05-.21c-.06-.28-.14-.66-.52-.75-.36-.09-.66.18-.91.46-.2.22-.37.43-.53.65-2.38-2.13-2.11-4.11-1.95-5.31.24-1.47.84-2.44,1.78-2.9,1.38-.68,3.1-.08,3.31.04l.2.11c.09.05.27.13.35.2-.02.02-.06.06-.12.11l-.04.03-.03.04c-.6.65-.83,1.34-.83,2.03,0,1.66,1.41,3.3,2.47,4.43v.02c0,1.51.37,3.84,1.4,4.78.41.37.93.54,1.45.49.9-.09,2.15-.85,2.38-.95.22-.1.86-.73-.17-1-1.02-.27-.76-1.2-.71-1.66.06-.61.36-1.37.81-2.36.14-.31.19-.65.19-1,0-.65-.18-1.32-.37-1.81.17-.02.34-.05.54-.12.54-.19.89-.51,1-.91.02-.08.04-.17.04-.26,0-.26-.1-.52-.3-.76-.14-.16-.19-.38-.19-.61ZM2613.28,1338.13l1.74-.11c2.14-.16,4.93-1.05,6.04-4.38l.03-.09c.22-.64.1-1.77.08-1.9l-.06-.53-.5.2c-.52.21-2.2.64-2.72.68-.41.03-1.66.12-2.78.96l-.06.04-.04.06s-.08.09-.13.09c-.06,0-.17-.07-.32-.27-.38-.53-.71-.91-.89-1.12,0,0-.04-.05-.08-.1.01-.09.14-.3.67-.43l.59-.13c.69-.14,1.4-.27,1.44-1.38v-.04c0-.33-.15-.63-.44-.86-.73-.57-2.2-.56-2.82-.39h-.02s-.02.01-.02.01c-.07.02-.1.03-.11.03,0,0-.08-.07-.16-.36-.06-.2-.08-.34-.08-.44,0-.17.06-.22.09-.25.25-.22.34-.48.34-.74,0-.37-.17-.73-.28-.95l-.08-.18c-.05-.12-.13-.33-.13-.48,0-.05,0-.08.02-.12.05-.08.17-.14.37-.18.54-.11,1.06-.08,1.53-.06.37.02.71.04,1.02,0,.36-.06.71-.25,1.07-.42.35-.18.72-.37,1-.38.41-.02,1.32,0,2.05.02l1.05.02c.72,0,3.07-.76,3.88-1.56.1-.1.22-.19.29-.2,0,.01.02.02.02.02.12.2.21.64.29,1.08.11.57.23,1.22.51,1.69.3.51.74.94,1.16,1.35.27.26.53.52.73.77.19.24.43.8.66,1.35.35.84.71,1.7,1.17,2.14.54.51,1.88,1.78,3.25,1.5-.02.02-.02.05-.04.08l-.4.36c-.5.42-1.01.86-1.01,1.36v.06c.04.55.21.89.34,1.09l.03.05c.04.06.09.14.09.24,0,.13-.07.3-.31.55-.52.55-.7.89-.7,1.24,0,.18.04.35.11.55l.02.06c.05.14.13.37.13.48,0,.02,0,.03,0,.04,0,0-.02.01-.02.01l-.14.07c-.27.15-.34.19-.54.24h-.07c-.93.22-1.4.73-1.4,1.54,0,.05,0,.1,0,.15l.02.29c.01.18.02.37.02.49,0,.05,0,.08,0,.1-.02.01-.06.03-.17.07l-.23.06c-.55.13-1.39.33-1.46,1.86l-.02.61c-.04,1.18-.1,1.74-.46,1.78-.68.08-1.18-.51-1.26-.67-.06-.15-.19-.67-.22-.75-.52-1.58-.34-1.2-1.09.19-.11.19-.22.45-.39.76-.59,1.09-.96,1.25-1.22,1.43l-.17.1c-.06.03-.14.03-.18,0-.09-.04-.21-.21-.3-.57-.14-.61-.27-1.42-.33-2.19-.05-1.11,1.13-2.26-1.25-.37,0,0-.3.2-.47.3-.31.19-2.12.99-2.63,1.2-.17.08-.78.12-.79-.04,0-.02,0-.09.03-.2,0-.03,0-.04.01-.07.28-1,.74-.78-.89-.63l-.78.04-.25.02c-.42.04-1,.09-1.29-.18-.15-.14-.23-.37-.24-.7-.03-1.51,1.09-2.28,1.85-2.43,1-.2,4.88-.62,6.59-.77,1.41-.12,3.96-.66,5.31-2.94.49-.83,1.09-4.21.65-6.17-.14-.63-.79-1.6-.39.18.4,1.71-.55,4.86-.97,5.57-1.15,1.95-3.42,2.43-4.67,2.54-1.69.15-5.62.56-6.69.78-.92.19-1.84.87-2.27,1.91-.37.53-1.23,1.74-2.07,1.72-.98-.02-1.74-1.2-1.74-2.19-.09-2.98,1.38-3.06,4.93-3.25ZM2607.59,1341.96c.24,1.21,1.22,2.39,2.48,2.43.71.02,1.33-.39,1.87-.95.05.45.22.8.5,1.05.25.23.55.34.86.38-.23.39-.46.9-.56,1.61l-3.97-.25c-.59-1.51-1.31-2.95-2.17-4.28.32.03.65.04,1,0ZM2613.15,1349.95c-.37.19-.8.38-1.15.49-.44.14-1.22.32-1.88.71-.24-1.38-.59-2.74-1.06-4.07l3.61.23c.01.7.15,1.57.47,2.64ZM2602.82,1330.58c-.37,0-.68-.31-.68-.68s.31-.68.68-.68.68.31.68.68-.31.68-.68.68ZM2604.68,1328.57c-.52,0-.93-.42-.93-.93s.42-.93.93-.93.93.42.93.93-.42.93-.93.93ZM2607.84,1324.71c0,.7-.57,1.27-1.28,1.27s-1.28-.57-1.28-1.27.57-1.28,1.28-1.28,1.28.57,1.28,1.28ZM2606.91,1319.56c.7,0,1.27.58,1.27,1.28s-.57,1.28-1.27,1.28-1.28-.58-1.28-1.28.57-1.28,1.28-1.28ZM2603.83,1316.76c.8,0,1.45.65,1.45,1.45s-.65,1.45-1.45,1.45-1.45-.65-1.45-1.45.65-1.45,1.45-1.45ZM2600.16,1316.64c.51,0,.93.41.93.93s-.42.93-.93.93-.93-.41-.93-.93.42-.93.93-.93ZM2597.28,1317.68c.38,0,.68.3.68.68s-.31.68-.68.68-.68-.3-.68-.68.31-.68.68-.68ZM2595.86,1318.89l.02-.02c.21.58.76.99,1.4.99.74,0,1.36-.54,1.48-1.25.32.42.83.7,1.4.7s1.12-.29,1.43-.75c.18,1.08,1.11,1.91,2.24,1.91.39,0,.76-.09,1.08-.27-.07.2-.1.41-.1.63,0,.81.46,1.52,1.14,1.87-.86.26-1.48,1.06-1.48,2.01,0,.44.14.85.37,1.19-.05,0-.11,0-.16,0-.97,0-1.75.79-1.75,1.75,0,.28.07.55.19.79-.1-.02-.2-.03-.3-.03-.83,0-1.5.67-1.5,1.5,0,.13.02.27.05.39-.08.07-.21.21-.3.31-.62-.27-1.23-.51-1.86-.72l.03-.04c.71-.52,1.83-1.65,3.25-3.59,1.11-1.51,1.38-3.04.75-4.21-.46-.85-1.34-1.4-2.5-1.55-2.12-.27-4.22.8-5.46,1.56l.59-3.15ZM2600.26,1332.97c-2.5-1.16-5.18-1.75-7.95-1.75s-5.36.57-7.83,1.7c-.08-.59-.25-1.14-.49-1.59,2.64-1.15,5.45-1.73,8.35-1.73s5.77.59,8.45,1.77c-.26.46-.44,1-.54,1.6ZM2600.39,1335.76c-2.47-1.49-5.21-2.28-8.08-2.28s-5.57.77-8.01,2.24c.17-.64.25-1.3.24-1.93,2.44-1.16,5.06-1.75,7.77-1.75s5.4.61,7.86,1.8c-.02.63.05,1.28.22,1.91ZM2586.42,1329.57c-.44-.26-1.76-1.31-3.5-3.69-.95-1.31-1.21-2.6-.7-3.54.34-.63,1-1.03,1.88-1.15,2.24-.29,4.6,1.24,5.53,1.86l1.08,5.8h0c-1.45.11-2.87.36-4.27.75l-.02-.02ZM2594,1328.84h0s1.08-5.8,1.08-5.8c.92-.61,3.29-2.15,5.53-1.86.87.11,1.54.52,1.88,1.15.51.95.25,2.24-.7,3.54-1.74,2.38-3.06,3.44-3.5,3.7l-.02.02c-1.39-.39-2.82-.65-4.28-.75ZM2591.03,1316.89c0-.2.25-.24.4-.24h1.82c.14,0,.4.03.4.24,0,.59.46,1.38,1.46,1.55l-1.92,10.34h0c-.28,0-.56,0-.85,0-.27,0-.54,0-.82.02h0s-1.92-10.36-1.92-10.36c.98-.18,1.42-.97,1.42-1.55ZM2587.44,1317.68c.38,0,.69.3.69.68s-.31.68-.69.68-.68-.3-.68-.68.31-.68.68-.68ZM2584.57,1316.64c.51,0,.93.41.93.93s-.41.93-.93.93-.93-.41-.93-.93.42-.93.93-.93ZM2580.9,1316.76c.8,0,1.45.65,1.45,1.45s-.65,1.45-1.45,1.45-1.45-.65-1.45-1.45.65-1.45,1.45-1.45ZM2576.54,1320.84c0-.7.57-1.28,1.28-1.28s1.27.58,1.27,1.28-.57,1.28-1.27,1.28-1.28-.58-1.28-1.28ZM2578.17,1325.99c-.7,0-1.28-.57-1.28-1.27s.57-1.28,1.28-1.28,1.28.57,1.28,1.28-.57,1.27-1.28,1.27ZM2580.05,1328.57c-.51,0-.93-.42-.93-.93s.42-.93.93-.93.93.42.93.93-.42.93-.93.93ZM2581.91,1330.58c-.38,0-.68-.31-.68-.68s.31-.68.68-.68.68.31.68.68-.31.68-.68.68ZM2583.64,1330.59c-.1-.15-.19-.27-.26-.35.02-.11.04-.22.04-.34,0-.83-.67-1.5-1.5-1.5-.1,0-.2,0-.3.03.12-.24.19-.5.19-.79,0-.96-.79-1.75-1.75-1.75-.05,0-.1,0-.16,0,.23-.34.37-.75.37-1.19,0-.94-.63-1.75-1.49-2.01.68-.35,1.14-1.05,1.14-1.87,0-.22-.04-.43-.1-.63.32.18.69.27,1.08.27,1.13,0,2.07-.83,2.24-1.91.32.45.84.75,1.43.75s1.08-.28,1.4-.7c.12.71.74,1.25,1.48,1.25.64,0,1.19-.41,1.4-.98h0s.59,3.15.59,3.15c-1.24-.76-3.35-1.83-5.46-1.56-1.16.15-2.05.71-2.5,1.55-.62,1.16-.35,2.7.75,4.21,1.42,1.94,2.55,3.08,3.26,3.59l.03.03c-.64.21-1.26.45-1.87.71ZM2575.8,1354.88c.04-.77.14-1.73.31-2.55.11-.53.21-1.03.26-1.41.11-.93-.05-1.36-.57-1.86.8-2.97,2.14-5.77,3.94-8.12,3.28-4.28,7.75-6.64,12.57-6.64s9.29,2.36,12.57,6.64c2.33,3.05,3.9,6.87,4.5,10.82l-.42.4c-.54.48-1.14,1.02-1.37,1.73l-.02.06c-.18.56-.31.97-.31,1.31,0,.19.04.36.13.53.26.46.62.59.92.64.06,0,.11.22.11.39,0,.02,0,.04,0,.07,0,.04,0,.08,0,.13,0,.32.15.8.94,1.11.05.02.1.03.15.05-1.13,10.31-8.41,18.32-17.21,18.32-8.33,0-15.3-7.18-16.97-16.69.74-.48.65-1.32.58-1.85l-.03-.32c0-.52-.16-1.46-.09-2.75ZM2615.72,1355.3s0,0,.01.01c.71.79,2.34,1.24,3.25,1.43.79.17,1.54.48,2.11.78.08.27.11.59.1.92-.84.22-3.73.91-5.82.2l-.17-.08c-.35-.15-.83-.37-1.37-.16-.46.18-.84.63-1.16,1.39-.81,1.89-.74,3.82.17,5.13.35.51.75.93,1.1,1.31.48.51.89.95,1.03,1.42.05.2,0,.29-.04.35-.2.26-.81.42-1.55.42l-.65-.02c-.84-.03-1.95-.07-3.04.1-.54-.65-1.09-1.17-1.56-1.62l-.23-.22c1.25-2.5,2.1-5.36,2.42-8.4.12-.01.24-.04.35-.08.05.07.1.13.1.13.32.39.95.75,1.53.69.74-.08,1.31-1.23,1.4-2.26.05-.51.21-.58.56-.71l.29-.13.46-.22c.66-.32-.1.04.71-.39ZM2627.4,1378.61h-7.57l-2.2,1.75c-2.31-.69-4.68-1.3-7.1-1.81.15-.12.31-.26.41-.37.72-.85,1-2.32,1.06-3.32.01-.01.03-.02.03-.03l.49-.71c.48-.71,1.14-1.7,1.73-1.95.9-.39,2.54-.86,3.15-.86h.17c.92,0,2.82.03,3.29-1.15.38-.96-.12-1.46-.42-1.76-.1-.1-.18-.19-.22-.26l-.11-.2c-.32-.54-.82-1.39.13-2.39.02-.01.05-.02.07-.04.06-.03.1-.09.13-.14.5,1.25,1.48,3.1,2.96,4.23,2.22,1.7,3.9,1.96,4.36,2,.76.06,1.83.25,2.13.35.19.07.66.65.71,1.25.09,1.04-.2,1.77-.85,2.15-1.12.66-2.37,2.12-2.37,3.08,0,.07.01.13.02.19ZM2607.86,1375.27c-.01.25-.09.33-.15.39-.4.33-1.56.14-2.41,0-.4-.07-.79-.13-1.11-.15-1.41-.07-2.46.9-2.85,1.27-.09.08-.19.18-.27.27-1.58-.16-3.15-.29-4.7-.37h.28c3.53-1.04,6.65-3.31,9.03-6.43.84.86,2.35,2.59,2.18,5.01ZM2606.17,1369.58c.48-.68.93-1.4,1.34-2.16l.07.07c.37.35.79.75,1.22,1.24-.33.1-.64.22-.94.38-.61.33-.91.77-1.02,1.2-.24-.29-.48-.53-.67-.73ZM2604.14,1376.33c.28.02.65.08,1.03.14,1.12.18,2.38.38,3.06-.18.28-.23.43-.57.45-.98.04-.56,0-1.08-.09-1.57.32.28.71.37,1.12.26.04.12.08.27.11.39l.03.12c.11.42.48.76.92.85.12.03.23.03.35.01-.11.81-.36,1.74-.81,2.27-.12.14-.59.47-.91.66-2.36-.47-4.75-.84-7.13-1.13.48-.36,1.24-.88,1.87-.85ZM2620.1,1364.36s.03.11.05.17c-.15.12-.29.24-.4.35-.66.3-1.65-.4-2.14-.74l-.06-.04c-1.06-.82-2.02-.99-.47.46l.06.04c.41.29,1.2.93,2,1.1-.58,1.17.03,2.22.27,2.64l.09.15c.09.19.25.34.37.47.28.29.42.42.24.88-.26.65-1.9.64-2.52.64h-.18c-.81,0-2.57.54-3.47.92-.77.33-1.45,1.31-2.01,2.13-.13.21-.61.86-.74.96-.07.05-.16.07-.25.05-.15-.03-.26-.16-.29-.26l-.2-.67c-.15-.67-.02-1.04-.83-.46h0c-.23.1-.35.04-.43,0-.2-.13-.42-.34-.32-.52.02-.03.18-.35.18-.35.51-.92.15-.89-.64-.81h0c-.08,0-.15.02-.19.03-.1.02-.43-.18-.56-.55-.16-.44.05-.84.6-1.14.34-.18.71-.31,1.1-.41.28-.09.68-.12.91-.15.87-.09,1.75-.06,2.44-.04l.68.02c.61,0,1.71-.1,2.2-.75.16-.21.32-.56.18-1.07-.19-.67-.69-1.2-1.22-1.77-.35-.37-.71-.75-1.03-1.21-.75-1.08-.79-2.71-.09-4.34.23-.52.47-.85.7-.94.2-.08.42,0,.74.15l.22.09c2.07.71,4.77.2,5.96-.09-.05.17-.11.33-.18.46-.42.77-1.06,3.52-.78,4.58ZM2552.02,1376.27l-.12-.1-.78-.66c-.44-.37-.93-.79-1.08-.93-.12-.14-.3-.87-.3-1.5,0-.1,0-.21.02-.31.06-.46.15-.89.23-1.21,0,0,.05-.2.06-.31.11-.09.58-.25,1.18-.19.96.11,1.88.18,2.61-.11.79-.32,1.36-.94,1.51-1.65,1.15.09,2.54-.8,3.06-1.43.28-.34.52-.87.79-1.54l.08.04c.9.4,1.83.81,3.26.58.13-.02.22-.03.31-.04-.25.16-.58.5-1.36,1.51-.35.46-.53.9-.53,1.31,0,.11.01.21.04.31.18.86,1.07,1.33,1.72,1.67l.09.05c.58.31,1.27.56,1.94.8l1.05.4c.37.15.64.4.97.68.34.29.72.62,1.25.9.99.53,1.54.73,2.19.57,0,0,.04,0,.08-.01.03.14.06.35.07.44.14,1.08,1.28,1.22,2.03,1.32l.33.05.37.08c.16.45.37.86.64,1.18,0,0,.27.22.48.38-2.39.51-4.74,1.1-7.02,1.79l-2.31-1.73h-11.9v-.06c0-1.47-.55-1.94-.96-2.28ZM2573.28,1356.38c-.32.59-.41.76-.9.93-.2.08-.28.04-.44,0-.21-.06-.48-.16-.9,0-1.17.43-1.14,1.05-1.08,1.91l.03.56c.01.4.1.69.21.9.06.09.19.28.4.44.43.27.95.19,1.29.03.13-.06.53-.2.94-.34.56-.2,1.21-.42,1.74-.63.43,2.34,1.17,4.54,2.16,6.53l-.2.19c-1.15,1.09-2.8,2.65-3.55,5.51-.18-.09-.39-.21-.63-.42-.81-.67-1.7-1.09-2.58-1.22-.87-.13-2.04-.62-2.97-1.04-.31-.14-.5-.3-.55-.45-.05-.16.06-.37.19-.54.14-.2.85-.54,1.68-.99.85-.46,3.3-2.55,3.09-3.86-.07-.39-.37-.94-.86-1.79l-.39-.67c-.48-.86-1.38-1.22-2.48-.97-1.04.23-3.5.51-5.01.34,1.02-.84,2.24-1.32,3.65-1.43,1.67-.13,3.13-1.05,4.34-2.09.72-.61,2.2-2.49,2.84-3.71.03-.06.06-.11.09-.17,0,.1-.01.19-.02.3l-.02.24c-.03.6.17,1.97-.08,2.44ZM2567.68,1361.28c.51-.11,1.19-.11,1.56.56l.39.69c.34.58.71,1.24.76,1.5.1.6-1.61,2.42-2.66,2.98-.24.16-1.79,1.02-1.97,1.27-.1.15-.33.5-.33.93,0,.1.01.2.04.31.12.4.45.73,1,.97,1.45.65,2.43.99,3.19,1.1.72.1,1.49.47,2.17,1.04.47.39.86.58,1.17.68l.42.11c.26.24.95,1.59.95,2.43,0,.07,0,.13-.02.19-.02.1-.05.23-.12.27-.14.09-.51.01-.81-.07l-.31-.07-.25-.05-.36-.05c-.74-.1-1.26-.19-1.32-.61-.03-.22-.06-.4-.09-.56-.35-1.43-.31-.81-.93-.59-.04,0-.09.02-.14.03-.32.08-.61.03-1.6-.5-.46-.24-.78-.52-1.1-.8-.35-.3-.7-.61-1.18-.81l-1.1-.42c-.64-.23-1.31-.47-1.83-.75l-.09-.05c-.51-.27-1.2-.64-1.31-1.12-.06-.26.06-.58.34-.95.98-1.28,1.16-1.26,1.26-1.37.15-.08.7-.53.57-.92-.11-.33-.44-.69-1.57-.5-1.18.2-1.97-.15-2.79-.52l-.11-.04c.3-.74.63-1.55,1.08-2.39.27-.52.58-.98.92-1.4l.23-.26c1.54.38,4.62.04,5.93-.25ZM2574.06,1377.15c.22,0,.43-.05.62-.17.26-.17.42-.45.48-.82.18-1.09-.73-3.13-1.38-3.5.69-2.66,2.24-4.14,3.32-5.17l.03-.03c.41.75.86,1.47,1.35,2.15-.9.92-2.68,2.86-2.48,5.69,0,.41.16.74.44.98.68.56,1.95.36,3.06.18.38-.06.75-.12,1.02-.14.59-.03,1.39.47,1.92.86-2.4.29-4.81.67-7.19,1.14-.3-.17-.67-.42-.9-.68-.12-.14-.22-.31-.31-.49ZM2580.49,1375.51c-.32.02-.7.08-1.11.15-.85.13-2.01.32-2.41,0-.06-.05-.14-.14-.15-.39-.17-2.4,1.31-4.11,2.15-4.98,2.38,3.1,5.5,5.37,9.02,6.41h.36c-1.57.08-3.15.2-4.74.37-.1-.1-.19-.2-.21-.21l-.07-.06c-.39-.37-1.43-1.35-2.85-1.27ZM2555.4,1324.25c-.71-.6-1.09-1.3-1.02-1.88.05-.36.26-.65.62-.83.71-.35,1.72-.29,3.09.19.12.04.32.08.62.09h.17s-.34-1.06-.4-1.25c.17-.05.75-.24.92-.3.06.19.41,1.27.41,1.27l.15-.13c.17-.15.33-.34.43-.5.78-1.11,1.57-1.73,2.33-1.86.39-.06.74.05.98.31.26.28.39.71.39,1.23,0,.28-.04.58-.12.89-.33,1.31-.64,2.06-.8,2.41-.07,0-.14-.03-.22-.04-.14-.03-.28-.03-.41-.03-.04,0-.08,0-.12.01.1-.16.46-.85.88-2.52.07-.26.1-.51.1-.73,0-.33-.07-.61-.21-.76-.03-.03-.11-.13-.37-.09-.58.1-1.26.69-2.02,1.79-.24.3-.45.49-.66.64.08.24.52,1.53.52,1.53,0,0,.1.28.17.51h-.07c-.44-.08-.83-.16-1.16-.21-.03-.1-.05-.17-.05-.17l-.43-1.41h-.1c-.29.01-.61-.02-1-.11,0,0-.01,0-.01,0-1.26-.45-2.19-.54-2.76-.25-.19.09-.29.22-.31.38v.08c0,.38.31.88.82,1.31.76.64,1.32,1.03,1.68,1.26-.03.01-.06.02-.08.02-.21-.04-.41-.05-.61,0-.07.02-.14.04-.21.06-.37-.26-.75-.56-1.15-.9ZM2561.83,1323.51l-.02.03-.02.04c-.06.13-.19.27-.37.41l-.51-1.61c.14-.13.27-.27.4-.43v-.02s.02-.01.02-.01c.65-.94,1.1-1.31,1.38-1.45,0,.04,0,.07,0,.12,0,.14-.02.33-.08.57-.45,1.76-.82,2.35-.82,2.36ZM2558.73,1323.92h-.08c-.36.02-.61.12-.77.36-.02.03-.04.07-.06.1-.34-.21-.85-.57-1.55-1.17-.25-.21-.38-.39-.46-.51.31-.06.88-.03,1.96.37h.03s.03.02.03.02c.24.05.45.09.67.11l.24.73ZM2561.27,1342.31c-.29-.61-.61-1.12-.89-1.5h0s0-.02,0-.02c-.04-.06-.09-.1-.13-.15h0c-1.6-2-1.23-1.23-1.42.28-.02.11-.03.23-.04.35-.02.18-.03.38-.07.51-.05.21-.11.29-.14.31-.03.02-.13.03-.47-.07-1.54-.46-1.94-1.59-2.15-2.19l-.02-.04c-.06-.17-.12-.32-.17-.45-.78-2.01-.55-1.2-1.2-.48h0c-.07.06-.12.13-.17.19l-.06.07c-.09.11-.13.14-.16.15-.02,0-.03-.03-.07-.06-.25-.25-.82-1.15-1.04-1.7-.05-.13-.07-.31-.07-.5,0-.44.1-1,.17-1.39l.04-.19.02-.13c.19-.67.28-1.03.02-1.3-.26-.26-.6-.16-1.2,0l-.12.03c-.14.04-.25.07-.33.08.11-.59.2-1.19.2-1.75,0-1.04-.29-1.94-1.23-2.34-.16-.07-.26-.13-.36-.19,1.76-.34,3.53-1.25,4.91-2.49l.33-.35c.43-.46.97-1.02,1.45-1.12.28-.06.63.06,1.05.35.11.08.34.29.49.42.25.23.52.47.8.2.03-.03.27-.28,0-.61-.5-.62-.81-1.35-.7-1.51,0,0,.15-.14,1.06.03h-.04c.73.18,2.75,1.1,1.64.18.24-.06.49-.14.74-.21l.35-.07c.18-.02.37-.03.56,0,.5.09.86.13,1.11.2l.07.02s.25,0,.33,0c-.02.05-.04.1-.06.16-.04.05-.06.1-.07.16-.07.5,1.03,1.46,1.04,1.47.21.18,1.01.96,1.85,1.79,1.24,1.22,2.65,2.61,3.18,3.06.75.63.64,1.22.53,1.39-.14.23-.39.44-.6.38l-.24-.1c-.33-.15-.78-.36-1.1-.06-.14.13-.2.31-.2.5,0,.25.08.52.18.8.05.14.07.24.09.31-.14.24-.66.25-.99.06-.18-.1-.69-.54-1.06-.86l-.71-.59c-.71-.55-1.85-.88-2.44-.98-.12-.02-.32-.1-.49-.17-.13-.05-.25-.1-.37-.13-.8-.44-.99-1.5-1.04-1.72-.05-.23-.2-.33-.23-.03-.03.3-.19,1.21.59,2.47.12.25.36.55.71.95l.35.45c.6.79,1.49,1.99,3.38,3.06l1.15.6c2.15,1.08,5.25,2.25,6.51,5.64.47,1.26.54,2.79.17,4.57-.85-.6-1.96-1.34-3.04-2.06-.63-.42-1.32-.88-1.95-1.31l.41-.21c.71-.45,1.09-.89,1.19-1.4.14-.74-.41-1.39-.92-2.21-1.19-1.91-4.01-2.33-5.82-2.56l-1.22-.19c-1.92-.36-4.22-1.28-5.6-2.51-1.95-1.74-1.69-5.07-1.48-6.06.04-.23,0-.72-.18-.2-.27,1.1-1.17,4.83,1.12,6.88,1.5,1.34,4.07,2.34,6.1,2.73l1.16.17c1.66.21,4.29.68,5.27,2.25.42.68.84,1.16.77,1.55-.05.26-.33.54-.82.85l-.77.36c-.61-.43-1.06-.77-1.18-.93-.1-.13-.24-.31-.41-.44h0c-1.33-1.06-.73-.41-.84.22-.15.11-.78.13-1.92-.3-.66-.25-.7-.29-.98-.67-.82-1.06-.66-.64-.85.26-.07.32-.12.42-.43.39-.31-.03-.59-.17-.86-.36ZM2545.24,1350.33l-.41.63c-.62,1.03-1.12,2.03-1.49,2.77l-.16.32c-.3.64-.36.66-.54.63,0-.1.05-.29.08-.43.06-.23.13-.5.13-.76,0-.04,0-.08,0-.12-.05-.67-.77-1.83-1.57-3.06l-.12-.18c-.23-.35-.29-.87-.29-1.38,0-.4.04-.79.06-1.1h0c.44.03.97.12,1.86-.48v.09c0,.58.14,1.27.29,1.71l.04.15c.11.39.28,1.04.86,1.11.49.07.96-.34,1.56-1.35.77-1.31.83-1.86.83-2.3v-.04l.02-.03s.06-.02.13-.02c.24,1.15-.64,2.89-1.28,3.84ZM2547.07,1361.5c-.85-1.72-.11-4.35,1.98-7.03,0,0,.56-.76.56-.76l.25-.3c.43-.52,1.12-1.65,1.12-2.63,0-.16-.02-.32-.06-.47-.13-.45-.46-.78-.94-.95-.24-.08-.35-.16-.4-.19.09-.12.34-.29.46-.38l.2-.13c.32-.24.87-.36,1.3-.28l.21.05c.24.07.56.18.9-.02.35-.21.59-.67.78-1.57.25-1.14.05-2.84-.88-4.21-.69-1.01-2.39-2.39-3.84-2.15-.54.09-1.24.41-1.57,1.62-.08.3-.15.56-.15.88,0,1.06.54,2.21,1.08,2.62.02.02.04.04.06.05-.05.01-.15.03-.16.03-.04,0-.14,0-.21-.02-.5-.06-2.1-.41-2.29.85v.1c0,.24-.03.65-.7,1.8-.34.57-.54.79-.64.87-.06-.12-.11-.32-.14-.41l-.06-.2c-.12-.37-.17-.91-.17-1.36v-.12c0-.1.02-.36.07-.49.06-.15.14-.33.14-.51,0-.14-.05-.27-.19-.38-.35-.26-.67.07-1.45.58-.65.42-.86.42-1.24.37-.24-.03-.6-.16-.81-.23-.16-.05-.28-.05-.36-.08.59-.52,1.92-1.98,2.05-2.51.03-.12-.02-.34-.06-.41-.21-.33-.55-.72-1.54-1.18.69-.22,1.72-.57,2.18-.62,1.42-.19,2.35-.78,3.34-1.35.88-.5,1.79-1.03,3.13-1.33,1.66-.38,3.12.53,4.91,3.06.71,1,.87,2.26.87,3.42,0,1.6-.42,3.03-.66,3.51l-.1.2c-.17.32-.37.7-.37,1.1,0,.35.16.72.65,1.06.38.26.56.44.56.69,0,.18-.09.39-.27.69l-.61.95c-.39.61-.76,1.18-.94,1.58-.04.09-.3.51-.33.41-.04-.15-.08-.31-.08-.31l-.14-.6c-.21-1.27-.42-1.54-.76-1.58-.17-.03-.42.04-.55.31l-.37.63-.36.59-.37.49-.4.55c-1.08,1.46-2.71,3.67-1.01,5.77,1.05,1.3,2.85.9,3.79.61-.04.6-.09,1.11-.14,1.55-2.61-.02-4.57-.8-5.28-2.24ZM2547.67,1377.47l-.77-.04c-.1-.01-.14-.04-.14-.05-.08-.11.04-.6.1-.86.06-.25.1-.56.11-.8.02-.22.05-.51.11-.79.13-.64.31-1.47.31-2.79,0-.34,0-.72-.04-1.14-.02-.36-.04-.65-.04-.88,0-.76.1-.97.15-1.03.03-.03.13-.04.28-.05l.28-.02.25-.03c.84-.08,2.8-.27,3.94-2.08.81-1.29,1-2.57,1.18-5.74.17-2.97,2.45-5.44,3.37-5.97l.56-.31c.74-.41,1.64-.99,2.4-1.45.22-.16.63-.27.86-.86.14-.43.34-.85.56-1.35.3-.67.63-1.44.91-2.47.51-1.9.22-3.79-.31-5.32.1.03.2.05.31.06.51.05.88-.13,1.11-.54.23.21.48.33.96.51.96.36,2.15.66,2.73.15.03.03.05.06.09.11.35.44,1.79,1.42,4.12,2.96,1.62,1.07,3.28,2.18,4.01,2.79.4.33.56.49.56.93,0,.11-.01.25-.03.4-.04.34-.14.83-.25,1.34-.17.85-.28,1.84-.33,2.67-.08,1.31.09,2.28.09,2.8l.04.43c.02.19.04.35.04.48,0,.3-.07.47-.28.59-.45.25-1.53.62-2.31.89-.55.19-.86.29-1.02.37-.14.06-.39.12-.56.01-.18-.11-.22-.42-.23-.66l-.03-.59c-.06-.81-.06-.86.54-1.08.17-.06.24-.04.4.01.21.07.5.16.95,0,.78-.29.98-.67,1.33-1.31.3-.55.13-1.23.21-2.46l.05-.84c.06-.62.39-1.49-1.23-2.01-2.75-.88-4.35-1.35-4.91-1.45-.75-.12-1.61-.47-1.76-.62-.16-.16-.41-.16-.56,0-.15.16-.15.42,0,.58.37.38,1.51.74,2.2.85.35.06,1.46.38,4.8,1.42.08.02.15.05.23.1-.13.27-.27.55-.41.83-.58,1.11-1.99,2.91-2.65,3.48-1.08.92-2.4,1.77-3.86,1.88-2.73.22-4.82,1.64-6.2,4.25-.52.98-.91,1.96-1.22,2.74-.32.81-.6,1.49-.86,1.82-.53.63-1.96,1.38-2.66,1.07-.95-.42-1.48-.44-2.09-.1-.33.19-.21.44-.86.39-.23-.02-1.04-.07-1.06.16-.02.23.56.44.78.45,1.27.11,1.12-.04,1.54-.29.23-.13.41-.24,1.12.04-.09.55-.59.94-1.02,1.11-.6.24-1.57.14-2.22.06-.79-.09-1.95.14-2.06.79l-.07.33c-.08.33-.18.79-.24,1.29-.09.71.09,2.06.52,2.49.17.18.66.58,1.13.98l.76.65.13.11c.35.29.7.59.67,1.81-.03,1.06-.44,1.12-1.71,1.16h-.18c-.83.03-1.32-.19-1.42-.32-.25-.16.15-.69.21-.85.03-.09.05-.18.06-.26h0c.23-.95.85-.92-.88-.94h0c-.18-.02-.37-.02-.58-.02ZM2540.09,1388.57c.48-.93,2.41-4.69,2.41-4.69,0,0-2.02-3.51-2.57-4.45h7.99s0,.07,0,.11c0,.18.04.36.13.52.16.28.45.46.86.54.39.08,1.11.11,1.39.1h.17c.98-.04,2.07-.08,2.4-1.26h11.73c.05.04.84.62,1.63,1.2-1.17.37-2.32.76-3.44,1.17l-.34.12,1.95,6.65h-24.32ZM2618.11,1393.34c-7.93-2.77-17.24-4.37-25.7-4.37h-.05c-8.48,0-17.77,1.6-25.7,4.38l-3.18-10.9c8.86-3.21,19.33-5.04,28.88-5.04h.05c9.55,0,20.05,1.84,28.91,5.05l-3.21,10.88ZM2634.68,1379.43h9.75c-.54.94-2.57,4.45-2.57,4.45,0,0,1.94,3.76,2.41,4.69h-23.92l1.94-6.63-.35-.14c-1.1-.41-2.24-.79-3.39-1.15.74-.59,1.48-1.17,1.53-1.22h7.57c.1.13.21.25.37.37.31.23.82.13,1.17,0,.05.21.13.41.3.62.45.53,1.27.97,2.08.46,0,0,.2-.14.35-.25h0c.28.29.79.43,1.29.35.51-.07.93-.35,1.15-.75.11-.2.2-.47.27-.79ZM2632.12,1369.03l.22.16c.47.35,1.44,1.08,1.36,1.76-.06.52-.06,2.75-.06,2.77,0,.25.1.78.26,1.62.1.52.21,1.06.23,1.33.06.59-.14,2.6-.45,3.16-.13.24-.4.31-.54.34-.29.04-.53-.04-.6-.12l-.11-.11c-.47-1.31-.66-.61-1.1.12l-.17.12c-.46.29-.89-.15-1.01-.29-.11-.13-.16-.23-.15-.34,0-.04,0-.07,0-.11h0c.21-1.18.16-1.06-.77-.54-.05.02-.1.05-.15.08h0c-.1.06-.5.2-.59.14-.22-.17-.3-.28-.3-.7,0-.53.95-1.77,1.96-2.37.59-.35,1.27-1.06,1.27-2.5,0-.14,0-.27-.02-.42-.08-.91-.73-1.79-1.27-1.97-.44-.15-1.61-.33-2.32-.39-.29-.02-1.83-.23-3.93-1.83-1.78-1.36-2.79-3.98-3.01-4.8-.03-.12-.04-.27-.04-.45,0-1.06.47-3,.75-3.51.28-.51.42-1.2.42-1.86,0-.08,0-.15,0-.22.51.38,1.03.84,1.36,1.17,1.49,1.46,1.23.79.45-.29-.36-.5-.92-1.28-1.62-1.76-.62-.44-1.8-1.04-3.06-1.31-1.23-.26-2.2-.64-2.67-1.04.1-.06.19-.11.27-.16.05-.04.72-.47,1.32-.91.21.3.55.6.92.69.52.13,1.5-.06,1.92-.66.22-.31.37-.69.5-1,0,0,.17-.4.18-.42.19-.22,1.39-1.08,1.67-1.21.38-.17.28-.25-.09-.2-.44.07-2.01.5-2.29.99l-.24.52c-.12.28-.25.6-.42.84-.19.28-.81.39-1.05.33-.17-.04-.37-.25-.47-.4.13-.12.23-.22.27-.29.12-.2.05-.43-.14-.55-.19-.12-.44-.06-.57.13v-.02c-.13.17-1.11.89-1.98,1.46-.6.39-.73.46-1.65.91l-.46.23-.23.09c-.39.15-.98.38-1.07,1.4-.09.86-.41,1.49-.67,1.52-.26.02-.64-.18-.81-.39,0,0-.12-.14-.17-.23-.26-.71-.38-.71-.82-.17-.13.16-.65,0-.82-.06-.17-.08-.4-.21-.34-.49.28-1.44.29-1.51-.77-1.21-.16.03-.27-.07-.36-.24-.09-.15.04-.56.24-1.18l.02-.06c.16-.49.65-.94,1.13-1.36.22-.22.53-.48.75-.7.47-.41,1.15-.6,1.98-.85.77-.24,1.91-.81,2.37-1.27.33-.33,1.74-1.36,2.68-1.8.43-.2.4-.35-.29-.15-.91.35-2.49.88-2.97,1.37-.04.04-.09.08-.15.13-.81-2.8-.12-3.86.35-4.57l.04-.05s.06,0,.08,0l.22-.02s.4-.02.76-.04c0,.34.14.55.26.66.46.44,1.33.34,1.68.2.02,0,2.32-.98,2.77-1.28.16-.11.33-.2.47-.27.06.51.17,1.39.32,2.02.17.74.52,1.03.78,1.14.28.12.6.1.88-.07l.1-.04c.32-.19.99-.43,1.65-1.82.06-.13.11-.24.16-.33.02.03.02.06.04.11.02.05.11.24.13.27l.14.29c.93,1.9,2.66,5.43,2.87,9.1l.16,1.54c.32,2.05.98,2.68,1.44,3.13.12.11.21.2.26.29.16.25.53,1.2.7,2.37,0,.02,0,.03,0,.05,0,.18.03.36.07.54.06.81,0,1.69-.28,2.5-.19-.28-.35-.52-.47-.7-.96-1.46-2.9-2.71-.69.44.69.99,1.94,2.9,3.37,4.06ZM2634.05,1353.08c.09-.3.13-.5.2-.77.15-.51.39-1.03,1.09-1.81,0-.01.02-.02.02-.03.02.06.06.23.06.23l.09.29c.14.46.35,1.1.46,1.42.43,1.14.27,1.28,1.55.73l.34-.14s.06-.03.08-.04c.02.09.04.22.04.28v.06c.04.29.52,2.16.63,2.61.41,1.6-.02,1.47,1.3.93.92-.37,1.44-.27,1.48-.2.32.54-1.26,3.1-1.98,3.75-.32.28-.97,1.33-1.2,1.89l-.04.1c-.24.57-.65,1.51-1.19,2.17-2.39,2.87-5.12,1.73-6.29,1.24l-.1-.04c.22-.55.35-1.13.4-1.71.58.51,1.42.86,2.53.86,2.16,0,3.78-2.15,3.78-4.07s-1.59-2.97-3.07-3.11c-.82-.08-1.47.17-1.86.37,0-.07-.02-.21-.02-.39,0-.59.11-1.63.84-1.92.11-.04.3-.12.41-.15,1.24-.32,1.19-.33.36-.93-.05-.04-.08-.05-.13-.08-.01-.01-.02-.03-.03-.04-.03-.03-.04-.1-.04-.18,0-.34.2-1.01.29-1.3ZM2643.76,1348.32c-.65,1.41-.94,2.58-.97,3.51-.01.48.42,1.13.8,1.28.07.04.07.11-.02.17-.06.03-.29.16-.29.16-.26.16-.82.36-1.18.38-.31.03-.56-.06-.8-.28-.67-.6-1.02-2.03-1.11-3.3.57.56.93.74,1.27.64.4-.12.47-.53.52-.83l.07-.29c.23-.57.62-2.25.75-3.25.03-.28.1-.77.18-.92.02,0,.03,0,.06.02l.05.02c.08.04.18.08.29.12.19.36.51,1.2.51,1.93,0,.24-.04.47-.12.66ZM2644.96,1344.33c.05.07.11.15.11.23,0,.01,0,.03,0,.04-.03.1-.17.24-.48.35-.53.19-.9.02-1.18-.09l-.06-.03s-.08-.03-.12-.04c-1.52-.58-.96-.44-1.17.99-.03.19-.06.39-.09.61-.12,1-.5,2.58-.69,3.04l-.12.46s0,.06-.02.09c-.12-.09-.3-.24-.59-.55l-.29-.31c-1.33-1.39-2.57-2.84-2.57-4.18,0-.51.18-1.01.61-1.49.3-.23.46-.48.46-.74,0-.02,0-.04,0-.05-.03-.47-.51-.71-.86-.88l-.16-.09c-.3-.16-2.34-.89-4.06-.06-1.21.58-1.96,1.76-2.25,3.5v.03c-.17,1.2-.51,3.66,2.31,6.12-.14.28-.25.57-.3.88-.02.16-.1.4-.18.67-.08.29-.18.59-.24.88-.83-1.26-1.96-3.17-2.31-3.82-1-1.86-1.43-4.9-.3-7.08.56-1.08,1.43-1.89,2.61-2.4.65-.25,1.81-.76,3.56-.17.61.25,1.31.54,1.89.6.66.08,1.39-.11,2.03-.27.42-.11.85-.22,1.07-.19.35.04.99.3,1.5.51.41.16.73.29.94.34.14.03.29.02.48.02.18,0,.58-.02.69.05h0c0,.05-.02.22-.25.59h0s0,.02,0,.02c-.23.42-.34.86-.34,1.27,0,.44.13.84.38,1.14ZM2620.45,1325.72c.09.06.15.23-.19.32-.35.09-.54.15-.8.26-.26.11-.73.09-.99-.09-.26-.17-.71-.58-.71-.8s.25-.37.37-.37c.32-.11,1.34-.09,1.81.33.17.15.43.28.52.35ZM2563.18,1327.63c.41-.04.99-.08,1.21-.08s.57,0,.39.57c-.17.57-.25.82-.84.59-.58-.23-.84-.49-1.03-.57-.19-.08-.59-.41.26-.5Z" fill="#000000"/>
</svg>