<svg xmlns="http://www.w3.org/2000/svg" viewBox="1736.18 1561.17 283.9 115">
	<path d="M1768.36,1562.25v20.33h-21.21v-20.33h-10.97v51.18h10.97v-21.42h21.21v21.42h10.97v-51.18h-10.97Z
M1849.32,1603.92v-41.67h-10.98v41.82c0,6.07,3.3,9.36,9.36,9.36h24.94v-9.51h-23.32Z
M1786.21,1587.3c0-17.22,11.13-26.13,23.82-26.13,11.95,0,20.7,7.3,21.99,18.32h-10.66c-.68-5.33-5.36-8.9-11.34-8.9-7.67,0-13.57,5.77-13.57,16.71s5.91,16.64,13.57,16.64c6.11,0,10.79-3.58,11.61-8.83h10.18c-.88,10.95-9.64,18.32-21.79,18.32-12.9,0-23.82-8.9-23.82-26.13Z
M1736.19,1657.93h12.43c.29,4.31,3.22,7.09,7.6,7.09,3.88,0,6.36-1.83,6.36-4.68,0-8.63-25.08-.8-25.08-21.64,0-8.7,7.46-14.92,17.91-14.92,11.41,0,18.94,6.51,19.08,16.52h-12.28c-.29-3.29-2.78-5.41-6.8-5.41-3.22,0-5.34,1.54-5.34,3.8,0,9.58,25.52.73,25.52,21.42,0,9.73-7.6,16.01-19.38,16.01s-19.67-7.17-20.03-18.21Z
M1881.08,1676.06h10.31l5.85-20.25,5.7,20.25h10.31l12.28-36.85h-12.06l-5.41,19.96-5.48-19.96h-10.82l-5.41,19.96-5.48-19.96h0s-20.64,0-20.64,0h0,0v-16.06h-12.06v16.06h-13.76v-6.18h10.09v-9.88h-13.23c-5.26,0-8.92,3.59-8.92,8.86v7.2h-8.34v6.71c-3.47-4.81-9.23-7.77-16.22-7.77-11.48,0-19.74,8.12-19.74,19.01s8.26,19.01,19.74,19.01,19.74-8.12,19.74-19.01c0-2.88-.58-5.56-1.64-7.96h6.46v26.85h12.06v-26.91h13.76v17.99c0,5.7,3.22,8.92,8.92,8.92h12.43v-9.94h-9.29v-16.96h9.09v-8.54l11.76,35.45ZM1797.77,1665.94c-4.61,0-7.68-3.51-7.68-8.77s3.07-8.77,7.68-8.77,7.68,3.51,7.68,8.77-3.07,8.77-7.68,8.77Z
M1924.92,1665.14c0-7.24,5.26-11.63,13.02-11.63h5.26c1.9,0,2.92-1.32,2.92-3.07,0-2.19-1.83-3.73-5.12-3.73-4.02,0-5.48,2.49-5.56,5.12h-10.53c.29-7.46,5.92-13.67,16.82-13.67,9.21,0,16.38,5.41,16.38,13.75v24.14h-11.99v-4.98c-.95,3.07-4.68,5.12-9.43,5.12-6.87,0-11.77-4.9-11.77-11.04ZM1940.06,1667.77c3.88,0,6.07-3.22,6.07-6.65v-.29h-6.14c-2.12,0-3.66,1.54-3.66,3.73,0,1.9,1.61,3.22,3.73,3.22Z
M1984.51,1649.21c-1.02,2.58-1.5,5.34-1.5,7.95,0,8.7,6,19.01,19.23,19.01,9.07,0,16.31-5.19,17.84-13.38h-11.63c-.66,2.49-2.92,3.66-6.22,3.66-4.39,0-6.95-2.34-7.68-6.43h25.37c.07-.88.15-1.9.15-3.58,0-7.75-4.61-18.28-18.57-18.28-6.84,0-11.55,2.75-14.51,6.62v-.34s0-5.22,0-5.22h-16.22c-5.26,0-8.92,3.66-8.92,8.92v27.93h12.06v-26.86h10.59ZM2001.52,1646.7c4.17,0,6.43,3,6.65,6.14h-13.6c.8-4.46,3.07-6.14,6.95-6.14Z" fill="#000000"/>
</svg>