<svg xmlns="http://www.w3.org/2000/svg" viewBox="1687.61 858.65 301.4 155.3">
	<path d="M1777.62,859.63l-35.66,88.97h-18.69l-35.66-88.97h16.61c1.79,0,3.26.41,4.4,1.22,1.14.81,1.95,1.89,2.44,3.24l17.22,47.63c.77,2.08,1.56,4.34,2.35,6.78.79,2.44,1.54,5.01,2.23,7.69.57-2.69,1.23-5.25,1.98-7.69.75-2.44,1.5-4.7,2.23-6.78l17.1-47.63c.41-1.14,1.2-2.17,2.38-3.08,1.18-.92,2.63-1.37,4.34-1.37h16.73ZM1972.74,859.63c-1.71,0-3.18.45-4.4,1.34-1.22.9-2,1.93-2.32,3.11l-12.21,46.41c-.37,1.43-.72,2.95-1.07,4.58-.35,1.63-.68,3.34-1.01,5.13-.37-1.83-.79-3.55-1.28-5.16-.49-1.61-.96-3.12-1.4-4.55l-14.29-46.41c-.45-1.38-1.25-2.47-2.41-3.27-1.16-.79-2.64-1.19-4.43-1.19h-6.11c-1.71,0-3.17.46-4.37,1.37-1.2.92-1.98,1.94-2.35,3.08l-14.41,46.41c-.45,1.51-.92,3.1-1.4,4.79-.49,1.69-.94,3.49-1.34,5.4-.2-1.87-.51-3.66-.92-5.37-.41-1.71-.81-3.32-1.22-4.82l-12.21-46.41c-.37-1.34-1.15-2.42-2.35-3.24-1.2-.81-2.7-1.22-4.49-1.22h-17.34l27.48,88.97h18.69l16.98-55.14c.28-.85.58-1.79.89-2.81.31-1.02.6-2.1.89-3.24.28,1.14.58,2.22.89,3.24.31,1.02.6,1.95.89,2.81l16.73,55.14h18.69l27.48-88.97h-16.24ZM1845.23,863.63c-1.14-.56-2.33-1.08-3.57-1.56-2.75-1.06-5.75-1.89-9.01-2.5-3.26-.61-6.74-.92-10.44-.92-7.16,0-13.65,1.12-19.45,3.36-5.8,2.24-10.75,5.37-14.84,9.4-4.09,4.03-7.24,8.82-9.43,14.38-2.2,5.56-3.3,11.65-3.3,18.29s1.15,12.55,3.45,18.11c2.3,5.56,5.47,10.36,9.53,14.41,4.05,4.05,8.84,7.23,14.38,9.53,5.54,2.3,11.56,3.45,18.08,3.45,3.62,0,7.01-.18,10.17-.55,3.15-.37,6.13-.94,8.92-1.71,2.79-.77,5.41-1.76,7.88-2.96,2.46-1.2,4.83-2.64,7.11-4.3v-39.85h-38.95l2.78,10.56c.37,1.34,1.15,2.42,2.35,3.24,1.2.81,2.69,1.22,4.48,1.22h10.65v15.79c-1.95.81-4.03,1.47-6.23,1.95-2.2.49-4.72.73-7.57.73-3.74,0-7.2-.66-10.35-1.98-3.15-1.32-5.88-3.25-8.18-5.77-2.3-2.52-4.1-5.62-5.4-9.28-1.3-3.66-1.95-7.86-1.95-12.58,0-4.27.59-8.15,1.77-11.63,1.18-3.48,2.86-6.46,5.04-8.95,2.18-2.48,4.81-4.41,7.91-5.77,3.09-1.36,6.57-2.05,10.44-2.05,2.08,0,3.95.1,5.62.31,1.67.2,3.26.53,4.76.98.26.08.53.16.79.25,1.23.41,2.45.91,3.64,1.49,1.44.71,2.98,1.56,4.61,2.53,1.3.81,2.56,1.22,3.79,1.22.94,0,1.8-.24,2.59-.73.79-.49,1.48-1.16,2.05-2.02l1.36-2.06s.05-.06.07-.1l4.56-6.93c-1.79-1.71-3.83-3.3-6.11-4.76-1.25-.81-2.58-1.54-3.98-2.22
M1851.49,961.81l-16.2,42.5h-19.7v-42.5h-11.91v52.17h37.23c.99,0,1.82-.27,2.5-.81.68-.54,1.14-1.14,1.38-1.81l3.03-9.09h19.53l3.03,9.09c.26.76.72,1.39,1.39,1.88.67.49,1.52.73,2.56.73h9.24l-19.88-52.17h-12.2ZM1851.26,994.03h-.69l4.72-14.21c.35-.91.73-1.98,1.13-3.22.4-1.24.79-2.59,1.16-4.05.4,1.43.8,2.76,1.22,3.99.41,1.23.77,2.3,1.07,3.2l4.72,14.29h-13.34Z
M1913.61,961.81c-.49,0-.95.08-1.36.23-.41.16-.78.36-1.09.61-.32.25-.6.53-.85.84-.25.31-.44.62-.58.93l-7.19,15.18c-.56,1.19-1.09,2.3-1.59,3.33-.49,1.03-.92,2.05-1.27,3.08-.38-1-.81-2.02-1.3-3.04-.49-1.03-1.03-2.15-1.62-3.37l-7.26-15.18c-.38-.76-.87-1.39-1.48-1.88-.61-.49-1.43-.73-2.47-.73h-10.51l18.61,32.33v19.83h11.91v-19.83l18.61-32.33h-10.57Z
M1792.56,966.71c-1.68-1.53-3.82-2.73-6.41-3.6-2.6-.87-5.7-1.31-9.32-1.31h-18.12l1.98,6.44c.28.8.68,1.38,1.38,1.9.68.51,1.58.72,2.63.72h12.13c1.5,0,2.8.19,3.9.57,1.09.38,2,.93,2.71,1.63.72.7,1.25,1.54,1.6,2.52.35.98.53,2.06.53,3.26,0,2.7-.68,4.8-2.04,6.3-1.36,1.5-3.6,2.26-6.7,2.26h-18.12v26.57s11.91,0,11.91,0v-17.44h6.2c3.55,0,6.62-.44,9.22-1.31,2.6-.87,4.74-2.08,6.43-3.63,1.69-1.55,2.95-3.41,3.77-5.59.82-2.17,1.23-4.56,1.23-7.16,0-2.41-.4-4.65-1.2-6.73-.8-2.08-2.04-3.88-3.72-5.41Z" fill="#000000"/>
</svg>