<svg xmlns="http://www.w3.org/2000/svg" viewBox="688.14 1912.76 104.2 111.5">
	<path d="M747.74,1945.2c0,3.2,1.25,6.14,3.62,8.51,3.33,3.33,6.97,3.78,9.45,3.58,2.95-.24,5.92-1.59,7.94-3.62l.52-.52h0c1.49-1.49,2.4-2.41,3.29-3.27l6.11,5.96,4.29-4.32.06-.11-6.02-6.04,4.28-4.3-4.48-4.49-4.28,4.3s-12.51-12.57-14.06-14.14c-.83-.85-1.35-1.74-1.35-3.16,0-1.5.68-2.51,1.25-3.08.84-.84,2.07-1.36,3.2-1.36,1.72,0,2.78.91,3.14,1.3l.09.09.09-.09,2.54-2.54,1.76-1.76.08-.09-.12-.13c-1.15-1.18-3.68-3.16-7.6-3.16-2.99,0-5.75,1.19-7.78,3.36-1.9,2.02-2.98,4.73-2.98,7.44,0,4.49,2.55,7.26,4.36,8.94l-3.81,3.74c-2.21,2.22-3.59,5.65-3.59,8.95ZM755.82,1940.76l3.78-3.79,8.46,8.4c-.39.4-2.03,2.06-3.83,3.85-2.18,2.15-5.79,2.6-8.41-.03-1.15-1.16-1.75-2.59-1.75-4.15s.66-3.18,1.75-4.28ZM783.4,1971.94c-5.78-5.78-13.48-8.96-21.66-8.96s-15.88,3.18-21.66,8.96c-5.78,5.78-8.97,13.46-8.97,21.63s3.19,15.85,8.97,21.62c5.79,5.78,13.48,8.96,21.66,8.96s15.88-3.18,21.66-8.96c5.79-5.78,8.97-13.45,8.97-21.62s-3.19-15.85-8.97-21.63ZM761.74,2016.29c-6.08,0-11.79-2.37-16.09-6.66-4.3-4.29-6.67-10-6.67-16.06s2.37-11.78,6.67-16.07c4.3-4.3,10.01-6.66,16.09-6.66s11.79,2.36,16.09,6.66c4.29,4.29,6.66,9.99,6.66,16.07,0,12.52-10.21,22.72-22.76,22.72ZM731.16,1949.45c0,13.02-7.13,24.89-18.63,31.02,3.29,2.08,6.05,4.96,7.96,8.34,2.02,3.55,3.09,7.59,3.09,11.69,0,6.33-2.48,12.3-6.97,16.78-4.48,4.48-10.46,6.95-16.81,6.95h-11.64l-.02-109.95h7.81c9.4,0,18.25,3.65,24.9,10.3,6.65,6.64,10.3,15.47,10.3,24.85ZM715.28,1930.15c-5.13-5.12-11.96-7.96-19.22-7.99v54.57c7.25-.03,14.08-2.87,19.22-7.99,5.17-5.15,8-12.01,8-19.3s-2.83-14.14-8-19.3ZM696.07,2016.38h3.73c8.76,0,15.89-7.12,15.89-15.87,0-4.24-1.65-8.22-4.65-11.23-3-2.99-7.03-4.64-11.28-4.64,0,0-3.05-.02-3.7-.02v31.75Z" fill="#000000"/>
</svg>