<svg xmlns="http://www.w3.org/2000/svg" viewBox="3071.17 1942.65 241.8 51.73">
	<path d="M3154.03,1972.95l-7.41.02v6.45h7.43c1.79,0,3.24-1.45,3.24-3.23s-1.45-3.24-3.25-3.24ZM3131.79,1967.19h31.41c5.11,0,9.25,4.14,9.25,9.25,0,3.89-2.41,7.23-5.81,8.59l6.48,9.34h-17.88l-4.6-8.68h-4.04v8.68h-14.8v-27.18Z
M3274.91,1948.91h-177.84v6.33h177.84c1.75,0,3.17-1.42,3.17-3.17s-1.42-3.17-3.17-3.17ZM3071.17,1942.65h232.34c5.25,0,9.5,4.25,9.5,9.5s-4.25,9.5-9.5,9.5h-206.44v32.73h-25.9v-51.73Z
M3239.23 1988.4 L3254.46 1988.4 L3254.46 1994.37 L3223.86 1994.37 L3223.86 1967.19 L3239.23 1967.19 L3239.23 1988.4 Z
M3196.54 1988.4 L3215.32 1988.4 L3215.32 1994.37 L3180.89 1994.37 L3180.89 1967.19 L3213.62 1967.19 L3213.62 1973.17 L3196.54 1973.17 L3196.54 1977.8 L3213.62 1977.8 L3213.62 1983.77 L3196.54 1983.77 L3196.54 1988.4 Z
M3274.24 1988.4 L3289.46 1988.4 L3289.46 1994.37 L3258.87 1994.37 L3258.87 1967.19 L3274.24 1967.19 L3274.24 1988.4 Z
M3107.03 1967.19 H3121.83 V1994.37 H3107.03 Z
M3293.73 1967.19 H3308.53 V1994.37 H3293.73 Z" fill="#000000"/>
</svg>