<svg xmlns="http://www.w3.org/2000/svg" viewBox="856.49 1274.62 310.6 160.9">
	<path d="M924.93,1361.39h5.75v13.19h4.76v-13.19h5.75v-4.46h-16.5v4.46h5.75v13.19h4.76V1361.39Z M912.53,1363.21c-.82-.29-2.21-.7-2.24-1.42-.05-1.31,2.88-1.55,4.16-.81.69.4.88,1,1.06,1.62h4.48c-.04-4.26-3.33-5.71-7.24-5.98h-.53c-3.14.18-5.49,1.18-6.5,3.25-.79,1.63-.4,3.96.64,5.18,1.6,1.86,4.25,2.42,6.92,3.45.63.24,2.01.61,1.92,1.52-.14,1.42-3.72,1.11-4.69.5-.44-.28-.67-.68-.85-1.21h-4.58c.1,2,1.02,3.64,2.77,4.57,4.42,2.34,12.84.98,12.46-4.47-.26-3.71-4.3-4.97-7.78-6.19Z M960.71,1369.2c2.51-.94,3.89-3.59,3.66-6.44-.24-2.94-2.28-5.53-6.21-5.81h-9.75v17.63h4.76c0-1.52-.01-3.58,0-4.75h2.22l3.77,4.75h5.43c-1.14-1.65-2.65-3.58-3.88-5.39ZM957.21,1365.75l-4.06-.02v-4.64h3.92s2.76-.23,2.76,2.33-2.61,2.34-2.61,2.34Z M887.92,1357.02c-2.66,5.71-5.02,11.71-7.56,17.55h5.22c.38-.9.72-1.77,1.07-2.54h7.14c.32.85.63,1.59.96,2.54l5.24-.05c-2.54-5.76-4.95-11.73-7.48-17.5h-4.58ZM888.13,1367.87l2.02-5.15,2.08,5.14h-4.1Z M1015.88,1357.06h-4.56c-2.66,5.69-5,11.66-7.53,17.48h5.2c.37-.9.72-1.77,1.06-2.53h7.11c.32.85.63,1.59.96,2.53l5.23-.05c-2.53-5.75-4.93-11.68-7.45-17.43ZM1011.52,1367.87l2-5.12,2.08,5.11h-4.08Z M1045.22,1357.08h-15.33v4.18h8.43c-2.48,2.51-6.12,7.36-8.65,9.92v3.33h15.55v-4.19c-2.73,0-5.98,0-8.71,0l8.71-10.12v-3.13Z M1068.09,1357.08h-15.34v4.18h8.43c-2.48,2.51-6.12,7.36-8.65,9.92v3.33h15.55v-4.19c-2.73,0-5.99,0-8.71,0l8.71-10.12v-3.13Z M868.75,1366.57c-2.54-2.91-5.67-6.63-8.21-9.55h-4.05v17.55h4.69v-9.72c2.45,2.87,5.8,6.81,8.31,9.72h4.05v-17.55h-4.79c0,3.14,0,6.41,0,9.55Z M979.78,1356.74c-3.07.34-5.46,1.85-6.88,3.69-.7.91-1.58,2.4-1.77,4.54-.51,5.57,4.12,9.55,8.87,9.93,7.84.62,13.76-7.4,9.31-14.04-1.19-1.77-4.53-4.67-9.53-4.12ZM979,1370.26c-1.11-.41-3.08-2.01-3.1-4.44-.02-2.69,1.98-4.46,4.43-4.75,2.77-.34,5.04,1.46,5.54,3.48,1.03,4.09-3.2,7.05-6.87,5.7Z M1116.23,1362.7c-.24-2.95-2.29-5.54-6.22-5.83h-9.77v17.67h4.77c.01-1.52,0-3.59,0-4.76h2.22l3.78,4.76h5.44c-1.15-1.65-2.66-3.58-3.89-5.4,2.51-.94,3.9-3.6,3.67-6.45ZM1109.05,1365.7l-4.07-.03v-4.65h3.93s2.76-.23,2.76,2.34-2.62,2.34-2.62,2.34Z M1088.19,1357v6.83c0,2.84.32,5.49-1.85,6.42-.68.3-1.37.44-2.03.45-.66-.01-1.35-.15-2.03-.45-2.17-.93-1.85-3.58-1.85-6.42v-6.83h-4.57v11.18c.13,1.92,1.03,3.52,2.07,4.56,1.41,1.42,3.89,2.23,6.38,2.24,2.5-.01,4.97-.82,6.38-2.24,1.04-1.04,1.94-2.65,2.07-4.56v-11.18h-4.57Z M1084.33,1374.99s-.02,0-.02,0-.02,0-.02,0h.05Z M1140.22,1362.7c-.25-2.95-2.28-5.54-6.21-5.83h-9.78v17.67h4.78c.01-1.52-.01-3.59,0-4.76h2.23l3.78,4.76h5.44c-1.14-1.65-2.66-3.58-3.89-5.4,2.51-.94,3.9-3.6,3.66-6.45ZM1133.04,1365.7l-4.07-.03v-4.65h3.92s2.77-.23,2.77,2.34-2.62,2.34-2.62,2.34Z M1155.91,1356.68c-3.07.34-5.46,1.85-6.88,3.69-.7.91-1.58,2.4-1.77,4.54-.51,5.57,4.12,9.55,8.87,9.93,7.84.62,13.76-7.4,9.31-14.04-1.18-1.77-4.52-4.67-9.53-4.12Zm-1.87,13.58c-1.12-.41-3.09-2.01-3.1-4.44-.02-2.69,1.98-4.46,4.43-4.75,2.77-.34,5.04,1.46,5.54,3.48,1.03,4.09-3.19,7.05-6.87,5.7Z
M1050.3,1344.42c17.41,0,28.66-12.4,28.66-31.58s-11.25-31.57-28.66-31.57-28.65,12.39-28.65,31.57,11.25,31.58,28.65,31.58ZM1050.3,1289.41c8.8,0,13.25,7.89,13.25,23.43s-4.46,23.43-13.25,23.43-13.25-7.88-13.25-23.43,4.46-23.43,13.25-23.43Z
M958.68,1327.09h-4.04s-.42.95-.42.95c-.82,1.83-3.67,6.58-7.09,6.58h-15.76v-17.71s7.92,0,7.92,0c3.75,0,5.51,4.55,5.53,4.59l.39,1.05h3.89v-19.39h-3.87s-.39,1.04-.39,1.04c-.02.05-1.79,4.6-5.54,4.6h-7.91s0-17.77,0-17.77h14.74c4.55,0,7,6.54,7.02,6.61l.39,1.05h4.13l-2.46-15.76h-41.72v3.59s.54.48.54.48c.13.11,3.16,2.88,3.16,8.25v35.17c0,5.38-3.03,8.11-3.15,8.21l-.56.48v3.6h42.73l2.47-15.64Z
M886.78,1274.64h-30.28s0,3.55,0,3.55l.49.47s3.21,3.15,3.21,8.27v43.48c0,5.12-3.18,8.24-3.21,8.26l-.5.47v3.55h22.2v-3.55s-.5-.47-.5-.47c-.03-.03-3.21-3.15-3.21-8.27v-47.69s6.17-.03,6.17-.03c5.19,0,11.14,1.47,11.14,12.94,0,8.49-3.67,13.17-10.34,13.17h-2.18c-1.65-.03-2.05.48-2.05.48-.91.71-1.65,2.69,1.4,5.4.57.5,1.58,1.02,2.53,1.41,1.74.59,3.12.79,5.11.79,12.29,0,20.87-8.71,20.87-21.19s-8.58-21.06-20.87-21.06Z
M986.69,1339.12l-.54-.48c-.13-.11-3.16-2.85-3.16-8.23v-39.37h7.46c5.46,0,8.23,3.18,8.23,9.46,0,7.02-4.19,9.52-8.1,9.52h-3.39s-3.99-.5-.55,5.71c.81,1.46,1.58,2.86,3.55,5.91,2.29,3.56,6.62,10.39,9.67,15.21,1.58,2.49,2.81,4.44,3.26,5.13l.47.74h18.8v-4.44s-1.37-.2-1.37-.2c-.14-.02-3.45-.55-5.56-3.75-2.38-3.61-3.3-5.07-5.71-8.91l-.49-.79c-2.14-3.41-4.07-6.48-6.22-8.7,6.73-2.17,11.05-8.3,11.05-16.12,0-10.1-6.62-16.88-16.46-16.88h-32.52v3.6s.55.48.55.48c.13.11,3.16,2.85,3.16,8.22v35.18c0,5.38-3.04,8.12-3.16,8.23l-.56.48v3.6h21.61v-3.6Z
M1166.49,1287.03l.56-.48v-3.61h-21.63v3.6s.55.48.55.48c.13.11,3.16,2.83,3.16,8.21v35.2c0,5.38-3.03,8.11-3.15,8.21l-.56.48v3.6h21.55v-3.6l-.55-.48s-3.11-2.76-3.11-8.22v-35.2c0-5.38,3.05-8.1,3.17-8.2Z
M1136.83,1339.13l-.54-.48c-.13-.11-3.16-2.85-3.16-8.22v-35.19c0-5.38,3.03-8.11,3.15-8.21l.56-.48v-3.6h-15.63v3.6s.55.48.55.48c.13.11,3.16,2.84,3.16,8.22v25.73l-24.24-38.02h-16.44v3.59s.55.48.55.48c.13.11,3.16,2.85,3.16,8.21v35.2c0,5.38-3.03,8.11-3.15,8.21l-.56.48v3.6h15.63v-3.6s-.55-.48-.55-.48c-.13-.11-3.16-2.84-3.16-8.22v-27.85l25.57,40.14h15.11v-3.6Z
M984.32,1388.96c-11.99,0-20.1,10.24-20.09,23.31v.13c0,13.07,7.93,23.17,19.98,23.17,12.05,0,20.1-10.24,20.09-23.31v-.13c0-13.07-8.06-23.17-19.98-23.17ZM994.11,1412.38c0,8.18-3.8,14.23-9.79,14.23-5.99,0-9.93-6.11-9.93-14.35v-.13c0-8.24,3.86-14.23,9.79-14.23,5.93,0,9.93,6.18,9.93,14.35v.13Z
M1039.07,1388.94c-11.99,0-20.1,10.24-20.1,23.31v.13c0,13.07,7.93,23.17,19.98,23.17,12.05,0,20.1-10.24,20.1-23.31v-.13c0-13.07-8.06-23.17-19.98-23.17ZM1048.87,1412.37c0,8.18-3.8,14.23-9.79,14.23-5.99,0-9.92-6.11-9.92-14.35v-.13c0-8.24,3.86-14.23,9.79-14.23,5.93,0,9.92,6.18,9.93,14.35v.13Z
M1082.15,1403.97c-3.03,0-5.07,2.37-5.07,5.31v.06c0,2.9,2.02,5.25,5.02,5.24,3.03,0,5.07-2.4,5.07-5.31v-.06c0-2.91-2.02-5.25-5.02-5.25ZM1084.05,1409.33c0,1.33-.65,2.55-1.9,2.55-1.19,0-1.96-1.22-1.96-2.61v-.06c0-1.36.65-2.55,1.9-2.55s1.96,1.22,1.96,2.61v.06Z
M1074.41,1398.66v-.06c0-2.9-2.02-5.25-5.02-5.24-3.02,0-5.07,2.37-5.07,5.31v.06c0,2.91,2.02,5.25,5.01,5.24,3.03,0,5.07-2.4,5.07-5.31ZM1067.44,1398.67v-.06c0-1.36.65-2.55,1.9-2.55s1.96,1.22,1.96,2.61v.06c0,1.33-.65,2.55-1.9,2.55-1.19,0-1.96-1.21-1.96-2.61Z
M1081.56,1393.59 L1074.71,1403.17 L1066.4,1414.35 L1069.94,1414.35 L1076.78,1404.77 L1085.09,1393.59 Z
M1011.64,1429.2m-4.57,0a4.57,4.57 0 1,0 9.14,0a4.57,4.57 0 1,0 -9.14,0" fill="#000000"/>
</svg>