<svg xmlns="http://www.w3.org/2000/svg" viewBox="1334.46 1944.21 260.5 48.6">
	<path d="M1454.82 1961.32 L1454.82 1967.8 L1441.86 1967.8 L1441.86 1986.84 L1434.78 1990.31 L1434.78 1967.8 L1421.91 1967.8 L1421.91 1961.32 L1454.82 1961.32 Z
M1526.93,1952.88v25.99c0,4.02-1.21,7.44-3.5,9.87-2.51,2.66-6.27,4.07-10.89,4.07-2.76,0-5.19-.46-7.22-1.38-1.93-.87-3.55-2.17-4.82-3.86l-.8-1.07,6.24-3.06.56.62c1.37,1.53,3.18,2.18,6.05,2.18,4.98,0,7.3-2.46,7.3-7.75v-21.85l7.09-3.78Z
M1488.26 1991.96 L1480.42 1991.96 L1468.33 1969.06 L1464.91 1975.54 L1454.59 1980.6 L1465.03 1961.32 L1471.71 1961.32 L1488.26 1991.96 Z
M1469.92,1974.16l-34.04,16.69h2.27l29.39-10.92c1.56-.58,3.17-.98,4.79-1.22l-2.4-4.55Z
M1539.48,1944.21l-41.46,17.04c-4.22,1.72-7.51,5.58-8.9,10.46-3.5-2.21-7.62-2.66-11.4-1.29l4.88,9.03c4.02,1.19,7.79,3.45,10.86,6.72l1.1-.54c.66-10.63,6.79-20.23,15.24-24.73l31.32-16.69h-1.66Z
M1378.69 1955.63 L1359.85 1991.96 L1353.31 1991.96 L1334.46 1955.63 L1342.41 1955.63 L1356.62 1983.43 L1370.83 1955.63 L1378.69 1955.63 Z
M1377.48 1961.32 H1384.57 V1991.96 H1377.48 Z
M1421.43,1982.45c0,3.11-1.51,5.74-4.37,7.58-2.82,1.82-6.87,2.78-11.72,2.78-7,0-13.12-2.09-17.7-6.03l-.85-.73,4.52-5.13.83.74c3.59,3.21,7.85,4.71,13.39,4.71,7.87,0,8.72-2.46,8.72-3.52,0-.67-.24-1.37-1.94-1.98-1.83-.65-4.82-.97-7.77-1.22-6.97-.58-16.24-2.17-16.24-9.31,0-3.11,1.68-5.69,4.85-7.47,2.82-1.58,6.6-2.41,10.95-2.41,6.22,0,11.74,1.76,15.54,4.97l.89.75-4.6,4.97-.81-.71c-2.64-2.31-6.32-3.5-10.94-3.54-3.77-.04-6.99.73-8.22,1.95-.36.36-.53.73-.53,1.17,0,1.98,4.5,2.49,9.94,2.92,7.93.62,16.04,2.23,16.04,9.51Z
M1460.71 1983.51 L1456.25 1991.96 L1448.44 1991.96 L1451.08 1987.08 L1460.71 1983.51 Z
M1560.63 1985.48 L1560.63 1991.96 L1530.12 1991.96 L1530.12 1961.32 L1560.23 1961.32 L1560.23 1967.8 L1537.16 1967.8 L1537.16 1973.18 L1556.57 1973.18 L1556.57 1979.65 L1537.16 1979.65 L1537.16 1985.48 L1560.63 1985.48 Z
M1594.97 1961.32 L1594.97 1967.8 L1582.02 1967.8 L1582.02 1991.96 L1574.93 1991.96 L1574.93 1967.8 L1562.06 1967.8 L1562.06 1961.32 L1594.97 1961.32 Z" fill="#000000"/>
</svg>