<?xml version="1.0" encoding="UTF-8" ?>
<!DOCTYPE svg PUBLIC "-//W3C//DTD SVG 1.1//EN" "http://www.w3.org/Graphics/SVG/1.1/DTD/svg11.dtd">
<svg width="600pt" height="94pt" viewBox="0 0 600 94" version="1.1" xmlns="http://www.w3.org/2000/svg">
<g id="FFFFFF">
</g>
<g id="ED392C">
<path fill="#ed392c" opacity="1.00" d=" M 374.93 2.83 C 377.62 2.06 381.14 4.05 381.82 6.83 C 381.48 9.01 377.98 10.63 376.59 8.42 C 375.49 6.83 374.22 4.82 374.93 2.83 Z" />
<path fill="#ed392c" opacity="1.00" d=" M 407.02 5.19 C 409.59 4.91 413.23 8.02 411.59 10.63 C 408.36 13.20 405.82 7.84 407.02 5.19 Z" />
<path fill="#ed392c" opacity="1.00" d=" M 383.39 10.48 C 387.29 8.85 391.98 10.15 394.96 13.03 C 399.54 17.34 401.15 23.91 401.07 30.01 C 400.87 33.27 399.75 36.99 396.83 38.82 C 393.81 40.32 390.34 39.00 387.74 37.26 C 382.08 33.33 377.50 27.04 377.42 19.94 C 377.30 15.97 379.64 11.97 383.39 10.48 Z" />
<path fill="#ed392c" opacity="1.00" d=" M 411.18 14.28 C 414.16 12.99 417.63 14.00 420.14 15.87 C 423.81 18.62 426.27 22.63 428.46 26.58 C 430.39 30.22 431.87 34.57 430.63 38.67 C 429.80 41.45 426.43 42.02 423.95 41.66 C 418.61 41.02 412.22 39.65 409.71 34.28 C 408.23 30.04 407.90 25.46 407.95 21.00 C 408.01 18.49 408.69 15.47 411.18 14.28 Z" />
<path fill="#ed392c" opacity="1.00" d=" M 351.84 27.87 C 354.47 27.28 358.14 28.39 359.51 30.86 C 358.82 36.79 350.56 32.01 351.84 27.87 Z" />
<path fill="#ed392c" opacity="1.00" d=" M 364.37 30.47 C 373.15 27.57 382.62 34.18 385.78 42.28 C 387.39 46.07 387.19 51.84 382.87 53.70 C 378.37 55.20 373.51 54.04 369.09 52.75 C 364.43 51.32 359.79 47.95 358.74 42.94 C 357.90 38.24 359.45 32.26 364.37 30.47 Z" />
<path fill="#ed392c" opacity="1.00" d=" M 397.46 43.64 C 405.73 42.30 413.76 46.19 420.74 50.23 C 427.17 54.25 434.39 59.70 435.01 67.91 C 435.63 75.77 427.47 82.34 419.92 80.64 C 417.28 80.36 414.19 79.06 411.80 80.79 C 409.04 83.47 408.49 88.09 404.77 89.84 C 398.84 93.30 390.38 90.89 387.25 84.78 C 384.82 79.90 385.36 74.24 386.00 69.01 C 386.94 63.33 387.63 57.54 389.43 52.05 C 390.68 48.27 393.29 44.42 397.46 43.64 Z" />
<path fill="#ed392c" opacity="1.00" d=" M 360.45 55.60 C 366.75 54.07 373.66 55.61 379.24 58.75 C 384.55 61.59 384.13 70.19 378.88 72.85 C 373.53 75.44 367.03 76.37 361.31 74.50 C 356.24 72.90 353.17 67.13 354.27 62.01 C 354.93 58.93 357.48 56.49 360.45 55.60 Z" />
<path fill="#ed392c" opacity="1.00" d=" M 345.08 63.15 C 347.38 61.72 352.58 61.12 352.42 65.08 C 351.48 68.64 345.46 65.92 345.08 63.15 Z" />
</g>
<g id="F000000">
<path fill="#000000" opacity="1.00" d=" M 0.00 12.87 C 125.73 12.84 251.47 12.95 377.20 12.82 C 376.09 14.05 375.58 15.62 375.06 17.17 C 251.46 17.23 127.86 17.16 4.26 17.20 C 4.29 36.93 4.16 56.67 4.33 76.39 C 122.54 76.35 240.74 76.38 358.95 76.38 C 361.26 77.06 363.55 77.97 366.01 77.96 C 371.76 78.48 377.11 75.64 382.86 76.35 C 382.98 77.79 383.17 79.22 383.35 80.65 C 255.56 80.73 127.78 80.69 0.00 80.67 L 0.00 12.87 Z" />
<path fill="#000000" opacity="1.00" d=" M 398.45 13.23 C 401.20 12.46 404.13 13.04 406.96 12.88 L 408.16 13.27 C 403.92 18.58 405.48 25.93 406.46 32.09 C 407.26 37.92 412.56 41.99 418.05 43.13 C 422.14 44.00 426.92 45.30 430.67 42.72 C 434.83 39.42 433.92 33.25 432.25 28.86 C 429.65 22.86 426.12 16.87 420.55 13.21 C 423.02 12.72 425.54 12.89 428.04 12.87 C 485.36 12.87 542.68 12.89 600.00 12.86 L 600.00 80.69 C 545.33 80.70 490.66 80.68 435.98 80.69 C 435.42 80.73 434.29 80.81 433.73 80.85 C 433.47 80.47 432.94 79.71 432.68 79.33 C 435.05 77.26 436.66 74.40 437.24 71.29 C 449.12 71.53 461.13 72.42 472.93 70.43 C 479.62 69.33 484.27 62.65 484.01 56.05 C 484.14 49.34 484.31 42.61 483.84 35.91 C 483.45 29.99 478.80 24.55 472.89 23.58 C 460.89 21.64 448.67 22.32 436.58 22.90 C 436.56 36.19 436.54 49.49 436.60 62.78 C 433.90 56.99 429.06 52.57 423.74 49.19 C 416.15 44.42 407.47 40.25 398.28 40.83 C 401.87 38.51 403.40 34.02 403.60 29.93 C 403.63 24.04 402.27 17.85 398.45 13.23 M 503.51 22.80 C 497.29 24.06 490.38 28.02 489.37 34.86 C 488.51 41.19 488.97 47.61 488.92 53.98 C 488.88 58.64 489.84 63.96 493.95 66.81 C 501.20 72.88 511.26 71.96 520.07 71.57 C 527.11 70.86 535.35 66.85 536.60 59.18 C 537.45 53.16 537.04 47.05 537.08 41.00 C 537.10 36.21 536.55 30.66 532.44 27.53 C 524.48 20.74 513.17 21.88 503.51 22.80 M 545.81 27.85 C 542.31 31.25 541.83 36.39 541.88 41.01 C 541.99 46.71 541.61 52.44 542.16 58.13 C 542.78 65.09 549.03 70.74 555.87 71.40 C 562.53 72.00 569.27 71.98 575.94 71.43 C 581.57 70.91 586.71 67.14 588.93 61.96 C 590.90 55.88 589.85 49.35 590.11 43.07 C 581.68 43.06 573.25 43.06 564.83 43.07 C 564.81 46.40 564.80 49.72 564.83 53.05 C 568.36 53.09 571.90 53.02 575.43 53.08 C 575.67 56.82 572.97 60.47 569.10 60.65 C 565.48 60.60 561.15 61.46 558.35 58.54 C 555.73 55.28 556.78 50.82 556.56 46.97 C 556.78 43.15 555.73 38.70 558.37 35.47 C 560.87 32.78 564.77 33.33 568.08 33.31 C 571.28 33.18 574.39 35.26 575.17 38.44 C 580.11 38.43 585.06 38.44 590.00 38.43 C 590.43 30.90 584.50 23.89 577.12 22.77 C 571.12 21.89 565.02 22.20 558.98 22.32 C 554.12 22.41 548.97 23.94 545.81 27.85 Z" />
<path fill="#000000" opacity="1.00" d=" M 11.45 22.26 C 19.20 22.25 26.96 22.23 34.71 22.27 C 39.15 32.48 43.34 42.80 47.90 52.96 C 47.86 42.72 47.85 32.49 47.91 22.25 C 52.93 22.24 57.95 22.26 62.97 22.24 C 63.04 38.59 62.99 54.95 62.99 71.31 C 55.25 71.32 47.51 71.32 39.77 71.30 C 35.42 61.25 31.17 51.15 26.86 41.08 L 26.52 41.25 C 26.62 51.27 26.55 61.29 26.55 71.31 C 21.53 71.33 16.50 71.30 11.48 71.32 C 11.38 54.97 11.45 38.61 11.45 22.26 Z" />
<path fill="#000000" opacity="1.00" d=" M 80.32 22.27 C 87.89 22.22 95.47 22.25 103.04 22.26 C 107.90 38.59 112.67 54.95 117.47 71.30 C 112.42 71.31 107.37 71.34 102.33 71.29 C 101.47 68.66 100.92 65.92 99.89 63.37 C 94.39 63.40 88.89 63.35 83.38 63.39 C 82.57 66.02 81.86 68.67 81.04 71.30 C 76.00 71.33 70.96 71.32 65.92 71.30 C 70.70 54.95 75.51 38.61 80.32 22.27 M 91.60 35.09 C 90.15 40.72 88.35 46.26 86.77 51.87 C 90.05 51.87 93.34 51.90 96.62 51.85 C 94.93 46.27 93.44 40.62 91.60 35.09 Z" />
<path fill="#000000" opacity="1.00" d=" M 118.03 22.24 C 123.06 22.26 128.08 22.23 133.11 22.25 C 133.22 33.44 132.97 44.64 133.24 55.83 C 133.24 58.45 135.20 60.80 137.87 60.96 C 140.65 60.99 143.68 61.54 146.27 60.25 C 148.53 59.11 148.75 56.31 148.79 54.07 C 148.90 43.47 148.68 32.84 148.90 22.25 C 153.91 22.25 158.92 22.23 163.93 22.26 C 163.87 34.17 164.13 46.09 163.75 58.00 C 163.70 63.26 160.66 68.34 155.99 70.78 C 150.36 73.32 144.02 72.37 138.03 72.57 C 132.52 72.63 126.04 72.43 122.19 67.85 C 119.02 64.81 118.08 60.29 118.08 56.05 C 117.93 44.78 118.00 33.51 118.03 22.24 Z" />
<path fill="#000000" opacity="1.00" d=" M 169.25 32.20 C 171.45 26.66 176.93 22.69 182.88 22.24 C 189.87 21.77 196.96 21.55 203.92 22.50 C 211.54 23.69 217.43 31.02 216.92 38.74 C 211.77 38.77 206.62 38.74 201.47 38.76 C 200.83 35.74 198.03 33.55 194.95 33.63 C 191.76 33.70 188.07 33.04 185.48 35.40 C 182.55 38.52 183.66 43.14 183.44 47.00 C 183.65 50.69 182.69 54.87 185.01 58.08 C 187.70 61.20 192.29 60.41 195.96 60.31 C 199.41 59.99 201.76 56.76 201.73 53.42 C 198.21 53.33 194.69 53.39 191.17 53.39 C 191.06 49.85 191.14 46.30 191.13 42.76 C 199.75 42.74 208.37 42.74 216.99 42.76 C 216.92 47.88 217.22 53.03 216.73 58.15 C 216.16 65.12 209.97 70.85 203.15 71.65 C 196.41 72.36 189.59 72.25 182.84 71.76 C 176.90 71.31 171.45 67.34 169.24 61.82 C 167.72 57.03 168.24 51.93 168.12 46.99 C 168.25 42.06 167.72 36.97 169.25 32.20 Z" />
<path fill="#000000" opacity="1.00" d=" M 251.39 22.70 C 256.34 22.69 261.29 22.66 266.24 22.71 C 266.25 38.74 266.26 54.77 266.24 70.80 C 261.29 70.82 256.33 70.83 251.38 70.80 C 251.35 65.21 251.39 59.61 251.37 54.01 C 246.25 53.99 241.13 54.00 236.01 54.01 C 235.98 59.61 236.03 65.21 235.99 70.81 C 231.06 70.81 226.13 70.83 221.20 70.81 C 221.17 54.77 221.19 38.74 221.19 22.70 C 226.12 22.67 231.05 22.69 235.99 22.69 C 236.04 29.36 235.94 36.03 236.04 42.70 C 241.15 42.59 246.30 42.85 251.40 42.57 C 251.34 35.95 251.37 29.32 251.39 22.70 Z" />
<path fill="#000000" opacity="1.00" d=" M 270.35 33.95 C 270.44 30.19 270.26 26.42 270.44 22.67 C 283.96 22.71 297.47 22.66 310.99 22.69 C 311.01 26.46 311.00 30.23 310.99 33.99 C 306.70 34.02 302.42 33.98 298.13 34.01 C 298.11 46.30 298.14 58.58 298.11 70.87 C 293.16 70.89 288.21 70.89 283.26 70.87 C 283.23 58.58 283.27 46.30 283.24 34.01 C 278.94 33.95 274.64 34.08 270.35 33.95 Z" />
<path fill="#000000" opacity="1.00" d=" M 314.42 22.69 C 319.36 22.68 324.31 22.68 329.26 22.69 C 332.03 28.14 334.85 33.56 337.50 39.07 C 340.79 33.90 343.07 28.04 346.12 22.69 C 351.05 22.68 355.99 22.68 360.93 22.69 C 360.25 24.06 359.55 25.40 358.87 26.76 C 356.54 25.77 353.92 24.49 351.36 25.38 C 349.56 25.99 348.86 28.19 349.33 29.90 C 349.94 32.54 352.11 34.41 354.33 35.76 C 351.24 41.85 348.16 47.93 345.09 54.02 C 345.00 56.06 345.11 58.11 345.05 60.15 C 342.35 61.30 341.77 64.95 344.24 66.71 C 345.75 67.55 344.83 69.50 345.05 70.87 C 340.12 70.88 335.19 70.89 330.26 70.87 C 330.22 65.25 330.28 59.63 330.23 54.02 C 324.99 43.56 319.66 33.15 314.42 22.69 Z" />
<path fill="#000000" opacity="1.00" d=" M 450.86 33.25 C 455.81 33.45 460.96 32.80 465.78 34.23 C 470.66 36.34 469.72 42.62 469.94 46.94 C 469.73 51.30 470.66 57.66 465.76 59.79 C 460.98 61.20 455.87 60.57 450.95 60.75 C 450.66 51.64 450.84 42.40 450.86 33.25 Z" />
<path fill="#000000" opacity="1.00" d=" M 508.04 34.03 C 512.22 33.60 517.88 32.41 520.90 36.17 C 523.14 40.76 521.83 46.10 522.18 51.02 C 522.49 54.72 521.44 59.68 517.02 60.22 C 513.23 60.41 508.67 61.26 505.57 58.52 C 502.73 54.60 504.17 49.44 503.81 44.96 C 503.73 41.08 503.39 35.41 508.04 34.03 Z" />
</g>
</svg>
