<?xml version="1.0" encoding="UTF-8" standalone="no"?>
<svg xmlns="http://www.w3.org/2000/svg" xml:space="preserve" width="1000" height="359.41" viewBox="-237.795 6.319 1000 359.41">
  <path d="m-42.3727 44.5971 3.182-3.186v-16.246l-3.182-3.17v22.602zm-.0455 251.5513v53.912l3.178-3.178v-53.922l-3.178 3.188zm48.023 5.901 8.895-8.898V78.9124l-8.895-8.898v232.035zM23.5096 87.9263v196.21l12.081-12.076v-172.057l-12.081-12.077zm19.6175 19.606v156.984l15.882-15.883v-125.219l-15.882-15.882zm22.2176 22.2139v112.573l20.319-20.342v-71.899l-20.319-20.332zm25.462 87.0974 30.811-30.816-30.811-30.807v61.623zM-130.6801 78.913v214.23l8.899 8.906V70.014l-8.899 8.899zm-21.0822 21.0827v172.073l12.069 12.068V87.9187l-12.069 12.077zm-23.4272 23.4272v125.21l15.882 15.891v-156.983l-15.882 15.882zm-26.6515 26.6465v71.908l20.328 20.342v-112.574l-20.328 20.324zm-35.9537 35.959 30.812 30.816v-61.624l-30.812 30.808zM-111.4701 59.703v53.954l6.352-6.348V53.355l-6.352 6.348zm0 252.6407 6.352 6.365v-179.709l-6.352-6.356v179.7zm17.5366-270.1731v53.937l4.449-4.449v-53.938l-4.449 4.45zm0 287.7317 4.449 4.424v-179.701l-4.449-4.449v179.726zm16.9933-304.7375v53.954l3.182-3.194v-53.938l-3.182 3.178zm.0871 305.4975v16.221l3.149 3.178v-22.568l-3.149 3.169zm17.496-17.5758v51.387l1.267 1.256 1.271-1.256v-53.92l-2.538 2.533zm1.2667-306.7679-1.271 1.279v53.93l2.546-2.534V7.5976l-1.275-1.279zm31.3978 211.1019 4.462 4.441V42.1705l-4.462-4.45v179.7zm0 63.0015v53.912l4.462-4.432v-53.93l-4.462 4.45zm15.6346-47.3752 6.36 6.357v-179.7l-6.36-6.348v179.691zm0 31.7408v53.922l6.36-6.365v-53.896l-6.36 6.339zM-42.3361 44.5719v157.139l3.182 3.17V41.3939l-3.182 3.178zm-14.7093 14.7107v127.712l5.716 5.721V53.5696l-5.716 5.713zm-16.5757 16.5753v94.568l8.886 8.891V66.9759l-8.886 8.882zm-20.308 20.3066v53.946l14.128 14.132v-82.21l-14.128 14.132zm-26.9727 26.9777 22.379 22.387v-44.766l-22.379 22.379z"/>
  <path d="m-76.8749 330.6775 3.162-3.17v-157.173l-3.162-3.152v163.495zm12.1552-12.1599 5.725-5.721v-127.743l-5.725-5.704v139.168zm13.3981-13.3888 8.899-8.906v-94.602l-8.899-8.875v112.383zm29.0737-29.0737v-54.26l-14-13.982v82.234l14-13.992zm27.1173-27.1327-22.392-22.389v44.783l22.392-22.394zm224.363-173.6003c-2.167-.784-4.383-1.379-6.645-1.767-2.25-.389-4.47-.595-6.637-.595-1.375 0-2.745.148-4.12.43-1.374.28-2.559.718-3.562 1.296-1.003.594-1.816 1.403-2.439 2.443-.636 1.031-.941 2.245-.941 3.656 0 1.173.21 2.205.635 3.104.43.899 1.127 1.75 2.113 2.559.958.81 2.229 1.602 3.76 2.395 1.543.784 3.421 1.626 5.663 2.525 2.629 1.007 5.019 2.072 7.153 3.228 2.146 1.147 3.975 2.436 5.493 3.855 1.523 1.437 2.663 3.063 3.434 4.912.772 1.857 1.164 4.012 1.164 6.479 0 2.905-.59 5.448-1.767 7.636-1.16 2.18-2.786 3.971-4.85 5.383-2.06 1.395-4.383 2.427-6.984 3.104-2.6.668-5.271.998-8.02.998-2.745 0-5.745-.264-9.002-.792-3.265-.536-6.381-1.387-9.353-2.567l2.063-8.139c2.79 1.229 5.609 2.129 8.441 2.69 2.844.554 5.398.834 7.673.834 3.653 0 6.55-.718 8.664-2.13 2.121-1.444 3.178-3.558 3.178-6.356 0-1.287-.285-2.435-.854-3.483-.582-1.04-1.416-1.98-2.526-2.855-1.131-.867-2.526-1.709-4.214-2.51-1.68-.817-3.616-1.651-5.783-2.485-2.567-1.007-4.85-2.08-6.822-3.235-1.978-1.14-3.645-2.419-5.019-3.814-1.375-1.395-2.423-2.971-3.162-4.705-.747-1.741-1.119-3.673-1.119-5.795 0-2.79.603-5.267 1.795-7.396 1.193-2.129 2.79-3.871 4.755-5.241 1.985-1.379 4.173-2.378 6.616-3.021 2.418-.644 4.953-.974 7.586-.974 2.852 0 5.609.197 8.271.594 2.662.389 5.114.982 7.334 1.758l-1.972 7.981zm47.5191 28.3875c0-2.303-.243-4.408-.718-6.34-.487-1.939-1.238-3.599-2.233-5.002-1.002-1.403-2.27-2.493-3.822-3.277-1.555-.792-3.38-1.18-5.493-1.18-2.113 0-3.941.388-5.485 1.18-1.543.784-2.811 1.891-3.813 3.318-1.003 1.429-1.746 3.096-2.229 5.003-.487 1.898-.73 3.995-.73 6.298 0 4.756 1.003 8.586 3.042 11.491 2.031 2.931 5.105 4.408 9.216 4.458 4.181-.05 7.269-1.52 9.274-4.4 1.989-2.889 2.991-6.736 2.991-11.549m9.783 0c0 3.641-.516 6.877-1.54 9.741-1.035 2.848-2.505 5.292-4.428 7.298-1.903 2.021-4.227 3.565-6.943 4.622-2.715 1.065-5.758 1.593-9.138 1.593-3.372 0-6.414-.527-9.13-1.593-2.716-1.057-5.031-2.601-6.955-4.622-1.903-2.006-3.38-4.45-4.417-7.298-1.023-2.864-1.543-6.101-1.543-9.741 0-3.582.52-6.818 1.543-9.699 1.036-2.889 2.514-5.308 4.417-7.264 1.923-1.965 4.239-3.476 6.955-4.541 2.716-1.057 5.758-1.602 9.13-1.602 3.38 0 6.423.521 9.138 1.561 2.717 1.04 5.04 2.543 6.943 4.532 1.923 1.997 3.393 4.425 4.428 7.313 1.024 2.882 1.54 6.118 1.54 9.7M305.2363 81.62v6.208h.168c1.26-2.286 3.138-4.062 5.664-5.333 2.514-1.254 5.283-1.882 8.316-1.882 5.02 0 9.035 1.453 12.015 4.367 2.968 2.905 4.445 6.826 4.445 11.763v29.214h-9.761v-25.614c0-1.898-.148-3.633-.434-5.201-.297-1.568-.813-2.881-1.553-3.945-.742-1.073-1.725-1.883-2.918-2.443-1.205-.554-2.748-.834-4.627-.834-1.374 0-2.729.248-4.036.76-1.313.495-2.485 1.279-3.509 2.344-1.023 1.065-1.869 2.452-2.538 4.16-.644 1.701-.982 3.798-.982 6.25v24.523h-9.773V81.62h9.523zm59.3512 32.6646h.17l12.089-32.665h10.302l-24.619 60.715h-10.295l7.281-17.294-17.752-43.421h10.652l12.172 32.665zM197.592 154.462h10.038v59.962h-10.038v-59.962zm32.3307 15.6169v6.217h.169c1.259-2.295 3.149-4.07 5.663-5.342 2.518-1.254 5.283-1.873 8.329-1.873 5.027 0 9.022 1.444 12.003 4.35 2.967 2.914 4.458 6.836 4.458 11.771v29.222h-9.774v-25.623c0-1.898-.148-3.631-.434-5.208-.293-1.561-.792-2.873-1.543-3.938-.747-1.064-1.721-1.882-2.914-2.443-1.193-.545-2.749-.834-4.639-.834-1.362 0-2.716.256-4.024.752-1.313.503-2.484 1.287-3.521 2.352-1.036 1.074-1.87 2.452-2.526 4.169-.652 1.7-.991 3.79-.991 6.241v24.533h-9.774v-44.345h9.518zm38.0013 0h7.545v-11.507h9.781v11.507h9.943v7.307h-9.943v23.179c0 1.52.066 2.732.17 3.656.115.916.371 1.635.764 2.131.408.512.949.85 1.635 1.016.689.156 1.63.246 2.822.246.867 0 1.66-.023 2.365-.09.711-.041 1.416-.133 2.093-.24v7.141c-.97.107-2.113.215-3.421.33-1.321.115-2.634.166-3.942.166-2.634 0-4.747-.281-6.353-.834-1.593-.561-2.852-1.395-3.738-2.477-.875-1.09-1.457-2.402-1.755-3.945-.284-1.535-.421-3.318-.421-5.334v-24.945h-7.545v-7.307zm54.7994 5.8778c-3.421 0-6.19 1.098-8.271 3.318-2.085 2.204-3.339 5.11-3.731 8.692h22.557v-.164c.054-3.583-.875-6.456-2.785-8.61-1.917-2.155-4.492-3.236-7.77-3.236m-12.003 19.061c.339 4.209 1.912 7.438 4.723 9.707 2.789 2.279 6.393 3.393 10.809 3.393 1.883 0 3.835-.156 5.874-.453 2.019-.307 3.9-.768 5.613-1.396l1.28 7.15c-3.942 1.336-8.486 2.006-13.643 2.006-3.879 0-7.346-.563-10.367-1.727-3.029-1.139-5.576-2.723-7.628-4.787-2.06-2.039-3.624-4.467-4.673-7.289-1.064-2.832-1.592-5.928-1.592-9.287s.507-6.463 1.498-9.32c.994-2.864 2.443-5.324 4.334-7.396 1.89-2.071 4.152-3.673 6.814-4.828 2.653-1.14 5.642-1.709 8.96-1.709 3.277 0 6.108.504 8.548 1.552 2.419 1.032 4.457 2.484 6.129 4.366 1.647 1.866 2.895 4.161 3.719 6.885.826 2.708 1.247 5.72 1.247 9.023v4.111h-31.645zm65.0117-18.3103c-.982-.223-2.208-.338-3.698-.338-1.313-.05-2.683.189-4.11.718-1.429.528-2.621 1.354-3.604 2.477-.975 1.123-1.742 2.634-2.316 4.54-.557 1.907-.854 4.111-.854 6.628v23.691h-9.773v-44.353h9.521v5.886h.165c2.063-4.59 6.005-6.885 11.837-6.885.455 0 .971.017 1.54.042.573.033 1.131.074 1.713.123l-.421 7.471zm29.4162 16.2204c-2.282 0-4.498.1-6.604.34-2.121.215-3.971.652-5.576 1.295-1.605.645-2.877 1.512-3.818 2.602-.949 1.09-1.402 2.5-1.402 4.234 0 2.121.61 3.83 1.881 5.084 1.247 1.256 3.137 1.891 5.65 1.891 2.011 0 3.766-.33 5.275-1.006 1.511-.678 2.758-1.568 3.698-2.684s1.639-2.395 2.101-3.822c.455-1.428.689-2.93.689-4.49v-3.443h-1.894zm1.895-7.396c0-2.963-.858-5.232-2.571-6.81-1.729-1.561-4.392-2.345-7.986-2.345-1.606 0-3.442.215-5.535.628-2.085.421-4.091 1.023-6.046 1.808l-1.974-7.133c1.552-.627 3.719-1.205 6.53-1.766 2.789-.562 5.357-.834 7.713-.834 6.465 0 11.348 1.379 14.666 4.152 3.306 2.765 4.965 6.876 4.965 12.299v18.814c0 1.568.063 3.268.182 5.125.115 1.842.305 3.484.598 4.953h-8.662c-.232-.775-.434-1.732-.591-2.855-.182-1.123-.326-2.18-.434-3.195h-.182c-1.131 2.072-2.872 3.764-5.217 5.086-2.369 1.32-5.188 1.965-8.507 1.965-1.936 0-3.847-.232-5.704-.711-1.861-.479-3.528-1.254-5.011-2.352-1.49-1.09-2.684-2.502-3.604-4.244-.908-1.732-1.374-3.822-1.374-6.299 0-3.186.771-5.785 2.327-7.809 1.54-2.014 3.633-3.566 6.295-4.656 2.654-1.09 5.709-1.84 9.13-2.229 3.435-.387 7.099-.586 10.991-.586v-1.006zm50.6815-7.5605c-1.247-.562-2.602-.966-4.029-1.214-1.436-.256-2.79-.388-4.037-.388-2.331 0-4.416.429-6.224 1.263-1.782.842-3.294 1.973-4.491 3.409-1.2 1.428-2.112 3.121-2.744 5.077-.635 1.963-.941 4.02-.941 6.208s.307 4.242.941 6.141c.632 1.898 1.544 3.584 2.744 5.045 1.197 1.453 2.741 2.584 4.632 3.4 1.878.801 3.971 1.213 6.253 1.213 1.437 0 2.811-.115 4.131-.338 1.313-.223 2.663-.645 4.029-1.254l1.635 7.215c-1.722.609-3.435 1.047-5.156 1.295-1.721.256-3.467.381-5.241.381-3.888 0-7.322-.586-10.323-1.76-3-1.172-5.493-2.807-7.457-4.869-1.979-2.064-3.455-4.508-4.471-7.307-1.003-2.797-1.502-5.852-1.502-9.162 0-3.41.54-6.53 1.63-9.353 1.098-2.831 2.649-5.267 4.681-7.306 2.026-2.056 4.512-3.657 7.417-4.829 2.913-1.188 6.224-1.767 9.951-1.767 4.049 0 7.545.537 10.472 1.594l-1.9 7.306zm6.9413-7.8924h7.545v-11.507h9.795v11.507h9.935v7.307h-9.935v23.179c0 1.52.045 2.732.16 3.656.116.916.368 1.635.781 2.131.4.512.928.85 1.625 1.016.678.156 1.631.246 2.824.246.854 0 1.646-.023 2.365-.09.709-.041 1.415-.133 2.092-.24v7.141c-.961.107-2.113.215-3.422.33-1.32.115-2.633.166-3.941.166-2.633 0-4.746-.281-6.36-.834-1.597-.561-2.844-1.395-3.731-2.477-.887-1.09-1.469-2.402-1.754-3.945-.285-1.535-.434-3.318-.434-5.334v-24.945h-7.545v-7.307zm46.0589 44.3451h-9.782v-44.345h9.782v44.345zm.181-52.41h-10.038v-8.907h10.038v8.907zm29.4981 43.9338h.182l11.99-35.869h10.389l-16.992 44.345h-11.4l-16.818-44.345h10.641l12.008 35.869zm46.8266-29.9911c-3.422 0-6.179 1.098-8.271 3.318-2.092 2.204-3.339 5.11-3.739 8.692h22.557v-.164c.062-3.583-.866-6.456-2.79-8.61-1.904-2.155-4.492-3.236-7.757-3.236m-12.011 19.061c.347 4.209 1.919 7.438 4.722 9.707 2.811 2.279 6.402 3.393 10.811 3.393 1.89 0 3.834-.156 5.873-.453 2.03-.307 3.9-.768 5.609-1.396l1.291 7.15c-3.941 1.336-8.494 2.006-13.633 2.006-3.888 0-7.342-.563-10.385-1.727-3.033-1.139-5.567-2.723-7.627-4.787-2.051-2.039-3.615-4.467-4.686-7.289-1.043-2.832-1.572-5.928-1.572-9.287s.496-6.463 1.503-9.32c.991-2.864 2.438-5.324 4.321-7.396 1.891-2.071 4.16-3.673 6.814-4.828 2.67-1.14 5.662-1.709 8.969-1.709 3.266 0 6.109.504 8.539 1.552 2.42 1.032 4.459 2.484 6.13 4.366 1.655 1.866 2.894 4.161 3.728 6.885.834 2.708 1.246 5.72 1.246 9.023v4.111h-31.653zm-377.6234 47.8951h35.24v7.99h-25.202v17.211h23.237v8.066h-23.237v18.721h25.982v7.992h-36.02v-59.98zm56.0836 15.6265v6.223h.178c1.247-2.303 3.141-4.076 5.655-5.34 2.513-1.264 5.283-1.891 8.316-1.891 5.027 0 9.031 1.461 12.012 4.359 2.972 2.922 4.461 6.834 4.461 11.762v29.23h-9.773v-25.613c0-1.9-.148-3.641-.425-5.219-.293-1.551-.813-2.871-1.552-3.945-.738-1.057-1.713-1.873-2.906-2.426-1.217-.563-2.757-.834-4.639-.834-1.375 0-2.716.238-4.037.75-1.308.504-2.48 1.289-3.508 2.346-1.036 1.064-1.878 2.451-2.534 4.16-.656 1.699-.995 3.805-.995 6.266v24.516h-9.761v-44.344h9.508zm37.9982 0h7.545v-11.508h9.794v11.508h9.931v7.297h-9.931v23.188c0 1.512.041 2.732.157 3.641.115.934.371 1.65.783 2.154.389.486.93.85 1.627 1.008.677.164 1.626.256 2.822.256.855 0 1.647-.025 2.354-.092.709-.057 1.416-.148 2.105-.248v7.141c-.975.117-2.113.223-3.435.34-1.313.107-2.621.164-3.942.164-2.621 0-4.742-.281-6.352-.842-1.594-.561-2.832-1.387-3.719-2.484-.888-1.098-1.478-2.41-1.763-3.938-.297-1.543-.433-3.326-.433-5.324v-24.963h-7.545v-7.298zm54.7984 5.8773c-3.421 0-6.178 1.113-8.263 3.311-2.093 2.203-3.339 5.109-3.739 8.709h22.561v-.174c.063-3.592-.867-6.455-2.79-8.609-1.904-2.155-4.503-3.237-7.769-3.237m-12.002 19.076c.347 4.186 1.924 7.43 4.722 9.699 2.803 2.264 6.394 3.377 10.802 3.377 1.898 0 3.842-.148 5.885-.453 2.027-.307 3.896-.76 5.609-1.379l1.288 7.148c-3.941 1.346-8.494 1.998-13.642 1.998-3.887 0-7.342-.563-10.375-1.709-3.03-1.156-5.568-2.75-7.629-4.797-2.051-2.039-3.611-4.482-4.668-7.305-1.068-2.832-1.597-5.928-1.597-9.262 0-3.377.495-6.488 1.511-9.346.994-2.855 2.439-5.316 4.321-7.387 1.89-2.072 4.165-3.674 6.814-4.83 2.662-1.139 5.654-1.709 8.96-1.709 3.266 0 6.117.504 8.549 1.545 2.418 1.047 4.461 2.492 6.129 4.375 1.659 1.865 2.893 4.168 3.73 6.875.822 2.717 1.234 5.738 1.234 9.039v4.119h-31.643zm65.0117-18.3262c-.975-.213-2.201-.32-3.69-.32-1.321-.066-2.69.182-4.106.693-1.441.545-2.634 1.361-3.604 2.484-.975 1.123-1.746 2.641-2.315 4.531-.582 1.908-.866 4.119-.866 6.637v23.691h-9.783v-44.344h9.531v5.885h.168c2.068-4.598 6.01-6.893 11.834-6.893.454 0 .971.008 1.544.041.577.025 1.14.066 1.708.133l-.421 7.462zm4.2094-6.6271h7.545v-11.508h9.774v11.508h9.951v7.297h-9.951v23.188c0 1.512.062 2.732.169 3.641.115.934.38 1.65.78 2.154.392.486.929.85 1.626 1.008.678.164 1.631.256 2.823.256.854 0 1.659-.025 2.365-.092.71-.057 1.415-.148 2.104-.248v7.141c-.974.117-2.113.223-3.445.34-1.309.107-2.621.164-3.942.164-2.621 0-4.743-.281-6.349-.842-1.597-.561-2.83-1.387-3.719-2.484-.887-1.098-1.48-2.41-1.754-3.938-.285-1.543-.434-3.326-.434-5.324v-24.963h-7.545v-7.298zm59.9509 22.8399c-2.295 0-4.49.117-6.604.34s-3.982.66-5.58 1.303c-1.605.652-2.873 1.52-3.822 2.602-.941 1.098-1.408 2.51-1.408 4.242 0 2.121.624 3.814 1.883 5.076 1.255 1.256 3.137 1.891 5.663 1.891 2.006 0 3.76-.33 5.271-1.006 1.523-.678 2.749-1.561 3.698-2.684.94-1.123 1.639-2.385 2.093-3.822.453-1.428.689-2.922.689-4.49v-3.451h-1.883zm1.883-7.397c0-2.955-.859-5.217-2.568-6.801-1.725-1.553-4.375-2.336-7.969-2.336-1.605 0-3.455.197-5.548.609-2.093.43-4.099 1.041-6.042 1.816l-1.978-7.141c1.544-.609 3.719-1.205 6.521-1.766 2.791-.545 5.379-.834 7.723-.834 6.455 0 11.352 1.387 14.666 4.152 3.31 2.773 4.977 6.867 4.977 12.299v18.814c0 1.559.041 3.285.162 5.117.115 1.85.313 3.508.602 4.969h-8.668c-.219-.783-.42-1.732-.59-2.863-.169-1.115-.317-2.172-.421-3.188h-.181c-1.141 2.072-2.886 3.756-5.23 5.094-2.344 1.297-5.168 1.965-8.494 1.965-1.943 0-3.847-.23-5.708-.709-1.849-.463-3.528-1.256-5.007-2.346-1.49-1.113-2.695-2.518-3.604-4.268-.92-1.732-1.374-3.814-1.374-6.289 0-3.18.772-5.779 2.315-7.811 1.539-2.006 3.633-3.557 6.295-4.656 2.666-1.08 5.707-1.832 9.15-2.219 3.426-.396 7.09-.596 10.971-.596v-1.012zM497.17 302.883h-9.773v-44.344h9.773v44.344zm.178-52.4h-10.025v-8.916h10.025v8.916zm22.4729 8.0563v6.223h.169c1.26-2.303 3.137-4.076 5.663-5.34 2.514-1.264 5.296-1.891 8.325-1.891 5.02 0 9.026 1.461 11.994 4.359 2.98 2.922 4.457 6.834 4.457 11.762v29.23h-9.761v-25.613c0-1.9-.148-3.641-.425-5.219-.293-1.551-.813-2.871-1.553-3.945-.738-1.057-1.713-1.873-2.914-2.426-1.205-.563-2.748-.834-4.631-.834-1.369 0-2.736.238-4.045.75-1.313.504-2.484 1.289-3.508 2.346-1.023 1.064-1.869 2.451-2.534 4.16-.647 1.699-.986 3.805-.986 6.266v24.516h-9.762v-44.344h9.511zm51.1189 0v6.381h.17c1.139-2.346 2.946-4.16 5.398-5.457 2.464-1.287 5.105-1.932 7.891-1.932 6.691 0 11.148 2.41 13.378 7.23h.256c1.605-2.582 3.645-4.439 6.138-5.588 2.492-1.146 5.168-1.709 8.02-1.643 2.748 0 5.159.396 7.207 1.189 2.059.775 3.751 1.865 5.092 3.301 1.354 1.438 2.357 3.129 3.002 5.086.664 1.955.994 4.127.994 6.545v29.23h-9.773v-25.613c0-2.238-.107-4.037-.339-5.375-.231-1.354-.677-2.584-1.333-3.697-.652-1.123-1.572-1.965-2.736-2.518-1.181-.563-2.643-.834-4.416-.834-1.205 0-2.411.197-3.604.609-1.214.422-2.271 1.082-3.178 1.949-.922.867-1.66 2.006-2.234 3.434-.577 1.438-.861 3.096-.861 5.02v27.027h-9.774v-26.117c0-1.842-.12-3.518-.339-5.012-.234-1.477-.668-2.732-1.279-3.771-.635-1.033-1.543-1.816-2.703-2.346-1.176-.527-2.654-.791-4.42-.791-1.33 0-2.609.238-3.868.75-1.255.504-2.345 1.246-3.265 2.221-.916.982-1.668 2.303-2.27 3.938-.591 1.66-.9 3.707-.9 6.102v25.026h-9.762v-44.344h9.508zm87.8315 5.8773c-3.446 0-6.203 1.113-8.283 3.311-2.094 2.203-3.34 5.109-3.732 8.709h22.561v-.174c.055-3.592-.879-6.455-2.789-8.609-1.913-2.155-4.505-3.237-7.757-3.237m-12.015 19.076c.34 4.186 1.916 7.43 4.715 9.699 2.798 2.264 6.414 3.377 10.817 3.377 1.882 0 3.839-.148 5.878-.453 2.018-.307 3.896-.76 5.609-1.379l1.279 7.148c-3.941 1.346-8.486 1.998-13.629 1.998-3.881 0-7.355-.563-10.389-1.709-3.034-1.156-5.568-2.75-7.619-4.797-2.068-2.039-3.625-4.482-4.682-7.305-1.057-2.832-1.584-5.928-1.584-9.262 0-3.377.499-6.488 1.502-9.346.99-2.855 2.439-5.316 4.33-7.387 1.882-2.072 4.152-3.674 6.818-4.83 2.65-1.139 5.629-1.709 8.969-1.709 3.252 0 6.096.504 8.527 1.545 2.432 1.047 4.471 2.492 6.137 4.375 1.652 1.865 2.898 4.168 3.72 6.875.825 2.717 1.237 5.738 1.237 9.039v4.119h-31.635zm50.1733-24.9533v6.223h.178c1.25-2.303 3.129-4.076 5.654-5.34 2.514-1.264 5.295-1.891 8.325-1.891 5.019 0 9.026 1.461 12.003 4.359 2.971 2.922 4.449 6.834 4.449 11.762v29.23h-9.762v-25.613c0-1.9-.148-3.641-.426-5.219-.293-1.551-.813-2.871-1.551-3.945-.739-1.057-1.713-1.873-2.914-2.426-1.205-.563-2.74-.834-4.631-.834-1.383 0-2.736.238-4.045.75-1.313.504-2.485 1.289-3.509 2.346-1.023 1.064-1.87 2.451-2.538 4.16-.645 1.699-.982 3.805-.982 6.266v24.516h-9.762v-44.344h9.511zm38.0017 0h7.545v-11.508h9.773v11.508h9.955v7.297h-9.955v23.188c0 1.512.053 2.732.169 3.641.116.934.372 1.65.772 2.154.4.486.94.85 1.639 1.008.676.164 1.617.256 2.818.256.858 0 1.659-.025 2.369-.092.705-.057 1.416-.148 2.102-.248v7.141c-.971.117-2.113.223-3.443.34-1.313.107-2.621.164-3.941.164-2.633 0-4.746-.281-6.352-.842-1.594-.561-2.832-1.387-3.719-2.484-.889-1.098-1.479-2.41-1.755-3.938-.293-1.543-.433-3.326-.433-5.324v-24.963h-7.545v-7.298z"/>
</svg>