<svg xmlns="http://www.w3.org/2000/svg" viewBox="0 0 166.34 166.34"><g id="Layer_2" data-name="Layer 2"><g id="Layer_2-2" data-name="Layer 2"><path d="M165.34,83.17A82.17,82.17,0,0,0,83.17,1h0a82.17,82.17,0,0,0,0,164.34h0A82.17,82.17,0,0,0,165.34,83.17ZM38.94,81.28,30.45,61.05l20.28-8ZM38.22,83l-8.58,20.59L3.25,83.16,29.4,62Zm1,1,13.92,29.36L30.6,104.73Zm15.69,30-15-31.64L52.45,52.33,83.17,40.15l30.72,12.18L126.43,82.4l-15,31.64,0,.06L83.17,125,54.93,114.1Zm49.71-83.95,8.56,20.53L84.7,39.33ZM83.17,38.57,62.42,29,83.17,2.73,103.92,29ZM61.72,30.09l19.93,9.24L53.16,50.62Zm74,74.64-22.54,8.68,13.91-29.36Zm1-1.14L128.12,83l8.82-21,26.15,21.19Zm-9.3-22.31L115.61,53l20.27,8Zm-22.83,53.88-19.9-9.34,26.21-10.1Zm-22.9-9.34-19.9,9.34-6.31-19.44Zm1.5.76,20.76,9.75L83.17,163.12,62.41,136.33Zm29.31-11.47L136.05,106l3.68,33.5-33.88-4Zm51.52-31a80.28,80.28,0,0,1-6.11,29.92l-19.83-9.84ZM137.74,60.92l20.62-7.5A80.61,80.61,0,0,1,164,82.18Zm-1.63-1.21L114.9,51.3l-9-21.53,33.17-3.48ZM106,28.42l8-20a81,81,0,0,1,25.29,16.54Zm-1.22-.53L84.56,2.35A80.36,80.36,0,0,1,112.72,7.9Zm-43.2,0-8-20A80.36,80.36,0,0,1,81.78,2.35Zm-1.22.53L27.1,24.94A80.9,80.9,0,0,1,52.39,8.4Zm.07,1.34-9,21.54L30.23,59.71l-3-33.42ZM2.34,82.19A80.62,80.62,0,0,1,8,53.42l20.62,7.5Zm25.94,22L8.44,114.06a80.47,80.47,0,0,1-6.1-29.92Zm2,1.81,23.57,9.08,6.63,20.41-33.88,4Zm29.94,30.86L50.22,157a80.82,80.82,0,0,1-23.66-16.14Zm1.27.44L82.17,164a80.63,80.63,0,0,1-30.73-6.45Zm43.34,0,10.06,20.22A80.45,80.45,0,0,1,84.16,164Zm1.27-.44,33.67,4A80.82,80.82,0,0,1,116.12,157Zm31.19-31.56,20.07,10a80.88,80.88,0,0,1-16.3,24.29Zm20.56-53.14-20.41,7.42,3-33.5A80.88,80.88,0,0,1,157.86,52.19ZM25.9,26.11l3,33.5L8.48,52.19A81,81,0,0,1,25.9,26.11ZM9,115.29l20.07-10-3.76,34.25A80.91,80.91,0,0,1,9,115.29Z"/><path d="M83.17,166.34a83.17,83.17,0,1,1,83.17-83.17h0A83.26,83.26,0,0,1,83.17,166.34Zm0-2h.1a1.74,1.74,0,0,1,0-.22h0A1.74,1.74,0,0,1,83.12,164.34Zm21.54-25.14L86.25,163A79.36,79.36,0,0,0,113.53,157ZM52.81,157A79.36,79.36,0,0,0,80.09,163L61.68,139.2ZM64,136.71l19.21,24.77,19.21-24.77-19.21-9Zm43.87,1.39,8.75,17.6a79.69,79.69,0,0,0,21-14.08Zm-79,3.52a79.53,79.53,0,0,0,21,14.08l8.75-17.6Zm78.39-7,31.43,3.72-3.41-31-21.91,8.44Zm-76-27.24-3.41,31,31.42-3.72-6.1-18.8ZM138.5,107l3.33,30.29a79.39,79.39,0,0,0,14.24-21.57ZM10.26,115.76a79.74,79.74,0,0,0,14.25,21.57L27.84,107Zm50.81,20.58,0,.06a1.37,1.37,0,0,1,.29-.07h0a.9.9,0,0,1,0-.23l0,0-.05,0A1.16,1.16,0,0,1,61.07,136.34Zm43.86,0h0a1.37,1.37,0,0,1,.29.07l0-.06a1,1,0,0,1-.26-.28l-.05,0,0,0A1.79,1.79,0,0,1,104.93,136.33ZM87.22,125.91,104,133.78l5.31-16.37Zm-30.16-8.5,5.31,16.36,16.75-7.86Zm-1.39-4.1,27.5,10.59,27.5-10.59,14.67-30.93L113.13,53.1l-30-11.88-30,11.88L41,82.38ZM3.39,86.21A79.09,79.09,0,0,0,9,112.69L26.41,104ZM139.93,104l17.44,8.66A79,79,0,0,0,163,86.21ZM127.05,86.51l-11.88,25.07,19.25-7.42ZM31.92,104.16l19.25,7.42L39.28,86.51Zm-27.06-21L29.22,102l7.92-19L29,63.59ZM129.2,83l7.92,19,24.36-18.86L137.34,63.59Zm35,.16.12,0v-.08ZM2,83.13v.06l.12,0ZM8.56,54.69A79.36,79.36,0,0,0,3.39,80l23.2-18.79Zm131.19,6.56L163,80a79.36,79.36,0,0,0-5.17-25.35Zm-22.3-6.44,10,23.88,7.17-17.09ZM31.77,61.6l7.17,17.09,10-23.88Zm105-1.1.07.12a1.08,1.08,0,0,1,.08-.19l0,0h0ZM29.47,60.43a1.08,1.08,0,0,1,.08.19.75.75,0,0,1,.07-.12l-.11-.1h0Zm86.19-9.9,19.57,7.75L138,27.41l-30.62,3.21ZM28.36,27.41l2.75,30.87,19.57-7.75L59,30.62ZM9.81,51.61l18,6.52L25.1,28.37A79.56,79.56,0,0,0,9.81,51.61ZM141.24,28.37l-2.66,29.76,17.95-6.52A79.76,79.76,0,0,0,141.24,28.37Zm-79,3.07L55,48.81l24.11-9.56Zm25,7.81,24.11,9.56L104.1,31.44ZM64,28.58l19.18,8.89,19.18-8.89L83.17,4.34Zm40.92.55.07,0,.11.05a1,1,0,0,1,.12-.15l0,0-.11-.19-.16,0A1.11,1.11,0,0,1,104.91,29.13Zm-43.79-.07a.64.64,0,0,1,.13.15l.11-.05.07,0a1.11,1.11,0,0,1,0-.26l-.16,0-.11.19ZM114.5,9.71l-7,17.55L137,24.17A79.52,79.52,0,0,0,114.5,9.71ZM29.38,24.17l29.43,3.08-7-17.54A79.52,79.52,0,0,0,29.38,24.17ZM86.67,3.41l17.81,22.5,6.93-17.44A79.26,79.26,0,0,0,86.67,3.41ZM54.93,8.47l6.93,17.44L79.67,3.41A79.26,79.26,0,0,0,54.93,8.47Z"/></g></g></svg>