<svg xmlns="http://www.w3.org/2000/svg" viewBox="0 0 171.43 169.17"><g id="Layer_2" data-name="Layer 2"><g id="Layer_2-2" data-name="Layer 2"><path d="M136.13,1H85.78V2.35h48.87L128.18,13H43.24L36.78,2.35H85.65V1H35.3L1,35.75v97.79l36.56,34.63h96.31l36.56-34.63V35.75Zm-9.48,152.52h0l31.27-26v-.15l10.67,6-34.86,33Zm-41.19-1.35H47.06l6.24-11.3h64.82l6.25,11.3Zm-47.8,14.24-34.86-33,10.67-6v.15l31.27,26h0ZM50,26.68l-22.69,24-11.66-7L42.83,14.9Zm69.46.7L112.6,38.65H85.78V40h26.9l18,19V111.3l-19.21,16H59.91l-19.2-16V59.05l18-19H85.65V38.65H58.83L52,27.38h67.46ZM128.6,14.9l27.2,28.74-11.66,7-22.69-24Zm-43,124.62H54.05l6-10.9h51.29l6,10.9ZM14.82,125.07V44.72l11.81,7.11v66.58ZM28,52.64l11.39,6.85v51.74L28,117.65Zm12,59.8,18.85,15.67-6.24,11.31L28.14,119.1Zm72.66,15.67,18.85-15.67,11.82,6.66-24.43,20.32Zm19.45-16.88V59.49l11.38-6.85v65Zm12.73-59.4,11.81-7.11v80.35l-11.81-6.66ZM129.33,13.71l6.64-11,32.7,33.13-11.69,7ZM143,51.36,131.7,58.13l-17.88-18.9,6.9-11.36ZM57.61,39.23,39.72,58.13,28.47,51.36,50.71,27.87Zm-43.16,3.7-11.7-7L35.45,2.76l6.65,11Zm-.95,1,0,0v81.87L2.35,132.1V37.22ZM45.23,152.17,14.82,126.89v-.28l12.06-6.8,25,20.81-6.38,11.55Zm74.29-11.55,25-20.81,12.06,6.8v.28L126.2,152.17h-.29ZM158,125.83V44l0,0,11.15-6.71V132.1ZM85.65,14.34h41.71L120.26,26H51.16l-7.1-11.69ZM39,166.82l7.35-13.3h78.79l7.35,13.3Z"/><path d="M37.56,169.17a1,1,0,0,1-.69-.28L.31,134.27a1,1,0,0,1-.31-.73V35.75a1,1,0,0,1,.29-.7L34.59.3A1,1,0,0,1,35.3,0H136.13a1,1,0,0,1,.71.3l34.3,34.75a1,1,0,0,1,.29.7v97.79a1,1,0,0,1-.32.73l-36.55,34.62a1,1,0,0,1-.69.28Zm3.1-3.35h90.11l-6.25-11.3H46.91ZM4.47,133.6l32.94,31.19,6.08-11L13.26,128.64Zm123.47,20.18,6.08,11L167,133.6l-8.79-5Zm-79.19-2.61h73.92l-5.14-9.3H53.89ZM16.38,126.88,45.14,150.8l5.49-9.94L26.77,121Zm104.42,14,5.49,9.94,28.76-23.92L144.66,121Zm-65.06-2.34h59.94l-4.91-8.9H60.66ZM29.89,119.26l22.39,18.62,5.26-9.53-17.69-14.7Zm84,9.09,5.26,9.52,22.38-18.61-9.95-5.61ZM3.35,39v91.4l9.12-5.15V44.48ZM159,125.24l9.12,5.15V39L159,44.48Zm-98.68,1h50.87l18.57-15.43V59.45L112.25,41H59.17L41.71,59.45v51.39ZM15.82,46.49v76.87l9.81-5.53V52.39Zm130,71.34,9.81,5.53V46.49l-9.81,5.9ZM29,54.4v61.54l9.39-5.3V60.05Zm104.1,56.24,9.38,5.3V54.4l-9.38,5.65Zm-103-59.49,9.5,5.71L56.36,39.1l-5.83-9.59Zm85-12,16.81,17.76,9.49-5.71L120.89,29.51ZM17.21,43.42l9.91,6L48.73,26.54l-6.08-10ZM122.7,26.54l21.61,22.84,9.91-6L128.78,16.54ZM4.36,35.69l9.91,6L40.85,13.57,35.26,4.38ZM130.58,13.57l26.57,28.08,9.92-6L136.16,4.38ZM59.39,37.65H112l5.64-9.27H53.76ZM51.73,25h68l5.89-9.69H45.84ZM43.81,12h83.81l5.25-8.64H38.55Z"/></g></g></svg>