<svg xmlns="http://www.w3.org/2000/svg" viewBox="0 0 161.06 163.57"><g id="Layer_2" data-name="Layer 2"><g id="Layer_2-2" data-name="Layer 2"><path d="M1,1V81.68H1v80.89H160.06V1ZM80.39,161.28H4.23l23.16-9.36,53-3h53.29l23.15,12.36Zm37.9-147.55L80.53,19.09,42.77,15.94H80.39ZM133.9,24.82l-48-4.88L133.24,13Zm5,64.08,8.1,47.52-11.73.89Zm-3.63-62.64,8.73.89-5.1,47.52Zm2.87,55.53L134,137.44l-53.47,5.44-53.47-5.44L22.88,81.79l4.18-55.66L80.53,20.7,134,26.13ZM80.39,147.63h0l-37.63,2,37.76-5.11,37.77,3.15Zm-53.23-8.88,48,4.88-47.35,7Zm106.08,8.83-47.35-4,48-4.88ZM22.12,74.67,14,27.15l11.73-.89Zm-.54,7.12L16.9,125.34l-.17-43.55L14.9,34.23Zm.54,7.12,3.63,48.4L17,136.42Zm53-69-48,4.88L27.82,16ZM25.85,25l-12.2.93L3.87,3.57l22.68,12.1Zm-9.2,112.72,9.2.94.7,12.28L3.87,160ZM134.51,147.9l.7-9.28,12.19-.94L157.19,160Zm12.65-22.56-7.68-43.55,4.68-43.56.17,43.6h0ZM144.4,25.89,135.21,25l-.7-12.29,22.68-9.1Zm12.43-23.6-23.16,9.36-53,3H27.39L4.23,2.29ZM2.29,3.41,12.66,26.75l2.78,55h0v.06h0l.22,55L2.29,160.16V81.68h0ZM158.77,160.16,148.4,136.82l-2.78-55.07h0l-.22-55L158.77,3.41V81.89h0Z"/><path d="M160.06,163.57H1a1,1,0,0,1-1-1V1A1,1,0,0,1,1,0H160.06a1,1,0,0,1,1,1V162.57A1,1,0,0,1,160.06,163.57Zm-2.28-2h1.28v-.45l-.09,0a1,1,0,0,1-1.05-.45l0,.05-.14.11a1,1,0,0,1,.07.67S157.79,161.56,157.78,161.57ZM2,161.57H3.27s0-.06,0-.1a1,1,0,0,1,.08-.62l-.19-.16a1,1,0,0,1-1.1.44H2Zm7.37-1.29H152.83l-19.4-10.36H80.38l-52.77,3Zm7.83-21.54L6.17,158l19.34-7.77-.61-10.71Zm118.36,8.59,19.56,10.44-8.35-19-10.63.82ZM3.29,8.13V156.4l11.37-19.84-.22-54.74L11.67,27Zm146.1,128.46,8.38,18.85V7.17L146.41,27l.21,54.74Zm-107.63,13-6.23.91,6.37-.36a1,1,0,0,1-.13-.42A.57.57,0,0,1,41.76,149.55Zm-13.54-9.69.54,9.57,38.29-5.62Zm91.05,7.56a2,2,0,0,1,0,.25,1.87,1.87,0,0,1,0,.25h6.08Zm-38.72-1.93-13.61,1.84,13.39-.7H94.24Zm16.2-2,35.57,3,.5-6.63Zm-20.6-.09a.88.88,0,0,1,0,.17,1,1,0,0,1-.11.47l2.74-.37Zm6.56.22,2.21.19a.76.76,0,0,1,0-.21,1.23,1.23,0,0,1,0-.2ZM28,136.53l52.54,5.34,52.54-5.34,4.11-54.74L133.07,27,80.53,21.7,28,27,23.88,81.79ZM139.33,97.12l-2.94,39.1,9.49-.72ZM18.12,135.53l6.54.66L21.94,99.91Zm128.12-9.79.86,5-.23-4.48A1,1,0,0,1,146.24,125.74Zm-129.62.56v4.32l.46-4.29a1,1,0,0,1-.24,0A.85.85,0,0,1,16.62,126.3Zm0-72.34,1.07,27.79.1,25.57,2.74-25.51Zm123.83,27.8L145,107.19l-1.64-25.3-.1-25.63Zm-1.55,6.14a1,1,0,0,1,.65.24L139,84.65l-.24,3.28.17,0Zm-116.82,0h0l.21,0-.17-2.24-.24,2.23Zm-.4-12.33.4,2.89.22-2.83-.18,0A1.15,1.15,0,0,1,21.72,75.58Zm117,.06.17,2.27.25-2.26-.21,0A.76.76,0,0,1,138.72,75.64ZM15.19,28.07l6.54,38.38,2.94-39.1Zm121.21-.69,2.72,36.28L142.94,28Zm7.76,9.85h.05a1,1,0,0,1,.24,0l0-4.33L144,37.25ZM14,32.79l0,1a.71.71,0,0,1,.1-.14ZM25.85,25h0ZM6,5.81l8.34,19L24.92,24l.58-7.78ZM136.16,24.05l7.7.78,11-19.26-19.34,7.76ZM94,19.76l38.83,3.95-.54-9.57ZM28.74,17.07l-.5,6.64L64.31,20Zm53.47,2.79,2.71.28a1.1,1.1,0,0,1,0-.18,1,1,0,0,1,.12-.5Zm-6.07-.13a.65.65,0,0,1,0,.2.5.5,0,0,1,0,.21l2.22-.23ZM66.8,16.94l13.7,1.14,13.71-1.94-13.77.8ZM35.71,15.65l6.08.51a.76.76,0,0,1,0-.26,1,1,0,0,1,0-.25Zm83.54-2.18a.47.47,0,0,1,0,.17.9.9,0,0,1,0,.4l6.34-.93Zm-91.62.18h53l52.78-3,18.23-7.37H8.23ZM2.29,2.41a1,1,0,0,1,.85.47s0,0,0,0l.14-.1a1,1,0,0,1-.07-.68s0,0,0,0H2v.46l.09,0A.69.69,0,0,1,2.29,2.41Zm155.44.31.19.16a1,1,0,0,1,1.1-.43h0V2h-1.27s0,.07,0,.1A1,1,0,0,1,157.73,2.72Z"/></g></g></svg>