<svg xmlns="http://www.w3.org/2000/svg" viewBox="0 0 151.41 203.93"><g id="Layer_2" data-name="Layer 2"><g id="Layer_2-2" data-name="Layer 2"><path d="M150.41,101.75V28.39L122.52,1H28.89L1,28.39V175.54l27.89,27.39h93.63l27.89-27.39V101.75Zm-1.19,72.13-8.65-8.4V102.14h0V38.45l8.65-8.39V173.88ZM75.71,201.74H30.09l6.54-13.62H75.71v-1.2H37.21l6.54-13.62h32v-1.2H44.33l5.75-12h51.25l5.75,12H75.71v1.2h32l6.54,13.62H75.71v1.2h39.07l6.54,13.62ZM11.52,166.49l23.93,21.32L29,201.32l-26.51-26ZM35.45,16.12,11.52,37.44l-9.07-8.8L29,2.61Zm40.26.9H114.2l-6.54,13.63H43.75L37.21,17ZM122.45,2.61l26.51,26-9.07,8.8L116,16.12Zm16.92,161.71-12.24-11.89V102.1h0V51.5l12.24-11.88Zm-30.66,8.39,17.85-19.16L139,165.65l-23.61,21ZM102.59,160l14.14-16,9,8.72-17.55,18.83Zm-53.1-1-14.3-16.16v-40.7h0V61.16L49.49,45h52.43l14.3,16.16v81.61l-14.3,16.16H49.49Zm-6.23,12.62L25.71,152.72l9-8.72,14.14,16ZM25.48,52.66,34,60.93V143l-8.51,8.27Zm81.6-20.83-5.75,12H50.08l-5.75-12Zm18.85,70.27h0v49.17L117.42,143V102.07h0V60.93l8.51-8.26Zm.63-51.72L108.71,31.22l6.71-14,23.61,21Zm-.86.84-9,8.71L102.59,44l5.56-11.57ZM48.82,44l-14.14,16-9-8.71L43.26,32.38Zm-24,6.43L12.39,38.28l23.6-21,6.71,14ZM12,39.61,24.28,51.5V152.43L12,164.32V102.14h0ZM24.85,153.55,42.7,172.72l-6.71,14-23.6-21ZM116,187.81l23.93-21.32L149,175.3l-26.51,26ZM121.32,2.2l-6.54,13.62H36.63L30.09,2.2h91.23ZM2.19,102.18V30.06l8.65,8.39v63.69h0v63.34l-8.65,8.4v-71.7Z"/><path d="M122.52,203.93H28.89a1,1,0,0,1-.7-.28L.3,176.26a1,1,0,0,1-.3-.72V28.39a1,1,0,0,1,.3-.72L28.19.29a1,1,0,0,1,.7-.29h93.63a1,1,0,0,1,.7.29l27.89,27.38a1,1,0,0,1,.3.72V175.54a1,1,0,0,1-.3.72l-27.89,27.39A1,1,0,0,1,122.52,203.93Zm-90.84-3.19h88.05l-5.58-11.62H37.26ZM3.89,175.3l24.78,24.33,5.55-11.57L11.55,167.85Zm113.3,12.76,5.56,11.57,24.78-24.33-7.67-7.45ZM38.8,185.92h73.81L107,174.3H44.38Zm-24.95-20.3,21.81,19.44,5.85-12.16L24.81,155Zm96.05,7.28,5.85,12.16,21.81-19.44L126.6,155Zm31.67-7.84,6.65,6.45V32.42l-6.65,6.46ZM3.19,32.42V171.51l6.65-6.45V38.88ZM75.71,171.1H105.5l-4.8-10h-50l-4.79,10Zm28.07-10.95,4.64,9.65,15.88-17.05-7.52-7.3Zm-76.67-7.4L43,169.8l4.64-9.65-13-14.7Zm101-.74L138.37,162V42l-10.24,9.94V152ZM13,42V162L23.28,152V51.92Zm36.9,116h51.53l13.75-15.54V61.54L101.47,46H49.94L36.19,61.54v80.85ZM26.48,55V148.9L33,142.58V61.35Zm91.94,87.55,6.51,6.32V55l-6.51,6.33ZM27.11,51.18l7.52,7.3,13-14.69L43,34.13Zm76.67-7.39,13,14.69,7.52-7.3-15.88-17ZM109.9,31,126.6,49l11-10.64L115.75,18.87ZM13.85,38.31,24.81,49,41.51,31,35.66,18.87Zm36.86,4.5h50l4.8-10H45.92ZM3.88,28.63l7.67,7.45L34.22,15.87,28.67,4.3ZM117.19,15.87l22.67,20.21,7.66-7.45L122.75,4.3ZM44.38,29.64H107L112.61,18H38.8ZM37.26,14.82h76.89L119.73,3.2H31.68Z"/></g></g></svg>