<svg xmlns="http://www.w3.org/2000/svg" viewBox="0 0 159.21 157.33"><g id="Layer_2" data-name="Layer 2"><g id="Layer_2-2" data-name="Layer 2"><path d="M158.21,78.7V31.07L127.15,1H32.06L1,31.07V78.7H1v47.55l31.06,30.08h95.09l31.06-30.08V78.7Zm-14.91,0v36.76c-.25-.64-.52-1.38-.84-2.2-3.32-8.77-10.18-27.22-11.93-34.6,1.16-4.89,4.58-14.71,7.72-23.3,1.59-4.33,3.1-8.35,4.21-11.29.32-.83.59-1.56.84-2.2V78.7Zm-23.16,63.46,23.76-23.27L156.62,126,127,154.75ZM79.6,129.33l0-.14,0-.14,0,.14ZM32.24,154.75,2.58,126l12.73-7.16,23.76,23.29ZM126,2.25l-6.77,12.49H79.63v1h38c-8.25,3.07-17.5,5.93-24.83,8.05-7.09,2.05-12.37,3.41-13.24,3.64-.86-.23-6.14-1.59-13.24-3.64-7.33-2.13-16.58-5-24.82-8h38v-1H40L33.24,2.26ZM79.6,128.52a306.2,306.2,0,0,0-39.49-8.68L29.74,78.66,40.11,37.48A304.24,304.24,0,0,0,79.6,28.81a304.6,304.6,0,0,0,39.49,8.67l10.37,41.18-10.37,41.18A306.57,306.57,0,0,0,79.6,128.52ZM39.12,140.77l-22.46-22a176.51,176.51,0,0,1,22.51,2Zm-23-23.05c1.63-4.26,10.21-26.68,13.05-37L39,119.68A174.75,174.75,0,0,0,16.15,117.72ZM79.6,28l0,.15,0,.13,0-.13ZM119,36.42a301.93,301.93,0,0,1-37.94-8.27c5-1.32,23.28-6.23,38-11.79Zm-78.79,0-.05-20.06c14.7,5.56,33,10.47,38,11.79A302.69,302.69,0,0,1,40.21,36.42ZM39.12,16.55l.05,20a176.51,176.51,0,0,1-22.51,2ZM39,37.64,29.2,76.57c-2.84-10.28-11.42-32.71-13-37A172.82,172.82,0,0,0,39,37.64Zm81.07,103.13,0-20a176.47,176.47,0,0,1,22.52-2Zm.12-21.09L130,80.76c2.84,10.27,11.42,32.7,13.06,37A174.75,174.75,0,0,0,120.2,119.68ZM130,76.57l-9.8-38.93a172.82,172.82,0,0,0,22.86,2C141.42,43.86,132.84,66.29,130,76.57Zm-10-40,0-20,22.47,22A176.61,176.61,0,0,1,120,36.57Zm-81-21.41L15.31,38.44,2.59,31.29,32.24,2.57ZM15.91,41.87l.83,2.2c3.33,8.77,10.19,27.22,11.94,34.59C27.52,83.56,24.09,93.38,21,102c-1.58,4.33-3.09,8.35-4.21,11.29l-.83,2.2Zm24.3,79a303,303,0,0,1,37.94,8.28c-5,1.31-23.29,6.23-38,11.79Zm78.79,0,0,20.07c-14.71-5.56-33-10.48-38-11.79A302.21,302.21,0,0,1,119,120.9Zm24.9-82.46L120.14,15.16,127,2.57l29.65,28.72ZM2.25,78.7V32.29l12.62,7.1V78.7h0v39.24L2.25,125V78.7Zm31,76.37L40,142.59H79.58v-1h-38c8.24-3.07,17.49-5.92,24.83-8,7.09-2.06,12.37-3.42,13.23-3.64.87.22,6.15,1.58,13.24,3.64,7.33,2.12,16.58,5,24.83,8h-38v1h39.56L126,155.07ZM157,125l-12.62-7.1V78.63h0V39.39L157,32.29V78.7h0Z"/><path d="M127.15,157.33H32.06a.94.94,0,0,1-.69-.29L.3,127a1,1,0,0,1-.3-.72V31.07a1,1,0,0,1,.3-.71L31.37.28A1,1,0,0,1,32.06,0h95.09a1,1,0,0,1,.69.28L158.9,30.35a1,1,0,0,1,.31.72v95.18a1,1,0,0,1-.31.72L127.84,157A1,1,0,0,1,127.15,157.33Zm-92.23-3.26h89.36l-5.68-10.48h-78ZM4.24,126.25,32,153.12l5.84-10.77L15.14,120.12Zm117.14,16.1,5.84,10.77L155,126.25l-10.89-6.13Zm-74.08-1.8h64.6c-7-2.42-14.13-4.57-19.34-6.08-6.7-1.94-11.71-3.25-13-3.57-1.68.43-6.56,1.72-13,3.57C61.43,136,54.3,138.14,47.3,140.55Zm37.57-11.39c7.27,2,21.19,5.93,33.18,10.36l0-17.45A297.92,297.92,0,0,0,84.87,129.16ZM41.2,122.07l0,17.45c12-4.42,25.9-8.38,33.18-10.36A297.6,297.6,0,0,0,41.2,122.07Zm-22-2.24,19,18.57,0-16.78A189.8,189.8,0,0,0,19.17,119.83ZM121,121.62l0,16.78,19-18.57A189.93,189.93,0,0,0,121,121.62ZM40.92,119a306.27,306.27,0,0,1,38.68,8.53A306.79,306.79,0,0,1,118.29,119l10.14-40.29L118.29,38.37A306.16,306.16,0,0,1,79.6,29.85a305.64,305.64,0,0,1-38.68,8.52L30.78,78.66Zm117.29,7.3h0Zm-12.88-8.89,10.62,6V34l-10.62,6ZM3.25,34v89.33l10.63-6V40ZM130.08,84.54l-8.55,33.95a185.06,185.06,0,0,1,20.08-1.75C139.09,110.15,133.18,94.49,130.08,84.54ZM17.59,116.74a180.39,180.39,0,0,1,20.08,1.75L29.13,84.54C26,94.71,19.79,111,17.59,116.74Zm114-38.08c1.67,6.83,7.43,22.5,10.75,31.34V47.33c-.88,2.34-2,5.22-3.11,8.37C136.39,63.38,132.81,73.53,131.55,78.66ZM16.91,47.33V110c1.11-3,2.14-5.72,3.1-8.37,2.81-7.66,6.38-17.81,7.64-23C26,71.86,20.23,56.18,16.91,47.33Zm.68-6.75c2.2,5.75,8.36,22,11.54,32.21l8.54-33.95A181.15,181.15,0,0,1,17.59,40.58Zm103.94-1.74,8.55,34c3.1-10,9-25.61,11.53-32.21A181.52,181.52,0,0,1,121.53,38.84ZM38.13,18.92l-19,18.58a190.32,190.32,0,0,0,19-1.79ZM121,35.71a190.45,190.45,0,0,0,19,1.79l-19-18.57ZM121.38,15,144.06,37.2,155,31.07,127.22,4.21ZM4.25,31.07,15.14,37.2,37.83,15,32,4.21Zm80.62-2.9A300.06,300.06,0,0,0,118,35.26l0-17.46C106,22.26,92.12,26.2,84.87,28.17ZM41.16,17.8l0,17.46a298.76,298.76,0,0,0,33.14-7.09C67.08,26.2,53.2,22.26,41.16,17.8Zm6.14-1c5.68,2,12.16,4,19.34,6.09,4.38,1.26,9,2.53,13,3.57,4.08-1.06,8.56-2.3,13-3.57,5.22-1.51,12.35-3.67,19.35-6.09H47.3Zm-6.69-3h78l5.68-10.49H34.92Z"/></g></g></svg>