<svg xmlns="http://www.w3.org/2000/svg" viewBox="0 0 142.95 205.69"><g id="Layer_2" data-name="Layer 2"><g id="Layer_2-2" data-name="Layer 2"><path d="M141.86,102.85c0-.57.09-1.95.09-4A128.81,128.81,0,0,0,129.77,45C109.82,3.42,79,1,72.25,1H70.7C64,1,33.14,3.42,13.19,45A128.7,128.7,0,0,0,1,98.86c0,2,.06,3.42.1,4s-.1,1.94-.1,4a128.7,128.7,0,0,0,12.19,53.91c19.86,41.36,50.53,43.95,57.43,43.95h1.72c6.89,0,37.56-2.59,57.43-43.95A128.81,128.81,0,0,0,142,106.83C142,104.79,141.89,103.42,141.86,102.85ZM71.48,202.37l-18.06-33L71.48,157.1l18.06,12.32Zm0-199,18,33-18,12.16L53.42,36.27Zm0,152.74-26-15L35,102.85,45.47,64.6,71.34,49.72l.07.05.07-.1.06.1.08-.05L97.49,64.6,108,102.85,97.49,141.09Zm-37.2-55.14L26,75.82l18.08-10.4Zm0,3.85,9.77,35.5L26,129.87Zm74.39,0,8.32,25.1-18.08,10.4Zm0-3.85L98.9,65.42,117,75.82Zm8.49-26.33L98.47,63.84,91.08,37l29.51-4.54ZM97.05,63,72.68,49,90,37.35ZM70.27,49,45.9,63,53,37.35ZM44.48,63.84,25.8,74.59,22.37,32.41,51.88,37Zm-19.4,13,8.63,26-8.63,26-22.68-26Zm.72,54.29,18.68,10.75,7.4,26.89-29.51,4.54Zm20.1,11.57,24.24,14L53,168.34Zm26.91,14,24.24-14L90,168.34Zm25.66-14.77,18.69-10.75,3.43,42.18-29.51-4.54Zm19.4-13-8.62-26,8.62-26,22.69,26Zm22.9-27.55L118.49,75.77l17.87-9.63a129.43,129.43,0,0,1,4.44,32.72C140.8,99.86,140.79,100.68,140.77,101.33ZM136.05,65l-17.74,9.56L121.69,33a103.6,103.6,0,0,1,7,12.46A119.17,119.17,0,0,1,136.05,65ZM120.52,31.26,91.16,35.77l7.31-25.7C105.67,14.38,113.41,21,120.52,31.26ZM97.45,9.47,90.18,35l-18-32.89h.1C75.69,2.16,85.78,2.79,97.45,9.47ZM70.81,2.15,52.78,35,45.51,9.47C57.18,2.79,67.27,2.16,70.7,2.15ZM44.48,10.07l7.31,25.7L22.43,31.26C29.54,21,37.28,14.38,44.48,10.07ZM14.22,45.45a103.6,103.6,0,0,1,7-12.46l3.38,41.57L6.91,65A118.18,118.18,0,0,1,14.22,45.45ZM6.59,66.14l17.87,9.63L2.18,101.33c0-.65,0-1.47,0-2.47A129.43,129.43,0,0,1,6.59,66.14Zm-4.4,38.21,22.27,25.57L6.59,139.55a129.43,129.43,0,0,1-4.44-32.72C2.15,105.83,2.16,105,2.19,104.35Zm4.72,36.34,17.73-9.56L21.26,172.7a104.38,104.38,0,0,1-7-12.46A118.18,118.18,0,0,1,6.91,140.69Zm15.53,33.74,29.35-4.51-7.31,25.7A72,72,0,0,1,22.44,174.43Zm23.07,21.79,7.27-25.58,18,32.9H70.7C67.27,203.53,57.18,202.9,45.51,196.22Zm26.74,7.32h-.1l18-32.89,7.27,25.57C85.78,202.9,75.69,203.53,72.25,203.54Zm26.22-7.92-7.31-25.7,29.36,4.51C113.41,184.66,105.67,191.31,98.47,195.62Zm30.26-35.38a104.38,104.38,0,0,1-7,12.46l-3.38-41.57,17.74,9.55A118.92,118.92,0,0,1,128.73,160.24Zm7.63-20.69-17.87-9.63,22.28-25.57c0,.66,0,1.48,0,2.48A129.43,129.43,0,0,1,136.36,139.55Z"/><path d="M72.34,205.69H70.7c-6.25,0-38.06-2.15-58.42-44.52C1.2,138.11,0,115.48,0,106.83c0-2,.06-3.43.09-4s-.09-1.94-.09-4c0-8.65,1.2-31.28,12.28-54.34C32.6,2.23,64.25,0,70.62,0h1.71c6.37,0,38,2.22,58.34,44.52C141.76,67.58,143,90.21,143,98.86c0,1.45,0,2.79-.09,4s.09,2.54.09,4c0,8.65-1.19,31.28-12.28,54.34-8.53,17.76-20,30.52-34,37.94C85.42,205,75.92,205.69,72.34,205.69Zm-25.66-9.95a52.39,52.39,0,0,0,22.41,6.75l-16-29.23Zm43.2-22.47-16,29.22a52.35,52.35,0,0,0,22.41-6.75Zm-35.15-3.54,16.75,30.56,16.75-30.55L71.48,158.31Zm-30.54,5.45a71.48,71.48,0,0,0,19.69,18.9l6.52-22.94Zm68.36-4,6.52,22.94a71.37,71.37,0,0,0,19.7-18.9ZM26.67,132.75l-3.2,39.35,27.15-4.18-7-25.41Zm65.67,35.17,27.15,4.18-3.2-39.35-17,9.76ZM8.09,141.19a118.13,118.13,0,0,0,7,18.62,109.82,109.82,0,0,0,5.38,9.86l3-36.79Zm111.37-8.31,3,36.78a106.32,106.32,0,0,0,5.38-9.85h0a118.14,118.14,0,0,0,7-18.63ZM47.51,144.75l6,22,14.71-10Zm27.18,11.94,14.71,10,6-22ZM46.32,140.43,71.48,154.9l25.15-14.47L107,102.85,96.63,65.26,71.48,50.79,46.32,65.26,36,102.85Zm-19.15-11,15.27,8.78-8.24-30Zm81.59-21.2-8.25,30,15.27-8.78ZM3.15,107a128.2,128.2,0,0,0,4.09,31.08l15.65-8.43Zm116.92,22.65,15.65,8.43A128.46,128.46,0,0,0,139.8,107Zm-9.77-26.78,8,24.05,21-24.05-21-24.06Zm-106.58,0,21,24.05,8-24.06-8-24ZM120.07,76.06,139.8,98.71a128.46,128.46,0,0,0-4.08-31.08ZM7.24,67.62A128.42,128.42,0,0,0,3.15,98.7L22.89,76.06Zm93.27-.12,8.25,30,7-21.2ZM27.17,76.28l7,21.2,8.24-30Zm-3.7-42.69,3.2,39.35,17-9.76,7-25.41ZM99.33,63.18l17,9.76,3.2-39.35L92.34,37.77ZM122.45,36l-3,36.78,15.41-8.31a118.4,118.4,0,0,0-7-18.62A106.1,106.1,0,0,0,122.45,36ZM8.09,64.5,23.5,72.81,20.5,36a109.82,109.82,0,0,0-5.38,9.86A118.13,118.13,0,0,0,8.09,64.5Zm36.39-.66h0ZM53.56,39l-6.05,22,20.87-12Zm21,10,20.87,12-6-22ZM54.74,36,71.48,47.22,88.22,36,71.48,5.4ZM99.07,11.61,92.55,34.55l26.22-4A71.27,71.27,0,0,0,99.07,11.61ZM24.19,30.52l26.21,4L43.88,11.61A71.24,71.24,0,0,0,24.19,30.52ZM46.68,10l6.39,22.47,16-29.22A52.46,52.46,0,0,0,46.68,10ZM73.86,3.2l16,29.22L96.27,10A52.31,52.31,0,0,0,73.86,3.2Z"/></g></g></svg>