<svg xmlns="http://www.w3.org/2000/svg" viewBox="0 0 139.89 193.26"><g id="Layer_2" data-name="Layer 2"><g id="Layer_2-2" data-name="Layer 2"><path d="M110.15,10.5C95,1.9,78.3,1,71.88,1,71.06,1,70.41,1,70,1s-1.12,0-2,0c-6.41,0-23.1.9-38.26,9.5S1,35.51,1,66.17c0,.89,0,1.79,0,2.69.35,13.86,4.11,53.36,39.15,94.61,20.38,24,29.69,28.74,29.79,28.8h0c.12-.06,9.38-4.84,29.73-28.79,35-41.25,38.8-80.75,39.15-94.61,0-.9,0-1.8,0-2.69C138.91,35.51,125.32,19.09,110.15,10.5Zm27.58,55.67h0L120.19,39.26l-6.41-25.11C126.86,23.14,137.71,38.75,137.73,66.17Zm-37.67,95.08-9.36-8.17,28.64-20A176.5,176.5,0,0,1,100.06,161.25ZM69.94,190.13,50.83,153.26l19.11-11.4,19.12,11.4ZM27.78,13l21.29,7.32L42.7,38.14l-21.64.45,6.49-25.41ZM69.94,2.82l19.11,17L70,28.93,50.84,19.84Zm42.4,10.37,6.49,25.4-21.64-.45L90.82,20.36,112.11,13ZM68.54,29.55,44.08,37.7l6.07-16.91Zm21.2-8.76L95.81,37.7,71.35,29.55ZM69.94,140.16,42.47,114.81,32.48,68l11.1-28.94L69.94,30.3l26.37,8.79L107.41,68l-10,46.78Zm38.25-70.25,10.78,25L98.9,113.44ZM97.63,39.3l21.3.46L108,66.4ZM31.87,66.4,21,39.76l21.29-.46Zm-.17,3.51L41,113.44,20.92,94.93ZM20.79,96.38l20.62,19,7.74,36.23L20.3,131.45Zm22.1,20.39L69.14,141l-18.7,11.15Zm54.11,0-7.55,35.37L70.75,141Zm1.48-1.36,20.62-19,.49,35.07L90.74,151.64Zm21.28-21.57L108.65,68l0-.06,11.15-27.24,17.91,27.49ZM20.12,40.74,31.26,68l0,.08L20.13,93.84,2.2,68.23Zm-.76,54L6.87,99.34a130.13,130.13,0,0,1-4.63-29Zm.28,1.13-.49,34.53a154.7,154.7,0,0,1-12-30Zm29.55,57.18-9.36,8.17A177.17,177.17,0,0,1,20.55,133ZM120.25,95.9l12.46,4.56a154.52,154.52,0,0,1-12,30Zm.28-1.13,17.12-24.46a130.13,130.13,0,0,1-4.63,29Zm-11-83.26,1.26.74-20.6,7.09L71,2.17h.92C78.19,2.15,94.71,3.06,109.58,11.51Zm-79.27,0C45.18,3.07,61.7,2.16,68,2.16h.93L49.65,19.34l-20.6-7.09Zm-4.2,2.64L19.7,39.26,2.16,66.18h0C2.18,38.75,13,23.14,26.11,14.15Zm15,148.57-.48-.58L49.91,154l18.67,36C64.94,187.47,56,180.3,41.06,162.72ZM76.48,186a65.41,65.41,0,0,1-5.19,4.09L90,154l9.33,8.15-.48.58C88.67,174.67,81.3,181.81,76.48,186Z"/><path d="M70,193.26a.93.93,0,0,1-.47-.11c-1-.53-10.38-5.84-30.08-29C5,123.61.41,84,0,68.89c0-.92,0-1.82,0-2.72C0,47.94,5.05,23.33,29.24,9.63,44.55,1,61.45,0,68,0c.85,0,1.52,0,2,0s1.07,0,1.9,0c6.56,0,23.46,1,38.76,9.63h0c24.2,13.7,29.26,38.31,29.25,56.54,0,.9,0,1.8,0,2.72-.38,15.13-5,54.71-39.39,95.22-19.61,23.09-29,28.48-30,29a.91.91,0,0,1-.22.11A1.15,1.15,0,0,1,70,193.26ZM52.15,153.64,70,188l17.79-34.31L70,143Zm38.14,1.94-16.06,31c.52-.42,1-.87,1.6-1.34h0c4.36-3.75,11.73-10.78,22.09-23ZM42,162.25c11.15,13.11,18.89,20.36,23.66,24.26l-16-30.93Zm50.34-9.08,7.62,6.65a177.89,177.89,0,0,0,16.37-23.44ZM23.58,136.38A177.23,177.23,0,0,0,40,159.82l7.62-6.65Zm48.83,4.44,16.35,9.75,6.61-30.93ZM44.52,119.64l6.61,30.93,16.35-9.75ZM21.3,130.93l26.34,18.43L40.5,115.93,21.76,98.64Zm78.09-15-7.14,33.43,26.33-18.43-.45-32.29Zm-56-1.64L70,138.8l26.56-24.51,9.86-46.18L95.55,39.89,70,31.35,44.34,39.89,33.52,68.11Zm-35-13.21a153.27,153.27,0,0,0,9.82,25.29l.41-29Zm112.88-3.74.41,29a153.27,153.27,0,0,0,9.82-25.29ZM108.51,73.18l-8,37.39,17.24-15.9ZM22.12,94.67l17.24,15.9-8-37.39ZM3.43,73.75A134.06,134.06,0,0,0,7.55,98L17.8,94.28ZM122.09,94.28,132.34,98a133.91,133.91,0,0,0,4.12-24.28ZM3.41,68.21,19.92,91.8,30.18,68,19.91,42.88ZM109.71,68,120,91.8l16.51-23.59L120,42.88ZM99.1,40.33l9,23.36,9.4-23Zm-76.66.4,9.4,23,9-23.36Zm2-24.15C11.08,26.81,4,42.31,3.22,62.72L18.77,38.85Zm96.67,22.27,15.55,23.86c-.73-20.4-7.86-35.9-21.23-46.13ZM97.9,37.15l19.63.42-5.94-23.3L92.11,21ZM28.3,14.27l-5.94,23.3L42,37.15,47.79,21Zm22.41,7.9-5,13.93,20.15-6.72ZM74,29.38,94.17,36.1l-5-13.93Zm-21.39-9.8L70,27.83l17.31-8.25L70,4.15Zm21-16.4,16.87,15,18-6.18C95.13,4.68,80.68,3.34,73.6,3.18ZM31.46,12l18,6.18,16.86-15C59.21,3.35,44.76,4.68,31.46,12Zm-1.15-.51h0Z"/></g></g></svg>