<svg xmlns="http://www.w3.org/2000/svg" viewBox="0 0 178.94 170.76"><g id="Layer_2" data-name="Layer 2"><g id="Layer_2-2" data-name="Layer 2"><path d="M162.7,11.36A43.89,43.89,0,0,0,133.6,1C112.45,1,93,13.37,89.47,15.76,85.92,13.38,66.49,1,45.35,1A43.9,43.9,0,0,0,16.24,11.36C4.66,21.14,1,35.18,1,48.94c0,22.76,9.92,45,11.16,47.38,6.82,13.35,30.18,52.07,77.28,73.44h0c47.1-21.37,70.52-60.09,77.35-73.44C168,93.89,177.93,71.7,177.94,49,178,35.18,174.28,21.14,162.7,11.36ZM71.81,133.71l-8.82-28L87.93,121Zm17.35-12,.09.06.15-.26.07,0,.07.06.16.25.09-.06L106.61,135,89.47,166.6,72.33,135ZM91,121,116,105.67l-8.82,28Zm-1.55-.64-27.1-16.64h0L38.29,54.09,45,22.65,88.75,30.9l.68.06h.08l.68-.06L134,22.65l6.7,31.44-24.07,49.6h0Zm-52-69.06L28.85,20l14.8,2.46Zm.32,5,22.39,46.13L31.73,84.88Zm103.28,0,6.11,28.64-28.5,17.49ZM135.3,22.47,150.09,20l-8.65,31.26Zm4.06-19.78a41.61,41.61,0,0,1,21.47,8.89l-9.64,6.65Zm10.46,16-15.09,2.52-8.39-8.78L138,3.14Zm-24.66-5.54L133,21.38,94.79,29.09ZM45.92,21.38l7.86-8.25,30.38,16Zm-1.7-.19-15.1-2.52L41,3.14,52.6,12.41Zm-16.46-3-9.65-6.65A41.61,41.61,0,0,1,39.59,2.69Zm9.13,35.91L30.57,83.78,2.72,53.4l-.1.09,25-32.84Zm-5.22,32.3,29.56,18.14,9.21,29.3-37.8-10.14Zm-.42,36.31A159.56,159.56,0,0,1,13.86,96.66L30.31,86.41Zm57.39,45.16a157,157,0,0,1-28-16.81l10.77-15Zm18.93-31.79,10.74,14.95a156.81,156.81,0,0,1-28,16.79Zm10.15-31.54,29.55-18.14-1,37.3L108.5,133.88Zm30.91-18.17,16.46,10.25a159.83,159.83,0,0,1-17.4,26.06Zm-.26-2.63-6.32-29.64,9.27-33.49,25,32.84-.1-.09h0ZM176.59,49c0,.86,0,1.72-.05,2.58L152,19.31l9.91-6.83C173,21.92,176.58,35.43,176.59,49Zm-43-46.59c1,0,2.05,0,3.08.09L125,11.75,90.19,29.45V16.9l.42-.28C94.94,13.78,113.65,2.35,133.6,2.36ZM75.88,9.81a99,99,0,0,1,9.75,5.13c1.55.92,2.64,1.64,3.2,2V29.47L54,11.75,42.27,2.45c1-.06,2-.09,3.08-.09C56.74,2.36,67.74,6.07,75.88,9.81ZM17,12.48l9.92,6.83L2.4,51.53c0-.86,0-1.72,0-2.59C2.36,35.43,5.93,21.92,17,12.48ZM2.61,55.28l27.3,29.78L13.24,95.45C11.78,92.46,4.09,74.66,2.61,55.28Zm30.8,70.07,36.93,9.9-10.81,15A167.7,167.7,0,0,1,33.41,125.35Zm86,24.9-10.78-15,36.89-9.89A167.46,167.46,0,0,1,119.39,150.25Zm46.32-54.8L149,85.06l27.31-29.78C174.85,74.66,167.16,92.46,165.71,95.45Z"/><path d="M89.44,170.76a1,1,0,0,1-.41-.09c-48.29-21.9-71.73-62.1-77.76-73.89C8.89,92.11,0,70.3,0,48.94c0-16.7,5.24-29.6,15.6-38.35A44.74,44.74,0,0,1,45.33,0h0c20.42,0,39.3,11.41,44.12,14.56C94.3,11.41,113.17,0,133.6,0h0a44.73,44.73,0,0,1,29.73,10.6h0C173.7,19.34,179,32.24,178.94,49c0,24.55-11.15,47.6-11.26,47.82-6,11.8-29.47,52-77.83,73.9A1,1,0,0,1,89.44,170.76Zm-.1-2.15.1,0,.19-.09,0,0a1.13,1.13,0,0,1-.1-.13,1.09,1.09,0,0,1-.13.17ZM62,150.88a156.69,156.69,0,0,0,24.29,14.8L71.26,138ZM107.68,138l-15,27.63a156.67,156.67,0,0,0,24.25-14.78Zm-34.07-2.71L89.47,164.5l15.86-29.21L89.48,122.76h0Zm-37.32-8.13a166.47,166.47,0,0,0,23,21.69l9.36-13Zm74,8.68,9.34,13a166.1,166.1,0,0,0,23-21.66Zm-39.15-1.22a1.11,1.11,0,0,1,.17.3,1.6,1.6,0,0,1,0,.21h0a1.06,1.06,0,0,1,.08-.5,1.06,1.06,0,0,1-.2-.12l0,.06S71.13,134.6,71.11,134.62Zm36.5.51h0a.8.8,0,0,1,0-.21,1.08,1.08,0,0,1,.16-.3l0-.05,0-.06a.82.82,0,0,1-.2.12A1,1,0,0,1,107.61,135.13Zm11-29.89L110,132.44,145.33,123l.9-34.71ZM33.62,123l35.32,9.47-8.55-27.2-27.67-17Zm59.14-1.89L106.61,132l7.59-24.1Zm-28-13.16L72.33,132l13.85-10.94Zm81.56,16.86,0,0s0,0,0,0l.11-.13Zm-113.86,0,.1.11,0,0,0,0Zm-.86-1,0,0v-.07l0,0Zm115.72,0v.08l.05-.06h-.05ZM15.18,97a160.34,160.34,0,0,0,15,22.78l-.81-31.62Zm134.4-8.83-.81,31.58a159.57,159.57,0,0,0,15-22.75ZM63.14,103l26.33,16.16L115.8,103l23.8-49-6.43-30.14L90.38,31.88,89.6,32h-.17l-.77-.06L45.77,23.82,39.34,54Zm-.78,1.86v0h0Zm54.2,0h0v0Zm1.43-1.81-.13.26.25-.15-.06,0Zm-57.16.11.25.15-.13-.26-.05.06ZM140.74,59.3,121.11,99.73l25-15.33ZM32.85,84.4l25,15.33L38.2,59.3Zm-29-26.26A129.53,129.53,0,0,0,13.68,94l14.68-9.15Zm146.7,26.71L165.27,94a130.14,130.14,0,0,0,9.8-35.85Zm-2.71.79.07,0a1.16,1.16,0,0,1,.21-.16.94.94,0,0,1-.06-.15A1.09,1.09,0,0,1,147.87,85.64ZM30.79,85.53a1.25,1.25,0,0,1,.22.16l.06,0a1,1,0,0,1-.21-.26A1,1,0,0,1,30.79,85.53ZM143.08,54.17,149,81.67l26-28.35L151.75,22.86ZM4,53.32,30,81.67l5.86-27.5L27.2,22.86Zm33.7,1.83,0,.11h.06Zm103.5.1h.06l0-.1Zm-103.79-3,.14.51.11-.51h-.25Zm103.87,0,.11.51.14-.51h-.25Zm-139.2.22v.06l0,0h0Zm174.74,0,0,0v-.06h0ZM17.09,13.74c-9,8-13.66,19.74-13.73,34.89L25.5,19.54Zm136.35,5.8,22.15,29.08c-.08-15.14-4.69-26.87-13.74-34.88ZM30.23,21.25l7.15,25.82,5.07-23.78Zm106.26,2,5.07,23.78,7.15-25.82Zm-42.62,5.4-1.56.8,1.49-.28A.92.92,0,0,1,93.87,28.69Zm-8.72.51,1.5.29-1.58-.81A1,1,0,0,1,85.15,29.2ZM54.49,10.9,87.83,27.84V17.49c-.64-.42-1.55-1-2.71-1.7a104.75,104.75,0,0,0-9.66-5.08C68.14,7.36,57,3.36,45.36,3.36H45Zm36.7,6.54V27.81L124.45,10.9l9.48-7.54h-.36C113.62,3.36,94.82,15.05,91.19,17.44ZM125,14.37,101.43,26.73l29.62-6ZM47.89,20.76l29.62,6L54,14.37Zm79.93-8.25,7.26,7.61L148,18l-10.2-13.4ZM30.93,18l12.93,2.16,7.26-7.61-10-7.95Zm119.74,1.23a.8.8,0,0,1,.17.15.94.94,0,0,1,.2.35h0a1,1,0,0,1-.07-.46,1,1,0,0,1-.29-.11A.56.56,0,0,1,150.67,19.19Zm-122.81.49h0a.84.84,0,0,1,.21-.35.75.75,0,0,1,.16-.15.2.2,0,0,1,0-.08,1.21,1.21,0,0,1-.3.11A.89.89,0,0,1,27.86,19.68ZM141.63,4l9.78,12.84,7.73-5.33A40.58,40.58,0,0,0,141.63,4ZM19.81,11.54l7.73,5.33L37.31,4A40.59,40.59,0,0,0,19.81,11.54ZM138.4,2.23l.06,0v0Zm-97.92,0v0l.06,0Zm.71-.06.11,0s0,0,0,0Zm96.44,0,0,0,.11,0Z"/></g></g></svg>