<svg width="1493" height="510" viewBox="0 0 1493 510" fill="none" xmlns="http://www.w3.org/2000/svg">
<circle cx="255" cy="255" r="255" fill="#A0A0A0"/>
<circle cx="276.768" cy="255" r="211.463" fill="#BFBFBF"/>
<circle cx="314.085" cy="255" r="136.829" fill="#DFDFDF"/>
<path d="M650 390.692V115H816.385V144.615H683.385V237.769H807.769V267.385H683.385V361.077H818.538V390.692H650Z" fill="white"/>
<path d="M950.327 395C933.096 395 917.885 390.647 904.692 381.942C891.5 373.147 881.179 360.763 873.731 344.788C866.282 328.724 862.558 309.744 862.558 287.846C862.558 266.128 866.282 247.282 873.731 231.308C881.179 215.333 891.545 202.994 904.827 194.288C918.109 185.583 933.455 181.231 950.865 181.231C964.327 181.231 974.962 183.474 982.769 187.962C990.667 192.359 996.679 197.385 1000.81 203.038C1005.03 208.603 1008.3 213.179 1010.63 216.769H1013.33V115H1045.1V390.692H1014.4V358.923H1010.63C1008.3 362.692 1004.98 367.449 1000.67 373.192C996.365 378.846 990.218 383.917 982.231 388.404C974.244 392.801 963.609 395 950.327 395ZM954.635 366.462C967.378 366.462 978.147 363.141 986.942 356.5C995.737 349.769 1002.42 340.481 1007 328.635C1011.58 316.699 1013.87 302.923 1013.87 287.308C1013.87 271.872 1011.62 258.365 1007.13 246.788C1002.65 235.122 996.006 226.058 987.212 219.596C978.417 213.045 967.558 209.769 954.635 209.769C941.173 209.769 929.955 213.224 920.981 220.135C912.096 226.955 905.41 236.244 900.923 248C896.526 259.667 894.327 272.769 894.327 287.308C894.327 302.026 896.57 315.397 901.058 327.423C905.635 339.359 912.365 348.872 921.25 355.962C930.224 362.962 941.353 366.462 954.635 366.462Z" fill="white"/>
<path d="M1194.38 395C1174.46 395 1157.28 390.603 1142.83 381.808C1128.47 372.923 1117.38 360.538 1109.58 344.654C1101.86 328.679 1098 310.103 1098 288.923C1098 267.744 1101.86 249.077 1109.58 232.923C1117.38 216.679 1128.24 204.026 1142.15 194.962C1156.15 185.808 1172.49 181.231 1191.15 181.231C1201.92 181.231 1212.56 183.026 1223.06 186.615C1233.56 190.205 1243.12 196.038 1251.73 204.115C1260.35 212.103 1267.21 222.692 1272.33 235.885C1277.44 249.077 1280 265.321 1280 284.615V298.077H1120.62V270.615H1247.69C1247.69 258.949 1245.36 248.538 1240.69 239.385C1236.12 230.231 1229.56 223.006 1221.04 217.712C1212.6 212.417 1202.64 209.769 1191.15 209.769C1178.5 209.769 1167.55 212.91 1158.31 219.192C1149.15 225.385 1142.11 233.462 1137.17 243.423C1132.24 253.385 1129.77 264.064 1129.77 275.462V293.769C1129.77 309.385 1132.46 322.622 1137.85 333.481C1143.32 344.25 1150.9 352.462 1160.6 358.115C1170.29 363.679 1181.55 366.462 1194.38 366.462C1202.73 366.462 1210.27 365.295 1217 362.962C1223.82 360.538 1229.7 356.949 1234.63 352.192C1239.57 347.346 1243.38 341.333 1246.08 334.154L1276.77 342.769C1273.54 353.179 1268.11 362.333 1260.48 370.231C1252.85 378.038 1243.43 384.141 1232.21 388.538C1220.99 392.846 1208.38 395 1194.38 395Z" fill="white"/>
<path d="M1360.1 266.308V390.692H1328.33V183.923H1359.02V216.231H1361.71C1366.56 205.731 1373.92 197.295 1383.79 190.923C1393.66 184.462 1406.4 181.231 1422.02 181.231C1436.02 181.231 1448.27 184.103 1458.77 189.846C1469.27 195.5 1477.44 204.115 1483.27 215.692C1489.1 227.179 1492.02 241.718 1492.02 259.308V390.692H1460.25V261.462C1460.25 245.218 1456.03 232.564 1447.6 223.5C1439.16 214.346 1427.58 209.769 1412.87 209.769C1402.72 209.769 1393.66 211.968 1385.67 216.365C1377.78 220.763 1371.54 227.179 1366.96 235.615C1362.38 244.051 1360.1 254.282 1360.1 266.308Z" fill="white"/>
</svg>
