<?xml version="1.0" encoding="utf-8"?>
<!-- Generator: Adobe Illustrator 27.9.0, SVG Export Plug-In . SVG Version: 6.00 Build 0)  -->
<svg version="1.1" xmlns="http://www.w3.org/2000/svg" xmlns:xlink="http://www.w3.org/1999/xlink" x="0px" y="0px"
	 viewBox="0 0 658 379" style="enable-background:new 0 0 658 379;" xml:space="preserve">
<style type="text/css">
	.st0{fill:#FFFFFF;}
	.st1{opacity:0.88;fill:#FFFFFF;}
	.st2{opacity:0.44;fill:#EC1C4E;}
</style>
<g id="Layer_2">
</g>
<g id="Layer_1">
	<path class="st0" d="M272.68,157.84c-2.06-1.05-4.38-1.88-6.89-2.47c-2.43-0.57-4.89-1.05-7.32-1.42c-2.33-0.36-4.48-0.8-6.38-1.31
		c-1.76-0.48-3.2-1.15-4.27-1.98c-0.87-0.68-1.28-1.62-1.28-2.97c0-1.63,0.77-2.9,2.43-4c1.81-1.19,4.69-1.8,8.57-1.8
		c2.47,0,4.99,0.29,7.46,0.86c2.41,0.56,4.77,1.6,7,3.09c0.25,0.17,0.54,0.25,0.83,0.25c0.12,0,0.24-0.01,0.36-0.04
		c0.41-0.1,0.76-0.37,0.96-0.74l4.1-7.6c0.37-0.68,0.16-1.52-0.48-1.95c-2.41-1.63-5.52-2.9-9.25-3.77
		c-3.66-0.86-7.33-1.29-10.89-1.29c-4.7,0-8.84,0.69-12.3,2.05c-3.55,1.4-6.34,3.43-8.3,6.05c-1.99,2.65-3,5.78-3,9.3
		c0,3.35,0.69,6.1,2.04,8.17c1.34,2.05,3.14,3.66,5.37,4.81c2.1,1.09,4.44,1.94,6.94,2.53c2.43,0.57,4.89,1.05,7.32,1.42
		c2.33,0.36,4.5,0.77,6.43,1.23c1.75,0.42,3.15,1.03,4.17,1.83c0.83,0.65,1.22,1.51,1.22,2.72c0,1.76-0.72,3.05-2.26,4.04
		c-1.71,1.1-4.68,1.66-8.84,1.66c-3.3,0-6.58-0.51-9.74-1.53c-3.18-1.02-5.88-2.27-8.02-3.71c-0.25-0.17-0.54-0.26-0.84-0.26
		c-0.12,0-0.24,0.01-0.36,0.04c-0.41,0.1-0.76,0.38-0.96,0.76l-4,7.6c-0.34,0.65-0.16,1.45,0.42,1.89c2.39,1.83,5.7,3.4,9.83,4.64
		c4.09,1.24,8.46,1.86,12.98,1.86c4.9,0,9.18-0.69,12.74-2.05c3.64-1.39,6.51-3.38,8.54-5.91c2.08-2.6,3.13-5.7,3.13-9.24
		c0-3.29-0.71-6-2.11-8.05C276.66,160.53,274.86,158.95,272.68,157.84z"/>
	<path class="st0" d="M318.82,175.08c-0.19-0.43-0.57-0.75-1.03-0.86c-0.11-0.03-0.23-0.04-0.35-0.04c-0.35,0-0.69,0.12-0.96,0.35
		c-1.74,1.45-3.88,2.15-6.54,2.15c-2.26,0-3.91-0.6-5.05-1.82c-1.16-1.24-1.75-3.11-1.75-5.58v-27.2h13.7c0.83,0,1.5-0.67,1.5-1.5
		v-7.9c0-0.83-0.67-1.5-1.5-1.5h-13.7v-10.1c0-0.83-0.67-1.5-1.5-1.5h-9.6c-0.83,0-1.5,0.67-1.5,1.5v10.1h-7.5
		c-0.83,0-1.5,0.67-1.5,1.5v7.9c0,0.83,0.67,1.5,1.5,1.5h7.5v27.6c0,5.73,1.63,10.23,4.85,13.37c3.21,3.14,7.73,4.73,13.45,4.73
		c2.33,0,4.61-0.32,6.77-0.96c2.23-0.66,4.18-1.7,5.81-3.1c0.5-0.43,0.66-1.13,0.4-1.73L318.82,175.08z"/>
	<path class="st0" d="M360.54,130.68c-5.3,0-9.85,1.04-13.53,3.09c-1.62,0.9-3.04,1.99-4.27,3.25v-4.34c0-0.83-0.67-1.5-1.5-1.5
		h-9.2c-0.83,0-1.5,0.67-1.5,1.5v53c0,0.83,0.67,1.5,1.5,1.5h9.6c0.83,0,1.5-0.67,1.5-1.5v-26.4c0-5.37,1.37-9.49,4.07-12.25
		c2.73-2.79,6.37-4.15,11.13-4.15h1.05c0.28,0,0.58,0.03,0.91,0.08c0.08,0.01,0.16,0.02,0.24,0.02c0.35,0,0.7-0.12,0.97-0.36
		c0.34-0.29,0.53-0.7,0.53-1.14v-9.3C362.04,131.35,361.37,130.68,360.54,130.68z M347.74,135.08c-0.4,0.22-0.78,0.46-1.15,0.7
		C346.96,135.54,347.34,135.3,347.74,135.08z M346.24,136.02c-0.25,0.17-0.5,0.35-0.74,0.54
		C345.75,136.38,345.99,136.2,346.24,136.02z M345.14,136.86c-0.22,0.18-0.44,0.37-0.65,0.57
		C344.7,137.23,344.91,137.04,345.14,136.86z M344.15,137.74c-0.24,0.23-0.46,0.47-0.68,0.71
		C343.69,138.2,343.92,137.97,344.15,137.74z M343.26,138.67c-0.28,0.32-0.55,0.66-0.81,1C342.71,139.33,342.97,139,343.26,138.67z
		 M341.49,141.15c-0.09,0.15-0.16,0.3-0.25,0.45v-0.03C341.32,141.42,341.41,141.29,341.49,141.15z M342.27,139.93
		c-0.19,0.27-0.37,0.54-0.55,0.82C341.9,140.47,342.08,140.2,342.27,139.93z"/>
	<path class="st0" d="M409.42,134.32c-4.37-2.41-9.38-3.64-14.88-3.64c-5.57,0-10.59,1.22-14.93,3.64
		c-4.35,2.42-7.83,5.82-10.36,10.1c-2.53,4.28-3.81,9.25-3.81,14.76c0,5.44,1.28,10.39,3.8,14.71c2.53,4.32,6.01,7.75,10.36,10.2
		c4.34,2.45,9.36,3.69,14.94,3.69c5.5,0,10.51-1.24,14.88-3.69c4.38-2.45,7.87-5.87,10.36-10.15c2.49-4.28,3.75-9.24,3.75-14.75
		c0-5.58-1.26-10.56-3.76-14.81C417.29,140.12,413.8,136.74,409.42,134.32z M402.95,174.27c-2.46,1.4-5.29,2.1-8.41,2.1
		c-3.12,0-5.93-0.71-8.35-2.1c-2.42-1.39-4.38-3.41-5.84-5.99c-1.46-2.59-2.21-5.66-2.21-9.11c0-3.52,0.74-6.58,2.2-9.1
		c1.46-2.52,3.43-4.51,5.85-5.9c2.42-1.39,5.23-2.1,8.35-2.1c3.12,0,5.95,0.71,8.41,2.1c2.44,1.39,4.39,3.36,5.78,5.87
		c1.4,2.53,2.11,5.6,2.11,9.12c0,3.46-0.71,6.54-2.12,9.14C407.33,170.88,405.39,172.89,402.95,174.27z"/>
	<path class="st0" d="M475.77,133.34c-3.5-1.77-7.58-2.66-12.13-2.66c-5.03,0-9.51,1.04-13.31,3.08c-1.59,0.86-3.03,1.86-4.29,3.01
		v-4.09c0-0.83-0.67-1.5-1.5-1.5h-9.2c-0.83,0-1.5,0.67-1.5,1.5v53c0,0.83,0.67,1.5,1.5,1.5h9.6c0.83,0,1.5-0.67,1.5-1.5v-27.3
		c0-3.6,0.63-6.63,1.88-9c1.23-2.35,2.94-4.07,5.22-5.27c2.31-1.21,5.07-1.83,8.2-1.83c4.15,0,7.24,1.13,9.47,3.44
		c2.21,2.3,3.33,5.85,3.33,10.56v29.4c0,0.83,0.67,1.5,1.5,1.5h9.6c0.83,0,1.5-0.67,1.5-1.5v-30.5c0-5.43-1-10.01-2.99-13.62
		C482.15,137.9,479.33,135.14,475.77,133.34z M449.34,136.11c-0.14,0.09-0.27,0.18-0.41,0.28
		C449.06,136.3,449.2,136.2,449.34,136.11z M447.43,137.54c-0.01,0.01-0.03,0.02-0.04,0.03
		C447.41,137.56,447.42,137.55,447.43,137.54z M446.04,138.89c-0.11,0.12-0.21,0.23-0.32,0.35
		C445.83,139.12,445.93,139,446.04,138.89z M444.59,140.63c-0.01,0.02-0.03,0.04-0.05,0.06v0
		C444.56,140.67,444.57,140.65,444.59,140.63z"/>
	<path class="st0" d="M539.49,134.28c-4.15-2.39-8.98-3.6-14.35-3.6c-5.31,0-10.15,1.23-14.39,3.65
		c-4.25,2.42-7.64,5.83-10.06,10.11c-2.42,4.28-3.64,9.23-3.64,14.74c0,5.51,1.26,10.48,3.75,14.75c2.49,4.29,6.05,7.71,10.58,10.16
		c4.5,2.44,9.77,3.68,15.67,3.68c4.58,0,8.79-0.78,12.52-2.31c3.77-1.55,6.97-3.84,9.52-6.81c0.48-0.56,0.48-1.39,0-1.95l-5.3-6.2
		c-0.28-0.33-0.69-0.52-1.12-0.53c-0.01,0-0.01,0-0.02,0c-0.42,0-0.83,0.18-1.11,0.49c-1.78,1.96-3.87,3.45-6.21,4.42
		c-2.37,0.99-5.05,1.49-7.97,1.49c-3.54,0-6.7-0.72-9.4-2.13c-2.67-1.39-4.77-3.37-6.25-5.88c-0.82-1.38-1.41-2.88-1.78-4.49h41.24
		c0.75,0,1.38-0.55,1.49-1.29c0.07-0.51,0.13-1.05,0.16-1.61c0.04-0.59,0.05-1.08,0.05-1.5c0-5.69-1.19-10.76-3.53-15.07
		C546.95,140.08,543.65,136.68,539.49,134.28z M516.99,143.83c2.36-1.36,5.1-2.05,8.15-2.05c3.11,0,5.87,0.69,8.19,2.05
		c2.32,1.35,4.16,3.26,5.49,5.68c0.75,1.37,1.29,2.87,1.6,4.48h-30.58c0.33-1.59,0.87-3.07,1.61-4.43
		C512.79,147.1,514.65,145.18,516.99,143.83z M540.81,150.16c-0.2-0.47-0.42-0.93-0.67-1.38
		C540.39,149.23,540.61,149.69,540.81,150.16z M542.15,155.45c-0.05-0.54-0.13-1.06-0.23-1.58
		C542.02,154.38,542.1,154.91,542.15,155.45z M541.85,153.49c-0.1-0.49-0.22-0.98-0.36-1.45
		C541.64,152.51,541.75,152.99,541.85,153.49z M541.47,151.96c-0.15-0.49-0.33-0.97-0.52-1.45
		C541.15,150.98,541.33,151.46,541.47,151.96z M509.48,150.2c0.2-0.47,0.42-0.93,0.66-1.37C509.9,149.27,509.69,149.73,509.48,150.2
		z M508.11,155.37c0.06-0.49,0.14-0.98,0.23-1.46C508.25,154.39,508.17,154.87,508.11,155.37z M508.42,153.52
		c0.11-0.51,0.24-1.02,0.39-1.51C508.66,152.5,508.53,153,508.42,153.52z M508.83,151.94c0.15-0.47,0.32-0.93,0.5-1.38
		C509.15,151.01,508.98,151.47,508.83,151.94z M510.39,169.13c-0.27-0.45-0.51-0.92-0.73-1.4
		C509.89,168.21,510.12,168.68,510.39,169.13z M508.14,162.54c0.07,0.48,0.15,0.95,0.25,1.42
		C508.29,163.49,508.2,163.02,508.14,162.54z M508.48,164.36c0.12,0.52,0.26,1.03,0.43,1.53
		C508.74,165.39,508.6,164.88,508.48,164.36z M508.95,166c0.16,0.46,0.34,0.92,0.54,1.36C509.3,166.92,509.11,166.46,508.95,166z"/>
	<path class="st0" d="M600.69,134.28c-4.15-2.39-8.98-3.6-14.35-3.6c-5.31,0-10.15,1.23-14.39,3.65
		c-4.25,2.42-7.64,5.83-10.06,10.11c-2.42,4.28-3.64,9.23-3.64,14.74c0,5.51,1.26,10.48,3.75,14.75c2.49,4.29,6.05,7.71,10.58,10.16
		c4.5,2.44,9.77,3.68,15.67,3.68c4.58,0,8.79-0.78,12.52-2.31c3.77-1.55,6.97-3.84,9.52-6.81c0.48-0.56,0.48-1.39,0-1.95l-5.3-6.2
		c-0.28-0.33-0.69-0.52-1.12-0.53c-0.01,0-0.01,0-0.02,0c-0.42,0-0.83,0.18-1.11,0.49c-1.78,1.96-3.87,3.45-6.21,4.42
		c-2.37,0.99-5.05,1.49-7.97,1.49c-3.54,0-6.7-0.72-9.4-2.13c-2.67-1.39-4.77-3.37-6.25-5.88c-0.82-1.38-1.41-2.88-1.78-4.49h41.24
		c0.75,0,1.38-0.55,1.49-1.29c0.07-0.51,0.13-1.05,0.16-1.61c0.04-0.59,0.05-1.08,0.05-1.5c0-5.69-1.19-10.76-3.53-15.07
		C608.15,140.08,604.85,136.68,600.69,134.28z M578.19,143.83c2.36-1.36,5.1-2.05,8.15-2.05c3.11,0,5.87,0.69,8.19,2.05
		c2.32,1.35,4.16,3.26,5.49,5.68c0.75,1.37,1.29,2.87,1.6,4.48h-30.58c0.33-1.59,0.87-3.07,1.61-4.43
		C573.98,147.1,575.85,145.18,578.19,143.83z M602.01,150.16c-0.2-0.47-0.42-0.93-0.67-1.38
		C601.59,149.23,601.81,149.69,602.01,150.16z M603.35,155.45c-0.05-0.54-0.13-1.06-0.23-1.58
		C603.22,154.38,603.3,154.91,603.35,155.45z M603.05,153.49c-0.1-0.49-0.22-0.98-0.36-1.45
		C602.83,152.51,602.95,152.99,603.05,153.49z M602.67,151.96c-0.15-0.49-0.33-0.97-0.52-1.45
		C602.35,150.98,602.52,151.46,602.67,151.96z M570.68,150.2c0.2-0.47,0.42-0.93,0.66-1.37C571.1,149.27,570.88,149.73,570.68,150.2
		z M569.3,155.37c0.06-0.49,0.14-0.98,0.23-1.46C569.45,154.39,569.36,154.87,569.3,155.37z M569.62,153.52
		c0.11-0.51,0.24-1.02,0.39-1.51C569.86,152.5,569.73,153,569.62,153.52z M570.03,151.94c0.15-0.47,0.32-0.93,0.5-1.38
		C570.35,151.01,570.18,151.47,570.03,151.94z M571.59,169.13c-0.27-0.45-0.51-0.92-0.73-1.4
		C571.09,168.21,571.32,168.68,571.59,169.13z M569.34,162.54c0.07,0.48,0.15,0.95,0.25,1.42
		C569.49,163.49,569.4,163.02,569.34,162.54z M569.68,164.36c0.12,0.52,0.26,1.03,0.43,1.53
		C569.94,165.39,569.8,164.88,569.68,164.36z M570.15,166c0.16,0.46,0.34,0.92,0.54,1.36C570.5,166.92,570.31,166.46,570.15,166z"/>
	<path class="st0" d="M654.34,130.68c-5.3,0-9.85,1.04-13.53,3.09c-1.62,0.9-3.04,1.99-4.27,3.25v-4.34c0-0.83-0.67-1.5-1.5-1.5
		h-9.2c-0.83,0-1.5,0.67-1.5,1.5v53c0,0.83,0.67,1.5,1.5,1.5h9.6c0.83,0,1.5-0.67,1.5-1.5v-26.4c0-5.37,1.37-9.49,4.07-12.25
		c2.73-2.79,6.37-4.15,11.13-4.15h1.05c0.28,0,0.58,0.03,0.91,0.08c0.08,0.01,0.16,0.02,0.24,0.02c0.35,0,0.7-0.12,0.97-0.36
		c0.34-0.29,0.53-0.7,0.53-1.14v-9.3C655.84,131.35,655.17,130.68,654.34,130.68z M641.54,135.08c-0.4,0.22-0.78,0.46-1.15,0.7
		C640.76,135.54,641.14,135.3,641.54,135.08z M640.04,136.02c-0.25,0.17-0.5,0.35-0.74,0.54
		C639.54,136.38,639.79,136.2,640.04,136.02z M638.94,136.86c-0.22,0.18-0.44,0.37-0.65,0.57
		C638.49,137.23,638.71,137.04,638.94,136.86z M637.95,137.74c-0.24,0.23-0.46,0.47-0.68,0.71
		C637.49,138.2,637.71,137.97,637.95,137.74z M637.06,138.67c-0.28,0.32-0.55,0.66-0.81,1C636.5,139.33,636.77,139,637.06,138.67z
		 M635.29,141.15c-0.09,0.15-0.16,0.3-0.25,0.45v-0.03C635.12,141.42,635.21,141.29,635.29,141.15z M636.07,139.93
		c-0.19,0.27-0.37,0.54-0.55,0.82C635.7,140.47,635.88,140.2,636.07,139.93z"/>
	<g>
		<path class="st0" d="M187.05,239.38c-1.8-0.92-3.78-1.68-5.9-2.26c-2.02-0.55-4.11-1.07-6.19-1.56c-1.98-0.46-3.82-1.04-5.45-1.71
			c-1.49-0.61-2.69-1.43-3.56-2.43c-0.8-0.91-1.18-2.15-1.18-3.77c0-1.43,0.37-2.68,1.13-3.82c0.76-1.13,1.98-2.07,3.64-2.79
			c1.74-0.75,4-1.13,6.73-1.13c1.92,0,3.94,0.3,6.02,0.9c2.06,0.59,4.01,1.51,5.81,2.73c0.25,0.17,0.55,0.26,0.84,0.26
			c0.13,0,0.27-0.02,0.4-0.05c0.42-0.12,0.78-0.42,0.96-0.82l1.25-2.71c0.3-0.65,0.1-1.42-0.48-1.85c-1.89-1.37-4.18-2.46-6.82-3.26
			c-2.62-0.79-5.31-1.19-7.99-1.19c-3.99,0-7.34,0.63-9.95,1.86c-2.68,1.27-4.69,2.97-5.98,5.05c-1.29,2.08-1.94,4.39-1.94,6.86
			c0,2.72,0.61,4.99,1.81,6.75c1.17,1.72,2.75,3.09,4.68,4.09c1.8,0.93,3.82,1.69,5.98,2.26c2.04,0.54,4.12,1.07,6.17,1.56
			c1.94,0.46,3.75,1.04,5.39,1.71c1.49,0.61,2.71,1.44,3.61,2.45c0.81,0.91,1.21,2.14,1.21,3.76c0,1.37-0.38,2.58-1.15,3.7
			c-0.78,1.12-2.02,2.04-3.7,2.74c-1.76,0.73-4.11,1.11-6.98,1.11c-2.87,0-5.62-0.53-8.18-1.57c-2.55-1.04-4.56-2.31-5.99-3.78
			c-0.28-0.29-0.67-0.45-1.08-0.45c-0.06,0-0.11,0-0.17,0.01c-0.46,0.05-0.87,0.32-1.11,0.71l-1.52,2.51
			c-0.34,0.57-0.27,1.29,0.17,1.78c1.83,2.02,4.41,3.67,7.67,4.92c3.21,1.23,6.67,1.85,10.27,1.85c4.03,0,7.4-0.61,10.03-1.82
			c2.7-1.24,4.75-2.94,6.09-5.05c1.34-2.11,2.02-4.41,2.02-6.84c0-2.68-0.63-4.92-1.86-6.67
			C190.56,241.73,188.98,240.37,187.05,239.38z"/>
		<path class="st0" d="M219.46,256.71c-0.23-0.39-0.62-0.65-1.07-0.71c-0.07-0.01-0.15-0.02-0.22-0.02c-0.37,0-0.73,0.14-1.01,0.39
			c-1.13,1.03-2.55,1.53-4.34,1.53c-1.65,0-2.84-0.43-3.65-1.3c-0.83-0.9-1.25-2.26-1.25-4.06v-20.68h9.46c0.83,0,1.5-0.67,1.5-1.5
			v-2.84c0-0.83-0.67-1.5-1.5-1.5h-9.46V220c0-0.83-0.67-1.5-1.5-1.5h-3.3c-0.83,0-1.5,0.67-1.5,1.5v6.02h-4.84
			c-0.83,0-1.5,0.67-1.5,1.5v2.84c0,0.83,0.67,1.5,1.5,1.5h4.84v21.01c0,3.29,0.95,5.95,2.83,7.9c1.89,1.97,4.6,2.97,8.04,2.97
			c1.47,0,2.92-0.22,4.31-0.66c1.47-0.46,2.74-1.2,3.78-2.19c0.51-0.48,0.61-1.26,0.25-1.86L219.46,256.71z"/>
		<path class="st0" d="M258.9,226.02h-3.3c-0.83,0-1.5,0.67-1.5,1.5v18.35c0,2.48-0.46,4.64-1.36,6.42
			c-0.89,1.75-2.12,3.07-3.77,4.03c-1.65,0.96-3.66,1.45-5.98,1.45c-3.22,0-5.61-0.85-7.31-2.58c-1.69-1.72-2.54-4.35-2.54-7.79
			v-19.87c0-0.83-0.67-1.5-1.5-1.5h-3.3c-0.83,0-1.5,0.67-1.5,1.5v20.13c0,3.45,0.65,6.41,1.93,8.79c1.31,2.45,3.2,4.3,5.63,5.52
			c2.35,1.18,5.16,1.77,8.33,1.77c3.54,0,6.65-0.87,9.24-2.59c0.82-0.55,1.58-1.16,2.26-1.84v2.67c0,0.83,0.67,1.5,1.5,1.5h3.17
			c0.83,0,1.5-0.67,1.5-1.5v-34.45C260.4,226.69,259.73,226.02,258.9,226.02z M254.93,256.05c-0.03,0.05-0.07,0.11-0.1,0.16
			C254.86,256.16,254.89,256.1,254.93,256.05z M252.44,258.9c0.07-0.06,0.13-0.11,0.2-0.17C252.57,258.8,252.5,258.85,252.44,258.9z
			 M253.9,257.44c-0.06,0.07-0.13,0.15-0.19,0.22C253.78,257.59,253.84,257.51,253.9,257.44z M255.68,254.71
			c0.02-0.04,0.04-0.07,0.05-0.1v0.01C255.71,254.64,255.69,254.67,255.68,254.71z"/>
		<path class="st0" d="M303.51,211.5h-3.3c-0.83,0-1.5,0.67-1.5,1.5v17.87c-1.06-1.09-2.26-2.03-3.59-2.8
			c-2.66-1.53-5.68-2.31-8.97-2.31c-3.46,0-6.63,0.81-9.42,2.41c-2.8,1.6-5.04,3.86-6.66,6.7c-1.62,2.83-2.44,6.16-2.44,9.89
			c0,3.68,0.82,6.99,2.44,9.85c1.62,2.86,3.86,5.13,6.66,6.73c2.79,1.6,5.96,2.41,9.42,2.41c3.33,0,6.37-0.78,9.03-2.31
			c1.33-0.77,2.53-1.71,3.59-2.82v3.37c0,0.83,0.67,1.5,1.5,1.5h3.23c0.83,0,1.5-0.67,1.5-1.5V213
			C305.01,212.17,304.34,211.5,303.51,211.5z M300.21,235.43L300.21,235.43c-0.01-0.02-0.02-0.04-0.03-0.06
			C300.19,235.39,300.2,235.41,300.21,235.43z M286.35,257.76c-2.36,0-4.5-0.54-6.34-1.61c-1.84-1.06-3.32-2.59-4.39-4.54
			c-1.08-1.96-1.63-4.28-1.63-6.87c0-2.63,0.55-4.95,1.63-6.89c1.09-1.96,2.52-3.43,4.39-4.51c1.85-1.07,3.98-1.61,6.34-1.61
			c2.36,0,4.49,0.54,6.34,1.61c1.87,1.08,3.3,2.56,4.39,4.51c1.08,1.94,1.63,4.26,1.63,6.89c0,2.59-0.55,4.9-1.63,6.87
			c-1.09,1.98-2.52,3.46-4.39,4.54C290.85,257.22,288.71,257.76,286.35,257.76z M300.21,254.05c0.02-0.04,0.04-0.09,0.07-0.13v0.01
			C300.26,253.97,300.24,254.01,300.21,254.05z"/>
		<path class="st0" d="M319.09,212.29c-1.14,0-2.17,0.43-2.98,1.23c-0.8,0.8-1.23,1.83-1.23,2.97c0,1.1,0.43,2.1,1.23,2.91
			c0.8,0.81,1.83,1.23,2.97,1.23c1.2,0,2.24-0.43,3.03-1.25c0.77-0.8,1.18-1.82,1.18-2.95c0-1.14-0.41-2.16-1.2-2.94
			S320.27,212.29,319.09,212.29z"/>
		<path class="st0" d="M320.74,226.02h-3.3c-0.83,0-1.5,0.67-1.5,1.5v34.45c0,0.83,0.67,1.5,1.5,1.5h3.3c0.83,0,1.5-0.67,1.5-1.5
			v-34.45C322.24,226.69,321.57,226.02,320.74,226.02z"/>
		<path class="st0" d="M364.41,234.93c-1.62-2.84-3.88-5.1-6.69-6.73c-2.82-1.62-6.04-2.44-9.59-2.44c-3.55,0-6.77,0.82-9.56,2.45
			c-2.79,1.62-5.04,3.88-6.68,6.71c-1.65,2.84-2.48,6.14-2.48,9.83c0,3.64,0.83,6.93,2.48,9.79c1.65,2.86,3.89,5.13,6.69,6.75
			c2.79,1.62,6.01,2.45,9.56,2.45c3.55,0,6.78-0.82,9.59-2.44c2.82-1.62,5.07-3.9,6.69-6.76c1.62-2.86,2.44-6.15,2.44-9.78
			C366.85,241.07,366.03,237.76,364.41,234.93z M348.13,257.76c-2.36,0-4.5-0.54-6.34-1.61c-1.87-1.08-3.3-2.56-4.39-4.54
			c-1.08-1.97-1.63-4.28-1.63-6.87c0-2.63,0.55-4.95,1.63-6.89c1.09-1.96,2.52-3.43,4.39-4.51c1.85-1.07,3.98-1.61,6.34-1.61
			c2.36,0,4.51,0.54,6.38,1.62c1.88,1.08,3.32,2.55,4.38,4.5c1.06,1.95,1.6,4.27,1.6,6.9c0,2.59-0.54,4.91-1.6,6.88
			c-1.06,1.97-2.49,3.45-4.38,4.52C352.64,257.22,350.49,257.76,348.13,257.76z"/>
	</g>
	<path class="st1" d="M316.12,36.48c0.06-0.03,0.11-0.07,0.17-0.1C316.23,36.42,316.17,36.45,316.12,36.48z"/>
	<path class="st2" d="M316.77,36.1c-0.16,0.09-0.32,0.19-0.48,0.29C316.45,36.29,316.61,36.2,316.77,36.1z"/>
	<path class="st0" d="M44.77,289.15c-44.94-77.83-19.01-177.09,57.72-223.19c0.07-0.04,0.14-0.07,0.2-0.1
		c0.2-0.12,0.39-0.25,0.58-0.37c2.52-1.68,4.07-4.29,4.54-7.11c0.01-0.04,0.01-0.09,0.02-0.13c0.09-0.56,0.13-1.13,0.13-1.7
		c0-0.28-0.02-0.56-0.04-0.84c-0.03-0.32-0.07-0.64-0.13-0.97c-0.08-0.44-0.18-0.89-0.32-1.32c-0.05-0.15-0.1-0.29-0.15-0.43
		c-0.2-0.56-0.44-1.1-0.74-1.63c-0.01-0.01-0.01-0.03-0.02-0.04c0-0.01-0.01-0.01-0.01-0.02s-0.01-0.01-0.01-0.02
		c-2.93-5.08-9.43-6.82-14.51-3.89C8.3,95.73-20.39,202.79,27.96,286.52c47.29,81.91,150.78,111.13,233.64,67.11
		C184.2,392.94,88.7,365.23,44.77,289.15z"/>
	<path class="st0" d="M77.32,27.88c0.51,0.88,1.27,1.5,2.13,1.87l0,0.01l26.13,10.58l3.71,1.5l0.24,0.1
		c2.15,0.85,4.05,2.4,5.29,4.56s1.64,4.58,1.3,6.86l-0.04,0.25l-0.75,5.38l-3.71,26.5l0.01,0c-0.11,0.93,0.05,1.9,0.55,2.78
		c0.01,0.03,0.03,0.04,0.05,0.07c0.57,0.94,1.43,1.59,2.4,1.92c0.74,0.25,1.54,0.29,2.32,0.14c0.47-0.09,0.93-0.23,1.36-0.48
		c0.19-0.11,0.35-0.24,0.51-0.37c0.26-0.2,0.48-0.44,0.69-0.68l36.01-43.38l17.82-21.47l10.34-12.45c0.01-0.01,0.02-0.02,0.03-0.03
		c0.01-0.01,0.02-0.03,0.03-0.04c1.13-1.4,1.37-3.39,0.42-5.04c-0.95-1.65-2.79-2.44-4.57-2.16c-0.01,0-0.03,0-0.05,0
		c-0.01,0-0.02,0.01-0.04,0.01L80.48,21.24c-0.32,0.05-0.63,0.13-0.94,0.25c-0.19,0.08-0.39,0.15-0.57,0.26
		c-0.43,0.25-0.79,0.58-1.1,0.94c-0.52,0.6-0.89,1.31-1.04,2.07c-0.2,1-0.07,2.08,0.46,3.04C77.3,27.82,77.31,27.85,77.32,27.88z"/>
	<path d="M177.61,169.68"/>
	<path class="st0" d="M233.42,185.06l-31.8-70c-0.24-0.54-0.78-0.88-1.37-0.88h-9.9c-0.59,0-1.12,0.34-1.37,0.88l-31.7,70
		c-0.21,0.46-0.17,1,0.11,1.43c0.28,0.43,0.75,0.69,1.26,0.69h10.3c0.6,0,1.13-0.35,1.37-0.9l7.3-16.6h35.26l7.3,16.6
		c0.24,0.54,0.78,0.9,1.37,0.9h10.5c0.51,0,0.98-0.26,1.26-0.69S233.64,185.52,233.42,185.06z M206.78,157.54
		c-0.08,0.22-0.2,0.42-0.37,0.57c-0.22,0.2-0.52,0.32-0.84,0.33c-0.01,0-0.02,0-0.02,0c-0.3,0-0.57-0.1-0.78-0.27l0,0l-6.16-4.81
		l-1.25-0.98l-0.06-0.05c-0.53-0.42-1.2-0.67-1.93-0.67c-0.73,0-1.4,0.25-1.93,0.67l-0.06,0.05l-0.92,0.72l-6.49,5.07l0,0
		c-0.22,0.16-0.49,0.27-0.78,0.27c-0.01,0-0.02,0-0.02,0c-0.32-0.01-0.61-0.13-0.84-0.33c-0.17-0.15-0.3-0.35-0.37-0.57
		c-0.05-0.13-0.08-0.27-0.08-0.41c0-0.06,0.01-0.12,0.02-0.18c0.01-0.1,0.04-0.19,0.07-0.27l10.19-27.53c0,0,0-0.01,0-0.01
		c0,0,0-0.01,0.01-0.01c0.19-0.49,0.66-0.84,1.21-0.84s1.03,0.35,1.21,0.84c0,0,0,0.01,0.01,0.01c0,0,0,0.01,0,0.01l1.64,4.43
		l2.83,7.65l5.72,15.45c0.03,0.09,0.06,0.18,0.07,0.27c0.01,0.06,0.02,0.12,0.02,0.18C206.86,157.27,206.83,157.41,206.78,157.54z"
		/>
</g>
</svg>
